<svg xmlns="http://www.w3.org/2000/svg" viewBox="0 0 32 32" fill="currentColor">
  <path d="M16 2C18.485 2 20.3472 2.83347 21.5986 3.9375C22.8079 5.00445 23.5 6.38295 23.5 7.5C23.5 8.05228 23.0523 8.5 22.5 8.5C21.9477 8.5 21.5 8.05228 21.5 7.5C21.5 7.11705 21.1912 6.24555 20.2754 5.4375C19.4018 4.66674 18.0146 4 16 4C13.9933 4 12.8958 4.6586 12.2949 5.30566C11.6576 5.99218 11.5 6.74773 11.5 7C11.5 7.71906 11.6583 8.25274 11.9014 8.6709C12.1473 9.09382 12.5117 9.45345 13 9.77246C14.0169 10.4368 15.4146 10.8377 17.0195 11.2871C18.5395 11.7127 20.267 12.1869 21.5938 13.0537C22.2772 13.5003 22.8895 14.0706 23.3271 14.8232C23.7676 15.5808 24 16.4693 24 17.5C24 18.5967 23.6403 19.504 23.0361 20.2188C22.8418 20.4486 22.6243 20.6509 22.3945 20.834C22.7332 21.1354 23.0385 21.4793 23.2891 21.8789C23.7528 22.6188 24 23.4904 24 24.5C23.9999 26.4294 22.9345 27.8492 21.4209 28.7373C19.9411 29.6054 17.9992 30 16 30C12.0058 30 9.00013 27.1084 9 23.5C9.00013 22.9478 9.44779 22.5 10 22.5C10.5522 22.5 10.9999 22.9478 11 23.5C11.0001 25.8914 12.9944 28 16 28C17.7747 28 19.3325 27.6443 20.4092 27.0127C21.4518 26.4009 21.9999 25.5703 22 24.5C22 23.8323 21.8408 23.3356 21.5938 22.9414C21.3415 22.5391 20.9628 22.1888 20.4473 21.874C19.3791 21.2218 17.9102 20.823 16.2471 20.3887C14.6668 19.976 12.8879 19.5264 11.5234 18.7227C10.8225 18.3097 10.1824 17.7778 9.71973 17.0654C9.25076 16.3432 9.00004 15.4898 9 14.5C9.00009 13.1931 9.75394 11.8731 11.3125 11.0068C10.8712 10.6389 10.4788 10.203 10.1729 9.67676C9.7324 8.91919 9.5 8.03075 9.5 7C9.5 6.25231 9.84262 5.00773 10.8301 3.94434C11.8543 2.84153 13.507 2 16 2ZM13.5371 12.2744C11.4413 12.8068 11.0001 13.9318 11 14.5C11 15.1348 11.1557 15.6032 11.3975 15.9756C11.6457 16.3578 12.0215 16.6941 12.5391 16.999C13.612 17.6311 15.0834 18.0171 16.7529 18.4531C17.9893 18.776 19.3436 19.1295 20.5293 19.665C20.9394 19.4557 21.2698 19.2104 21.5088 18.9277C21.8063 18.5758 22 18.1263 22 17.5C22 16.7809 21.8417 16.2473 21.5986 15.8291C21.3527 15.4062 20.9883 15.0466 20.5 14.7275C19.4831 14.0632 18.0854 13.6623 16.4805 13.2129C15.5309 12.947 14.5003 12.6621 13.5371 12.2744Z"/>
</svg>
