<svg width="209" height="174" viewBox="0 0 209 174" fill="none" xmlns="http://www.w3.org/2000/svg">
<rect x="1" y="1" width="206.209" height="72.9852" rx="7.64889" fill="#242424"/>
<rect x="1" y="1" width="206.209" height="72.9852" rx="7.64889" stroke="#7351FB" stroke-width="2"/>
<path fill-rule="evenodd" clip-rule="evenodd" d="M45.004 33.9803C45.3945 34.3708 45.3945 35.004 45.004 35.3945L31.004 49.3945C30.6135 49.785 29.9803 49.785 29.5898 49.3945L22.5898 42.3945C22.1992 42.004 22.1992 41.3708 22.5898 40.9803C22.9803 40.5897 23.6135 40.5897 24.004 40.9803L30.2969 47.2732L43.5898 33.9803C43.9803 33.5897 44.6135 33.5897 45.004 33.9803Z" fill="#7351FB"/>
<rect x="62.6309" y="20.2209" width="103.28" height="6.15363" rx="1.44148" fill="#4324C8"/>
<path fill-rule="evenodd" clip-rule="evenodd" d="M188.55 19.6576C188.697 19.804 188.697 20.0414 188.55 20.1879L181.8 26.9379C181.654 27.0843 181.416 27.0843 181.27 26.9379C181.124 26.7914 181.124 26.554 181.27 26.4076L188.02 19.6576C188.166 19.5111 188.404 19.5111 188.55 19.6576Z" fill="#7351FB"/>
<path fill-rule="evenodd" clip-rule="evenodd" d="M181.27 19.6576C181.416 19.5111 181.654 19.5111 181.8 19.6576L188.55 26.4076C188.697 26.554 188.697 26.7914 188.55 26.9379C188.404 27.0843 188.166 27.0843 188.02 26.9379L181.27 20.1879C181.124 20.0414 181.124 19.804 181.27 19.6576Z" fill="#7351FB"/>
<path fill-rule="evenodd" clip-rule="evenodd" d="M188.55 19.6576C188.697 19.804 188.697 20.0414 188.55 20.1879L181.8 26.9379C181.654 27.0843 181.416 27.0843 181.27 26.9379C181.124 26.7914 181.124 26.554 181.27 26.4076L188.02 19.6576C188.166 19.5111 188.404 19.5111 188.55 19.6576Z" stroke="#7351FB" stroke-linecap="round" stroke-linejoin="round"/>
<path fill-rule="evenodd" clip-rule="evenodd" d="M181.27 19.6576C181.416 19.5111 181.654 19.5111 181.8 19.6576L188.55 26.4076C188.697 26.554 188.697 26.7914 188.55 26.9379C188.404 27.0843 188.166 27.0843 188.02 26.9379L181.27 20.1879C181.124 20.0414 181.124 19.804 181.27 19.6576Z" stroke="#7351FB" stroke-linecap="round" stroke-linejoin="round"/>
<rect x="62.6309" y="42.6315" width="37.9568" height="15.056" rx="7.52798" fill="#7351FB"/>
<rect x="1" y="99.9852" width="206.209" height="72.9852" rx="7.64889" fill="#242424"/>
<rect x="1" y="99.9852" width="206.209" height="72.9852" rx="7.64889" stroke="#7351FB" stroke-width="2"/>
<path fill-rule="evenodd" clip-rule="evenodd" d="M43.004 126.771C43.3945 127.161 43.3945 127.794 43.004 128.185L25.004 146.185C24.6135 146.575 23.9803 146.575 23.5898 146.185C23.1992 145.794 23.1992 145.161 23.5898 144.771L41.5898 126.771C41.9803 126.38 42.6135 126.38 43.004 126.771Z" fill="#7351FB"/>
<path fill-rule="evenodd" clip-rule="evenodd" d="M23.5898 126.771C23.9803 126.38 24.6135 126.38 25.004 126.771L43.004 144.771C43.3945 145.161 43.3945 145.794 43.004 146.185C42.6135 146.575 41.9803 146.575 41.5898 146.185L23.5898 128.185C23.1992 127.794 23.1992 127.161 23.5898 126.771Z" fill="#7351FB"/>
<rect x="62.6309" y="119.206" width="103.28" height="6.15363" rx="1.44148" fill="#4324C8"/>
<path fill-rule="evenodd" clip-rule="evenodd" d="M188.55 118.643C188.697 118.789 188.697 119.027 188.55 119.173L181.8 125.923C181.654 126.07 181.416 126.07 181.27 125.923C181.124 125.777 181.124 125.539 181.27 125.393L188.02 118.643C188.166 118.496 188.404 118.496 188.55 118.643Z" fill="#7351FB"/>
<path fill-rule="evenodd" clip-rule="evenodd" d="M181.27 118.643C181.416 118.496 181.654 118.496 181.8 118.643L188.55 125.393C188.697 125.539 188.697 125.777 188.55 125.923C188.404 126.07 188.166 126.07 188.02 125.923L181.27 119.173C181.124 119.027 181.124 118.789 181.27 118.643Z" fill="#7351FB"/>
<path fill-rule="evenodd" clip-rule="evenodd" d="M188.55 118.643C188.697 118.789 188.697 119.027 188.55 119.173L181.8 125.923C181.654 126.07 181.416 126.07 181.27 125.923C181.124 125.777 181.124 125.539 181.27 125.393L188.02 118.643C188.166 118.496 188.404 118.496 188.55 118.643Z" stroke="#7351FB" stroke-linecap="round" stroke-linejoin="round"/>
<path fill-rule="evenodd" clip-rule="evenodd" d="M181.27 118.643C181.416 118.496 181.654 118.496 181.8 118.643L188.55 125.393C188.697 125.539 188.697 125.777 188.55 125.923C188.404 126.07 188.166 126.07 188.02 125.923L181.27 119.173C181.124 119.027 181.124 118.789 181.27 118.643Z" stroke="#7351FB" stroke-linecap="round" stroke-linejoin="round"/>
<rect x="62.6309" y="141.617" width="37.9568" height="15.056" rx="7.52798" fill="#7351FB"/>
</svg>
