<svg width="235" height="158" viewBox="0 0 235 158" fill="none" xmlns="http://www.w3.org/2000/svg">
<path d="M233.166 1V65.5957H1V1H233.166Z" fill="#242424"/>
<path d="M233.166 1V65.5957H1V1H233.166Z" stroke="#7351FB" stroke-width="2"/>
<path fill-rule="evenodd" clip-rule="evenodd" d="M33.2969 22.2977C27.2217 22.2977 22.2969 27.2226 22.2969 33.2977C22.2969 39.3729 27.2217 44.2977 33.2969 44.2977C39.372 44.2977 44.2969 39.3729 44.2969 33.2977C44.2969 27.2226 39.372 22.2977 33.2969 22.2977ZM20.2969 33.2977C20.2969 26.118 26.1172 20.2977 33.2969 20.2977C40.4766 20.2977 46.2969 26.118 46.2969 33.2977C46.2969 40.4774 40.4766 46.2977 33.2969 46.2977C26.1172 46.2977 20.2969 40.4774 20.2969 33.2977Z" fill="#7351FB"/>
<path fill-rule="evenodd" clip-rule="evenodd" d="M31.2969 32.2977C31.2969 31.7454 31.7446 31.2977 32.2969 31.2977H33.2969C33.8492 31.2977 34.2969 31.7454 34.2969 32.2977V38.2977C34.8492 38.2977 35.2969 38.7454 35.2969 39.2977C35.2969 39.85 34.8492 40.2977 34.2969 40.2977H33.2969C32.7446 40.2977 32.2969 39.85 32.2969 39.2977V33.2977C31.7446 33.2977 31.2969 32.85 31.2969 32.2977Z" fill="#7351FB"/>
<path d="M33.0469 29.2977C33.8753 29.2977 34.5469 28.6262 34.5469 27.7977C34.5469 26.9693 33.8753 26.2977 33.0469 26.2977C32.2184 26.2977 31.5469 26.9693 31.5469 27.7977C31.5469 28.6262 32.2184 29.2977 33.0469 29.2977Z" fill="#7351FB"/>
<rect x="62.6309" y="30.2209" width="103.28" height="6.15363" rx="1.44148" fill="#4324C8"/>
<rect x="178.91" y="25.7698" width="37.9568" height="15.056" rx="7.52798" fill="#7351FB"/>
<path d="M233.166 91.5956V156.191H1V91.5956H233.166Z" fill="#242424"/>
<path d="M233.166 91.5956V156.191H1V91.5956H233.166Z" stroke="#7351FB" stroke-width="2"/>
<path fill-rule="evenodd" clip-rule="evenodd" d="M45.004 116.186C45.3945 116.577 45.3945 117.21 45.004 117.6L31.004 131.6C30.6135 131.991 29.9803 131.991 29.5898 131.6L22.5898 124.6C22.1992 124.21 22.1992 123.577 22.5898 123.186C22.9803 122.796 23.6135 122.796 24.004 123.186L30.2969 129.479L43.5898 116.186C43.9803 115.796 44.6135 115.796 45.004 116.186Z" fill="#7351FB"/>
<rect x="62.6309" y="120.817" width="103.28" height="6.15363" rx="1.44148" fill="#4324C8"/>
<rect x="178.91" y="116.365" width="37.9568" height="15.056" rx="7.52798" fill="#7351FB"/>
</svg>
