<svg width="304" height="240" viewBox="0 0 304 240" fill="none" xmlns="http://www.w3.org/2000/svg">
<path d="M14.0812 -32L14.0812 272M32.5321 -32L32.532 272M50.983 -32L50.983 272M69.4339 -32L69.4339 272M87.8848 -32L87.8848 272M106.336 -32L106.336 272M124.787 -32L124.787 272M143.238 -32L143.238 272M161.688 -32L161.688 272M180.139 -32L180.139 272M198.59 -32L198.59 272M217.041 -32L217.041 272M235.492 -32V272M253.943 -32V272M272.394 -32V272M290.845 -32V272M304 0.531283L0.00020684 0.531254M304 -17.9817L0.00020684 -17.9817M304 18.9832L0 18.9832M304 37.4341L0 37.434M304 55.8849L0 55.8849M304 74.3358L0 74.3357M304 92.787L0 92.787M304 111.237L0 111.237M304 129.689L0 129.689M304 148.14L0 148.14M304 166.59L0 166.59M304 185.041L0 185.041M304 203.493L0 203.493M304 221.943L0 221.943M304 240.395L0.00020684 240.394M304 258.211L0.00020684 258.211" stroke="#EBE6FE" stroke-width="1.09293"/>
</svg>
