<svg width="240" height="40" viewBox="0 0 240 40" fill="none" xmlns="http://www.w3.org/2000/svg">
<path d="M69.7949 18.3265C69.7949 17.222 70.6904 16.3265 71.7949 16.3265H137.591C138.695 16.3265 139.591 17.222 139.591 18.3265V21.6735C139.591 22.778 138.695 23.6735 137.591 23.6735H71.7949C70.6904 23.6735 69.7949 22.778 69.7949 21.6735V18.3265Z" fill="#7351FB"/>
<path d="M170.205 18.3265C170.205 17.222 171.101 16.3265 172.205 16.3265H238.001C239.106 16.3265 240.001 17.222 240.001 18.3265V21.6735C240.001 22.778 239.106 23.6735 238.001 23.6735H172.205C171.101 23.6735 170.205 22.778 170.205 21.6735V18.3265Z" fill="#7351FB"/>
<path d="M151.491 33.869C150.668 33.6483 150.179 32.8016 150.4 31.9779L157.003 7.33294C157.224 6.50923 158.071 6.02041 158.894 6.24112C159.718 6.46183 160.207 7.3085 159.986 8.13221L153.383 32.7772C153.162 33.6009 152.315 34.0897 151.491 33.869Z" fill="#7351FB"/>
<path d="M51.0833 33.869C50.2595 33.6483 49.7707 32.8016 49.9914 31.9779L56.595 7.33294C56.8157 6.50923 57.6624 6.02041 58.4861 6.24112C59.3098 6.46183 59.7986 7.3085 59.5779 8.13221L52.9743 32.7772C52.7536 33.6009 51.907 34.0897 51.0833 33.869Z" fill="#7351FB"/>
<path fill-rule="evenodd" clip-rule="evenodd" d="M17.9411 5.15106C18.3923 4.73907 18.9812 4.51062 19.5923 4.51062C20.2034 4.51062 20.7924 4.73907 21.2436 5.15105L21.2454 5.1527L33.4873 16.2775L33.5045 16.2935C33.7465 16.522 33.9403 16.7967 34.0745 17.1012C34.2087 17.4058 34.2807 17.7342 34.286 18.067L34.2862 18.0868V32.2449C34.2862 32.8944 34.0282 33.5173 33.5689 33.9766C33.1096 34.4359 32.4867 34.6939 31.8372 34.6939H24.4903C23.8408 34.6939 23.2179 34.4359 22.7586 33.9766C22.2993 33.5173 22.0413 32.8944 22.0413 32.2449V24.898H17.1433V32.2449C17.1433 32.8944 16.8853 33.5173 16.426 33.9766C15.9668 34.4359 15.3439 34.6939 14.6944 34.6939H7.34742C6.69791 34.6939 6.075 34.4359 5.61573 33.9766C5.15645 33.5173 4.89844 32.8944 4.89844 32.2449V18.0868L4.8986 18.067C4.90398 17.7342 4.9759 17.4058 5.11012 17.1012C5.24434 16.7967 5.43815 16.522 5.68013 16.2935L5.69737 16.2775L17.9393 5.1527L17.9411 5.15106ZM7.35902 18.0766L19.5893 6.96235L19.5923 6.9596L19.5953 6.96235L31.8256 18.0766C31.8289 18.0802 31.8315 18.0843 31.8335 18.0888C31.8355 18.0934 31.8368 18.0984 31.8372 18.1034V32.2449H24.4903V24.898C24.4903 24.2485 24.2323 23.6256 23.773 23.1663C23.3137 22.707 22.6908 22.449 22.0413 22.449H17.1433C16.4938 22.449 15.8709 22.707 15.4116 23.1663C14.9524 23.6256 14.6944 24.2485 14.6944 24.898V32.2449H7.34742V18.1034C7.34785 18.0984 7.34911 18.0934 7.35115 18.0888C7.35312 18.0843 7.35577 18.0802 7.35902 18.0766Z" fill="#7351FB"/>
</svg>
