<svg width="113" height="54" viewBox="0 0 113 54" fill="none" xmlns="http://www.w3.org/2000/svg">
<path d="M0 26.6151C0 11.916 11.916 0 26.6151 0H85.8453C100.544 0 112.46 11.916 112.46 26.6151C112.46 41.3142 100.544 53.2302 85.8453 53.2302H26.6151C11.916 53.2302 0 41.3142 0 26.6151Z" fill="#7351FB"/>
<path d="M27.7453 33.115V19.3441H33.0766C35.3586 19.3441 36.9914 20.7212 36.9914 22.7278C36.9914 24.1836 35.9488 25.364 34.8471 25.6984C36.3225 25.9935 37.6209 27.4099 37.6209 29.1411C37.6209 31.5018 35.7127 33.115 33.0962 33.115H27.7453ZM29.5551 31.5608H32.9585C34.611 31.5608 35.8307 30.5182 35.8307 29.0624C35.8307 27.6066 34.611 26.564 32.9585 26.564H29.5551V31.5608ZM29.5551 25.0295H32.8405C34.1979 25.0295 35.2602 24.1836 35.2602 22.9639C35.2602 21.7442 34.1979 20.8983 32.8405 20.8983H29.5551V25.0295ZM43.251 33.2724C41.1657 33.2724 39.5919 31.974 39.5919 29.5149V23.2H41.2641V29.3182C41.2641 30.9117 42.169 31.7969 43.5658 31.7969C45.533 31.7969 46.7527 30.1051 46.7527 27.4493V23.2H48.4446V33.115H46.7527V31.3248C46.1232 32.4658 44.8838 33.2724 43.251 33.2724ZM54.6037 33.2724C52.9118 33.2724 51.6725 32.21 51.6725 30.1838V24.5967H49.9806V23.2H51.6725V20.6819H53.3446V23.2H55.8627V24.5967H53.3446V30.0461C53.3446 31.2067 53.9348 31.7772 54.8004 31.7772C55.1742 31.7772 55.5873 31.6986 55.9217 31.5805V33.0166C55.548 33.1937 55.0561 33.2724 54.6037 33.2724ZM61.078 33.2724C59.3861 33.2724 58.1468 32.21 58.1468 30.1838V24.5967H56.4549V23.2H58.1468V20.6819H59.8189V23.2H62.337V24.5967H59.8189V30.0461C59.8189 31.2067 60.4091 31.7772 61.2747 31.7772C61.6485 31.7772 62.0616 31.6986 62.3961 31.5805V33.0166C62.0223 33.1937 61.5305 33.2724 61.078 33.2724ZM68.2651 33.2724C65.3536 33.2724 63.2486 31.1477 63.2486 28.1575C63.2486 25.1672 65.3536 23.0426 68.2651 23.0426C71.1767 23.0426 73.2816 25.1672 73.2816 28.1575C73.2816 31.1477 71.157 33.2724 68.2651 33.2724ZM64.9601 28.1575C64.9601 30.3018 66.3372 31.7969 68.2651 31.7969C70.193 31.7969 71.5701 30.3018 71.5701 28.1575C71.5701 25.9935 70.193 24.4984 68.2651 24.4984C66.3372 24.4984 64.9601 25.9935 64.9601 28.1575ZM75.3282 33.115V23.2H77.0004V24.9115C77.6102 23.8885 78.8693 23.0426 80.5218 23.0426C82.6071 23.0426 84.2006 24.341 84.2006 26.623V33.115H82.5087V26.9968C82.5087 25.4033 81.6038 24.518 80.1874 24.518C78.2398 24.518 77.0004 26.2099 77.0004 28.8657V33.115H75.3282Z" fill="white"/>
</svg>
