<svg width="109" height="52" viewBox="0 0 109 52" fill="none" xmlns="http://www.w3.org/2000/svg">
<path d="M0.730469 26.2302C0.730469 12.147 12.1472 0.730225 26.2305 0.730225H83.2305C97.3137 0.730225 108.73 12.147 108.73 26.2302C108.73 40.3135 97.3137 51.7302 83.2305 51.7302H26.2305C12.1472 51.7302 0.730469 40.3135 0.730469 26.2302Z" fill="#7351FB"/>
<path d="M26.2453 33.7302V19.9594H31.5766C33.8586 19.9594 35.4914 21.3364 35.4914 23.3431C35.4914 24.7988 34.4488 25.9792 33.3471 26.3136C34.8225 26.6087 36.1209 28.0252 36.1209 29.7563C36.1209 32.1171 34.2127 33.7302 31.5962 33.7302H26.2453ZM28.0551 32.1761H31.4585C33.111 32.1761 34.3307 31.1334 34.3307 29.6777C34.3307 28.2219 33.111 27.1792 31.4585 27.1792H28.0551V32.1761ZM28.0551 25.6448H31.3405C32.6979 25.6448 33.7602 24.7988 33.7602 23.5791C33.7602 22.3594 32.6979 21.5135 31.3405 21.5135H28.0551V25.6448ZM41.751 33.8876C39.6657 33.8876 38.0919 32.5892 38.0919 30.1301V23.8152H39.7641V29.9334C39.7641 31.5269 40.669 32.4122 42.0658 32.4122C44.033 32.4122 45.2527 30.7203 45.2527 28.0645V23.8152H46.9446V33.7302H45.2527V31.94C44.6232 33.081 43.3838 33.8876 41.751 33.8876ZM53.1037 33.8876C51.4118 33.8876 50.1725 32.8253 50.1725 30.799V25.212H48.4806V23.8152H50.1725V21.2971H51.8446V23.8152H54.3627V25.212H51.8446V30.6613C51.8446 31.822 52.4348 32.3925 53.3004 32.3925C53.6742 32.3925 54.0873 32.3138 54.4217 32.1958V33.6319C54.048 33.8089 53.5561 33.8876 53.1037 33.8876ZM59.578 33.8876C57.8861 33.8876 56.6468 32.8253 56.6468 30.799V25.212H54.9549V23.8152H56.6468V21.2971H58.3189V23.8152H60.837V25.212H58.3189V30.6613C58.3189 31.822 58.9091 32.3925 59.7747 32.3925C60.1485 32.3925 60.5616 32.3138 60.8961 32.1958V33.6319C60.5223 33.8089 60.0305 33.8876 59.578 33.8876ZM66.7651 33.8876C63.8536 33.8876 61.7486 31.763 61.7486 28.7727C61.7486 25.7825 63.8536 23.6578 66.7651 23.6578C69.6767 23.6578 71.7816 25.7825 71.7816 28.7727C71.7816 31.763 69.657 33.8876 66.7651 33.8876ZM63.4601 28.7727C63.4601 30.917 64.8372 32.4122 66.7651 32.4122C68.693 32.4122 70.0701 30.917 70.0701 28.7727C70.0701 26.6087 68.693 25.1136 66.7651 25.1136C64.8372 25.1136 63.4601 26.6087 63.4601 28.7727ZM73.8282 33.7302V23.8152H75.5004V25.5267C76.1102 24.5037 77.3693 23.6578 79.0218 23.6578C81.1071 23.6578 82.7006 24.9562 82.7006 27.2382V33.7302H81.0087V27.612C81.0087 26.0185 80.1038 25.1333 78.6874 25.1333C76.7398 25.1333 75.5004 26.8251 75.5004 29.4809V33.7302H73.8282Z" fill="white"/>
</svg>
