<svg width="114" height="129" viewBox="0 0 114 129" fill="none" xmlns="http://www.w3.org/2000/svg">
<g clip-path="url(#clip0_1262_5500)">
<rect width="113.262" height="128.222" rx="10.2577" fill="#242424"/>
<rect x="8.01562" y="108.203" width="30.3654" height="12.0448" rx="6.02238" fill="#7351FB"/>
<rect x="7.69336" y="71.2231" width="58.8434" height="3.41924" rx="0.854811" fill="#4324C8"/>
<rect x="7.69336" y="91.6184" width="58.8434" height="3.41924" rx="0.854811" fill="#4324C8"/>
<rect x="7.69336" y="81.4208" width="36.4198" height="3.41924" rx="0.854811" fill="#4324C8"/>
<g clip-path="url(#clip1_1262_5500)">
<rect width="115.827" height="62.8286" transform="translate(0 -2.99182)" fill="#4324C8"/>
<circle cx="64.7337" cy="29.7829" r="8.26304" fill="#7351FB"/>
<path d="M110.611 59.8038H2.33072C1.38652 59.8038 0.621094 59.0384 0.621094 58.0942V52.454C0.621094 51.9882 0.811206 51.5425 1.14746 51.2201L25.3417 28.0202C25.888 27.4964 26.7137 27.3941 27.3713 27.7687L65.0406 49.2305C65.6665 49.5871 66.4488 49.5131 66.9967 49.0455L84.2865 34.2915C84.8859 33.7801 85.7572 33.7445 86.3963 34.2054L111.611 52.3888C112.056 52.7101 112.32 53.2261 112.32 53.7755V58.0942C112.32 59.0384 111.555 59.8038 110.611 59.8038Z" fill="#7351FB"/>
</g>
</g>
<rect x="1" y="1" width="111.262" height="126.222" rx="9.25773" stroke="#7351FB" stroke-width="2"/>
<defs>
<clipPath id="clip0_1262_5500">
<rect width="113.262" height="128.222" rx="10.2577" fill="white"/>
</clipPath>
<clipPath id="clip1_1262_5500">
<rect width="115.827" height="62.8286" fill="white" transform="translate(0 -2.99182)"/>
</clipPath>
</defs>
</svg>
