<svg width="130" height="108" viewBox="0 0 130 108" fill="none" xmlns="http://www.w3.org/2000/svg">
<rect x="1" y="1" width="127.092" height="105.252" rx="9.42126" fill="white"/>
<rect x="1" y="1" width="127.092" height="105.252" rx="9.42126" stroke="#7351FB" stroke-width="2"/>
<rect x="20.8423" y="20.8425" width="15.1977" height="15.1977" rx="3.47375" fill="#7351FB"/>
<path d="M32.1943 25.2827C32.4261 25.1299 32.7414 25.1559 32.9453 25.3599L33.0215 25.4536C33.1524 25.6521 33.1524 25.9113 33.0215 26.1099L32.9453 26.2036L27.626 31.5229C27.422 31.7269 27.1067 31.753 26.875 31.6001L26.7812 31.5229L24.1221 28.8638C23.8889 28.6306 23.8889 28.2522 24.1221 28.019L24.2158 27.9429C24.4475 27.79 24.7618 27.8153 24.9658 28.019L27.2031 30.2554L32.1006 25.3599L32.1943 25.2827Z" fill="white" stroke="white" stroke-width="0.434219" stroke-linecap="round" stroke-linejoin="round"/>
<rect x="46.0269" y="25.8359" width="62.2218" height="5.21063" rx="1.73688" fill="#EBE6FE"/>
<rect x="22.1449" y="47.3298" width="12.5924" height="12.5924" rx="2.17109" stroke="#EBE6FE" stroke-width="2.60531"/>
<path d="M46.0269 52.7576C46.0269 51.7984 46.8045 51.0208 47.7637 51.0208H106.512C107.471 51.0208 108.249 51.7984 108.249 52.7576V54.4945C108.249 55.4538 107.471 56.2314 106.512 56.2314H47.7637C46.8045 56.2314 46.0269 55.4538 46.0269 54.4945V52.7576Z" fill="#EBE6FE"/>
<rect x="20.8423" y="71.2119" width="15.1977" height="15.1977" rx="3.47375" fill="#7351FB"/>
<path d="M32.1943 75.6521C32.4261 75.4993 32.7414 75.5253 32.9453 75.7292L33.0215 75.823C33.1524 76.0215 33.1524 76.2807 33.0215 76.4792L32.9453 76.573L27.626 81.8923C27.422 82.0963 27.1067 82.1224 26.875 81.9695L26.7812 81.8923L24.1221 79.2332C23.8889 79 23.8889 78.6216 24.1221 78.3884L24.2158 78.3123C24.4475 78.1594 24.7618 78.1847 24.9658 78.3884L27.2031 80.6248L32.1006 75.7292L32.1943 75.6521Z" fill="white" stroke="white" stroke-width="0.434219" stroke-linecap="round" stroke-linejoin="round"/>
<rect x="46.0269" y="76.2053" width="62.2218" height="5.21063" rx="1.73688" fill="#EBE6FE"/>
</svg>
