<svg width="171" height="53" viewBox="0 0 171 53" fill="none" xmlns="http://www.w3.org/2000/svg">
<path d="M72.3633 17.4058C72.3633 15.0361 74.2843 13.1151 76.654 13.1151H94.3028C96.6725 13.1151 98.5935 15.0361 98.5935 17.4058V35.0546C98.5935 37.4243 96.6725 39.3453 94.3028 39.3453H76.654C74.2843 39.3453 72.3633 37.4243 72.3633 35.0546V17.4058Z" fill="#7351FB"/>
<path fill-rule="evenodd" clip-rule="evenodd" d="M95.0738 19.9126C95.3939 20.2327 95.3939 20.7517 95.0738 21.0718L83.5981 32.5475C83.278 32.8676 82.759 32.8676 82.4389 32.5475L76.701 26.8097C76.3809 26.4895 76.3809 25.9705 76.701 25.6504C77.0211 25.3303 77.5401 25.3303 77.8602 25.6504L83.0185 30.8087L93.9146 19.9126C94.2347 19.5925 94.7537 19.5925 95.0738 19.9126Z" fill="white"/>
<path d="M17.4062 14.2079H35.0547C36.8208 14.2079 38.2529 15.6401 38.2529 17.4061V35.0546C38.2529 36.8206 36.8208 38.2528 35.0547 38.2528H17.4062C15.6402 38.2528 14.208 36.8206 14.208 35.0546V17.4061C14.208 15.6401 15.6402 14.2079 17.4062 14.2079Z" fill="#242424"/>
<path d="M17.4062 14.2079H35.0547C36.8208 14.2079 38.2529 15.6401 38.2529 17.4061V35.0546C38.2529 36.8206 36.8208 38.2528 35.0547 38.2528H17.4062C15.6402 38.2528 14.208 36.8206 14.208 35.0546V17.4061C14.208 15.6401 15.6402 14.2079 17.4062 14.2079Z" stroke="#767676" stroke-width="2.18585"/>
<path d="M131.611 17.4058C131.611 15.0361 133.532 13.1151 135.902 13.1151H153.551C155.921 13.1151 157.842 15.0361 157.842 17.4058V35.0546C157.842 37.4243 155.921 39.3453 153.551 39.3453H135.902C133.532 39.3453 131.611 37.4243 131.611 35.0546V17.4058Z" fill="#7351FB"/>
<path fill-rule="evenodd" clip-rule="evenodd" d="M134.891 26.2301C134.891 25.7774 135.258 25.4104 135.71 25.4104H153.744C154.196 25.4104 154.563 25.7774 154.563 26.2301C154.563 26.6828 154.196 27.0498 153.744 27.0498H135.71C135.258 27.0498 134.891 26.6828 134.891 26.2301Z" fill="white"/>
</svg>
