<svg width="171" height="53" viewBox="0 0 171 53" fill="none" xmlns="http://www.w3.org/2000/svg">
<path d="M72.3633 17.4058C72.3633 15.0361 74.2843 13.1151 76.654 13.1151H94.3028C96.6725 13.1151 98.5935 15.0361 98.5935 17.4058V35.0546C98.5935 37.4243 96.6725 39.3453 94.3028 39.3453H76.654C74.2843 39.3453 72.3633 37.4243 72.3633 35.0546V17.4058Z" fill="#7351FB"/>
<path fill-rule="evenodd" clip-rule="evenodd" d="M95.0748 19.9128C95.3949 20.2329 95.3949 20.7519 95.0748 21.072L83.5991 32.5478C83.279 32.8679 82.76 32.8679 82.4399 32.5478L76.702 26.8099C76.3819 26.4898 76.3819 25.9708 76.702 25.6507C77.0221 25.3306 77.5411 25.3306 77.8612 25.6507L83.0195 30.8089L93.9156 19.9128C94.2357 19.5927 94.7547 19.5927 95.0748 19.9128Z" fill="white"/>
<path d="M17.4062 14.2079H35.0547C36.8208 14.2079 38.2529 15.6401 38.2529 17.4061V35.0546C38.2529 36.8206 36.8208 38.2528 35.0547 38.2528H17.4062C15.6402 38.2528 14.208 36.8206 14.208 35.0546V17.4061C14.208 15.6401 15.6402 14.2079 17.4062 14.2079Z" fill="white"/>
<path d="M17.4062 14.2079H35.0547C36.8208 14.2079 38.2529 15.6401 38.2529 17.4061V35.0546C38.2529 36.8206 36.8208 38.2528 35.0547 38.2528H17.4062C15.6402 38.2528 14.208 36.8206 14.208 35.0546V17.4061C14.208 15.6401 15.6402 14.2079 17.4062 14.2079Z" stroke="#737373" stroke-width="2.18585"/>
<path d="M131.611 17.4058C131.611 15.0361 133.532 13.1151 135.902 13.1151H153.551C155.921 13.1151 157.842 15.0361 157.842 17.4058V35.0546C157.842 37.4243 155.921 39.3453 153.551 39.3453H135.902C133.532 39.3453 131.611 37.4243 131.611 35.0546V17.4058Z" fill="#7351FB"/>
<path fill-rule="evenodd" clip-rule="evenodd" d="M134.89 26.2303C134.89 25.7776 135.257 25.4106 135.709 25.4106H153.743C154.195 25.4106 154.562 25.7776 154.562 26.2303C154.562 26.683 154.195 27.05 153.743 27.05H135.709C135.257 27.05 134.89 26.683 134.89 26.2303Z" fill="white"/>
</svg>
