<svg width="129" height="148" viewBox="0 0 129 148" fill="none" xmlns="http://www.w3.org/2000/svg">
<rect x="1" y="1" width="127" height="30" rx="9" fill="#EBE6FE"/>
<rect x="1" y="1" width="127" height="30" rx="9" stroke="#7351FB" stroke-width="2"/>
<path d="M35.9305 23.1599C34.9438 23.1599 34.0572 22.9399 33.2705 22.4999C32.4838 22.0466 31.8705 21.4266 31.4305 20.6399C30.9905 19.8399 30.7705 18.9399 30.7705 17.9399C30.7705 16.9532 30.9905 16.0666 31.4305 15.2799C31.8705 14.4932 32.4772 13.8799 33.2505 13.4399C34.0372 12.9866 34.9238 12.7599 35.9105 12.7599C37.2705 12.7599 38.3705 13.1066 39.2105 13.7999C40.0505 14.4932 40.5438 15.4399 40.6905 16.6399H38.1505C38.0438 16.1199 37.7905 15.7066 37.3905 15.3999C36.9905 15.0799 36.5038 14.9199 35.9305 14.9199C35.1838 14.9199 34.5638 15.1999 34.0705 15.7599C33.5772 16.3199 33.3305 17.0466 33.3305 17.9399C33.3305 18.8332 33.5772 19.5666 34.0705 20.1399C34.5638 20.7132 35.1838 20.9999 35.9305 20.9999C36.5305 20.9999 37.0372 20.8466 37.4505 20.5399C37.8638 20.2332 38.1172 19.8132 38.2105 19.2799H40.7505C40.6438 19.9999 40.3772 20.6599 39.9505 21.2599C39.5238 21.8466 38.9638 22.3132 38.2705 22.6599C37.5772 22.9932 36.7972 23.1599 35.9305 23.1599Z" fill="#7351FB"/>
<path d="M24.6254 23.16C23.9854 23.16 23.3854 23.0333 22.8254 22.78C22.2654 22.5133 21.8454 22.1666 21.5654 21.74V23H19.0254V8.83997H21.5654V14.16C21.8454 13.7333 22.2654 13.3933 22.8254 13.14C23.3854 12.8866 23.9854 12.76 24.6254 12.76C25.6121 12.76 26.4787 12.9733 27.2254 13.4C27.9721 13.8266 28.5521 14.4333 28.9654 15.22C29.3787 15.9933 29.5854 16.9066 29.5854 17.96C29.5854 19.0133 29.3787 19.9333 28.9654 20.72C28.5521 21.4933 27.9721 22.0933 27.2254 22.52C26.4787 22.9466 25.6121 23.16 24.6254 23.16ZM24.2854 20.98C25.0854 20.98 25.7387 20.7 26.2454 20.14C26.7654 19.58 27.0254 18.8533 27.0254 17.96C27.0254 17.0533 26.7654 16.32 26.2454 15.76C25.7387 15.2 25.0854 14.92 24.2854 14.92C23.4854 14.92 22.8321 15.2 22.3254 15.76C21.8187 16.32 21.5654 17.0533 21.5654 17.96C21.5654 18.8533 21.8187 19.58 22.3254 20.14C22.8321 20.7 23.4854 20.98 24.2854 20.98Z" fill="#7351FB"/>
<path d="M11.5 23.1599C10.4467 23.1599 9.6 22.8866 8.96 22.3399C8.32 21.7932 8 21.0799 8 20.1999C8 19.1999 8.35333 18.4332 9.06 17.8999C9.78 17.3532 10.9 16.9999 12.42 16.8399L14.38 16.6399V16.4199C14.38 15.8999 14.2067 15.4866 13.86 15.1799C13.5133 14.8732 13.0533 14.7199 12.48 14.7199C11.9467 14.7199 11.5067 14.8599 11.16 15.1399C10.8267 15.4199 10.6267 15.8199 10.56 16.3399H8.06C8.15333 15.6732 8.39333 15.0666 8.78 14.5199C9.18 13.9732 9.69333 13.5466 10.32 13.2399C10.96 12.9199 11.68 12.7599 12.48 12.7599C13.8133 12.7599 14.8867 13.1132 15.7 13.8199C16.5133 14.5132 16.92 15.4932 16.92 16.7599V22.9999H14.38V21.7199C14.1533 22.1332 13.7733 22.4799 13.24 22.7599C12.7067 23.0266 12.1267 23.1599 11.5 23.1599ZM10.5 20.0999C10.5 20.4466 10.6333 20.7199 10.9 20.9199C11.1667 21.1199 11.5333 21.2199 12 21.2199C12.72 21.2199 13.2933 20.9732 13.72 20.4799C14.16 19.9732 14.38 19.3532 14.38 18.6199V18.4599L12.52 18.6999C11.8133 18.7799 11.3 18.9332 10.98 19.1599C10.66 19.3732 10.5 19.6866 10.5 20.0999Z" fill="#7351FB"/>
<path d="M44.751 6.5L44.751 25.5" stroke="#7351FB" stroke-width="2"/>
<path fill-rule="evenodd" clip-rule="evenodd" d="M107.646 13.6464C107.842 13.4512 108.158 13.4512 108.354 13.6464L113 18.2929L117.646 13.6464C117.842 13.4512 118.158 13.4512 118.354 13.6464C118.549 13.8417 118.549 14.1583 118.354 14.3536L113.354 19.3536C113.158 19.5488 112.842 19.5488 112.646 19.3536L107.646 14.3536C107.451 14.1583 107.451 13.8417 107.646 13.6464Z" fill="#7351FB"/>
<rect x="1" y="45" width="127" height="102" rx="9" fill="white"/>
<rect x="1" y="45" width="127" height="102" rx="9" stroke="#7351FB" stroke-width="2"/>
<rect x="16" y="60" width="97" height="8" rx="1.73688" fill="#EBE6FE"/>
<path d="M16 93.7369C16 92.7776 16.7776 92 17.7369 92H111.263C112.222 92 113 92.7776 113 93.7369V98.2631C113 99.2224 112.222 100 111.263 100H17.7369C16.7776 100 16 99.2224 16 98.2631V93.7369Z" fill="#EBE6FE"/>
<rect x="16" y="124" width="97" height="8" rx="1.73688" fill="#EBE6FE"/>
</svg>
