<svg width="129" height="32" viewBox="0 0 129 32" fill="none" xmlns="http://www.w3.org/2000/svg">
<rect x="1" y="1" width="127" height="30" rx="9" fill="#242424"/>
<rect x="1" y="1" width="127" height="30" rx="9" stroke="#7351FB" stroke-width="2"/>
<path d="M9.078 21V11.2H12.102C14.79 11.2 16.96 13.006 16.96 16.1C16.96 19.18 14.79 21 12.102 21H9.078ZM10.366 19.894H11.976C14.062 19.894 15.672 18.508 15.672 16.1C15.672 13.692 14.062 12.306 11.976 12.306H10.366V19.894ZM18.6073 21V11.2H21.6313C24.3193 11.2 26.4893 13.006 26.4893 16.1C26.4893 19.18 24.3193 21 21.6313 21H18.6073ZM19.8953 19.894H21.5053C23.5913 19.894 25.2013 18.508 25.2013 16.1C25.2013 13.692 23.5913 12.306 21.5053 12.306H19.8953V19.894ZM27.9807 21.056C27.5327 21.056 27.1967 20.72 27.1967 20.272C27.1967 19.824 27.5327 19.488 27.9807 19.488C28.4427 19.488 28.7787 19.824 28.7787 20.272C28.7787 20.72 28.4427 21.056 27.9807 21.056ZM30.5018 21V11.2H32.3498L34.9118 17.304C35.4998 18.718 35.6958 19.628 35.6958 19.628C35.6958 19.628 35.9058 18.732 36.4658 17.388L39.0698 11.2H40.8618V21H39.5738V15.078C39.5738 13.538 39.6718 12.6 39.6718 12.6C39.6718 12.6 39.3778 13.496 38.8178 14.84L36.2418 21H35.1358L32.5878 14.924C31.9858 13.51 31.7058 12.6 31.7058 12.6C31.7058 12.6 31.7898 13.552 31.7898 15.008V21H30.5018ZM43.0116 21V11.2H44.8596L47.4216 17.304C48.0096 18.718 48.2056 19.628 48.2056 19.628C48.2056 19.628 48.4156 18.732 48.9756 17.388L51.5796 11.2H53.3716V21H52.0836V15.078C52.0836 13.538 52.1816 12.6 52.1816 12.6C52.1816 12.6 51.8876 13.496 51.3276 14.84L48.7516 21H47.6456L45.0976 14.924C44.4956 13.51 44.2156 12.6 44.2156 12.6C44.2156 12.6 44.2996 13.552 44.2996 15.008V21H43.0116ZM55.8714 21.056C55.4234 21.056 55.0874 20.72 55.0874 20.272C55.0874 19.824 55.4234 19.488 55.8714 19.488C56.3334 19.488 56.6694 19.824 56.6694 20.272C56.6694 20.72 56.3334 21.056 55.8714 21.056ZM59.8623 21V16.94L56.3203 11.2H57.8183L60.5343 15.638L63.2503 11.2H64.6783L61.1503 16.912V21H59.8623ZM68.5577 21V16.94L65.0157 11.2H66.5137L69.2297 15.638L71.9457 11.2H73.3737L69.8457 16.912V21H68.5577ZM77.253 21V16.94L73.711 11.2H75.209L77.925 15.638L80.641 11.2H82.069L78.541 16.912V21H77.253ZM85.9483 21V16.94L82.4063 11.2H83.9043L86.6203 15.638L89.3363 11.2H90.7643L87.2363 16.912V21H85.9483Z" fill="#7351FB"/>
<g filter="url(#filter0_d_1262_5574)">
<path fill-rule="evenodd" clip-rule="evenodd" d="M107.646 13.6464C107.842 13.4512 108.158 13.4512 108.354 13.6464L113 18.2929L117.646 13.6464C117.842 13.4512 118.158 13.4512 118.354 13.6464C118.549 13.8417 118.549 14.1583 118.354 14.3536L113.354 19.3536C113.158 19.5488 112.842 19.5488 112.646 19.3536L107.646 14.3536C107.451 14.1583 107.451 13.8417 107.646 13.6464Z" fill="#7351FB"/>
</g>
<defs>
<filter id="filter0_d_1262_5574" x="103.5" y="13.5" width="19" height="14" filterUnits="userSpaceOnUse" color-interpolation-filters="sRGB">
<feFlood flood-opacity="0" result="BackgroundImageFix"/>
<feColorMatrix in="SourceAlpha" type="matrix" values="0 0 0 0 0 0 0 0 0 0 0 0 0 0 0 0 0 0 127 0" result="hardAlpha"/>
<feOffset dy="4"/>
<feGaussianBlur stdDeviation="2"/>
<feComposite in2="hardAlpha" operator="out"/>
<feColorMatrix type="matrix" values="0 0 0 0 0 0 0 0 0 0 0 0 0 0 0 0 0 0 0.25 0"/>
<feBlend mode="normal" in2="BackgroundImageFix" result="effect1_dropShadow_1262_5574"/>
<feBlend mode="normal" in="SourceGraphic" in2="effect1_dropShadow_1262_5574" result="shape"/>
</filter>
</defs>
</svg>
