<svg width="163" height="158" viewBox="0 0 163 158" fill="none" xmlns="http://www.w3.org/2000/svg">
<path d="M8 1H154.209C158.075 1.00009 161.209 4.13406 161.209 8V39.749H1V8C1 4.13401 4.13401 1 8 1Z" fill="#242424"/>
<path d="M8 1H154.209C158.075 1.00009 161.209 4.13406 161.209 8V39.749H1V8C1 4.13401 4.13401 1 8 1Z" stroke="#7351FB" stroke-width="2"/>
<path d="M17.2969 19.2978C17.2969 18.1932 18.1923 17.2978 19.2969 17.2978H118.576C119.681 17.2978 120.576 18.1932 120.576 19.2978V21.4514C120.576 22.556 119.681 23.4514 118.576 23.4514H19.2969C18.1923 23.4514 17.2969 22.556 17.2969 21.4514V19.2978Z" fill="#4324C8"/>
<path fill-rule="evenodd" clip-rule="evenodd" d="M134.057 17.4442C134.252 17.249 134.568 17.249 134.764 17.4442L139.41 22.0907L144.057 17.4442C144.252 17.249 144.568 17.249 144.764 17.4442C144.959 17.6395 144.959 17.9561 144.764 18.1513L139.764 23.1513C139.568 23.3466 139.252 23.3466 139.057 23.1513L134.057 18.1513C133.861 17.9561 133.861 17.6395 134.057 17.4442Z" fill="#4324C8" stroke="#7351FB" stroke-linecap="round" stroke-linejoin="round"/>
<path d="M161.209 39.7492V117.473H1V39.7492H161.209Z" fill="#4324C8"/>
<path d="M161.209 39.7492V117.473H1V39.7492H161.209Z" stroke="#7351FB" stroke-width="2"/>
<path d="M17.2969 58.047C17.2969 56.9424 18.1923 56.047 19.2969 56.047H118.576C119.681 56.047 120.576 56.9424 120.576 58.047V60.2006C120.576 61.3052 119.681 62.2006 118.576 62.2006H19.2969C18.1923 62.2006 17.2969 61.3052 17.2969 60.2006V58.047Z" fill="#7351FB"/>
<path fill-rule="evenodd" clip-rule="evenodd" d="M144.764 61.9006C144.568 62.0958 144.252 62.0958 144.057 61.9006L139.41 57.2541L134.764 61.9006C134.568 62.0958 134.252 62.0958 134.057 61.9006C133.861 61.7053 133.861 61.3887 134.057 61.1934L139.057 56.1934C139.252 55.9982 139.568 55.9982 139.764 56.1934L144.764 61.1934C144.959 61.3887 144.959 61.7053 144.764 61.9006Z" fill="#4324C8" stroke="#7351FB" stroke-linecap="round" stroke-linejoin="round"/>
<path d="M17.2969 77.5343C17.2969 76.4297 18.1923 75.5343 19.2969 75.5343H118.576C119.681 75.5343 120.576 76.4297 120.576 77.5343V79.6879C120.576 80.7925 119.681 81.6879 118.576 81.6879H19.2969C18.1923 81.6879 17.2969 80.7925 17.2969 79.6879V77.5343Z" fill="#7351FB"/>
<path d="M17.2969 97.0217C17.2969 95.9171 18.1923 95.0217 19.2969 95.0217H118.576C119.681 95.0217 120.576 95.9171 120.576 97.0217V99.1753C120.576 100.28 119.681 101.175 118.576 101.175H19.2969C18.1923 101.175 17.2969 100.28 17.2969 99.1753V97.0217Z" fill="#7351FB"/>
<path d="M161.209 117.473V149.222C161.209 153.088 158.075 156.222 154.209 156.222H8C4.13401 156.222 1 153.088 1 149.222V117.473H161.209Z" fill="#242424"/>
<path d="M161.209 117.473V149.222C161.209 153.088 158.075 156.222 154.209 156.222H8C4.13401 156.222 1 153.088 1 149.222V117.473H161.209Z" stroke="#7351FB" stroke-width="2"/>
<path d="M17.2969 135.771C17.2969 134.666 18.1923 133.771 19.2969 133.771H118.576C119.681 133.771 120.576 134.666 120.576 135.771V137.924C120.576 139.029 119.681 139.924 118.576 139.924H19.2969C18.1923 139.924 17.2969 139.029 17.2969 137.924V135.771Z" fill="#4324C8"/>
<path fill-rule="evenodd" clip-rule="evenodd" d="M134.057 133.917C134.252 133.722 134.568 133.722 134.764 133.917L139.41 138.564L144.057 133.917C144.252 133.722 144.568 133.722 144.764 133.917C144.959 134.113 144.959 134.429 144.764 134.624L139.764 139.624C139.568 139.82 139.252 139.82 139.057 139.624L134.057 134.624C133.861 134.429 133.861 134.113 134.057 133.917Z" fill="#4324C8" stroke="#7351FB" stroke-linecap="round" stroke-linejoin="round"/>
</svg>
