<svg width="163" height="158" viewBox="0 0 163 158" fill="none" xmlns="http://www.w3.org/2000/svg">
<path d="M8 1H154.209C158.075 1.00009 161.209 4.13406 161.209 8V39.749H1V8C1 4.13401 4.13401 1 8 1Z" fill="white"/>
<path d="M8 1H154.209C158.075 1.00009 161.209 4.13406 161.209 8V39.749H1V8C1 4.13401 4.13401 1 8 1Z" stroke="#7351FB" stroke-width="2"/>
<path d="M17.2979 19.2977C17.2979 18.1932 18.1933 17.2977 19.2979 17.2977H118.577C119.682 17.2977 120.577 18.1932 120.577 19.2977V21.4514C120.577 22.5559 119.682 23.4514 118.577 23.4514H19.2978C18.1933 23.4514 17.2979 22.5559 17.2979 21.4514V19.2977Z" fill="#EBE6FE"/>
<path fill-rule="evenodd" clip-rule="evenodd" d="M134.058 17.4442C134.253 17.2489 134.569 17.2489 134.765 17.4442L139.411 22.0906L144.058 17.4442C144.253 17.2489 144.569 17.2489 144.765 17.4442C144.96 17.6394 144.96 17.956 144.765 18.1513L139.765 23.1513C139.569 23.3465 139.253 23.3465 139.058 23.1513L134.058 18.1513C133.862 17.956 133.862 17.6394 134.058 17.4442Z" fill="#EBE6FE" stroke="#7351FB" stroke-linecap="round" stroke-linejoin="round"/>
<path d="M161.209 39.7491V117.473H1V39.7491H161.209Z" fill="#EBE6FE"/>
<path d="M161.209 39.7491V117.473H1V39.7491H161.209Z" stroke="#7351FB" stroke-width="2"/>
<path d="M17.2979 58.0469C17.2979 56.9423 18.1933 56.0469 19.2979 56.0469H118.577C119.682 56.0469 120.577 56.9423 120.577 58.0469V60.2005C120.577 61.3051 119.682 62.2005 118.577 62.2005H19.2978C18.1933 62.2005 17.2979 61.3051 17.2979 60.2005V58.0469Z" fill="#7351FB"/>
<path fill-rule="evenodd" clip-rule="evenodd" d="M144.765 61.9004C144.569 62.0957 144.253 62.0957 144.058 61.9004L139.411 57.254L134.765 61.9004C134.569 62.0957 134.253 62.0957 134.058 61.9004C133.862 61.7052 133.862 61.3886 134.058 61.1933L139.058 56.1933C139.253 55.9981 139.569 55.9981 139.765 56.1933L144.765 61.1933C144.96 61.3886 144.96 61.7052 144.765 61.9004Z" fill="#EBE6FE" stroke="#7351FB" stroke-linecap="round" stroke-linejoin="round"/>
<path d="M17.2979 77.5343C17.2979 76.4297 18.1933 75.5343 19.2979 75.5343H118.577C119.682 75.5343 120.577 76.4297 120.577 77.5343V79.6879C120.577 80.7925 119.682 81.6879 118.577 81.6879H19.2978C18.1933 81.6879 17.2979 80.7925 17.2979 79.6879V77.5343Z" fill="#7351FB"/>
<path d="M17.2979 97.0216C17.2979 95.917 18.1933 95.0216 19.2979 95.0216H118.577C119.682 95.0216 120.577 95.917 120.577 97.0216V99.1752C120.577 100.28 119.682 101.175 118.577 101.175H19.2978C18.1933 101.175 17.2979 100.28 17.2979 99.1752V97.0216Z" fill="#7351FB"/>
<path d="M161.209 117.473V149.222C161.209 153.088 158.075 156.222 154.209 156.222H8C4.13401 156.222 1 153.088 1 149.222V117.473H161.209Z" fill="white"/>
<path d="M161.209 117.473V149.222C161.209 153.088 158.075 156.222 154.209 156.222H8C4.13401 156.222 1 153.088 1 149.222V117.473H161.209Z" stroke="#7351FB" stroke-width="2"/>
<path d="M17.2979 135.771C17.2979 134.666 18.1933 133.771 19.2979 133.771H118.577C119.682 133.771 120.577 134.666 120.577 135.771V137.924C120.577 139.029 119.682 139.924 118.577 139.924H19.2978C18.1933 139.924 17.2979 139.029 17.2979 137.924V135.771Z" fill="#EBE6FE"/>
<path fill-rule="evenodd" clip-rule="evenodd" d="M134.058 133.917C134.253 133.722 134.569 133.722 134.765 133.917L139.411 138.564L144.058 133.917C144.253 133.722 144.569 133.722 144.765 133.917C144.96 134.112 144.96 134.429 144.765 134.624L139.765 139.624C139.569 139.82 139.253 139.82 139.058 139.624L134.058 134.624C133.862 134.429 133.862 134.112 134.058 133.917Z" fill="#EBE6FE" stroke="#7351FB" stroke-linecap="round" stroke-linejoin="round"/>
</svg>
