<svg width="184" height="68" viewBox="0 0 184 68" fill="none" xmlns="http://www.w3.org/2000/svg">
<rect x="1.7207" y="1.82056" width="181.209" height="64.5956" rx="7.64889" fill="white"/>
<rect x="1.7207" y="1.82056" width="181.209" height="64.5956" rx="7.64889" stroke="#B60203" stroke-width="2"/>
<path fill-rule="evenodd" clip-rule="evenodd" d="M43.7257 24.4112C44.1162 24.8017 44.1162 25.4349 43.7257 25.8254L25.7257 43.8254C25.3351 44.2159 24.702 44.2159 24.3114 43.8254C23.9209 43.4349 23.9209 42.8017 24.3114 42.4112L42.3114 24.4112C42.702 24.0207 43.3351 24.0207 43.7257 24.4112Z" fill="#B60203"/>
<path fill-rule="evenodd" clip-rule="evenodd" d="M24.3114 24.4112C24.702 24.0207 25.3351 24.0207 25.7257 24.4112L43.7257 42.4112C44.1162 42.8017 44.1162 43.4349 43.7257 43.8254C43.3351 44.2159 42.702 44.2159 42.3114 43.8254L24.3114 25.8254C23.9209 25.4349 23.9209 24.8017 24.3114 24.4112Z" fill="#B60203"/>
<rect x="63.3525" y="21.2979" width="103.28" height="6.15363" rx="1.44148" fill="#FFEAE9"/>
<rect x="63.3525" y="40.7852" width="103.28" height="6.15363" rx="1.44148" fill="#FFEAE9"/>
</svg>
