<svg width="196" height="67" viewBox="0 0 196 67" fill="none" xmlns="http://www.w3.org/2000/svg">
<rect x="1" y="1" width="193.209" height="64.5956" rx="7.64889" fill="#242424"/>
<rect x="1" y="1" width="193.209" height="64.5956" rx="7.64889" stroke="#7351FB" stroke-width="2"/>
<path fill-rule="evenodd" clip-rule="evenodd" d="M43.004 23.5907C43.3945 23.9812 43.3945 24.6144 43.004 25.0049L25.004 43.0049C24.6135 43.3954 23.9803 43.3954 23.5898 43.0049C23.1992 42.6144 23.1992 41.9812 23.5898 41.5907L41.5898 23.5907C41.9803 23.2002 42.6135 23.2002 43.004 23.5907Z" fill="#7351FB"/>
<path fill-rule="evenodd" clip-rule="evenodd" d="M23.5898 23.5907C23.9803 23.2002 24.6135 23.2002 25.004 23.5907L43.004 41.5907C43.3945 41.9812 43.3945 42.6144 43.004 43.0049C42.6135 43.3954 41.9803 43.3954 41.5898 43.0049L23.5898 25.0049C23.1992 24.6144 23.1992 23.9812 23.5898 23.5907Z" fill="#7351FB"/>
<circle cx="65.6309" cy="23.4773" r="3" fill="#4324C8"/>
<rect x="74.6309" y="20.4773" width="103.28" height="6.15363" rx="1.44148" fill="#4324C8"/>
<circle cx="65.6309" cy="42.9646" r="3" fill="#4324C8"/>
<rect x="74.6309" y="39.9646" width="103.28" height="6.15363" rx="1.44148" fill="#4324C8"/>
</svg>
