<svg width="196" height="67" viewBox="0 0 196 67" fill="none" xmlns="http://www.w3.org/2000/svg">
<rect x="1" y="1" width="193.209" height="64.5956" rx="7.64889" fill="white"/>
<rect x="1" y="1" width="193.209" height="64.5956" rx="7.64889" stroke="#7351FB" stroke-width="2"/>
<path fill-rule="evenodd" clip-rule="evenodd" d="M43.004 23.5906C43.3945 23.9811 43.3945 24.6143 43.004 25.0048L25.004 43.0048C24.6135 43.3954 23.9803 43.3954 23.5898 43.0048C23.1992 42.6143 23.1992 41.9811 23.5898 41.5906L41.5898 23.5906C41.9803 23.2001 42.6135 23.2001 43.004 23.5906Z" fill="#7351FB"/>
<path fill-rule="evenodd" clip-rule="evenodd" d="M23.5898 23.5906C23.9803 23.2001 24.6135 23.2001 25.004 23.5906L43.004 41.5906C43.3945 41.9811 43.3945 42.6143 43.004 43.0048C42.6135 43.3954 41.9803 43.3954 41.5898 43.0048L23.5898 25.0048C23.1992 24.6143 23.1992 23.9811 23.5898 23.5906Z" fill="#7351FB"/>
<circle cx="65.6309" cy="23.4773" r="3" fill="#EBE6FE"/>
<rect x="74.6309" y="20.4773" width="103.28" height="6.15363" rx="1.44148" fill="#EBE6FE"/>
<circle cx="65.6309" cy="42.9646" r="3" fill="#EBE6FE"/>
<rect x="74.6309" y="39.9646" width="103.28" height="6.15363" rx="1.44148" fill="#EBE6FE"/>
</svg>
