<svg width="150" height="150" viewBox="0 0 150 150" fill="none" xmlns="http://www.w3.org/2000/svg">
<rect x="1" y="1" width="148" height="148" rx="9.42126" fill="white"/>
<rect x="1" y="1" width="148" height="148" rx="9.42126" stroke="#7351FB" stroke-width="2" stroke-dasharray="5 2"/>
<path fill-rule="evenodd" clip-rule="evenodd" d="M74.2929 63.2929C74.6834 62.9024 75.3166 62.9024 75.7071 63.2929L80.9571 68.5429C81.3476 68.9334 81.3476 69.5666 80.9571 69.9571C80.5666 70.3476 79.9334 70.3476 79.5429 69.9571L75 65.4142L70.4571 69.9571C70.0666 70.3476 69.4334 70.3476 69.0429 69.9571C68.6524 69.5666 68.6524 68.9334 69.0429 68.5429L74.2929 63.2929Z" fill="#7351FB"/>
<path fill-rule="evenodd" clip-rule="evenodd" d="M75 63C75.5523 63 76 63.4477 76 64V78C76 78.5523 75.5523 79 75 79C74.4477 79 74 78.5523 74 78V64C74 63.4477 74.4477 63 75 63Z" fill="#7351FB"/>
<path fill-rule="evenodd" clip-rule="evenodd" d="M64 77C64.5523 77 65 77.4477 65 78V85H85V78C85 77.4477 85.4477 77 86 77C86.5523 77 87 77.4477 87 78V85C87 85.5304 86.7893 86.0391 86.4142 86.4142C86.0391 86.7893 85.5304 87 85 87H65C64.4696 87 63.9609 86.7893 63.5858 86.4142C63.2107 86.0391 63 85.5304 63 85V78C63 77.4477 63.4477 77 64 77Z" fill="#7351FB"/>
</svg>
