<svg width="161" height="111" viewBox="0 0 161 111" fill="none" xmlns="http://www.w3.org/2000/svg">
<rect x="1.40137" y="1.98706" width="158.079" height="107.672" rx="9.42126" fill="white"/>
<rect x="1.40137" y="1.98706" width="158.079" height="107.672" rx="9.42126" stroke="#7351FB" stroke-width="2"/>
<rect x="21.2441" y="21.8296" width="62" height="8" rx="1.73688" fill="#7351FB"/>
<rect x="21.2441" y="43.2178" width="15.1977" height="15.1977" rx="3.47375" fill="#7351FB"/>
<path d="M32.502 47.735C32.7351 47.5018 33.1135 47.5018 33.3467 47.735C33.5794 47.9681 33.5794 48.3456 33.3467 48.5787L28.0273 53.8981C27.7942 54.1312 27.4158 54.1312 27.1826 53.8981L24.5234 51.2389C24.2903 51.0057 24.2903 50.6273 24.5234 50.3942C24.7565 50.1613 25.1341 50.1613 25.3672 50.3942L27.6045 52.6305L32.502 47.735Z" fill="white" stroke="white" stroke-width="0.434219" stroke-linecap="round" stroke-linejoin="round"/>
<rect x="46.4287" y="48.2113" width="62.2218" height="5.21063" rx="1.73688" fill="#EBE6FE"/>
<path d="M120.864 57.0627C119.828 55.3967 119.212 53.2687 119.212 51.2527C119.212 49.2366 119.828 47.1226 120.864 45.4567H121.984C120.934 47.2346 120.346 49.1947 120.346 51.2527C120.346 53.3247 120.934 55.2707 121.984 57.0627H120.864ZM124.935 47.5146C124.459 48.0746 123.549 48.4947 122.541 48.7326V47.6127C123.479 47.4306 124.431 46.8566 125.131 46.0166H126.223V55.8167H124.935V47.5146ZM131.351 55.9287C129.363 55.9287 128.005 54.7107 127.851 52.9747H129.069C129.237 54.0947 130.091 54.8227 131.351 54.8227C132.625 54.8227 133.549 53.8847 133.549 52.5687C133.549 51.2387 132.639 50.2867 131.351 50.2867C130.385 50.2867 129.643 50.7487 129.279 51.4487H128.089L128.887 46.0166H134.123V47.1226H129.853L129.377 50.2307C129.867 49.6847 130.637 49.2787 131.617 49.2787C133.465 49.2787 134.823 50.6507 134.823 52.5687C134.823 54.5427 133.409 55.9287 131.351 55.9287ZM135.488 57.0627C136.538 55.2707 137.126 53.3247 137.126 51.2527C137.126 49.1947 136.538 47.2346 135.488 45.4567H136.608C137.644 47.1226 138.26 49.2366 138.26 51.2527C138.26 53.2687 137.644 55.3967 136.608 57.0627H135.488Z" fill="#7351FB"/>
<rect x="22.5468" y="72.5204" width="12.5924" height="12.5924" rx="2.17109" stroke="#EBE6FE" stroke-width="2.60531"/>
<rect x="46.4287" y="76.2113" width="62.2218" height="5.21063" rx="1.73688" fill="#EBE6FE"/>
<path d="M120.864 85.0627C119.828 83.3967 119.212 81.2687 119.212 79.2527C119.212 77.2366 119.828 75.1226 120.864 73.4567H121.984C120.934 75.2346 120.346 77.1947 120.346 79.2527C120.346 81.3247 120.934 83.2707 121.984 85.0627H120.864ZM126.315 83.9287C124.033 83.9287 122.577 82.0387 122.577 78.9167C122.577 75.7947 124.033 73.9047 126.315 73.9047C128.611 73.9047 130.067 75.7947 130.067 78.9167C130.067 82.0387 128.611 83.9287 126.315 83.9287ZM123.851 78.9167C123.851 81.4087 124.747 82.8227 126.315 82.8227C127.883 82.8227 128.793 81.4087 128.793 78.9167C128.793 76.4247 127.883 75.0107 126.315 75.0107C124.747 75.0107 123.851 76.4247 123.851 78.9167ZM130.662 85.0627C131.712 83.2707 132.3 81.3247 132.3 79.2527C132.3 77.1947 131.712 75.2346 130.662 73.4567H131.782C132.818 75.1226 133.434 77.2366 133.434 79.2527C133.434 81.2687 132.818 83.3967 131.782 85.0627H130.662Z" fill="#7351FB"/>
</svg>
