<svg width="161" height="111" viewBox="0 0 161 111" fill="none" xmlns="http://www.w3.org/2000/svg">
<rect x="1.40234" y="1.98706" width="158.079" height="107.672" rx="9.42126" fill="#242424"/>
<rect x="1.40234" y="1.98706" width="158.079" height="107.672" rx="9.42126" stroke="#7351FB" stroke-width="2"/>
<rect x="21.2441" y="21.8296" width="62" height="8" rx="1.73688" fill="#7351FB"/>
<rect x="21.2441" y="43.2178" width="15.1977" height="15.1977" rx="3.47375" fill="#7351FB"/>
<path d="M32.5029 47.735C32.7361 47.5018 33.1145 47.5018 33.3477 47.735C33.5804 47.9681 33.5804 48.3456 33.3477 48.5787L28.0283 53.8981C27.7952 54.1312 27.4168 54.1312 27.1836 53.8981L24.5244 51.2389C24.2913 51.0057 24.2913 50.6273 24.5244 50.3942C24.7575 50.1613 25.135 50.1613 25.3682 50.3942L27.6055 52.6305L32.5029 47.735Z" fill="#242424" stroke="#242424" stroke-width="0.434219" stroke-linecap="round" stroke-linejoin="round"/>
<rect x="46.4297" y="48.2113" width="62.2218" height="5.21063" rx="1.73688" fill="#4324C8"/>
<path d="M120.863 57.0626C119.827 55.3966 119.211 53.2686 119.211 51.2526C119.211 49.2366 119.827 47.1226 120.863 45.4566H121.983C120.933 47.2346 120.345 49.1946 120.345 51.2526C120.345 53.3246 120.933 55.2706 121.983 57.0626H120.863ZM124.934 47.5146C124.458 48.0746 123.548 48.4946 122.54 48.7326V47.6126C123.478 47.4306 124.43 46.8566 125.13 46.0166H126.222V55.8166H124.934V47.5146ZM131.35 55.9286C129.362 55.9286 128.004 54.7106 127.85 52.9746H129.068C129.236 54.0946 130.09 54.8226 131.35 54.8226C132.624 54.8226 133.548 53.8846 133.548 52.5686C133.548 51.2386 132.638 50.2866 131.35 50.2866C130.384 50.2866 129.642 50.7486 129.278 51.4486H128.088L128.886 46.0166H134.122V47.1226H129.852L129.376 50.2306C129.866 49.6846 130.636 49.2786 131.616 49.2786C133.464 49.2786 134.822 50.6506 134.822 52.5686C134.822 54.5426 133.408 55.9286 131.35 55.9286ZM135.487 57.0626C136.537 55.2706 137.125 53.3246 137.125 51.2526C137.125 49.1946 136.537 47.2346 135.487 45.4566H136.607C137.643 47.1226 138.259 49.2366 138.259 51.2526C138.259 53.2686 137.643 55.3966 136.607 57.0626H135.487Z" fill="#7351FB"/>
<rect x="22.5468" y="72.5204" width="12.5924" height="12.5924" rx="2.17109" stroke="#4324C8" stroke-width="2.60531"/>
<rect x="46.4297" y="76.2113" width="62.2218" height="5.21063" rx="1.73688" fill="#4324C8"/>
<path d="M120.863 85.0626C119.827 83.3966 119.211 81.2686 119.211 79.2526C119.211 77.2366 119.827 75.1226 120.863 73.4566H121.983C120.933 75.2346 120.345 77.1946 120.345 79.2526C120.345 81.3246 120.933 83.2706 121.983 85.0626H120.863ZM126.314 83.9286C124.032 83.9286 122.576 82.0386 122.576 78.9166C122.576 75.7946 124.032 73.9046 126.314 73.9046C128.61 73.9046 130.066 75.7946 130.066 78.9166C130.066 82.0386 128.61 83.9286 126.314 83.9286ZM123.85 78.9166C123.85 81.4086 124.746 82.8226 126.314 82.8226C127.882 82.8226 128.792 81.4086 128.792 78.9166C128.792 76.4246 127.882 75.0106 126.314 75.0106C124.746 75.0106 123.85 76.4246 123.85 78.9166ZM130.661 85.0626C131.711 83.2706 132.299 81.3246 132.299 79.2526C132.299 77.1946 131.711 75.2346 130.661 73.4566H131.781C132.817 75.1226 133.433 77.2366 133.433 79.2526C133.433 81.2686 132.817 83.3966 131.781 85.0626H130.661Z" fill="#7351FB"/>
</svg>
