<svg width="200" height="148" viewBox="0 0 200 148" fill="none" xmlns="http://www.w3.org/2000/svg">
<path d="M10.4209 1H189.579C194.782 1.00019 199 5.21796 199 10.4209V90H1V10.4209C1.00019 5.21797 5.21797 1.00019 10.4209 1Z" fill="white"/>
<path d="M10.4209 1H189.579C194.782 1.00019 199 5.21796 199 10.4209V90H1V10.4209C1.00019 5.21797 5.21797 1.00019 10.4209 1Z" stroke="#7351FB" stroke-width="2"/>
<path d="M0 91H200V138C200 143.523 195.523 148 190 148H10C4.47716 148 0 143.523 0 138V91Z" fill="#7351FB"/>
<g clip-path="url(#clip0_1010_6240)">
<path fill-rule="evenodd" clip-rule="evenodd" d="M23.4731 105.752L21.343 103.671C20.4264 102.776 18.9336 102.776 18.017 103.671L12.6875 108.876C11.7708 109.771 11.7708 111.229 12.6875 112.124L18.017 117.329C18.9336 118.224 20.4264 118.224 21.343 117.329L23.4731 115.248C24.7825 116.625 26.6507 117.491 28.724 117.491C32.6786 117.491 35.8824 114.362 35.8824 110.5C35.8824 106.638 32.6786 103.509 28.724 103.509C26.6463 103.509 24.7782 104.375 23.4731 105.752ZM23.4731 105.752C22.2902 106.996 21.5656 108.667 21.5656 110.5C21.5656 112.333 22.2858 114.004 23.4731 115.248L26.6725 112.124C27.5891 111.229 27.5891 109.771 26.6725 108.876L23.4731 105.752Z" fill="white"/>
</g>
<rect x="12" y="124" width="62" height="3" rx="1.5" fill="white"/>
<rect x="12" y="133" width="42" height="3" rx="1.5" fill="white"/>
<defs>
<clipPath id="clip0_1010_6240">
<rect width="24" height="15" fill="white" transform="translate(12 103)"/>
</clipPath>
</defs>
</svg>
