<svg width="184" height="158" viewBox="0 0 184 158" fill="none" xmlns="http://www.w3.org/2000/svg">
<rect x="1" y="1" width="181.209" height="64.5956" rx="7.64889" fill="#242424"/>
<rect x="1" y="1" width="181.209" height="64.5956" rx="7.64889" stroke="#7351FB" stroke-width="2"/>
<path fill-rule="evenodd" clip-rule="evenodd" d="M33.2969 22.2978C27.2217 22.2978 22.2969 27.2227 22.2969 33.2978C22.2969 39.3729 27.2217 44.2978 33.2969 44.2978C39.372 44.2978 44.2969 39.3729 44.2969 33.2978C44.2969 27.2227 39.372 22.2978 33.2969 22.2978ZM20.2969 33.2978C20.2969 26.1181 26.1172 20.2978 33.2969 20.2978C40.4766 20.2978 46.2969 26.1181 46.2969 33.2978C46.2969 40.4775 40.4766 46.2978 33.2969 46.2978C26.1172 46.2978 20.2969 40.4775 20.2969 33.2978Z" fill="#7351FB"/>
<path fill-rule="evenodd" clip-rule="evenodd" d="M31.2969 32.2978C31.2969 31.7455 31.7446 31.2978 32.2969 31.2978H33.2969C33.8492 31.2978 34.2969 31.7455 34.2969 32.2978V38.2978C34.8492 38.2978 35.2969 38.7455 35.2969 39.2978C35.2969 39.8501 34.8492 40.2978 34.2969 40.2978H33.2969C32.7446 40.2978 32.2969 39.8501 32.2969 39.2978V33.2978C31.7446 33.2978 31.2969 32.8501 31.2969 32.2978Z" fill="#7351FB"/>
<path d="M33.0469 29.2978C33.8753 29.2978 34.5469 28.6262 34.5469 27.7978C34.5469 26.9694 33.8753 26.2978 33.0469 26.2978C32.2184 26.2978 31.5469 26.9694 31.5469 27.7978C31.5469 28.6262 32.2184 29.2978 33.0469 29.2978Z" fill="#7351FB"/>
<rect x="62.6309" y="30.2209" width="103.28" height="6.15363" rx="1.44148" fill="#4324C8"/>
<rect x="1" y="91.5956" width="181.209" height="64.5956" rx="7.64889" fill="#242424"/>
<rect x="1" y="91.5956" width="181.209" height="64.5956" rx="7.64889" stroke="#7351FB" stroke-width="2"/>
<path fill-rule="evenodd" clip-rule="evenodd" d="M45.004 116.186C45.3945 116.577 45.3945 117.21 45.004 117.6L31.004 131.6C30.6135 131.991 29.9803 131.991 29.5898 131.6L22.5898 124.6C22.1992 124.21 22.1992 123.577 22.5898 123.186C22.9803 122.796 23.6135 122.796 24.004 123.186L30.2969 129.479L43.5898 116.186C43.9803 115.796 44.6135 115.796 45.004 116.186Z" fill="#7351FB"/>
<rect x="62.6309" y="120.817" width="103.28" height="6.15363" rx="1.44148" fill="#4324C8"/>
</svg>
