<svg width="200" height="123" viewBox="0 0 200 123" fill="none" xmlns="http://www.w3.org/2000/svg">
<path d="M0 10C0 4.47715 4.47715 0 10 0H190C195.523 0 200 4.47715 200 10V32H0V10Z" fill="#7351FB"/>
<g clip-path="url(#clip0_1010_6273)">
<path fill-rule="evenodd" clip-rule="evenodd" d="M23.4731 11.2515L21.343 9.17136C20.4264 8.27621 18.9336 8.27621 18.017 9.17136L12.6875 14.376C11.7708 15.2711 11.7708 16.7289 12.6875 17.624L18.017 22.8286C18.9336 23.7238 20.4264 23.7238 21.343 22.8286L23.4731 20.7485C24.7825 22.1253 26.6507 22.9906 28.724 22.9906C32.6786 22.9906 35.8824 19.8619 35.8824 16C35.8824 12.1381 32.6786 9.00938 28.724 9.00938C26.6463 9.00938 24.7782 9.8747 23.4731 11.2515ZM23.4731 11.2515C22.2902 12.4962 21.5656 14.1671 21.5656 16C21.5656 17.8329 22.2858 19.5038 23.4731 20.7485L26.6725 17.624C27.5891 16.7289 27.5891 15.2711 26.6725 14.376L23.4731 11.2515Z" fill="white"/>
</g>
<mask id="path-3-inside-1_1010_6273" fill="white">
<path d="M0 32H200V113C200 118.523 195.523 123 190 123H10C4.47716 123 0 118.523 0 113V32Z"/>
</mask>
<path d="M0 32H200V113C200 118.523 195.523 123 190 123H10C4.47716 123 0 118.523 0 113V32Z" fill="white"/>
<path d="M0 32H200H0ZM202 113C202 119.627 196.627 125 190 125H10C3.37258 125 -2 119.627 -2 113H2C2 117.418 5.58172 121 10 121H190C194.418 121 198 117.418 198 113H202ZM10 125C3.37258 125 -2 119.627 -2 113V32H2V113C2 117.418 5.58172 121 10 121V125ZM202 32V113C202 119.627 196.627 125 190 125V121C194.418 121 198 117.418 198 113V32H202Z" fill="#7351FB" mask="url(#path-3-inside-1_1010_6273)"/>
<defs>
<clipPath id="clip0_1010_6273">
<rect width="24" height="15" fill="white" transform="translate(12 8.5)"/>
</clipPath>
</defs>
</svg>
