<svg width="184" height="137" viewBox="0 0 184 137" fill="none" xmlns="http://www.w3.org/2000/svg">
<path d="M24.672 31.312H9.648V46H3.12V12.4H9.648V25.744H24.672V12.4H31.2V46H24.672V31.312ZM47.7626 46.384C45.2986 46.384 43.1226 45.856 41.2346 44.8C39.3466 43.744 37.8746 42.272 36.8186 40.384C35.7946 38.496 35.2826 36.336 35.2826 33.904C35.2826 31.504 35.8106 29.36 36.8666 27.472C37.9226 25.584 39.3626 24.112 41.1866 23.056C43.0426 21.968 45.1386 21.424 47.4746 21.424C49.8106 21.424 51.8746 21.936 53.6666 22.96C55.4586 23.952 56.8346 25.344 57.7946 27.136C58.7866 28.928 59.2826 30.928 59.2826 33.136C59.2826 33.776 59.2346 34.464 59.1386 35.2H41.3306C41.5546 37.152 42.2426 38.656 43.3946 39.712C44.5466 40.768 45.9866 41.296 47.7146 41.296C49.0586 41.296 50.1786 41.008 51.0746 40.432C51.9706 39.856 52.5626 39.072 52.8506 38.08H58.8986C58.4506 40.576 57.2346 42.592 55.2506 44.128C53.2666 45.632 50.7706 46.384 47.7626 46.384ZM52.8506 30.736C52.8186 29.36 52.3066 28.256 51.3146 27.424C50.3226 26.56 49.0426 26.128 47.4746 26.128C44.3386 26.128 42.3866 27.664 41.6186 30.736H52.8506ZM70.7831 46.384C68.2551 46.384 66.2231 45.728 64.6871 44.416C63.1511 43.104 62.3831 41.392 62.3831 39.28C62.3831 36.88 63.2311 35.04 64.9271 33.76C66.6551 32.448 69.3431 31.6 72.9911 31.216L77.6951 30.736V30.208C77.6951 28.96 77.2791 27.968 76.4471 27.232C75.6151 26.496 74.5111 26.128 73.1351 26.128C71.8551 26.128 70.7991 26.464 69.9671 27.136C69.1671 27.808 68.6871 28.768 68.5271 30.016H62.5271C62.7511 28.416 63.3271 26.96 64.2551 25.648C65.2151 24.336 66.4471 23.312 67.9511 22.576C69.4871 21.808 71.2151 21.424 73.1351 21.424C76.3351 21.424 78.9111 22.272 80.8631 23.968C82.8151 25.632 83.7911 27.984 83.7911 31.024V46H77.6951V42.928C77.1511 43.92 76.2391 44.752 74.9591 45.424C73.6791 46.064 72.2871 46.384 70.7831 46.384ZM68.3831 39.04C68.3831 39.872 68.7031 40.528 69.3431 41.008C69.9831 41.488 70.8631 41.728 71.9831 41.728C73.7111 41.728 75.0871 41.136 76.1111 39.952C77.1671 38.736 77.6951 37.248 77.6951 35.488V35.104L73.2311 35.68C71.5351 35.872 70.3031 36.24 69.5351 36.784C68.7671 37.296 68.3831 38.048 68.3831 39.04ZM99.5003 46.384C97.1323 46.384 95.0523 45.872 93.2603 44.848C91.4683 43.824 90.0763 42.384 89.0843 40.528C88.0923 38.64 87.5963 36.432 87.5963 33.904C87.5963 31.376 88.0923 29.184 89.0843 27.328C90.0763 25.44 91.4683 23.984 93.2603 22.96C95.0523 21.936 97.1323 21.424 99.5003 21.424C101.036 21.424 102.476 21.728 103.82 22.336C105.164 22.944 106.156 23.76 106.796 24.784V12.016H112.94V46H106.796V42.976C106.156 44 105.164 44.832 103.82 45.472C102.476 46.08 101.036 46.384 99.5003 46.384ZM100.268 41.2C102.22 41.2 103.788 40.528 104.972 39.184C106.188 37.808 106.796 36.048 106.796 33.904C106.796 31.728 106.188 29.968 104.972 28.624C103.788 27.28 102.22 26.608 100.268 26.608C98.3483 26.608 96.7803 27.28 95.5643 28.624C94.3483 29.968 93.7403 31.728 93.7403 33.904C93.7403 36.048 94.3483 37.808 95.5643 39.184C96.7803 40.528 98.3483 41.2 100.268 41.2ZM118.329 21.808H124.425V46H118.329V21.808ZM121.353 18.304C120.265 18.304 119.369 17.968 118.665 17.296C117.961 16.592 117.609 15.728 117.609 14.704C117.609 13.648 117.961 12.784 118.665 12.112C119.369 11.408 120.265 11.056 121.353 11.056C122.441 11.056 123.337 11.408 124.041 12.112C124.745 12.784 125.097 13.648 125.097 14.704C125.097 15.728 124.745 16.592 124.041 17.296C123.337 17.968 122.441 18.304 121.353 18.304ZM129.813 21.808H135.909V24.976C136.581 23.984 137.605 23.152 138.981 22.48C140.389 21.776 141.989 21.424 143.781 21.424C146.437 21.424 148.597 22.24 150.261 23.872C151.925 25.472 152.757 27.664 152.757 30.448V46H146.661V31.744C146.661 30.208 146.229 28.992 145.365 28.096C144.533 27.2 143.413 26.752 142.005 26.752C140.117 26.752 138.629 27.52 137.541 29.056C136.453 30.592 135.909 32.736 135.909 35.488V46H129.813V21.808ZM168.739 55.12C166.755 55.12 164.963 54.768 163.363 54.064C161.763 53.392 160.467 52.448 159.475 51.232C158.515 50.016 157.923 48.656 157.699 47.152H163.747C164.003 48.176 164.595 48.976 165.523 49.552C166.451 50.128 167.587 50.416 168.931 50.416C170.755 50.416 172.227 49.936 173.347 48.976C174.499 48.048 175.075 46.704 175.075 44.944V41.776C174.371 42.736 173.395 43.488 172.147 44.032C170.899 44.576 169.571 44.848 168.163 44.848C165.859 44.848 163.843 44.368 162.115 43.408C160.387 42.448 159.059 41.088 158.131 39.328C157.203 37.536 156.739 35.472 156.739 33.136C156.739 30.768 157.203 28.704 158.131 26.944C159.059 25.184 160.387 23.824 162.115 22.864C163.843 21.904 165.859 21.424 168.163 21.424C169.571 21.424 170.899 21.696 172.147 22.24C173.395 22.752 174.371 23.472 175.075 24.4V21.808H181.171V44.368C181.171 46.608 180.643 48.528 179.587 50.128C178.531 51.76 177.059 52.992 175.171 53.824C173.315 54.688 171.171 55.12 168.739 55.12ZM168.883 39.952C170.707 39.952 172.195 39.328 173.347 38.08C174.499 36.8 175.075 35.152 175.075 33.136C175.075 31.088 174.499 29.44 173.347 28.192C172.195 26.944 170.707 26.32 168.883 26.32C167.027 26.32 165.523 26.944 164.371 28.192C163.219 29.44 162.643 31.088 162.643 33.136C162.643 35.152 163.219 36.8 164.371 38.08C165.523 39.328 167.027 39.952 168.883 39.952Z" fill="#7351FB"/>
<path d="M16.392 82.432H7.628V91H3.82V71.4H7.628V79.184H16.392V71.4H20.2V91H16.392V82.432ZM29.8615 91.224C28.4242 91.224 27.1549 90.916 26.0535 90.3C24.9522 89.684 24.0935 88.8253 23.4775 87.724C22.8802 86.6227 22.5815 85.3627 22.5815 83.944C22.5815 82.544 22.8895 81.2933 23.5055 80.192C24.1215 79.0907 24.9615 78.232 26.0255 77.616C27.1082 76.9813 28.3309 76.664 29.6935 76.664C31.0562 76.664 32.2602 76.9627 33.3055 77.56C34.3509 78.1387 35.1535 78.9507 35.7135 79.996C36.2922 81.0413 36.5815 82.208 36.5815 83.496C36.5815 83.8693 36.5535 84.2707 36.4975 84.7H26.1095C26.2402 85.8387 26.6415 86.716 27.3135 87.332C27.9855 87.948 28.8255 88.256 29.8335 88.256C30.6175 88.256 31.2709 88.088 31.7935 87.752C32.3162 87.416 32.6615 86.9587 32.8295 86.38H36.3575C36.0962 87.836 35.3869 89.012 34.2295 89.908C33.0722 90.7853 31.6162 91.224 29.8615 91.224ZM32.8295 82.096C32.8109 81.2933 32.5122 80.6493 31.9335 80.164C31.3549 79.66 30.6082 79.408 29.6935 79.408C27.8642 79.408 26.7255 80.304 26.2775 82.096H32.8295ZM43.2902 91.224C41.8155 91.224 40.6302 90.8413 39.7342 90.076C38.8382 89.3107 38.3902 88.312 38.3902 87.08C38.3902 85.68 38.8848 84.6067 39.8742 83.86C40.8822 83.0947 42.4502 82.6 44.5782 82.376L47.3222 82.096V81.788C47.3222 81.06 47.0795 80.4813 46.5942 80.052C46.1088 79.6227 45.4648 79.408 44.6622 79.408C43.9155 79.408 43.2995 79.604 42.8142 79.996C42.3475 80.388 42.0675 80.948 41.9742 81.676H38.4742C38.6048 80.7427 38.9408 79.8933 39.4822 79.128C40.0422 78.3627 40.7608 77.7653 41.6382 77.336C42.5342 76.888 43.5422 76.664 44.6622 76.664C46.5288 76.664 48.0315 77.1587 49.1702 78.148C50.3088 79.1187 50.8782 80.4907 50.8782 82.264V91H47.3222V89.208C47.0048 89.7867 46.4728 90.272 45.7262 90.664C44.9795 91.0373 44.1675 91.224 43.2902 91.224ZM41.8902 86.94C41.8902 87.4253 42.0768 87.808 42.4502 88.088C42.8235 88.368 43.3368 88.508 43.9902 88.508C44.9982 88.508 45.8008 88.1627 46.3982 87.472C47.0142 86.7627 47.3222 85.8947 47.3222 84.868V84.644L44.7182 84.98C43.7288 85.092 43.0102 85.3067 42.5622 85.624C42.1142 85.9227 41.8902 86.3613 41.8902 86.94ZM60.0418 91.224C58.6605 91.224 57.4471 90.9253 56.4018 90.328C55.3565 89.7307 54.5445 88.8907 53.9658 87.808C53.3871 86.7067 53.0978 85.4187 53.0978 83.944C53.0978 82.4693 53.3871 81.1907 53.9658 80.108C54.5445 79.0067 55.3565 78.1573 56.4018 77.56C57.4471 76.9627 58.6605 76.664 60.0418 76.664C60.9378 76.664 61.7778 76.8413 62.5618 77.196C63.3458 77.5507 63.9245 78.0267 64.2978 78.624V71.176H67.8818V91H64.2978V89.236C63.9245 89.8333 63.3458 90.3187 62.5618 90.692C61.7778 91.0467 60.9378 91.224 60.0418 91.224ZM60.4898 88.2C61.6285 88.2 62.5431 87.808 63.2338 87.024C63.9431 86.2213 64.2978 85.1947 64.2978 83.944C64.2978 82.6747 63.9431 81.648 63.2338 80.864C62.5431 80.08 61.6285 79.688 60.4898 79.688C59.3698 79.688 58.4551 80.08 57.7458 80.864C57.0365 81.648 56.6818 82.6747 56.6818 83.944C56.6818 85.1947 57.0365 86.2213 57.7458 87.024C58.4551 87.808 59.3698 88.2 60.4898 88.2ZM71.025 76.888H74.581V91H71.025V76.888ZM72.789 74.844C72.1544 74.844 71.6317 74.648 71.221 74.256C70.8104 73.8453 70.605 73.3413 70.605 72.744C70.605 72.128 70.8104 71.624 71.221 71.232C71.6317 70.8213 72.1544 70.616 72.789 70.616C73.4237 70.616 73.9464 70.8213 74.357 71.232C74.7677 71.624 74.973 72.128 74.973 72.744C74.973 73.3413 74.7677 73.8453 74.357 74.256C73.9464 74.648 73.4237 74.844 72.789 74.844ZM77.7243 76.888H81.2803V78.736C81.6723 78.1573 82.2696 77.672 83.0723 77.28C83.8936 76.8693 84.8269 76.664 85.8723 76.664C87.4216 76.664 88.6816 77.14 89.6523 78.092C90.6229 79.0253 91.1083 80.304 91.1083 81.928V91H87.5523V82.684C87.5523 81.788 87.3003 81.0787 86.7963 80.556C86.3109 80.0333 85.6576 79.772 84.8363 79.772C83.7349 79.772 82.8669 80.22 82.2323 81.116C81.5976 82.012 81.2803 83.2627 81.2803 84.868V91H77.7243V76.888ZM100.431 96.32C99.2738 96.32 98.2285 96.1147 97.2952 95.704C96.3618 95.312 95.6058 94.7613 95.0272 94.052C94.4672 93.3427 94.1218 92.5493 93.9912 91.672H97.5192C97.6685 92.2693 98.0138 92.736 98.5552 93.072C99.0965 93.408 99.7592 93.576 100.543 93.576C101.607 93.576 102.466 93.296 103.119 92.736C103.791 92.1947 104.127 91.4107 104.127 90.384V88.536C103.716 89.096 103.147 89.5347 102.419 89.852C101.691 90.1693 100.916 90.328 100.095 90.328C98.7512 90.328 97.5752 90.048 96.5672 89.488C95.5592 88.928 94.7845 88.1347 94.2432 87.108C93.7018 86.0627 93.4312 84.8587 93.4312 83.496C93.4312 82.1147 93.7018 80.9107 94.2432 79.884C94.7845 78.8573 95.5592 78.064 96.5672 77.504C97.5752 76.944 98.7512 76.664 100.095 76.664C100.916 76.664 101.691 76.8227 102.419 77.14C103.147 77.4387 103.716 77.8587 104.127 78.4V76.888H107.683V90.048C107.683 91.3547 107.375 92.4747 106.759 93.408C106.143 94.36 105.284 95.0787 104.183 95.564C103.1 96.068 101.85 96.32 100.431 96.32ZM100.515 87.472C101.579 87.472 102.447 87.108 103.119 86.38C103.791 85.6333 104.127 84.672 104.127 83.496C104.127 82.3013 103.791 81.34 103.119 80.612C102.447 79.884 101.579 79.52 100.515 79.52C99.4325 79.52 98.5552 79.884 97.8832 80.612C97.2112 81.34 96.8752 82.3013 96.8752 83.496C96.8752 84.672 97.2112 85.6333 97.8832 86.38C98.5552 87.108 99.4325 87.472 100.515 87.472Z" fill="#7351FB"/>
<path d="M13.308 123.268H6.422V130H3.43V114.6H6.422V120.716H13.308V114.6H16.3V130H13.308V123.268ZM23.8912 130.176C22.7619 130.176 21.7645 129.934 20.8992 129.45C20.0339 128.966 19.3592 128.291 18.8752 127.426C18.4059 126.561 18.1712 125.571 18.1712 124.456C18.1712 123.356 18.4132 122.373 18.8972 121.508C19.3812 120.643 20.0412 119.968 20.8772 119.484C21.7279 118.985 22.6885 118.736 23.7592 118.736C24.8299 118.736 25.7759 118.971 26.5972 119.44C27.4185 119.895 28.0492 120.533 28.4892 121.354C28.9439 122.175 29.1712 123.092 29.1712 124.104C29.1712 124.397 29.1492 124.713 29.1052 125.05H20.9432C21.0459 125.945 21.3612 126.634 21.8892 127.118C22.4172 127.602 23.0772 127.844 23.8692 127.844C24.4852 127.844 24.9985 127.712 25.4092 127.448C25.8199 127.184 26.0912 126.825 26.2232 126.37H28.9952C28.7899 127.514 28.2325 128.438 27.3232 129.142C26.4139 129.831 25.2699 130.176 23.8912 130.176ZM26.2232 123.004C26.2085 122.373 25.9739 121.867 25.5192 121.486C25.0645 121.09 24.4779 120.892 23.7592 120.892C22.3219 120.892 21.4272 121.596 21.0752 123.004H26.2232ZM34.4423 130.176C33.2836 130.176 32.3523 129.875 31.6483 129.274C30.9443 128.673 30.5923 127.888 30.5923 126.92C30.5923 125.82 30.9809 124.977 31.7583 124.39C32.5503 123.789 33.7823 123.4 35.4543 123.224L37.6103 123.004V122.762C37.6103 122.19 37.4196 121.735 37.0383 121.398C36.6569 121.061 36.1509 120.892 35.5203 120.892C34.9336 120.892 34.4496 121.046 34.0683 121.354C33.7016 121.662 33.4816 122.102 33.4083 122.674H30.6583C30.7609 121.941 31.0249 121.273 31.4503 120.672C31.8903 120.071 32.4549 119.601 33.1443 119.264C33.8483 118.912 34.6403 118.736 35.5203 118.736C36.9869 118.736 38.1676 119.125 39.0623 119.902C39.9569 120.665 40.4043 121.743 40.4043 123.136V130H37.6103V128.592C37.3609 129.047 36.9429 129.428 36.3563 129.736C35.7696 130.029 35.1316 130.176 34.4423 130.176ZM33.3423 126.81C33.3423 127.191 33.4889 127.492 33.7823 127.712C34.0756 127.932 34.4789 128.042 34.9923 128.042C35.7843 128.042 36.4149 127.771 36.8843 127.228C37.3683 126.671 37.6103 125.989 37.6103 125.182V125.006L35.5643 125.27C34.7869 125.358 34.2223 125.527 33.8703 125.776C33.5183 126.011 33.3423 126.355 33.3423 126.81ZM47.6043 130.176C46.5189 130.176 45.5656 129.941 44.7443 129.472C43.9229 129.003 43.2849 128.343 42.8303 127.492C42.3756 126.627 42.1483 125.615 42.1483 124.456C42.1483 123.297 42.3756 122.293 42.8303 121.442C43.2849 120.577 43.9229 119.909 44.7443 119.44C45.5656 118.971 46.5189 118.736 47.6043 118.736C48.3083 118.736 48.9683 118.875 49.5843 119.154C50.2003 119.433 50.6549 119.807 50.9483 120.276V114.424H53.7643V130H50.9483V128.614C50.6549 129.083 50.2003 129.465 49.5843 129.758C48.9683 130.037 48.3083 130.176 47.6043 130.176ZM47.9563 127.8C48.8509 127.8 49.5696 127.492 50.1123 126.876C50.6696 126.245 50.9483 125.439 50.9483 124.456C50.9483 123.459 50.6696 122.652 50.1123 122.036C49.5696 121.42 48.8509 121.112 47.9563 121.112C47.0763 121.112 46.3576 121.42 45.8003 122.036C45.2429 122.652 44.9643 123.459 44.9643 124.456C44.9643 125.439 45.2429 126.245 45.8003 126.876C46.3576 127.492 47.0763 127.8 47.9563 127.8ZM56.234 118.912H59.028V130H56.234V118.912ZM57.62 117.306C57.1213 117.306 56.7106 117.152 56.388 116.844C56.0653 116.521 55.904 116.125 55.904 115.656C55.904 115.172 56.0653 114.776 56.388 114.468C56.7106 114.145 57.1213 113.984 57.62 113.984C58.1186 113.984 58.5293 114.145 58.852 114.468C59.1746 114.776 59.336 115.172 59.336 115.656C59.336 116.125 59.1746 116.521 58.852 116.844C58.5293 117.152 58.1186 117.306 57.62 117.306ZM61.4976 118.912H64.2916V120.364C64.5996 119.909 65.069 119.528 65.6996 119.22C66.345 118.897 67.0783 118.736 67.8996 118.736C69.117 118.736 70.107 119.11 70.8696 119.858C71.6323 120.591 72.0136 121.596 72.0136 122.872V130H69.2196V123.466C69.2196 122.762 69.0216 122.205 68.6256 121.794C68.2443 121.383 67.731 121.178 67.0856 121.178C66.2203 121.178 65.5383 121.53 65.0396 122.234C64.541 122.938 64.2916 123.921 64.2916 125.182V130H61.4976V118.912ZM79.3388 134.18C78.4294 134.18 77.6081 134.019 76.8748 133.696C76.1414 133.388 75.5474 132.955 75.0928 132.398C74.6528 131.841 74.3814 131.217 74.2788 130.528H77.0508C77.1681 130.997 77.4394 131.364 77.8648 131.628C78.2901 131.892 78.8108 132.024 79.4268 132.024C80.2628 132.024 80.9374 131.804 81.4508 131.364C81.9788 130.939 82.2428 130.323 82.2428 129.516V128.064C81.9201 128.504 81.4728 128.849 80.9008 129.098C80.3288 129.347 79.7201 129.472 79.0748 129.472C78.0188 129.472 77.0948 129.252 76.3028 128.812C75.5108 128.372 74.9021 127.749 74.4768 126.942C74.0514 126.121 73.8388 125.175 73.8388 124.104C73.8388 123.019 74.0514 122.073 74.4768 121.266C74.9021 120.459 75.5108 119.836 76.3028 119.396C77.0948 118.956 78.0188 118.736 79.0748 118.736C79.7201 118.736 80.3288 118.861 80.9008 119.11C81.4728 119.345 81.9201 119.675 82.2428 120.1V118.912H85.0368V129.252C85.0368 130.279 84.7948 131.159 84.3108 131.892C83.8268 132.64 83.1521 133.205 82.2868 133.586C81.4361 133.982 80.4534 134.18 79.3388 134.18ZM79.4048 127.228C80.2408 127.228 80.9228 126.942 81.4508 126.37C81.9788 125.783 82.2428 125.028 82.2428 124.104C82.2428 123.165 81.9788 122.41 81.4508 121.838C80.9228 121.266 80.2408 120.98 79.4048 120.98C78.5541 120.98 77.8648 121.266 77.3368 121.838C76.8088 122.41 76.5448 123.165 76.5448 124.104C76.5448 125.028 76.8088 125.783 77.3368 126.37C77.8648 126.942 78.5541 127.228 79.4048 127.228Z" fill="#7351FB"/>
</svg>
