<svg width="92" height="44" viewBox="0 0 92 44" fill="none" xmlns="http://www.w3.org/2000/svg">
<path d="M3.12 1.4H9.648V29.432H25.44V35H3.12V1.4ZM28.0943 10.808H34.1903V35H28.0943V10.808ZM31.1183 7.304C30.0303 7.304 29.1343 6.968 28.4303 6.296C27.7263 5.592 27.3743 4.728 27.3743 3.704C27.3743 2.648 27.7263 1.784 28.4303 1.112C29.1343 0.407998 30.0303 0.0559978 31.1183 0.0559978C32.2063 0.0559978 33.1023 0.407998 33.8063 1.112C34.5103 1.784 34.8623 2.648 34.8623 3.704C34.8623 4.728 34.5103 5.592 33.8063 6.296C33.1023 6.968 32.2063 7.304 31.1183 7.304ZM39.5786 10.808H45.6746V13.976C46.3466 12.984 47.3706 12.152 48.7466 11.48C50.1546 10.776 51.7546 10.424 53.5466 10.424C56.2026 10.424 58.3626 11.24 60.0266 12.872C61.6906 14.472 62.5226 16.664 62.5226 19.448V35H56.4266V20.744C56.4266 19.208 55.9946 17.992 55.1306 17.096C54.2986 16.2 53.1786 15.752 51.7706 15.752C49.8826 15.752 48.3946 16.52 47.3066 18.056C46.2186 19.592 45.6746 21.736 45.6746 24.488V35H39.5786V10.808ZM76.9688 24.248L73.7528 27.368V35H67.6568V1.016H73.7528V19.352L82.8248 10.808H90.8888L81.3848 19.976L91.7048 35H84.4088L76.9688 24.248Z" fill="#7351FB"/>
<path d="M0 41H91.0328V43.4H0V41Z" fill="#7351FB"/>
</svg>
