<svg width="167" height="94" viewBox="0 0 167 94" fill="none" xmlns="http://www.w3.org/2000/svg">
<path d="M145.195 4.98394C144.71 5.43194 144.038 5.8426 143.179 6.21594C142.321 6.5706 141.397 6.86927 140.407 7.11194V3.83594C141.247 3.6306 142.162 3.25727 143.151 2.71594C144.141 2.15594 145.018 1.51194 145.783 0.783936H149.003V20.3839H145.195V4.98394Z" fill="#7351FB"/>
<path d="M127.511 6.0481C129.023 6.0481 130.255 6.5241 131.207 7.4761C132.159 8.40943 132.635 9.6601 132.635 11.2281V20.3841H129.079V11.9841C129.079 11.1068 128.855 10.4161 128.407 9.9121C127.977 9.4081 127.38 9.1561 126.615 9.1561C125.625 9.1561 124.841 9.55743 124.263 10.3601C123.703 11.1628 123.423 12.1708 123.423 13.3841V20.3841H119.867V11.9841C119.867 11.1068 119.652 10.4161 119.223 9.9121C118.793 9.4081 118.196 9.1561 117.431 9.1561C116.441 9.1561 115.657 9.55743 115.079 10.3601C114.519 11.1628 114.239 12.1708 114.239 13.3841V20.3841H110.683V6.2721H114.239V8.2321C114.668 7.59743 115.265 7.07476 116.031 6.6641C116.815 6.25343 117.683 6.0481 118.635 6.0481C119.624 6.0481 120.501 6.27209 121.267 6.72009C122.032 7.14943 122.545 7.71876 122.807 8.4281C123.348 7.71876 124.039 7.14943 124.879 6.72009C125.719 6.27209 126.596 6.0481 127.511 6.0481Z" fill="#7351FB"/>
<path d="M101.565 20.6081C100.128 20.6081 98.8585 20.3001 97.7572 19.6841C96.6558 19.0681 95.7972 18.2094 95.1812 17.1081C94.5838 16.0068 94.2852 14.7468 94.2852 13.3281C94.2852 11.9281 94.5932 10.6774 95.2092 9.5761C95.8252 8.47476 96.6652 7.6161 97.7292 7.0001C98.8118 6.36543 100.034 6.0481 101.397 6.0481C102.76 6.0481 103.964 6.34676 105.009 6.9441C106.054 7.52276 106.857 8.33476 107.417 9.3801C107.996 10.4254 108.285 11.5921 108.285 12.8801C108.285 13.2534 108.257 13.6548 108.201 14.0841H97.8132C97.9438 15.2228 98.3452 16.1001 99.0172 16.7161C99.6892 17.3321 100.529 17.6401 101.537 17.6401C102.321 17.6401 102.974 17.4721 103.497 17.1361C104.02 16.8001 104.365 16.3428 104.533 15.7641H108.061C107.8 17.2201 107.09 18.3961 105.933 19.2921C104.776 20.1694 103.32 20.6081 101.565 20.6081ZM104.533 11.4801C104.514 10.6774 104.216 10.0334 103.637 9.5481C103.058 9.0441 102.312 8.7921 101.397 8.7921C99.5678 8.7921 98.4292 9.68809 97.9812 11.4801H104.533Z" fill="#7351FB"/>
<path d="M91.1075 20.6081C89.6328 20.6081 88.4288 20.1788 87.4955 19.3201C86.5808 18.4428 86.1235 17.2295 86.1235 15.6801V9.15613H83.8555V6.27213H86.1235V2.82812H89.6795V6.27213H93.0115V9.15613H89.6795V15.3721C89.6795 16.0815 89.8475 16.6228 90.1835 16.9961C90.5195 17.3508 90.9861 17.5281 91.5835 17.5281C92.1061 17.5281 92.6195 17.4348 93.1235 17.2481V20.2441C92.5261 20.4868 91.8541 20.6081 91.1075 20.6081Z" fill="#7351FB"/>
<path d="M78.4171 6.272H81.9731V20.384H78.4171V6.272ZM80.1811 4.228C79.5464 4.228 79.0237 4.032 78.6131 3.64C78.2024 3.22933 77.9971 2.72533 77.9971 2.128C77.9971 1.512 78.2024 1.008 78.6131 0.616001C79.0237 0.205334 79.5464 0 80.1811 0C80.8157 0 81.3384 0.205334 81.7491 0.616001C82.1597 1.008 82.3651 1.512 82.3651 2.128C82.3651 2.72533 82.1597 3.22933 81.7491 3.64C81.3384 4.032 80.8157 4.228 80.1811 4.228Z" fill="#7351FB"/>
<path d="M68.3848 20.6081C66.9101 20.6081 65.7061 20.1788 64.7728 19.3201C63.8581 18.4428 63.4008 17.2295 63.4008 15.6801V9.15613H61.1328V6.27213H63.4008V2.82812H66.9568V6.27213H70.2888V9.15613H66.9568V15.3721C66.9568 16.0815 67.1248 16.6228 67.4608 16.9961C67.7968 17.3508 68.2635 17.5281 68.8608 17.5281C69.3835 17.5281 69.8968 17.4348 70.4008 17.2481V20.2441C69.8035 20.4868 69.1315 20.6081 68.3848 20.6081Z" fill="#7351FB"/>
<path d="M54.7176 20.6081C52.9816 20.6081 51.6002 20.1508 50.5736 19.2361C49.5469 18.3028 48.9869 17.1174 48.8936 15.6801H52.1696C52.2442 16.3708 52.4962 16.9028 52.9256 17.2761C53.3736 17.6494 53.9709 17.8361 54.7176 17.8361C55.3709 17.8361 55.8842 17.6961 56.2576 17.4161C56.6496 17.1361 56.8456 16.7441 56.8456 16.2401C56.8456 15.7174 56.6122 15.3348 56.1456 15.0921C55.6789 14.8494 54.9416 14.6068 53.9336 14.3641C52.9256 14.1028 52.1136 13.8414 51.4976 13.5801C50.8816 13.3188 50.3402 12.9174 49.8736 12.3761C49.4256 11.8161 49.2016 11.0601 49.2016 10.1081C49.2016 9.34276 49.4069 8.6521 49.8176 8.0361C50.2282 7.4201 50.8162 6.93476 51.5816 6.5801C52.3469 6.22543 53.2242 6.0481 54.2136 6.0481C55.8749 6.0481 57.2002 6.4401 58.1896 7.2241C59.1976 8.0081 59.7949 9.1001 59.9816 10.5001H56.7336C56.6216 9.92143 56.3416 9.47343 55.8936 9.1561C55.4456 8.83876 54.8856 8.6801 54.2136 8.6801C53.6909 8.6801 53.2616 8.7921 52.9256 9.0161C52.5896 9.2401 52.4216 9.53876 52.4216 9.9121C52.4216 10.3788 52.6362 10.7148 53.0656 10.9201C53.4949 11.1254 54.1949 11.3494 55.1656 11.5921C56.2109 11.8348 57.0602 12.0961 57.7136 12.3761C58.3856 12.6374 58.9642 13.0761 59.4496 13.6921C59.9349 14.2894 60.1776 15.1108 60.1776 16.1561C60.1776 17.0148 59.9442 17.7801 59.4776 18.4521C59.0109 19.1241 58.3576 19.6561 57.5176 20.0481C56.6962 20.4214 55.7629 20.6081 54.7176 20.6081Z" fill="#7351FB"/>
<path d="M43.0069 6.272H46.5629V20.384H43.0069V6.272ZM44.7709 4.228C44.1362 4.228 43.6136 4.032 43.2029 3.64C42.7922 3.22933 42.5869 2.72533 42.5869 2.128C42.5869 1.512 42.7922 1.008 43.2029 0.616001C43.6136 0.205334 44.1362 0 44.7709 0C45.4056 0 45.9283 0.205334 46.3389 0.616001C46.7496 1.008 46.9549 1.512 46.9549 2.128C46.9549 2.72533 46.7496 3.22933 46.3389 3.64C45.9283 4.032 45.4056 4.228 44.7709 4.228Z" fill="#7351FB"/>
<path d="M28.4385 0.783936H32.2465V17.1359H41.4585V20.3839H28.4385V0.783936Z" fill="#7351FB"/>
<path d="M5.656 18.368C4.62933 18.368 3.67733 18.116 2.8 17.612C1.94133 17.108 1.26 16.436 0.756001 15.596C0.252 14.7373 0 13.7946 0 12.768C0 11.76 0.252 10.8266 0.756001 9.96797C1.26 9.1093 1.94133 8.42797 2.8 7.92397C3.67733 7.41997 4.62933 7.16797 5.656 7.16797C6.664 7.16797 7.588 7.41997 8.428 7.92397C9.28667 8.42797 9.95867 9.1093 10.444 9.96797C10.948 10.8266 11.2 11.76 11.2 12.768C11.2 13.7946 10.948 14.7373 10.444 15.596C9.95867 16.436 9.28667 17.108 8.428 17.612C7.588 18.116 6.664 18.368 5.656 18.368Z" fill="#7351FB"/>
<path d="M141.499 54.0522L148.667 47.9202C149.712 47.0242 150.478 46.2215 150.963 45.5122C151.448 44.7842 151.691 44.0749 151.691 43.3842C151.691 42.4882 151.402 41.7695 150.823 41.2282C150.244 40.6869 149.507 40.4162 148.611 40.4162C147.51 40.4162 146.651 40.7989 146.035 41.5642C145.438 42.3109 145.186 43.3282 145.279 44.6162H141.499C141.424 43.2162 141.676 41.9469 142.255 40.8082C142.852 39.6695 143.702 38.7829 144.803 38.1482C145.923 37.4949 147.192 37.1682 148.611 37.1682C149.955 37.1682 151.15 37.4295 152.195 37.9522C153.24 38.4749 154.052 39.2122 154.631 40.1642C155.21 41.0975 155.499 42.1709 155.499 43.3842C155.499 44.6535 155.107 45.8669 154.323 47.0242C153.558 48.1629 152.372 49.3202 150.767 50.4962L146.987 53.7442H155.555V56.9922H141.499V54.0522Z" fill="#7351FB"/>
<path d="M127.511 42.6562C129.023 42.6562 130.255 43.1322 131.207 44.0842C132.159 45.0176 132.635 46.2683 132.635 47.8363V56.9923H129.079V48.5923C129.079 47.7149 128.855 47.0243 128.407 46.5203C127.977 46.0163 127.38 45.7642 126.615 45.7642C125.625 45.7642 124.841 46.1656 124.263 46.9683C123.703 47.7709 123.423 48.7789 123.423 49.9923V56.9923H119.867V48.5923C119.867 47.7149 119.652 47.0243 119.223 46.5203C118.793 46.0163 118.196 45.7642 117.431 45.7642C116.441 45.7642 115.657 46.1656 115.079 46.9683C114.519 47.7709 114.239 48.7789 114.239 49.9923V56.9923H110.683V42.8802H114.239V44.8403C114.668 44.2056 115.265 43.6829 116.031 43.2723C116.815 42.8616 117.683 42.6562 118.635 42.6562C119.624 42.6562 120.501 42.8802 121.267 43.3282C122.032 43.7576 122.545 44.3269 122.807 45.0363C123.348 44.3269 124.039 43.7576 124.879 43.3282C125.719 42.8802 126.596 42.6562 127.511 42.6562Z" fill="#7351FB"/>
<path d="M101.565 57.2163C100.128 57.2163 98.8585 56.9082 97.7572 56.2922C96.6558 55.6762 95.7972 54.8176 95.1812 53.7162C94.5838 52.6149 94.2852 51.3549 94.2852 49.9363C94.2852 48.5363 94.5932 47.2856 95.2092 46.1842C95.8252 45.0829 96.6652 44.2242 97.7292 43.6082C98.8118 42.9736 100.034 42.6562 101.397 42.6562C102.76 42.6562 103.964 42.9549 105.009 43.5522C106.054 44.1309 106.857 44.9429 107.417 45.9883C107.996 47.0336 108.285 48.2003 108.285 49.4883C108.285 49.8616 108.257 50.2629 108.201 50.6922H97.8132C97.9438 51.8309 98.3452 52.7082 99.0172 53.3242C99.6892 53.9402 100.529 54.2483 101.537 54.2483C102.321 54.2483 102.974 54.0803 103.497 53.7443C104.02 53.4083 104.365 52.9509 104.533 52.3722H108.061C107.8 53.8282 107.09 55.0042 105.933 55.9002C104.776 56.7776 103.32 57.2163 101.565 57.2163ZM104.533 48.0882C104.514 47.2856 104.216 46.6416 103.637 46.1562C103.058 45.6522 102.312 45.4002 101.397 45.4002C99.5678 45.4002 98.4292 46.2962 97.9812 48.0882H104.533Z" fill="#7351FB"/>
<path d="M91.1075 57.2163C89.6328 57.2163 88.4288 56.7869 87.4955 55.9283C86.5808 55.0509 86.1235 53.8376 86.1235 52.2883V45.7643H83.8555V42.8803H86.1235V39.4363H89.6795V42.8803H93.0115V45.7643H89.6795V51.9803C89.6795 52.6896 89.8475 53.2309 90.1835 53.6043C90.5195 53.9589 90.9861 54.1363 91.5835 54.1363C92.1061 54.1363 92.6195 54.0429 93.1235 53.8563V56.8523C92.5261 57.0949 91.8541 57.2163 91.1075 57.2163Z" fill="#7351FB"/>
<path d="M78.4171 42.8802H81.9731V56.9922H78.4171V42.8802ZM80.1811 40.8362C79.5464 40.8362 79.0237 40.6402 78.6131 40.2482C78.2024 39.8375 77.9971 39.3335 77.9971 38.7362C77.9971 38.1202 78.2024 37.6162 78.6131 37.2242C79.0237 36.8135 79.5464 36.6082 80.1811 36.6082C80.8157 36.6082 81.3384 36.8135 81.7491 37.2242C82.1597 37.6162 82.3651 38.1202 82.3651 38.7362C82.3651 39.3335 82.1597 39.8375 81.7491 40.2482C81.3384 40.6402 80.8157 40.8362 80.1811 40.8362Z" fill="#7351FB"/>
<path d="M68.3848 57.2163C66.9101 57.2163 65.7061 56.7869 64.7728 55.9283C63.8581 55.0509 63.4008 53.8376 63.4008 52.2883V45.7643H61.1328V42.8803H63.4008V39.4363H66.9568V42.8803H70.2888V45.7643H66.9568V51.9803C66.9568 52.6896 67.1248 53.2309 67.4608 53.6043C67.7968 53.9589 68.2635 54.1363 68.8608 54.1363C69.3835 54.1363 69.8968 54.0429 70.4008 53.8563V56.8523C69.8035 57.0949 69.1315 57.2163 68.3848 57.2163Z" fill="#7351FB"/>
<path d="M54.7176 57.2163C52.9816 57.2163 51.6002 56.7589 50.5736 55.8442C49.5469 54.9109 48.9869 53.7256 48.8936 52.2882H52.1696C52.2442 52.9789 52.4962 53.5109 52.9256 53.8843C53.3736 54.2576 53.9709 54.4443 54.7176 54.4443C55.3709 54.4443 55.8842 54.3042 56.2576 54.0243C56.6496 53.7443 56.8456 53.3522 56.8456 52.8482C56.8456 52.3256 56.6122 51.9429 56.1456 51.7003C55.6789 51.4576 54.9416 51.2149 53.9336 50.9722C52.9256 50.7109 52.1136 50.4496 51.4976 50.1882C50.8816 49.9269 50.3402 49.5256 49.8736 48.9843C49.4256 48.4243 49.2016 47.6682 49.2016 46.7162C49.2016 45.9509 49.4069 45.2602 49.8176 44.6442C50.2282 44.0282 50.8162 43.5429 51.5816 43.1882C52.3469 42.8336 53.2242 42.6562 54.2136 42.6562C55.8749 42.6562 57.2002 43.0482 58.1896 43.8322C59.1976 44.6162 59.7949 45.7082 59.9816 47.1082H56.7336C56.6216 46.5296 56.3416 46.0816 55.8936 45.7642C55.4456 45.4469 54.8856 45.2882 54.2136 45.2882C53.6909 45.2882 53.2616 45.4003 52.9256 45.6243C52.5896 45.8483 52.4216 46.1469 52.4216 46.5203C52.4216 46.9869 52.6362 47.3229 53.0656 47.5282C53.4949 47.7336 54.1949 47.9576 55.1656 48.2003C56.2109 48.4429 57.0602 48.7043 57.7136 48.9843C58.3856 49.2456 58.9642 49.6843 59.4496 50.3003C59.9349 50.8976 60.1776 51.7189 60.1776 52.7642C60.1776 53.6229 59.9442 54.3883 59.4776 55.0603C59.0109 55.7323 58.3576 56.2642 57.5176 56.6562C56.6962 57.0296 55.7629 57.2163 54.7176 57.2163Z" fill="#7351FB"/>
<path d="M43.0069 42.8802H46.5629V56.9922H43.0069V42.8802ZM44.7709 40.8362C44.1362 40.8362 43.6136 40.6402 43.2029 40.2482C42.7922 39.8375 42.5869 39.3335 42.5869 38.7362C42.5869 38.1202 42.7922 37.6162 43.2029 37.2242C43.6136 36.8135 44.1362 36.6082 44.7709 36.6082C45.4056 36.6082 45.9283 36.8135 46.3389 37.2242C46.7496 37.6162 46.9549 38.1202 46.9549 38.7362C46.9549 39.3335 46.7496 39.8375 46.3389 40.2482C45.9283 40.6402 45.4056 40.8362 44.7709 40.8362Z" fill="#7351FB"/>
<path d="M28.4385 37.3921H32.2465V53.7441H41.4585V56.9921H28.4385V37.3921Z" fill="#7351FB"/>
<path d="M5.656 54.9761C4.62933 54.9761 3.67733 54.7241 2.8 54.2201C1.94133 53.7161 1.26 53.0441 0.756001 52.2041C0.252 51.3455 0 50.4028 0 49.3761C0 48.3681 0.252 47.4348 0.756001 46.5761C1.26 45.7175 1.94133 45.0361 2.8 44.5321C3.67733 44.0281 4.62933 43.7761 5.656 43.7761C6.664 43.7761 7.588 44.0281 8.428 44.5321C9.28667 45.0361 9.95867 45.7175 10.444 46.5761C10.948 47.4348 11.2 48.3681 11.2 49.3761C11.2 50.4028 10.948 51.3455 10.444 52.2041C9.95867 53.0441 9.28667 53.7161 8.428 54.2201C7.588 54.7241 6.664 54.9761 5.656 54.9761Z" fill="#7351FB"/>
<path d="M148.023 93.8242C146.53 93.8242 145.232 93.5442 144.131 92.9842C143.03 92.4056 142.19 91.6216 141.611 90.6322C141.032 89.6242 140.734 88.5042 140.715 87.2722H144.299C144.392 88.2802 144.756 89.0829 145.391 89.6802C146.044 90.2776 146.931 90.5762 148.051 90.5762C149.115 90.5762 149.992 90.2589 150.683 89.6242C151.374 88.9896 151.719 88.1869 151.719 87.2162C151.719 86.2642 151.402 85.4896 150.767 84.8922C150.151 84.2762 149.348 83.9682 148.359 83.9682C147.37 83.9682 146.436 84.1456 145.559 84.5002V81.6442L149.983 77.2482H141.331V74.0002H154.463V76.9962L149.703 81.4762C151.532 81.5509 152.951 82.1202 153.959 83.1842C154.986 84.2296 155.499 85.6109 155.499 87.3282C155.499 88.5976 155.182 89.7269 154.547 90.7162C153.912 91.6869 153.026 92.4522 151.887 93.0122C150.767 93.5536 149.479 93.8242 148.023 93.8242Z" fill="#7351FB"/>
<path d="M127.511 79.2644C129.023 79.2644 130.255 79.7404 131.207 80.6924C132.159 81.6257 132.635 82.8764 132.635 84.4444V93.6004H129.079V85.2004C129.079 84.3231 128.855 83.6324 128.407 83.1284C127.977 82.6244 127.38 82.3724 126.615 82.3724C125.625 82.3724 124.841 82.7737 124.263 83.5764C123.703 84.3791 123.423 85.3871 123.423 86.6004V93.6004H119.867V85.2004C119.867 84.3231 119.652 83.6324 119.223 83.1284C118.793 82.6244 118.196 82.3724 117.431 82.3724C116.441 82.3724 115.657 82.7737 115.079 83.5764C114.519 84.3791 114.239 85.3871 114.239 86.6004V93.6004H110.683V79.4884H114.239V81.4484C114.668 80.8137 115.265 80.2911 116.031 79.8804C116.815 79.4697 117.683 79.2644 118.635 79.2644C119.624 79.2644 120.501 79.4884 121.267 79.9364C122.032 80.3657 122.545 80.9351 122.807 81.6444C123.348 80.9351 124.039 80.3657 124.879 79.9364C125.719 79.4884 126.596 79.2644 127.511 79.2644Z" fill="#7351FB"/>
<path d="M101.565 93.8244C100.128 93.8244 98.8585 93.5164 97.7572 92.9004C96.6558 92.2844 95.7972 91.4257 95.1812 90.3244C94.5838 89.2231 94.2852 87.9631 94.2852 86.5444C94.2852 85.1444 94.5932 83.8937 95.2092 82.7924C95.8252 81.6911 96.6652 80.8324 97.7292 80.2164C98.8118 79.5817 100.034 79.2644 101.397 79.2644C102.76 79.2644 103.964 79.5631 105.009 80.1604C106.054 80.7391 106.857 81.5511 107.417 82.5964C107.996 83.6417 108.285 84.8084 108.285 86.0964C108.285 86.4697 108.257 86.8711 108.201 87.3004H97.8132C97.9438 88.4391 98.3452 89.3164 99.0172 89.9324C99.6892 90.5484 100.529 90.8564 101.537 90.8564C102.321 90.8564 102.974 90.6884 103.497 90.3524C104.02 90.0164 104.365 89.5591 104.533 88.9804H108.061C107.8 90.4364 107.09 91.6124 105.933 92.5084C104.776 93.3857 103.32 93.8244 101.565 93.8244ZM104.533 84.6964C104.514 83.8937 104.216 83.2497 103.637 82.7644C103.058 82.2604 102.312 82.0084 101.397 82.0084C99.5678 82.0084 98.4292 82.9044 97.9812 84.6964H104.533Z" fill="#7351FB"/>
<path d="M91.1075 93.8244C89.6328 93.8244 88.4288 93.3951 87.4955 92.5364C86.5808 91.6591 86.1235 90.4458 86.1235 88.8964V82.3724H83.8555V79.4884H86.1235V76.0444H89.6795V79.4884H93.0115V82.3724H89.6795V88.5884C89.6795 89.2978 89.8475 89.8391 90.1835 90.2124C90.5195 90.5671 90.9861 90.7444 91.5835 90.7444C92.1061 90.7444 92.6195 90.6511 93.1235 90.4644V93.4604C92.5261 93.7031 91.8541 93.8244 91.1075 93.8244Z" fill="#7351FB"/>
<path d="M78.4171 79.4883H81.9731V93.6003H78.4171V79.4883ZM80.1811 77.4443C79.5464 77.4443 79.0237 77.2483 78.6131 76.8563C78.2024 76.4456 77.9971 75.9416 77.9971 75.3443C77.9971 74.7283 78.2024 74.2243 78.6131 73.8323C79.0237 73.4216 79.5464 73.2163 80.1811 73.2163C80.8157 73.2163 81.3384 73.4216 81.7491 73.8323C82.1597 74.2243 82.3651 74.7283 82.3651 75.3443C82.3651 75.9416 82.1597 76.4456 81.7491 76.8563C81.3384 77.2483 80.8157 77.4443 80.1811 77.4443Z" fill="#7351FB"/>
<path d="M68.3848 93.8244C66.9101 93.8244 65.7061 93.3951 64.7728 92.5364C63.8581 91.6591 63.4008 90.4458 63.4008 88.8964V82.3724H61.1328V79.4884H63.4008V76.0444H66.9568V79.4884H70.2888V82.3724H66.9568V88.5884C66.9568 89.2978 67.1248 89.8391 67.4608 90.2124C67.7968 90.5671 68.2635 90.7444 68.8608 90.7444C69.3835 90.7444 69.8968 90.6511 70.4008 90.4644V93.4604C69.8035 93.7031 69.1315 93.8244 68.3848 93.8244Z" fill="#7351FB"/>
<path d="M54.7176 93.8244C52.9816 93.8244 51.6002 93.3671 50.5736 92.4524C49.5469 91.5191 48.9869 90.3337 48.8936 88.8964H52.1696C52.2442 89.5871 52.4962 90.1191 52.9256 90.4924C53.3736 90.8657 53.9709 91.0524 54.7176 91.0524C55.3709 91.0524 55.8842 90.9124 56.2576 90.6324C56.6496 90.3524 56.8456 89.9604 56.8456 89.4564C56.8456 88.9337 56.6122 88.5511 56.1456 88.3084C55.6789 88.0657 54.9416 87.8231 53.9336 87.5804C52.9256 87.3191 52.1136 87.0577 51.4976 86.7964C50.8816 86.5351 50.3402 86.1337 49.8736 85.5924C49.4256 85.0324 49.2016 84.2764 49.2016 83.3244C49.2016 82.5591 49.4069 81.8684 49.8176 81.2524C50.2282 80.6364 50.8162 80.1511 51.5816 79.7964C52.3469 79.4417 53.2242 79.2644 54.2136 79.2644C55.8749 79.2644 57.2002 79.6564 58.1896 80.4404C59.1976 81.2244 59.7949 82.3164 59.9816 83.7164H56.7336C56.6216 83.1377 56.3416 82.6897 55.8936 82.3724C55.4456 82.0551 54.8856 81.8964 54.2136 81.8964C53.6909 81.8964 53.2616 82.0084 52.9256 82.2324C52.5896 82.4564 52.4216 82.7551 52.4216 83.1284C52.4216 83.5951 52.6362 83.9311 53.0656 84.1364C53.4949 84.3417 54.1949 84.5657 55.1656 84.8084C56.2109 85.0511 57.0602 85.3124 57.7136 85.5924C58.3856 85.8537 58.9642 86.2924 59.4496 86.9084C59.9349 87.5057 60.1776 88.3271 60.1776 89.3724C60.1776 90.2311 59.9442 90.9964 59.4776 91.6684C59.0109 92.3404 58.3576 92.8724 57.5176 93.2644C56.6962 93.6377 55.7629 93.8244 54.7176 93.8244Z" fill="#7351FB"/>
<path d="M43.0069 79.4883H46.5629V93.6003H43.0069V79.4883ZM44.7709 77.4443C44.1362 77.4443 43.6136 77.2483 43.2029 76.8563C42.7922 76.4456 42.5869 75.9416 42.5869 75.3443C42.5869 74.7283 42.7922 74.2243 43.2029 73.8323C43.6136 73.4216 44.1362 73.2163 44.7709 73.2163C45.4056 73.2163 45.9283 73.4216 46.3389 73.8323C46.7496 74.2243 46.9549 74.7283 46.9549 75.3443C46.9549 75.9416 46.7496 76.4456 46.3389 76.8563C45.9283 77.2483 45.4056 77.4443 44.7709 77.4443Z" fill="#7351FB"/>
<path d="M28.4385 74.0002H32.2465V90.3522H41.4585V93.6002H28.4385V74.0002Z" fill="#7351FB"/>
<path d="M5.656 91.5843C4.62933 91.5843 3.67733 91.3323 2.8 90.8283C1.94133 90.3243 1.26 89.6523 0.756001 88.8123C0.252 87.9536 0 87.0109 0 85.9843C0 84.9763 0.252 84.0429 0.756001 83.1843C1.26 82.3256 1.94133 81.6443 2.8 81.1403C3.67733 80.6363 4.62933 80.3843 5.656 80.3843C6.664 80.3843 7.588 80.6363 8.428 81.1403C9.28667 81.6443 9.95867 82.3256 10.444 83.1843C10.948 84.0429 11.2 84.9763 11.2 85.9843C11.2 87.0109 10.948 87.9536 10.444 88.8123C9.95867 89.6523 9.28667 90.3243 8.428 90.8283C7.588 91.3323 6.664 91.5843 5.656 91.5843Z" fill="#7351FB"/>
</svg>
