<svg width="167" height="94" viewBox="0 0 167 94" fill="none" xmlns="http://www.w3.org/2000/svg">
<path d="M145.196 4.98395C144.711 5.43195 144.039 5.84262 143.18 6.21595C142.322 6.57062 141.398 6.86928 140.408 7.11195V3.83595C141.248 3.63061 142.163 3.25728 143.152 2.71595C144.142 2.15595 145.019 1.51195 145.784 0.783948H149.004V20.384H145.196V4.98395Z" fill="#7351FB"/>
<path d="M127.51 6.04795C129.022 6.04795 130.254 6.52395 131.206 7.47595C132.158 8.40928 132.634 9.65995 132.634 11.2279V20.3839H129.078V11.9839C129.078 11.1066 128.854 10.4159 128.406 9.91195C127.976 9.40795 127.379 9.15595 126.614 9.15595C125.624 9.15595 124.84 9.55728 124.262 10.3599C123.702 11.1626 123.422 12.1706 123.422 13.3839V20.3839H119.866V11.9839C119.866 11.1066 119.651 10.4159 119.222 9.91195C118.792 9.40795 118.195 9.15595 117.43 9.15595C116.44 9.15595 115.656 9.55728 115.078 10.3599C114.518 11.1626 114.238 12.1706 114.238 13.3839V20.3839H110.682V6.27195H114.238V8.23195C114.667 7.59728 115.264 7.07462 116.03 6.66395C116.814 6.25328 117.682 6.04795 118.634 6.04795C119.623 6.04795 120.5 6.27195 121.266 6.71995C122.031 7.14928 122.544 7.71862 122.806 8.42795C123.347 7.71862 124.038 7.14928 124.878 6.71995C125.718 6.27195 126.595 6.04795 127.51 6.04795Z" fill="#7351FB"/>
<path d="M101.565 20.608C100.128 20.608 98.8585 20.2999 97.7572 19.6839C96.6558 19.0679 95.7972 18.2093 95.1812 17.1079C94.5838 16.0066 94.2852 14.7466 94.2852 13.3279C94.2852 11.9279 94.5932 10.6773 95.2092 9.57595C95.8252 8.47462 96.6652 7.61595 97.7292 6.99995C98.8118 6.36528 100.034 6.04795 101.397 6.04795C102.76 6.04795 103.964 6.34662 105.009 6.94395C106.054 7.52262 106.857 8.33462 107.417 9.37995C107.996 10.4253 108.285 11.5919 108.285 12.8799C108.285 13.2533 108.257 13.6546 108.201 14.0839H97.8132C97.9438 15.2226 98.3452 16.0999 99.0172 16.7159C99.6892 17.3319 100.529 17.6399 101.537 17.6399C102.321 17.6399 102.974 17.472 103.497 17.136C104.02 16.7999 104.365 16.3426 104.533 15.7639H108.061C107.8 17.2199 107.09 18.3959 105.933 19.2919C104.776 20.1693 103.32 20.608 101.565 20.608ZM104.533 11.4799C104.514 10.6773 104.216 10.0333 103.637 9.54795C103.058 9.04395 102.312 8.79195 101.397 8.79195C99.5678 8.79195 98.4292 9.68795 97.9812 11.4799H104.533Z" fill="#7351FB"/>
<path d="M91.1075 20.608C89.6328 20.608 88.4288 20.1786 87.4955 19.32C86.5808 18.4426 86.1235 17.2293 86.1235 15.6799V9.15595H83.8555V6.27195H86.1235V2.82795H89.6795V6.27195H93.0115V9.15595H89.6795V15.3719C89.6795 16.0813 89.8475 16.6226 90.1835 16.9959C90.5195 17.3506 90.9861 17.5279 91.5835 17.5279C92.1061 17.5279 92.6195 17.4346 93.1235 17.248V20.2439C92.5261 20.4866 91.8541 20.608 91.1075 20.608Z" fill="#7351FB"/>
<path d="M78.4161 6.27195H81.9721V20.3839H78.4161V6.27195ZM80.1801 4.22795C79.5454 4.22795 79.0228 4.03195 78.6121 3.63995C78.2014 3.22928 77.9961 2.72528 77.9961 2.12795C77.9961 1.51195 78.2014 1.00795 78.6121 0.615949C79.0228 0.205282 79.5454 -5.14984e-05 80.1801 -5.14984e-05C80.8148 -5.14984e-05 81.3374 0.205282 81.7481 0.615949C82.1588 1.00795 82.3641 1.51195 82.3641 2.12795C82.3641 2.72528 82.1588 3.22928 81.7481 3.63995C81.3374 4.03195 80.8148 4.22795 80.1801 4.22795Z" fill="#7351FB"/>
<path d="M68.3848 20.608C66.9101 20.608 65.7061 20.1786 64.7728 19.32C63.8581 18.4426 63.4008 17.2293 63.4008 15.6799V9.15595H61.1328V6.27195H63.4008V2.82795H66.9568V6.27195H70.2888V9.15595H66.9568V15.3719C66.9568 16.0813 67.1248 16.6226 67.4608 16.9959C67.7968 17.3506 68.2635 17.5279 68.8608 17.5279C69.3835 17.5279 69.8968 17.4346 70.4008 17.248V20.2439C69.8035 20.4866 69.1315 20.608 68.3848 20.608Z" fill="#7351FB"/>
<path d="M54.7185 20.608C52.9825 20.608 51.6012 20.1506 50.5745 19.2359C49.5479 18.3026 48.9879 17.1173 48.8945 15.6799H52.1705C52.2452 16.3706 52.4972 16.9026 52.9265 17.2759C53.3745 17.6493 53.9719 17.8359 54.7185 17.8359C55.3719 17.8359 55.8852 17.6959 56.2585 17.4159C56.6505 17.1359 56.8465 16.7439 56.8465 16.2399C56.8465 15.7173 56.6132 15.3346 56.1465 15.0919C55.6799 14.8493 54.9425 14.6066 53.9345 14.3639C52.9265 14.1026 52.1145 13.8413 51.4985 13.5799C50.8825 13.3186 50.3412 12.9173 49.8745 12.3759C49.4265 11.8159 49.2025 11.0599 49.2025 10.1079C49.2025 9.34261 49.4079 8.65195 49.8185 8.03595C50.2292 7.41995 50.8172 6.93462 51.5825 6.57995C52.3479 6.22528 53.2252 6.04795 54.2145 6.04795C55.8759 6.04795 57.2012 6.43995 58.1905 7.22395C59.1985 8.00795 59.7959 9.09995 59.9825 10.4999H56.7345C56.6225 9.92128 56.3425 9.47328 55.8945 9.15595C55.4465 8.83862 54.8865 8.67995 54.2145 8.67995C53.6919 8.67995 53.2625 8.79195 52.9265 9.01595C52.5905 9.23995 52.4225 9.53862 52.4225 9.91195C52.4225 10.3786 52.6372 10.7146 53.0665 10.9199C53.4959 11.1253 54.1959 11.3493 55.1665 11.5919C56.2119 11.8346 57.0612 12.0959 57.7145 12.3759C58.3865 12.6373 58.9652 13.0759 59.4505 13.6919C59.9359 14.2893 60.1785 15.1106 60.1785 16.1559C60.1785 17.0146 59.9452 17.78 59.4785 18.452C59.0119 19.124 58.3585 19.6559 57.5185 20.0479C56.6972 20.4213 55.7639 20.608 54.7185 20.608Z" fill="#7351FB"/>
<path d="M43.0059 6.27195H46.5619V20.3839H43.0059V6.27195ZM44.7699 4.22795C44.1353 4.22795 43.6126 4.03195 43.2019 3.63995C42.7913 3.22928 42.5859 2.72528 42.5859 2.12795C42.5859 1.51195 42.7913 1.00795 43.2019 0.615949C43.6126 0.205282 44.1353 -5.14984e-05 44.7699 -5.14984e-05C45.4046 -5.14984e-05 45.9273 0.205282 46.3379 0.615949C46.7486 1.00795 46.9539 1.51195 46.9539 2.12795C46.9539 2.72528 46.7486 3.22928 46.3379 3.63995C45.9273 4.03195 45.4046 4.22795 44.7699 4.22795Z" fill="#7351FB"/>
<path d="M28.4375 0.783948H32.2455V17.1359H41.4575V20.384H28.4375V0.783948Z" fill="#7351FB"/>
<path d="M5.656 18.3679C4.62933 18.3679 3.67733 18.116 2.8 17.612C1.94133 17.108 1.26 16.436 0.756001 15.596C0.252 14.7373 0 13.7946 0 12.7679C0 11.7599 0.252 10.8266 0.756001 9.96795C1.26 9.10928 1.94133 8.42795 2.8 7.92395C3.67733 7.41995 4.62933 7.16795 5.656 7.16795C6.664 7.16795 7.588 7.41995 8.428 7.92395C9.28667 8.42795 9.95867 9.10928 10.444 9.96795C10.948 10.8266 11.2 11.7599 11.2 12.7679C11.2 13.7946 10.948 14.7373 10.444 15.596C9.95867 16.436 9.28667 17.108 8.428 17.612C7.588 18.116 6.664 18.3679 5.656 18.3679Z" fill="#7351FB"/>
<path d="M141.499 54.0521L148.667 47.9201C149.712 47.0241 150.478 46.2214 150.963 45.5121C151.448 44.7841 151.691 44.0747 151.691 43.3841C151.691 42.4881 151.402 41.7694 150.823 41.2281C150.244 40.6867 149.507 40.4161 148.611 40.4161C147.51 40.4161 146.651 40.7987 146.035 41.5641C145.438 42.3107 145.186 43.3281 145.279 44.6161H141.499C141.424 43.2161 141.676 41.9467 142.255 40.8081C142.852 39.6694 143.702 38.7827 144.803 38.1481C145.923 37.4947 147.192 37.1681 148.611 37.1681C149.955 37.1681 151.15 37.4294 152.195 37.9521C153.24 38.4747 154.052 39.2121 154.631 40.1641C155.21 41.0974 155.499 42.1707 155.499 43.3841C155.499 44.6534 155.107 45.8667 154.323 47.0241C153.558 48.1627 152.372 49.3201 150.767 50.4961L146.987 53.7441H155.555V56.9921H141.499V54.0521Z" fill="#7351FB"/>
<path d="M127.51 42.6561C129.022 42.6561 130.254 43.1321 131.206 44.0841C132.158 45.0174 132.634 46.2681 132.634 47.8361V56.9921H129.078V48.5921C129.078 47.7147 128.854 47.0241 128.406 46.5201C127.976 46.0161 127.379 45.7641 126.614 45.7641C125.624 45.7641 124.84 46.1654 124.262 46.9681C123.702 47.7707 123.422 48.7787 123.422 49.9921V56.9921H119.866V48.5921C119.866 47.7147 119.651 47.0241 119.222 46.5201C118.792 46.0161 118.195 45.7641 117.43 45.7641C116.44 45.7641 115.656 46.1654 115.078 46.9681C114.518 47.7707 114.238 48.7787 114.238 49.9921V56.9921H110.682V42.8801H114.238V44.8401C114.667 44.2054 115.264 43.6827 116.03 43.2721C116.814 42.8614 117.682 42.6561 118.634 42.6561C119.623 42.6561 120.5 42.8801 121.266 43.3281C122.031 43.7574 122.544 44.3267 122.806 45.0361C123.347 44.3267 124.038 43.7574 124.878 43.3281C125.718 42.8801 126.595 42.6561 127.51 42.6561Z" fill="#7351FB"/>
<path d="M101.565 57.2161C100.128 57.2161 98.8585 56.9081 97.7572 56.2921C96.6558 55.6761 95.7972 54.8174 95.1812 53.7161C94.5838 52.6147 94.2852 51.3547 94.2852 49.9361C94.2852 48.5361 94.5932 47.2854 95.2092 46.1841C95.8252 45.0827 96.6652 44.2241 97.7292 43.6081C98.8118 42.9734 100.034 42.6561 101.397 42.6561C102.76 42.6561 103.964 42.9547 105.009 43.5521C106.054 44.1307 106.857 44.9427 107.417 45.9881C107.996 47.0334 108.285 48.2001 108.285 49.4881C108.285 49.8614 108.257 50.2627 108.201 50.6921H97.8132C97.9438 51.8307 98.3452 52.7081 99.0172 53.3241C99.6892 53.9401 100.529 54.2481 101.537 54.2481C102.321 54.2481 102.974 54.0801 103.497 53.7441C104.02 53.4081 104.365 52.9507 104.533 52.3721H108.061C107.8 53.8281 107.09 55.0041 105.933 55.9001C104.776 56.7774 103.32 57.2161 101.565 57.2161ZM104.533 48.0881C104.514 47.2854 104.216 46.6414 103.637 46.1561C103.058 45.6521 102.312 45.4001 101.397 45.4001C99.5678 45.4001 98.4292 46.2961 97.9812 48.0881H104.533Z" fill="#7351FB"/>
<path d="M91.1075 57.2161C89.6328 57.2161 88.4288 56.7867 87.4955 55.9281C86.5808 55.0507 86.1235 53.8374 86.1235 52.2881V45.7641H83.8555V42.8801H86.1235V39.4361H89.6795V42.8801H93.0115V45.7641H89.6795V51.9801C89.6795 52.6894 89.8475 53.2307 90.1835 53.6041C90.5195 53.9587 90.9861 54.1361 91.5835 54.1361C92.1061 54.1361 92.6195 54.0427 93.1235 53.8561V56.8521C92.5261 57.0947 91.8541 57.2161 91.1075 57.2161Z" fill="#7351FB"/>
<path d="M78.4161 42.8801H81.9721V56.9921H78.4161V42.8801ZM80.1801 40.8361C79.5454 40.8361 79.0228 40.6401 78.6121 40.2481C78.2014 39.8374 77.9961 39.3334 77.9961 38.7361C77.9961 38.1201 78.2014 37.6161 78.6121 37.2241C79.0228 36.8134 79.5454 36.6081 80.1801 36.6081C80.8148 36.6081 81.3374 36.8134 81.7481 37.2241C82.1588 37.6161 82.3641 38.1201 82.3641 38.7361C82.3641 39.3334 82.1588 39.8374 81.7481 40.2481C81.3374 40.6401 80.8148 40.8361 80.1801 40.8361Z" fill="#7351FB"/>
<path d="M68.3848 57.2161C66.9101 57.2161 65.7061 56.7867 64.7728 55.9281C63.8581 55.0507 63.4008 53.8374 63.4008 52.2881V45.7641H61.1328V42.8801H63.4008V39.4361H66.9568V42.8801H70.2888V45.7641H66.9568V51.9801C66.9568 52.6894 67.1248 53.2307 67.4608 53.6041C67.7968 53.9587 68.2635 54.1361 68.8608 54.1361C69.3835 54.1361 69.8968 54.0427 70.4008 53.8561V56.8521C69.8035 57.0947 69.1315 57.2161 68.3848 57.2161Z" fill="#7351FB"/>
<path d="M54.7185 57.2161C52.9825 57.2161 51.6012 56.7587 50.5745 55.8441C49.5479 54.9107 48.9879 53.7254 48.8945 52.2881H52.1705C52.2452 52.9787 52.4972 53.5107 52.9265 53.8841C53.3745 54.2574 53.9719 54.4441 54.7185 54.4441C55.3719 54.4441 55.8852 54.3041 56.2585 54.0241C56.6505 53.7441 56.8465 53.3521 56.8465 52.8481C56.8465 52.3254 56.6132 51.9427 56.1465 51.7001C55.6799 51.4574 54.9425 51.2147 53.9345 50.9721C52.9265 50.7107 52.1145 50.4494 51.4985 50.1881C50.8825 49.9267 50.3412 49.5254 49.8745 48.9841C49.4265 48.4241 49.2025 47.6681 49.2025 46.7161C49.2025 45.9507 49.4079 45.2601 49.8185 44.6441C50.2292 44.0281 50.8172 43.5427 51.5825 43.1881C52.3479 42.8334 53.2252 42.6561 54.2145 42.6561C55.8759 42.6561 57.2012 43.0481 58.1905 43.8321C59.1985 44.6161 59.7959 45.7081 59.9825 47.1081H56.7345C56.6225 46.5294 56.3425 46.0814 55.8945 45.7641C55.4465 45.4467 54.8865 45.2881 54.2145 45.2881C53.6919 45.2881 53.2625 45.4001 52.9265 45.6241C52.5905 45.8481 52.4225 46.1467 52.4225 46.5201C52.4225 46.9867 52.6372 47.3227 53.0665 47.5281C53.4959 47.7334 54.1959 47.9574 55.1665 48.2001C56.2119 48.4427 57.0612 48.7041 57.7145 48.9841C58.3865 49.2454 58.9652 49.6841 59.4505 50.3001C59.9359 50.8974 60.1785 51.7187 60.1785 52.7641C60.1785 53.6227 59.9452 54.3881 59.4785 55.0601C59.0119 55.7321 58.3585 56.2641 57.5185 56.6561C56.6972 57.0294 55.7639 57.2161 54.7185 57.2161Z" fill="#7351FB"/>
<path d="M43.0059 42.8801H46.5619V56.9921H43.0059V42.8801ZM44.7699 40.8361C44.1353 40.8361 43.6126 40.6401 43.2019 40.2481C42.7913 39.8374 42.5859 39.3334 42.5859 38.7361C42.5859 38.1201 42.7913 37.6161 43.2019 37.2241C43.6126 36.8134 44.1353 36.6081 44.7699 36.6081C45.4046 36.6081 45.9273 36.8134 46.3379 37.2241C46.7486 37.6161 46.9539 38.1201 46.9539 38.7361C46.9539 39.3334 46.7486 39.8374 46.3379 40.2481C45.9273 40.6401 45.4046 40.8361 44.7699 40.8361Z" fill="#7351FB"/>
<path d="M28.4375 37.3921H32.2455V53.7441H41.4575V56.9921H28.4375V37.3921Z" fill="#7351FB"/>
<path d="M5.656 54.9761C4.62933 54.9761 3.67733 54.7241 2.8 54.2201C1.94133 53.7161 1.26 53.0441 0.756001 52.2041C0.252 51.3454 0 50.4027 0 49.3761C0 48.3681 0.252 47.4347 0.756001 46.5761C1.26 45.7174 1.94133 45.0361 2.8 44.5321C3.67733 44.0281 4.62933 43.7761 5.656 43.7761C6.664 43.7761 7.588 44.0281 8.428 44.5321C9.28667 45.0361 9.95867 45.7174 10.444 46.5761C10.948 47.4347 11.2 48.3681 11.2 49.3761C11.2 50.4027 10.948 51.3454 10.444 52.2041C9.95867 53.0441 9.28667 53.7161 8.428 54.2201C7.588 54.7241 6.664 54.9761 5.656 54.9761Z" fill="#7351FB"/>
<path d="M148.023 93.8242C146.53 93.8242 145.232 93.5442 144.131 92.9842C143.03 92.4055 142.19 91.6215 141.611 90.6322C141.032 89.6242 140.734 88.5042 140.715 87.2722H144.299C144.392 88.2802 144.756 89.0829 145.391 89.6802C146.044 90.2775 146.931 90.5762 148.051 90.5762C149.115 90.5762 149.992 90.2589 150.683 89.6242C151.374 88.9895 151.719 88.1869 151.719 87.2162C151.719 86.2642 151.402 85.4895 150.767 84.8922C150.151 84.2762 149.348 83.9682 148.359 83.9682C147.37 83.9682 146.436 84.1455 145.559 84.5002V81.6442L149.983 77.2482H141.331V74.0002H154.463V76.9962L149.703 81.4762C151.532 81.5509 152.951 82.1202 153.959 83.1842C154.986 84.2295 155.499 85.6109 155.499 87.3282C155.499 88.5975 155.182 89.7269 154.547 90.7162C153.912 91.6869 153.026 92.4522 151.887 93.0122C150.767 93.5535 149.479 93.8242 148.023 93.8242Z" fill="#7351FB"/>
<path d="M127.51 79.2642C129.022 79.2642 130.254 79.7402 131.206 80.6922C132.158 81.6255 132.634 82.8762 132.634 84.4442V93.6002H129.078V85.2002C129.078 84.3229 128.854 83.6322 128.406 83.1282C127.976 82.6242 127.379 82.3722 126.614 82.3722C125.624 82.3722 124.84 82.7735 124.262 83.5762C123.702 84.3789 123.422 85.3869 123.422 86.6002V93.6002H119.866V85.2002C119.866 84.3229 119.651 83.6322 119.222 83.1282C118.792 82.6242 118.195 82.3722 117.43 82.3722C116.44 82.3722 115.656 82.7735 115.078 83.5762C114.518 84.3789 114.238 85.3869 114.238 86.6002V93.6002H110.682V79.4882H114.238V81.4482C114.667 80.8135 115.264 80.2909 116.03 79.8802C116.814 79.4695 117.682 79.2642 118.634 79.2642C119.623 79.2642 120.5 79.4882 121.266 79.9362C122.031 80.3655 122.544 80.9349 122.806 81.6442C123.347 80.9349 124.038 80.3655 124.878 79.9362C125.718 79.4882 126.595 79.2642 127.51 79.2642Z" fill="#7351FB"/>
<path d="M101.565 93.8242C100.128 93.8242 98.8585 93.5162 97.7572 92.9002C96.6558 92.2842 95.7972 91.4255 95.1812 90.3242C94.5838 89.2229 94.2852 87.9629 94.2852 86.5442C94.2852 85.1442 94.5932 83.8935 95.2092 82.7922C95.8252 81.6909 96.6652 80.8322 97.7292 80.2162C98.8118 79.5815 100.034 79.2642 101.397 79.2642C102.76 79.2642 103.964 79.5629 105.009 80.1602C106.054 80.7389 106.857 81.5509 107.417 82.5962C107.996 83.6415 108.285 84.8082 108.285 86.0962C108.285 86.4695 108.257 86.8709 108.201 87.3002H97.8132C97.9438 88.4389 98.3452 89.3162 99.0172 89.9322C99.6892 90.5482 100.529 90.8562 101.537 90.8562C102.321 90.8562 102.974 90.6882 103.497 90.3522C104.02 90.0162 104.365 89.5589 104.533 88.9802H108.061C107.8 90.4362 107.09 91.6122 105.933 92.5082C104.776 93.3855 103.32 93.8242 101.565 93.8242ZM104.533 84.6962C104.514 83.8935 104.216 83.2495 103.637 82.7642C103.058 82.2602 102.312 82.0082 101.397 82.0082C99.5678 82.0082 98.4292 82.9042 97.9812 84.6962H104.533Z" fill="#7351FB"/>
<path d="M91.1075 93.8242C89.6328 93.8242 88.4288 93.3949 87.4955 92.5362C86.5808 91.6589 86.1235 90.4455 86.1235 88.8962V82.3722H83.8555V79.4882H86.1235V76.0442H89.6795V79.4882H93.0115V82.3722H89.6795V88.5882C89.6795 89.2975 89.8475 89.8389 90.1835 90.2122C90.5195 90.5669 90.9861 90.7442 91.5835 90.7442C92.1061 90.7442 92.6195 90.6509 93.1235 90.4642V93.4602C92.5261 93.7029 91.8541 93.8242 91.1075 93.8242Z" fill="#7351FB"/>
<path d="M78.4161 79.4882H81.9721V93.6002H78.4161V79.4882ZM80.1801 77.4442C79.5454 77.4442 79.0228 77.2482 78.6121 76.8562C78.2014 76.4455 77.9961 75.9415 77.9961 75.3442C77.9961 74.7282 78.2014 74.2242 78.6121 73.8322C79.0228 73.4215 79.5454 73.2162 80.1801 73.2162C80.8148 73.2162 81.3374 73.4215 81.7481 73.8322C82.1588 74.2242 82.3641 74.7282 82.3641 75.3442C82.3641 75.9415 82.1588 76.4455 81.7481 76.8562C81.3374 77.2482 80.8148 77.4442 80.1801 77.4442Z" fill="#7351FB"/>
<path d="M68.3848 93.8242C66.9101 93.8242 65.7061 93.3949 64.7728 92.5362C63.8581 91.6589 63.4008 90.4455 63.4008 88.8962V82.3722H61.1328V79.4882H63.4008V76.0442H66.9568V79.4882H70.2888V82.3722H66.9568V88.5882C66.9568 89.2975 67.1248 89.8389 67.4608 90.2122C67.7968 90.5669 68.2635 90.7442 68.8608 90.7442C69.3835 90.7442 69.8968 90.6509 70.4008 90.4642V93.4602C69.8035 93.7029 69.1315 93.8242 68.3848 93.8242Z" fill="#7351FB"/>
<path d="M54.7185 93.8242C52.9825 93.8242 51.6012 93.3669 50.5745 92.4522C49.5479 91.5189 48.9879 90.3335 48.8945 88.8962H52.1705C52.2452 89.5869 52.4972 90.1189 52.9265 90.4922C53.3745 90.8655 53.9719 91.0522 54.7185 91.0522C55.3719 91.0522 55.8852 90.9122 56.2585 90.6322C56.6505 90.3522 56.8465 89.9602 56.8465 89.4562C56.8465 88.9335 56.6132 88.5509 56.1465 88.3082C55.6799 88.0655 54.9425 87.8229 53.9345 87.5802C52.9265 87.3189 52.1145 87.0575 51.4985 86.7962C50.8825 86.5349 50.3412 86.1335 49.8745 85.5922C49.4265 85.0322 49.2025 84.2762 49.2025 83.3242C49.2025 82.5589 49.4079 81.8682 49.8185 81.2522C50.2292 80.6362 50.8172 80.1509 51.5825 79.7962C52.3479 79.4415 53.2252 79.2642 54.2145 79.2642C55.8759 79.2642 57.2012 79.6562 58.1905 80.4402C59.1985 81.2242 59.7959 82.3162 59.9825 83.7162H56.7345C56.6225 83.1375 56.3425 82.6895 55.8945 82.3722C55.4465 82.0549 54.8865 81.8962 54.2145 81.8962C53.6919 81.8962 53.2625 82.0082 52.9265 82.2322C52.5905 82.4562 52.4225 82.7549 52.4225 83.1282C52.4225 83.5949 52.6372 83.9309 53.0665 84.1362C53.4959 84.3415 54.1959 84.5655 55.1665 84.8082C56.2119 85.0509 57.0612 85.3122 57.7145 85.5922C58.3865 85.8535 58.9652 86.2922 59.4505 86.9082C59.9359 87.5055 60.1785 88.3269 60.1785 89.3722C60.1785 90.2309 59.9452 90.9962 59.4785 91.6682C59.0119 92.3402 58.3585 92.8722 57.5185 93.2642C56.6972 93.6375 55.7639 93.8242 54.7185 93.8242Z" fill="#7351FB"/>
<path d="M43.0059 79.4882H46.5619V93.6002H43.0059V79.4882ZM44.7699 77.4442C44.1353 77.4442 43.6126 77.2482 43.2019 76.8562C42.7913 76.4455 42.5859 75.9415 42.5859 75.3442C42.5859 74.7282 42.7913 74.2242 43.2019 73.8322C43.6126 73.4215 44.1353 73.2162 44.7699 73.2162C45.4046 73.2162 45.9273 73.4215 46.3379 73.8322C46.7486 74.2242 46.9539 74.7282 46.9539 75.3442C46.9539 75.9415 46.7486 76.4455 46.3379 76.8562C45.9273 77.2482 45.4046 77.4442 44.7699 77.4442Z" fill="#7351FB"/>
<path d="M28.4375 74.0002H32.2455V90.3522H41.4575V93.6002H28.4375V74.0002Z" fill="#7351FB"/>
<path d="M5.656 91.5842C4.62933 91.5842 3.67733 91.3322 2.8 90.8282C1.94133 90.3242 1.26 89.6522 0.756001 88.8122C0.252 87.9535 0 87.0109 0 85.9842C0 84.9762 0.252 84.0429 0.756001 83.1842C1.26 82.3255 1.94133 81.6442 2.8 81.1402C3.67733 80.6362 4.62933 80.3842 5.656 80.3842C6.664 80.3842 7.588 80.6362 8.428 81.1402C9.28667 81.6442 9.95867 82.3255 10.444 83.1842C10.948 84.0429 11.2 84.9762 11.2 85.9842C11.2 87.0109 10.948 87.9535 10.444 88.8122C9.95867 89.6522 9.28667 90.3242 8.428 90.8282C7.588 91.3322 6.664 91.5842 5.656 91.5842Z" fill="#7351FB"/>
</svg>
