<svg width="234" height="40" viewBox="0 0 234 40" fill="none" xmlns="http://www.w3.org/2000/svg">
<path fill-rule="evenodd" clip-rule="evenodd" d="M15.8346 28.1878C15.536 28.4864 15.0518 28.4864 14.7532 28.1878L7.1061 20.5407C6.80746 20.2421 6.80746 19.7579 7.1061 19.4593L14.7532 11.8122C15.0518 11.5136 15.536 11.5136 15.8346 11.8122C16.1333 12.1109 16.1333 12.595 15.8346 12.8937L8.72829 20L15.8346 27.1063C16.1333 27.405 16.1333 27.8892 15.8346 28.1878Z" fill="white"/>
<circle cx="61.1762" cy="20" r="19.1176" fill="#7351FB"/>
<circle cx="117" cy="20" r="19.1176" fill="#4324C8"/>
<circle cx="172.823" cy="20" r="19.1176" fill="#4324C8"/>
<path fill-rule="evenodd" clip-rule="evenodd" d="M218.165 11.8122C218.464 11.5136 218.948 11.5136 219.247 11.8122L226.894 19.4593C227.193 19.7579 227.193 20.2421 226.894 20.5407L219.247 28.1878C218.948 28.4864 218.464 28.4864 218.165 28.1878C217.867 27.8891 217.867 27.405 218.165 27.1063L225.272 20L218.165 12.8937C217.867 12.595 217.867 12.1108 218.165 11.8122Z" fill="white"/>
</svg>
