<svg width="234" height="40" viewBox="0 0 234 40" fill="none" xmlns="http://www.w3.org/2000/svg">
<path fill-rule="evenodd" clip-rule="evenodd" d="M15.8346 28.1879C15.536 28.4865 15.0518 28.4865 14.7532 28.1879L7.1061 20.5408C6.80746 20.2422 6.80746 19.758 7.1061 19.4594L14.7532 11.8123C15.0518 11.5137 15.536 11.5137 15.8346 11.8123C16.1333 12.1109 16.1333 12.5951 15.8346 12.8938L8.72829 20.0001L15.8346 27.1064C16.1333 27.4051 16.1333 27.8893 15.8346 28.1879Z" fill="#0A0132"/>
<circle cx="61.1762" cy="20" r="19.1176" fill="#7351FB"/>
<circle cx="117" cy="20" r="19.1176" fill="#EBE6FE"/>
<circle cx="172.824" cy="20" r="19.1176" fill="#EBE6FE"/>
<path fill-rule="evenodd" clip-rule="evenodd" d="M218.165 11.8121C218.464 11.5135 218.948 11.5135 219.247 11.8121L226.894 19.4592C227.193 19.7578 227.193 20.242 226.894 20.5406L219.247 28.1877C218.948 28.4863 218.464 28.4863 218.165 28.1877C217.867 27.8891 217.867 27.4049 218.165 27.1062L225.272 19.9999L218.165 12.8936C217.867 12.5949 217.867 12.1107 218.165 11.8121Z" fill="#0A0132"/>
</svg>
