<svg width="106" height="86" viewBox="0 0 106 86" fill="none" xmlns="http://www.w3.org/2000/svg">
<path d="M33.5158 21V7.22913H38.8667C41.4832 7.22913 43.2144 8.80295 43.2144 11.203C43.2144 13.6031 41.4832 15.1769 38.8667 15.1769H35.306V21H33.5158ZM35.306 13.6227H38.6897C40.3422 13.6227 41.4242 12.6588 41.4242 11.203C41.4242 9.74723 40.3422 8.78327 38.6897 8.78327H35.306V13.6227ZM48.9069 21.1574C45.9953 21.1574 43.8903 19.0327 43.8903 16.0425C43.8903 13.0522 45.9953 10.9276 48.9069 10.9276C51.8184 10.9276 53.9234 13.0522 53.9234 16.0425C53.9234 19.0327 51.7987 21.1574 48.9069 21.1574ZM45.6019 16.0425C45.6019 18.1868 46.9789 19.6819 48.9069 19.6819C50.8348 19.6819 52.2119 18.1868 52.2119 16.0425C52.2119 13.8785 50.8348 12.3834 48.9069 12.3834C46.9789 12.3834 45.6019 13.8785 45.6019 16.0425ZM55.97 24.5804V11.085H57.6618V12.6981C58.252 11.6161 59.6094 10.9276 61.0849 10.9276C64.0554 10.9276 66.0227 12.9736 66.0227 16.0425C66.0227 19.1114 64.0554 21.1574 61.0849 21.1574C59.6291 21.1574 58.252 20.4492 57.6618 19.3672V24.5804H55.97ZM57.6618 16.0425C57.6618 18.1868 59.0389 19.7016 60.9865 19.7016C62.8947 19.7016 64.3112 18.2065 64.3112 16.0425C64.3112 13.8785 62.8947 12.3834 60.9865 12.3834C59.0389 12.3834 57.6618 13.8785 57.6618 16.0425ZM72.4603 21.1574C69.5487 21.1574 67.4437 19.0327 67.4437 16.0425C67.4437 13.0522 69.5487 10.9276 72.4603 10.9276C75.3718 10.9276 77.4768 13.0522 77.4768 16.0425C77.4768 19.0327 75.3522 21.1574 72.4603 21.1574ZM69.1553 16.0425C69.1553 18.1868 70.5324 19.6819 72.4603 19.6819C74.3882 19.6819 75.7653 18.1868 75.7653 16.0425C75.7653 13.8785 74.3882 12.3834 72.4603 12.3834C70.5324 12.3834 69.1553 13.8785 69.1553 16.0425ZM82.0086 21L78.1134 11.085H79.943L82.8742 18.836L85.8251 11.085H87.576L83.6808 21H82.0086ZM93.1887 21.1574C90.2574 21.1574 88.2115 19.0327 88.2115 16.0425C88.2115 13.0522 90.2574 10.9276 93.0706 10.9276C96.1002 10.9276 97.9888 13.2883 97.615 16.2589H89.923C90.0017 18.3639 91.2607 19.7016 93.1296 19.7016C94.5657 19.7016 95.51 18.9737 95.8248 17.8327H97.5166C97.1625 19.7606 95.4707 21.1574 93.1887 21.1574ZM90.0214 14.9211H95.9035C95.9035 13.3473 94.7428 12.3637 93.0706 12.3637C91.4575 12.3637 90.3558 13.2686 90.0214 14.9211ZM99.7148 21V11.085H101.387V12.8358C101.938 11.6948 103.177 10.9276 104.495 10.9276C104.889 10.9276 105.302 10.9866 105.617 11.144V12.7572C105.144 12.5604 104.692 12.5014 104.298 12.5014C102.646 12.5014 101.387 14.1146 101.387 17.0261V21H99.7148Z" fill="#0A0132"/>
<path d="M33.9682 26.9018C33.9682 27.445 33.5279 27.8854 32.9846 27.8854C32.4414 27.8854 32.001 27.445 32.001 26.9018C32.001 26.3586 32.4414 25.9182 32.9846 25.9182C33.5279 25.9182 33.9682 26.3586 33.9682 26.9018ZM37.9028 26.9018C37.9028 27.445 37.4624 27.8854 36.9191 27.8854C36.3759 27.8854 35.9355 27.445 35.9355 26.9018C35.9355 26.3586 36.3759 25.9182 36.9191 25.9182C37.4624 25.9182 37.9028 26.3586 37.9028 26.9018ZM41.8373 26.9018C41.8373 27.445 41.3969 27.8854 40.8537 27.8854C40.3104 27.8854 39.87 27.445 39.87 26.9018C39.87 26.3586 40.3104 25.9182 40.8537 25.9182C41.3969 25.9182 41.8373 26.3586 41.8373 26.9018ZM45.7718 26.9018C45.7718 27.445 45.3315 27.8854 44.7882 27.8854C44.245 27.8854 43.8046 27.445 43.8046 26.9018C43.8046 26.3586 44.245 25.9182 44.7882 25.9182C45.3315 25.9182 45.7718 26.3586 45.7718 26.9018ZM49.7064 26.9018C49.7064 27.445 49.266 27.8854 48.7227 27.8854C48.1795 27.8854 47.7391 27.445 47.7391 26.9018C47.7391 26.3586 48.1795 25.9182 48.7227 25.9182C49.266 25.9182 49.7064 26.3586 49.7064 26.9018ZM53.6409 26.9018C53.6409 27.445 53.2005 27.8854 52.6573 27.8854C52.114 27.8854 51.6736 27.445 51.6736 26.9018C51.6736 26.3586 52.114 25.9182 52.6573 25.9182C53.2005 25.9182 53.6409 26.3586 53.6409 26.9018ZM57.5754 26.9018C57.5754 27.445 57.135 27.8854 56.5918 27.8854C56.0486 27.8854 55.6082 27.445 55.6082 26.9018C55.6082 26.3586 56.0486 25.9182 56.5918 25.9182C57.135 25.9182 57.5754 26.3586 57.5754 26.9018ZM61.51 26.9018C61.51 27.445 61.0696 27.8854 60.5263 27.8854C59.9831 27.8854 59.5427 27.445 59.5427 26.9018C59.5427 26.3586 59.9831 25.9182 60.5263 25.9182C61.0696 25.9182 61.51 26.3586 61.51 26.9018ZM65.4445 26.9018C65.4445 27.445 65.0041 27.8854 64.4609 27.8854C63.9176 27.8854 63.4772 27.445 63.4772 26.9018C63.4772 26.3586 63.9176 25.9182 64.4609 25.9182C65.0041 25.9182 65.4445 26.3586 65.4445 26.9018ZM69.379 26.9018C69.379 27.445 68.9386 27.8854 68.3954 27.8854C67.8522 27.8854 67.4118 27.445 67.4118 26.9018C67.4118 26.3586 67.8522 25.9182 68.3954 25.9182C68.9386 25.9182 69.379 26.3586 69.379 26.9018ZM73.3136 26.9018C73.3136 27.445 72.8732 27.8854 72.3299 27.8854C71.7867 27.8854 71.3463 27.445 71.3463 26.9018C71.3463 26.3586 71.7867 25.9182 72.3299 25.9182C72.8732 25.9182 73.3136 26.3586 73.3136 26.9018ZM77.2481 26.9018C77.2481 27.445 76.8077 27.8854 76.2645 27.8854C75.7212 27.8854 75.2808 27.445 75.2808 26.9018C75.2808 26.3586 75.7212 25.9182 76.2645 25.9182C76.8077 25.9182 77.2481 26.3586 77.2481 26.9018ZM81.1826 26.9018C81.1826 27.445 80.7422 27.8854 80.199 27.8854C79.6558 27.8854 79.2154 27.445 79.2154 26.9018C79.2154 26.3586 79.6558 25.9182 80.199 25.9182C80.7422 25.9182 81.1826 26.3586 81.1826 26.9018ZM85.1172 26.9018C85.1172 27.445 84.6768 27.8854 84.1335 27.8854C83.5903 27.8854 83.1499 27.445 83.1499 26.9018C83.1499 26.3586 83.5903 25.9182 84.1335 25.9182C84.6768 25.9182 85.1172 26.3586 85.1172 26.9018ZM89.0517 26.9018C89.0517 27.445 88.6113 27.8854 88.0681 27.8854C87.5248 27.8854 87.0844 27.445 87.0844 26.9018C87.0844 26.3586 87.5248 25.9182 88.0681 25.9182C88.6113 25.9182 89.0517 26.3586 89.0517 26.9018ZM92.9862 26.9018C92.9862 27.445 92.5458 27.8854 92.0026 27.8854C91.4593 27.8854 91.019 27.445 91.019 26.9018C91.019 26.3586 91.4593 25.9182 92.0026 25.9182C92.5458 25.9182 92.9862 26.3586 92.9862 26.9018ZM96.9208 26.9018C96.9208 27.445 96.4804 27.8854 95.9371 27.8854C95.3939 27.8854 94.9535 27.445 94.9535 26.9018C94.9535 26.3586 95.3939 25.9182 95.9371 25.9182C96.4804 25.9182 96.9208 26.3586 96.9208 26.9018ZM100.855 26.9018C100.855 27.445 100.415 27.8854 99.8717 27.8854C99.3284 27.8854 98.888 27.445 98.888 26.9018C98.888 26.3586 99.3284 25.9182 99.8717 25.9182C100.415 25.9182 100.855 26.3586 100.855 26.9018ZM104.79 26.9018C104.79 27.445 104.349 27.8854 103.806 27.8854C103.263 27.8854 102.823 27.445 102.823 26.9018C102.823 26.3586 103.263 25.9182 103.806 25.9182C104.349 25.9182 104.79 26.3586 104.79 26.9018Z" fill="#0A0132"/>
<rect width="32" height="32" transform="translate(22.627 14) rotate(45)" fill="white"/>
<path fill-rule="evenodd" clip-rule="evenodd" d="M28.9912 23.2278C29.9195 23.2278 30.8097 23.5966 31.4661 24.253C32.1225 24.9093 32.4912 25.7996 32.4912 26.7278C32.4912 27.6561 32.1225 28.5463 31.4661 29.2027L28.0453 32.6235C28.5295 32.7961 28.9744 33.0749 29.3448 33.4454C30.0012 34.1017 30.3699 34.992 30.3699 35.9202C30.3699 36.3308 30.2978 36.734 30.1605 37.1128C30.7836 37.2621 31.3592 37.5811 31.8197 38.0415C32.476 38.6979 32.8448 39.5882 32.8448 40.5164C32.8448 41.4447 32.476 42.3349 31.8197 42.9913L28.2841 46.5268C27.2627 47.5483 26.05 48.3585 24.7155 48.9113C23.3809 49.4641 21.9505 49.7487 20.5059 49.7487C19.0614 49.7487 17.631 49.4641 16.2964 48.9113C14.9618 48.3585 13.7492 47.5483 12.7278 46.5268C10.6116 44.4106 9.59723 42.2196 9.60093 39.3451C9.60448 36.5842 10.5505 33.2389 12.1359 28.7866C12.3838 27.9074 12.9657 27.1591 13.7582 26.7023C14.5632 26.2384 15.5195 26.1132 16.4168 26.3543C17.314 26.5954 18.0788 27.1831 18.5427 27.9881C19.0067 28.7931 19.1319 29.7494 18.8907 30.6466L18.4379 32.3314L26.5164 24.253C27.1727 23.5966 28.063 23.2278 28.9912 23.2278ZM28.2841 39.4558L26.8699 38.0415L27.9306 36.9809C28.2119 36.6996 28.3699 36.3181 28.3699 35.9202C28.3699 35.5224 28.2119 35.1409 27.9306 34.8596C27.6493 34.5783 27.2677 34.4202 26.8699 34.4202C26.4721 34.4202 26.0906 34.5783 25.8092 34.8596C25.4187 35.2501 24.7856 35.2501 24.395 34.8596C24.0045 34.469 24.0045 33.8359 24.395 33.4454L30.0519 27.7885C30.3332 27.5072 30.4912 27.1257 30.4912 26.7278C30.4912 26.33 30.3332 25.9485 30.0519 25.6672C29.7706 25.3859 29.3891 25.2278 28.9912 25.2278C28.5934 25.2278 28.2119 25.3859 27.9306 25.6672L17.2091 36.3887C16.8889 36.7088 16.3936 36.7739 16.0016 36.5474C15.6096 36.3209 15.4187 35.8592 15.5362 35.422L16.9593 30.1276C16.9593 30.1276 16.9593 30.1276 16.9593 30.1276C17.0627 29.7426 17.009 29.3322 16.8099 28.9868C16.6109 28.6414 16.2827 28.3892 15.8977 28.2858C15.5127 28.1823 15.1024 28.236 14.7569 28.4351C14.4115 28.6342 14.1594 28.9623 14.0559 29.3473C14.049 29.373 14.0411 29.3984 14.0321 29.4235C12.4341 33.9077 11.604 36.9648 11.6009 39.3477C11.598 41.624 12.3514 43.3221 14.142 45.1126C14.9777 45.9483 15.9699 46.6113 17.0618 47.0636C18.1537 47.5159 19.324 47.7487 20.5059 47.7487C21.6878 47.7487 22.8582 47.5159 23.9501 47.0636C25.042 46.6113 26.0342 45.9483 26.8699 45.1126L30.4054 41.5771C30.6867 41.2958 30.8448 40.9142 30.8448 40.5164C30.8448 40.1186 30.6867 39.7371 30.4054 39.4558C30.1241 39.1745 29.7426 39.0164 29.3448 39.0164C28.947 39.0164 28.5654 39.1745 28.2841 39.4558Z" fill="#0A0132"/>
<rect x="34.999" y="44" width="70" height="41" rx="7" fill="#EBE6FE"/>
<rect x="34.999" y="44" width="70" height="41" rx="7" stroke="#7351FB" stroke-width="2"/>
<path d="M46.6614 72V59.7833H42.3138V58.2291H52.8387V59.7833H48.4713V72H46.6614ZM55.4342 72.1574C53.2899 72.1574 51.9325 71.0557 51.9325 69.3245C51.9325 67.3376 53.3293 66.3343 56.4769 66.0195L58.6015 65.8031V65.449C58.6015 64.1309 57.6376 63.3637 56.2015 63.3637C54.8244 63.3637 53.9194 64.0719 53.7227 65.449H52.0309C52.3063 63.5604 53.762 61.9276 56.2015 61.9276C58.5819 61.9276 60.2934 63.3244 60.2934 65.6261V72H58.6015V70.3475C58.2081 71.2918 56.8703 72.1574 55.4342 72.1574ZM53.644 69.2655C53.644 70.1704 54.3916 70.7213 55.5916 70.7213C57.3621 70.7213 58.6015 69.3245 58.6015 67.5736V67.1015L56.5752 67.3376C54.5096 67.5736 53.644 68.0655 53.644 69.2655ZM62.8173 72V62.085H64.4895V63.8358C65.0403 62.6948 66.2797 61.9276 67.5978 61.9276C67.9912 61.9276 68.4044 61.9866 68.7191 62.144V63.7572C68.247 63.5604 67.7945 63.5014 67.401 63.5014C65.7485 63.5014 64.4895 65.1146 64.4895 68.0261V72H62.8173ZM73.9416 75.7378C71.7973 75.7378 70.0071 74.5574 69.6923 72.6689H71.3841C71.6596 73.6722 72.6629 74.3017 74.0006 74.3017C75.8105 74.3017 77.1679 73.3377 77.1679 71.5672V69.9934C76.5777 70.9573 75.299 71.5869 73.8629 71.5869C71.0891 71.5869 69.2202 69.6393 69.2202 66.7671C69.2202 63.8555 71.0694 61.9276 73.8629 61.9276C75.2793 61.9276 76.5777 62.5178 77.1679 63.4621V62.085H78.8794V71.4098C78.8794 74.1246 76.7745 75.7378 73.9416 75.7378ZM70.8727 66.7671C70.8727 68.7737 72.1711 70.1901 74.0203 70.1901C75.8498 70.1901 77.1679 68.7737 77.1679 66.7474C77.1679 64.6818 75.8498 63.3244 74.0203 63.3244C72.1711 63.3244 70.8727 64.7014 70.8727 66.7671ZM85.8579 72.1574C82.9266 72.1574 80.8807 70.0327 80.8807 67.0425C80.8807 64.0522 82.9266 61.9276 85.7398 61.9276C88.7694 61.9276 90.658 64.2883 90.2842 67.2589H82.5922C82.6709 69.3639 83.9299 70.7016 85.7988 70.7016C87.2349 70.7016 88.1792 69.9737 88.494 68.8327H90.1858C89.8317 70.7606 88.1399 72.1574 85.8579 72.1574ZM82.6906 65.9211H88.5727C88.5727 64.3473 87.412 63.3637 85.7398 63.3637C84.1267 63.3637 83.025 64.2686 82.6906 65.9211ZM95.7315 72.1574C94.0397 72.1574 92.8003 71.0951 92.8003 69.0688V63.4817H91.1085V62.085H92.8003V59.5669H94.4725V62.085H96.9906V63.4817H94.4725V68.9311C94.4725 70.0918 95.0627 70.6623 95.9283 70.6623C96.302 70.6623 96.7152 70.5836 97.0496 70.4655V71.9016C96.6758 72.0787 96.184 72.1574 95.7315 72.1574Z" fill="#0A0132"/>
</svg>
