<svg width="113" height="86" viewBox="0 0 113 86" fill="none" xmlns="http://www.w3.org/2000/svg">
<path d="M20.5148 21V7.22913H25.8658C28.4822 7.22913 30.2134 8.80295 30.2134 11.203C30.2134 13.6031 28.4822 15.1769 25.8658 15.1769H22.305V21H20.5148ZM22.305 13.6227H25.6887C27.3412 13.6227 28.4232 12.6588 28.4232 11.203C28.4232 9.74723 27.3412 8.78327 25.6887 8.78327H22.305V13.6227ZM35.9059 21.1574C32.9943 21.1574 30.8894 19.0327 30.8894 16.0425C30.8894 13.0522 32.9943 10.9276 35.9059 10.9276C38.8174 10.9276 40.9224 13.0522 40.9224 16.0425C40.9224 19.0327 38.7978 21.1574 35.9059 21.1574ZM32.6009 16.0425C32.6009 18.1868 33.978 19.6819 35.9059 19.6819C37.8338 19.6819 39.2109 18.1868 39.2109 16.0425C39.2109 13.8785 37.8338 12.3834 35.9059 12.3834C33.978 12.3834 32.6009 13.8785 32.6009 16.0425ZM42.969 24.5804V11.085H44.6608V12.6981C45.251 11.6161 46.6084 10.9276 48.0839 10.9276C51.0545 10.9276 53.0217 12.9736 53.0217 16.0425C53.0217 19.1114 51.0545 21.1574 48.0839 21.1574C46.6281 21.1574 45.251 20.4492 44.6608 19.3672V24.5804H42.969ZM44.6608 16.0425C44.6608 18.1868 46.0379 19.7016 47.9855 19.7016C49.8938 19.7016 51.3102 18.2065 51.3102 16.0425C51.3102 13.8785 49.8938 12.3834 47.9855 12.3834C46.0379 12.3834 44.6608 13.8785 44.6608 16.0425ZM59.4593 21.1574C56.5477 21.1574 54.4428 19.0327 54.4428 16.0425C54.4428 13.0522 56.5477 10.9276 59.4593 10.9276C62.3709 10.9276 64.4758 13.0522 64.4758 16.0425C64.4758 19.0327 62.3512 21.1574 59.4593 21.1574ZM56.1543 16.0425C56.1543 18.1868 57.5314 19.6819 59.4593 19.6819C61.3872 19.6819 62.7643 18.1868 62.7643 16.0425C62.7643 13.8785 61.3872 12.3834 59.4593 12.3834C57.5314 12.3834 56.1543 13.8785 56.1543 16.0425ZM69.0076 21L65.1124 11.085H66.942L69.8732 18.836L72.8241 11.085H74.575L70.6798 21H69.0076ZM80.1877 21.1574C77.2565 21.1574 75.2105 19.0327 75.2105 16.0425C75.2105 13.0522 77.2565 10.9276 80.0696 10.9276C83.0992 10.9276 84.9878 13.2883 84.614 16.2589H76.922C77.0007 18.3639 78.2598 19.7016 80.1287 19.7016C81.5648 19.7016 82.5091 18.9737 82.8238 17.8327H84.5157C84.1616 19.7606 82.4697 21.1574 80.1877 21.1574ZM77.0204 14.9211H82.9025C82.9025 13.3473 81.7418 12.3637 80.0696 12.3637C78.4565 12.3637 77.3548 13.2686 77.0204 14.9211ZM86.7138 21V11.085H88.386V12.8358C88.9368 11.6948 90.1762 10.9276 91.4942 10.9276C91.8877 10.9276 92.3008 10.9866 92.6156 11.144V12.7572C92.1434 12.5604 91.691 12.5014 91.2975 12.5014C89.645 12.5014 88.386 14.1146 88.386 17.0261V21H86.7138Z" fill="#0A0132"/>
<path d="M20.9673 26.9018C20.9673 27.445 20.5269 27.8854 19.9836 27.8854C19.4404 27.8854 19 27.445 19 26.9018C19 26.3586 19.4404 25.9182 19.9836 25.9182C20.5269 25.9182 20.9673 26.3586 20.9673 26.9018ZM24.9018 26.9018C24.9018 27.445 24.4614 27.8854 23.9182 27.8854C23.3749 27.8854 22.9345 27.445 22.9345 26.9018C22.9345 26.3586 23.3749 25.9182 23.9182 25.9182C24.4614 25.9182 24.9018 26.3586 24.9018 26.9018ZM28.8363 26.9018C28.8363 27.445 28.3959 27.8854 27.8527 27.8854C27.3095 27.8854 26.8691 27.445 26.8691 26.9018C26.8691 26.3586 27.3095 25.9182 27.8527 25.9182C28.3959 25.9182 28.8363 26.3586 28.8363 26.9018ZM32.7709 26.9018C32.7709 27.445 32.3305 27.8854 31.7872 27.8854C31.244 27.8854 30.8036 27.445 30.8036 26.9018C30.8036 26.3586 31.244 25.9182 31.7872 25.9182C32.3305 25.9182 32.7709 26.3586 32.7709 26.9018ZM36.7054 26.9018C36.7054 27.445 36.265 27.8854 35.7218 27.8854C35.1785 27.8854 34.7381 27.445 34.7381 26.9018C34.7381 26.3586 35.1785 25.9182 35.7218 25.9182C36.265 25.9182 36.7054 26.3586 36.7054 26.9018ZM40.6399 26.9018C40.6399 27.445 40.1995 27.8854 39.6563 27.8854C39.113 27.8854 38.6727 27.445 38.6727 26.9018C38.6727 26.3586 39.113 25.9182 39.6563 25.9182C40.1995 25.9182 40.6399 26.3586 40.6399 26.9018ZM44.5745 26.9018C44.5745 27.445 44.1341 27.8854 43.5908 27.8854C43.0476 27.8854 42.6072 27.445 42.6072 26.9018C42.6072 26.3586 43.0476 25.9182 43.5908 25.9182C44.1341 25.9182 44.5745 26.3586 44.5745 26.9018ZM48.509 26.9018C48.509 27.445 48.0686 27.8854 47.5254 27.8854C46.9821 27.8854 46.5417 27.445 46.5417 26.9018C46.5417 26.3586 46.9821 25.9182 47.5254 25.9182C48.0686 25.9182 48.509 26.3586 48.509 26.9018ZM52.4435 26.9018C52.4435 27.445 52.0031 27.8854 51.4599 27.8854C50.9166 27.8854 50.4763 27.445 50.4763 26.9018C50.4763 26.3586 50.9166 25.9182 51.4599 25.9182C52.0031 25.9182 52.4435 26.3586 52.4435 26.9018ZM56.3781 26.9018C56.3781 27.445 55.9377 27.8854 55.3944 27.8854C54.8512 27.8854 54.4108 27.445 54.4108 26.9018C54.4108 26.3586 54.8512 25.9182 55.3944 25.9182C55.9377 25.9182 56.3781 26.3586 56.3781 26.9018ZM60.3126 26.9018C60.3126 27.445 59.8722 27.8854 59.329 27.8854C58.7857 27.8854 58.3453 27.445 58.3453 26.9018C58.3453 26.3586 58.7857 25.9182 59.329 25.9182C59.8722 25.9182 60.3126 26.3586 60.3126 26.9018ZM64.2471 26.9018C64.2471 27.445 63.8067 27.8854 63.2635 27.8854C62.7202 27.8854 62.2799 27.445 62.2799 26.9018C62.2799 26.3586 62.7202 25.9182 63.2635 25.9182C63.8067 25.9182 64.2471 26.3586 64.2471 26.9018ZM68.1817 26.9018C68.1817 27.445 67.7413 27.8854 67.198 27.8854C66.6548 27.8854 66.2144 27.445 66.2144 26.9018C66.2144 26.3586 66.6548 25.9182 67.198 25.9182C67.7413 25.9182 68.1817 26.3586 68.1817 26.9018ZM72.1162 26.9018C72.1162 27.445 71.6758 27.8854 71.1326 27.8854C70.5893 27.8854 70.1489 27.445 70.1489 26.9018C70.1489 26.3586 70.5893 25.9182 71.1326 25.9182C71.6758 25.9182 72.1162 26.3586 72.1162 26.9018ZM76.0507 26.9018C76.0507 27.445 75.6103 27.8854 75.0671 27.8854C74.5238 27.8854 74.0835 27.445 74.0835 26.9018C74.0835 26.3586 74.5238 25.9182 75.0671 25.9182C75.6103 25.9182 76.0507 26.3586 76.0507 26.9018ZM79.9852 26.9018C79.9852 27.445 79.5449 27.8854 79.0016 27.8854C78.4584 27.8854 78.018 27.445 78.018 26.9018C78.018 26.3586 78.4584 25.9182 79.0016 25.9182C79.5449 25.9182 79.9852 26.3586 79.9852 26.9018ZM83.9198 26.9018C83.9198 27.445 83.4794 27.8854 82.9361 27.8854C82.3929 27.8854 81.9525 27.445 81.9525 26.9018C81.9525 26.3586 82.3929 25.9182 82.9361 25.9182C83.4794 25.9182 83.9198 26.3586 83.9198 26.9018ZM87.8543 26.9018C87.8543 27.445 87.4139 27.8854 86.8707 27.8854C86.3274 27.8854 85.887 27.445 85.887 26.9018C85.887 26.3586 86.3274 25.9182 86.8707 25.9182C87.4139 25.9182 87.8543 26.3586 87.8543 26.9018ZM91.7888 26.9018C91.7888 27.445 91.3485 27.8854 90.8052 27.8854C90.262 27.8854 89.8216 27.445 89.8216 26.9018C89.8216 26.3586 90.262 25.9182 90.8052 25.9182C91.3485 25.9182 91.7888 26.3586 91.7888 26.9018Z" fill="#0A0132"/>
<path d="M7.125 27.5714L5.375 26.6786L3.625 29.3571L1 38.2857L1.875 43.6429L6.25 47.2143L9.75 49L16.75 47.2143L21.125 41.8571L22 38.2857L19.375 37.3929V33.8214L16.75 32.9286L21.125 28.4643L22 26.6786L21.125 24H18.5L7.125 33.8214L8 30.25L7.125 27.5714Z" fill="white"/>
<path d="M19.1865 23C20.1048 23.0001 20.9854 23.3645 21.6348 24.0137C22.2843 24.6632 22.6494 25.5444 22.6494 26.4629C22.6494 27.3814 22.2843 28.2626 21.6348 28.9121L18.25 32.2969C18.729 32.4677 19.1697 32.7429 19.5361 33.1094C20.1856 33.7588 20.5508 34.6401 20.5508 35.5586C20.5508 35.9648 20.4786 36.3636 20.3428 36.7383C20.9593 36.8861 21.5297 37.2025 21.9854 37.6582C22.6345 38.3076 22.999 39.1882 22.999 40.1064C22.999 41.0249 22.6348 41.9062 21.9854 42.5557L18.4863 46.0537C17.4756 47.0644 16.2757 47.8661 14.9551 48.4131C13.6346 48.96 12.2194 49.2422 10.79 49.2422C9.36074 49.2422 7.94553 48.96 6.62501 48.4131C5.30445 47.8661 4.10447 47.0644 3.09376 46.0537C0.999785 43.9597 -0.00365073 41.7916 9.97928e-06 38.9473C0.00360176 36.2155 0.939146 32.9054 2.50782 28.5C2.75316 27.63 3.32913 26.8895 4.11329 26.4375C4.90978 25.9785 5.85636 25.8542 6.74415 26.0928C7.63191 26.3314 8.38862 26.9135 8.84767 27.71C9.30668 28.5064 9.43 29.453 9.19142 30.3408L8.74415 32.0078L16.7373 24.0137C17.3868 23.3643 18.2681 23 19.1865 23ZM19.1865 24.9785C18.793 24.9785 18.4151 25.1348 18.1367 25.4131L7.52735 36.0225C7.21061 36.3389 6.72075 36.4036 6.33302 36.1797C5.94513 35.9555 5.7558 35.4981 5.87208 35.0654L7.28028 29.8271C7.38264 29.4462 7.32977 29.04 7.13282 28.6982C6.9359 28.3566 6.61128 28.1073 6.23048 28.0049C5.84954 27.9025 5.44334 27.9554 5.10157 28.1523C4.7598 28.3493 4.50962 28.6737 4.40724 29.0547C4.40042 29.0801 4.39261 29.1051 4.3838 29.1299C2.80256 33.567 1.98156 36.5924 1.97853 38.9502C1.97564 41.2026 2.72143 42.8826 4.49317 44.6543C5.32007 45.4812 6.30146 46.1374 7.38185 46.585C8.46231 47.0325 9.62057 47.2627 10.79 47.2627C11.9595 47.2627 13.1178 47.0325 14.1983 46.585C15.2786 46.1374 16.26 45.4812 17.0869 44.6543L20.5859 41.1562C20.8642 40.8779 21.0205 40.5 21.0205 40.1064C21.0205 39.7129 20.8643 39.3349 20.5859 39.0566C20.3076 38.7783 19.9297 38.6221 19.5361 38.6221C19.1426 38.6221 18.7647 38.7784 18.4863 39.0566L17.0869 37.6582L18.1367 36.6084C18.4151 36.33 18.5713 35.9522 18.5713 35.5586C18.5713 35.165 18.4151 34.7871 18.1367 34.5088C17.8584 34.2305 17.4805 34.0742 17.0869 34.0742C16.6936 34.0743 16.3164 34.2308 16.0381 34.5088C15.6517 34.8952 15.0251 34.8952 14.6387 34.5088C14.2523 34.1224 14.2523 33.4958 14.6387 33.1094L20.2354 27.5127C20.5137 27.2344 20.6709 26.8565 20.6709 26.4629C20.6709 26.0692 20.5137 25.6914 20.2354 25.4131C19.9571 25.135 19.5799 24.9786 19.1865 24.9785Z" fill="#0A0132"/>
<rect x="22" y="44" width="70" height="41" rx="7" fill="#EBE6FE"/>
<rect x="22" y="44" width="70" height="41" rx="7" stroke="#7351FB" stroke-width="2"/>
<path d="M33.6624 72V59.7833H29.3148V58.2291H39.8396V59.7833H35.4723V72H33.6624ZM42.4352 72.1574C40.2909 72.1574 38.9335 71.0557 38.9335 69.3245C38.9335 67.3376 40.3302 66.3343 43.4779 66.0195L45.6025 65.8031V65.449C45.6025 64.1309 44.6385 63.3637 43.2024 63.3637C41.8253 63.3637 40.9204 64.0719 40.7237 65.449H39.0318C39.3072 63.5604 40.763 61.9276 43.2024 61.9276C45.5828 61.9276 47.2944 63.3244 47.2944 65.6261V72H45.6025V70.3475C45.209 71.2918 43.8713 72.1574 42.4352 72.1574ZM40.645 69.2655C40.645 70.1704 41.3926 70.7213 42.5926 70.7213C44.3631 70.7213 45.6025 69.3245 45.6025 67.5736V67.1015L43.5762 67.3376C41.5106 67.5736 40.645 68.0655 40.645 69.2655ZM49.8183 72V62.085H51.4905V63.8358C52.0413 62.6948 53.2807 61.9276 54.5988 61.9276C54.9922 61.9276 55.4053 61.9866 55.7201 62.144V63.7572C55.2479 63.5604 54.7955 63.5014 54.402 63.5014C52.7495 63.5014 51.4905 65.1146 51.4905 68.0261V72H49.8183ZM60.9426 75.7378C58.7982 75.7378 57.008 74.5574 56.6933 72.6689H58.3851C58.6605 73.6722 59.6638 74.3017 61.0016 74.3017C62.8115 74.3017 64.1689 73.3377 64.1689 71.5672V69.9934C63.5787 70.9573 62.3 71.5869 60.8639 71.5869C58.09 71.5869 56.2211 69.6393 56.2211 66.7671C56.2211 63.8555 58.0704 61.9276 60.8639 61.9276C62.2803 61.9276 63.5787 62.5178 64.1689 63.4621V62.085H65.8804V71.4098C65.8804 74.1246 63.7754 75.7378 60.9426 75.7378ZM57.8736 66.7671C57.8736 68.7737 59.172 70.1901 61.0213 70.1901C62.8508 70.1901 64.1689 68.7737 64.1689 66.7474C64.1689 64.6818 62.8508 63.3244 61.0213 63.3244C59.172 63.3244 57.8736 64.7014 57.8736 66.7671ZM72.8588 72.1574C69.9276 72.1574 67.8816 70.0327 67.8816 67.0425C67.8816 64.0522 69.9276 61.9276 72.7408 61.9276C75.7704 61.9276 77.659 64.2883 77.2852 67.2589H69.5932C69.6719 69.3639 70.9309 70.7016 72.7998 70.7016C74.2359 70.7016 75.1802 69.9737 75.495 68.8327H77.1868C76.8327 70.7606 75.1409 72.1574 72.8588 72.1574ZM69.6915 65.9211H75.5737C75.5737 64.3473 74.413 63.3637 72.7408 63.3637C71.1276 63.3637 70.026 64.2686 69.6915 65.9211ZM82.7325 72.1574C81.0407 72.1574 79.8013 71.0951 79.8013 69.0688V63.4817H78.1094V62.085H79.8013V59.5669H81.4735V62.085H83.9916V63.4817H81.4735V68.9311C81.4735 70.0918 82.0636 70.6623 82.9292 70.6623C83.303 70.6623 83.7161 70.5836 84.0506 70.4655V71.9016C83.6768 72.0787 83.185 72.1574 82.7325 72.1574Z" fill="#0A0132"/>
</svg>
