<svg width="229" height="39" viewBox="0 0 229 39" fill="none" xmlns="http://www.w3.org/2000/svg">
<circle cx="19.1176" cy="19.1176" r="19.1176" fill="#7351FB"/>
<path d="M19.788 22.0879H16.752L15.806 26.3999H13.716L14.662 22.0879H12V20.0639H15.102L15.696 17.3139H12.946V15.3119H16.136L17.082 10.9999H19.172L18.226 15.3119H21.24L22.186 10.9999H24.298L23.352 15.3119H25.904V17.3139H22.912L22.318 20.0639H25.002V22.0879H21.878L20.932 26.3999H18.842L19.788 22.0879ZM20.228 20.0639L20.822 17.3139H17.786L17.192 20.0639H20.228Z" fill="white"/>
<path d="M55.0824 25.2457C52.7144 25.2457 50.9704 23.9177 50.7784 21.4057H52.2024C52.3624 23.1337 53.5464 23.9817 55.0824 23.9817C56.5064 23.9817 57.5144 23.2457 57.5144 22.1417C57.5144 19.1337 51.1144 20.7337 51.1144 16.7497C51.1144 14.9577 52.6664 13.7897 54.7944 13.7897C57.0824 13.7897 58.5224 14.9897 58.7944 16.9897H57.3544C57.1304 15.7577 56.1704 15.0537 54.7944 15.0537C53.4344 15.0537 52.5864 15.6937 52.5864 16.7017C52.5864 19.2937 58.9864 17.7257 58.9864 22.0617C58.9864 23.9817 57.3544 25.2457 55.0824 25.2457ZM63.4825 25.2457C62.1065 25.2457 61.0985 24.3817 61.0985 22.7337V18.1897H59.7225V17.0537H61.0985V15.0057H62.4585V17.0537H64.5065V18.1897H62.4585V22.6217C62.4585 23.5657 62.9385 24.0297 63.6425 24.0297C63.9465 24.0297 64.2825 23.9657 64.5545 23.8697V25.0377C64.2505 25.1817 63.8505 25.2457 63.4825 25.2457ZM69.2959 25.2457C66.9119 25.2457 65.2479 23.5177 65.2479 21.0857C65.2479 18.6537 66.9119 16.9257 69.1999 16.9257C71.6639 16.9257 73.1999 18.8457 72.8959 21.2617H66.6399C66.7039 22.9737 67.7279 24.0617 69.2479 24.0617C70.4159 24.0617 71.1839 23.4697 71.4399 22.5417H72.8159C72.5279 24.1097 71.1519 25.2457 69.2959 25.2457ZM66.7199 20.1737H71.5039C71.5039 18.8937 70.5599 18.0937 69.1999 18.0937C67.8879 18.0937 66.9919 18.8297 66.7199 20.1737ZM74.6036 28.0297V17.0537H75.9796V18.3657C76.4596 17.4857 77.5636 16.9257 78.7636 16.9257C81.1796 16.9257 82.7796 18.5897 82.7796 21.0857C82.7796 23.5817 81.1796 25.2457 78.7636 25.2457C77.5796 25.2457 76.4596 24.6697 75.9796 23.7897V28.0297H74.6036ZM75.9796 21.0857C75.9796 22.8297 77.0996 24.0617 78.6836 24.0617C80.2356 24.0617 81.3876 22.8457 81.3876 21.0857C81.3876 19.3257 80.2356 18.1097 78.6836 18.1097C77.0996 18.1097 75.9796 19.3257 75.9796 21.0857Z" fill="white"/>
<path fill-rule="evenodd" clip-rule="evenodd" d="M110.46 10.9298C110.759 10.6312 111.243 10.6312 111.542 10.9298L119.189 18.5769C119.487 18.8755 119.487 19.3597 119.189 19.6584L111.542 27.3054C111.243 27.6041 110.759 27.6041 110.46 27.3054C110.162 27.0068 110.162 26.5226 110.46 26.224L117.567 19.1176L110.46 12.0113C110.162 11.7127 110.162 11.2285 110.46 10.9298Z" fill="white"/>
<circle cx="163" cy="19.1176" r="19.1176" fill="#4324C8"/>
<path d="M163.788 22.0879H160.752L159.806 26.3999H157.716L158.662 22.0879H156V20.0639H159.102L159.696 17.3139H156.946V15.3119H160.136L161.082 10.9999H163.172L162.226 15.3119H165.24L166.186 10.9999H168.298L167.352 15.3119H169.904V17.3139H166.912L166.318 20.0639H169.002V22.0879H165.878L164.932 26.3999H162.842L163.788 22.0879ZM164.228 20.0639L164.822 17.3139H161.786L161.192 20.0639H164.228Z" fill="white"/>
<path d="M198.965 25.2457C196.597 25.2457 194.853 23.9177 194.661 21.4057H196.085C196.245 23.1337 197.429 23.9817 198.965 23.9817C200.389 23.9817 201.397 23.2457 201.397 22.1417C201.397 19.1337 194.997 20.7337 194.997 16.7497C194.997 14.9577 196.549 13.7897 198.677 13.7897C200.965 13.7897 202.405 14.9897 202.677 16.9897H201.237C201.013 15.7577 200.053 15.0537 198.677 15.0537C197.317 15.0537 196.469 15.6937 196.469 16.7017C196.469 19.2937 202.869 17.7257 202.869 22.0617C202.869 23.9817 201.237 25.2457 198.965 25.2457ZM207.365 25.2457C205.989 25.2457 204.981 24.3817 204.981 22.7337V18.1897H203.605V17.0537H204.981V15.0057H206.341V17.0537H208.389V18.1897H206.341V22.6217C206.341 23.5657 206.821 24.0297 207.525 24.0297C207.829 24.0297 208.165 23.9657 208.437 23.8697V25.0377C208.133 25.1817 207.733 25.2457 207.365 25.2457ZM213.179 25.2457C210.795 25.2457 209.131 23.5177 209.131 21.0857C209.131 18.6537 210.795 16.9257 213.083 16.9257C215.547 16.9257 217.083 18.8457 216.779 21.2617H210.523C210.587 22.9737 211.611 24.0617 213.131 24.0617C214.299 24.0617 215.067 23.4697 215.323 22.5417H216.699C216.411 24.1097 215.035 25.2457 213.179 25.2457ZM210.603 20.1737H215.387C215.387 18.8937 214.443 18.0937 213.083 18.0937C211.771 18.0937 210.875 18.8297 210.603 20.1737ZM218.486 28.0297V17.0537H219.862V18.3657C220.342 17.4857 221.446 16.9257 222.646 16.9257C225.062 16.9257 226.662 18.5897 226.662 21.0857C226.662 23.5817 225.062 25.2457 222.646 25.2457C221.462 25.2457 220.342 24.6697 219.862 23.7897V28.0297H218.486ZM219.862 21.0857C219.862 22.8297 220.982 24.0617 222.566 24.0617C224.118 24.0617 225.27 22.8457 225.27 21.0857C225.27 19.3257 224.118 18.1097 222.566 18.1097C220.982 18.1097 219.862 19.3257 219.862 21.0857Z" fill="white"/>
</svg>
