<svg width="267" height="44" viewBox="0 0 267 44" fill="none" xmlns="http://www.w3.org/2000/svg">
<rect width="82" height="8" rx="1.5" transform="matrix(1 0 0 -1 0 8)" fill="#4F4F4F"/>
<rect width="81" height="8" rx="1.5" transform="matrix(1 0 0 -1 93 8)" fill="#7351FB"/>
<rect width="82" height="8" rx="1.5" transform="matrix(1 0 0 -1 185 8)" fill="#4F4F4F"/>
<path d="M22.9608 38.1574C20.0493 38.1574 17.9049 36.5245 17.6689 33.4359H19.4197C19.6165 35.5606 21.0722 36.6032 22.9608 36.6032C24.7117 36.6032 25.9511 35.6983 25.9511 34.3409C25.9511 30.6424 18.082 32.6097 18.082 27.7112C18.082 25.5079 19.9902 24.0718 22.6067 24.0718C25.4199 24.0718 27.1904 25.5472 27.5249 28.0063H25.7543C25.4789 26.4915 24.2986 25.6259 22.6067 25.6259C20.9345 25.6259 19.8919 26.4128 19.8919 27.6522C19.8919 30.8391 27.7609 28.9112 27.7609 34.2425C27.7609 36.6032 25.7543 38.1574 22.9608 38.1574ZM33.2891 38.1574C31.5973 38.1574 30.3579 37.0951 30.3579 35.0688V29.4817H28.666V28.085H30.3579V25.5669H32.0301V28.085H34.5482V29.4817H32.0301V34.9311C32.0301 36.0918 32.6203 36.6623 33.4858 36.6623C33.8596 36.6623 34.2728 36.5836 34.6072 36.4655V37.9016C34.2334 38.0787 33.7416 38.1574 33.2891 38.1574ZM40.4369 38.1574C37.5057 38.1574 35.4597 36.0327 35.4597 33.0425C35.4597 30.0522 37.5057 27.9276 40.3189 27.9276C43.3485 27.9276 45.237 30.2883 44.8633 33.2589H37.1712C37.2499 35.3639 38.509 36.7016 40.3779 36.7016C41.814 36.7016 42.7583 35.9737 43.073 34.8327H44.7649C44.4108 36.7606 42.7189 38.1574 40.4369 38.1574ZM37.2696 31.9211H43.1517C43.1517 30.3473 41.991 29.3637 40.3189 29.3637C38.7057 29.3637 37.604 30.2686 37.2696 31.9211ZM46.963 41.5804V28.085H48.6549V29.6981C49.245 28.6161 50.6025 27.9276 52.0779 27.9276C55.0485 27.9276 57.0157 29.9736 57.0157 33.0425C57.0157 36.1114 55.0485 38.1574 52.0779 38.1574C50.6221 38.1574 49.245 37.4492 48.6549 36.3672V41.5804H46.963ZM48.6549 33.0425C48.6549 35.1868 50.0319 36.7016 51.9795 36.7016C53.8878 36.7016 55.3042 35.2065 55.3042 33.0425C55.3042 30.8785 53.8878 29.3834 51.9795 29.3834C50.0319 29.3834 48.6549 30.8785 48.6549 33.0425Z" fill="white"/>
<path d="M119.02 38.1574C117.472 38.1574 116.2 37.7377 115.203 36.8983C114.22 36.059 113.662 34.8786 113.531 33.3573H116.148C116.239 34.1704 116.548 34.7934 117.072 35.2262C117.597 35.659 118.246 35.8754 119.02 35.8754C119.702 35.8754 120.253 35.7245 120.672 35.4229C121.105 35.1212 121.322 34.7147 121.322 34.2032C121.322 33.8097 121.19 33.4884 120.928 33.2392C120.679 32.9769 120.364 32.7736 119.984 32.6294C119.617 32.472 119.085 32.2884 118.39 32.0785C117.459 31.8162 116.698 31.5539 116.108 31.2916C115.518 31.0162 115.013 30.6096 114.593 30.0719C114.174 29.5342 113.964 28.826 113.964 27.9473C113.964 27.1866 114.167 26.5177 114.574 25.9407C114.993 25.3505 115.557 24.8914 116.266 24.5636C116.987 24.2357 117.787 24.0718 118.666 24.0718C120.148 24.0718 121.348 24.4455 122.266 25.1931C123.184 25.9275 123.715 26.9571 123.859 28.2817H121.263C121.131 27.6784 120.836 27.2063 120.377 26.8653C119.918 26.5243 119.348 26.3538 118.666 26.3538C118.049 26.3538 117.558 26.4915 117.19 26.7669C116.823 27.0292 116.639 27.3833 116.639 27.8292C116.639 28.144 116.751 28.4063 116.974 28.6161C117.21 28.826 117.498 28.9965 117.839 29.1276C118.18 29.2588 118.672 29.4162 119.315 29.5998C120.285 29.8621 121.079 30.1309 121.695 30.4064C122.325 30.6818 122.863 31.1146 123.308 31.7047C123.768 32.2818 123.997 33.0622 123.997 34.0458C123.997 34.8589 123.787 35.5803 123.367 36.2098C122.948 36.8262 122.358 37.3049 121.597 37.6459C120.849 37.9869 119.99 38.1574 119.02 38.1574ZM129.935 38.1574C128.899 38.1574 128.053 37.8557 127.397 37.2524C126.754 36.636 126.433 35.7835 126.433 34.695V30.1113H124.839V28.085H126.433V25.6652H128.931V28.085H131.272V30.1113H128.931V34.4786C128.931 34.977 129.049 35.3573 129.285 35.6196C129.522 35.8688 129.849 35.9934 130.269 35.9934C130.636 35.9934 130.997 35.9278 131.351 35.7967V37.9016C130.931 38.0721 130.459 38.1574 129.935 38.1574ZM137.282 38.1574C136.272 38.1574 135.381 37.941 134.607 37.5082C133.833 37.0754 133.23 36.4721 132.797 35.6983C132.377 34.9245 132.167 34.0392 132.167 33.0425C132.167 32.0589 132.384 31.1801 132.817 30.4064C133.249 29.6326 133.84 29.0293 134.587 28.5965C135.348 28.1506 136.207 27.9276 137.164 27.9276C138.122 27.9276 138.968 28.1374 139.702 28.5571C140.436 28.9637 141 29.5342 141.394 30.2686C141.8 31.0031 142.004 31.8228 142.004 32.7277C142.004 32.99 141.984 33.272 141.945 33.5736H134.646C134.738 34.3737 135.02 34.9901 135.492 35.4229C135.964 35.8557 136.554 36.0721 137.263 36.0721C137.813 36.0721 138.272 35.954 138.64 35.718C139.007 35.4819 139.249 35.1606 139.368 34.754H141.846C141.663 35.777 141.164 36.6032 140.351 37.2328C139.538 37.8492 138.515 38.1574 137.282 38.1574ZM139.368 31.7441C139.354 31.1801 139.145 30.7277 138.738 30.3867C138.331 30.0326 137.807 29.8555 137.164 29.8555C135.879 29.8555 135.079 30.485 134.764 31.7441H139.368ZM143.688 28.085H146.186V29.3047C146.474 28.885 146.888 28.5506 147.425 28.3014C147.976 28.0522 148.566 27.9276 149.196 27.9276C150.166 27.9276 151.019 28.1374 151.753 28.5571C152.488 28.9768 153.058 29.5735 153.465 30.3473C153.871 31.108 154.075 32.0064 154.075 33.0425C154.075 34.0786 153.871 34.9835 153.465 35.7573C153.058 36.518 152.488 37.1082 151.753 37.5279C151.019 37.9475 150.166 38.1574 149.196 38.1574C148.579 38.1574 147.996 38.0328 147.445 37.7836C146.894 37.5213 146.481 37.1803 146.206 36.7606V41.5804H143.688V28.085ZM148.881 36.0131C149.668 36.0131 150.311 35.7376 150.809 35.1868C151.307 34.636 151.557 33.9212 151.557 33.0425C151.557 32.1507 151.307 31.4293 150.809 30.8785C150.311 30.3277 149.668 30.0522 148.881 30.0522C148.094 30.0522 147.452 30.3277 146.953 30.8785C146.455 31.4293 146.206 32.1507 146.206 33.0425C146.206 33.9212 146.455 34.636 146.953 35.1868C147.452 35.7376 148.094 36.0131 148.881 36.0131Z" fill="white"/>
<path d="M214.961 38.1574C212.049 38.1574 209.905 36.5245 209.669 33.4359H211.42C211.616 35.5606 213.072 36.6032 214.961 36.6032C216.712 36.6032 217.951 35.6983 217.951 34.3409C217.951 30.6424 210.082 32.6097 210.082 27.7112C210.082 25.5079 211.99 24.0718 214.607 24.0718C217.42 24.0718 219.19 25.5472 219.525 28.0063H217.754C217.479 26.4915 216.299 25.6259 214.607 25.6259C212.935 25.6259 211.892 26.4128 211.892 27.6522C211.892 30.8391 219.761 28.9112 219.761 34.2425C219.761 36.6032 217.754 38.1574 214.961 38.1574ZM225.289 38.1574C223.597 38.1574 222.358 37.0951 222.358 35.0688V29.4817H220.666V28.085H222.358V25.5669H224.03V28.085H226.548V29.4817H224.03V34.9311C224.03 36.0918 224.62 36.6623 225.486 36.6623C225.86 36.6623 226.273 36.5836 226.607 36.4655V37.9016C226.233 38.0787 225.742 38.1574 225.289 38.1574ZM232.437 38.1574C229.506 38.1574 227.46 36.0327 227.46 33.0425C227.46 30.0522 229.506 27.9276 232.319 27.9276C235.348 27.9276 237.237 30.2883 236.863 33.2589H229.171C229.25 35.3639 230.509 36.7016 232.378 36.7016C233.814 36.7016 234.758 35.9737 235.073 34.8327H236.765C236.411 36.7606 234.719 38.1574 232.437 38.1574ZM229.27 31.9211H235.152C235.152 30.3473 233.991 29.3637 232.319 29.3637C230.706 29.3637 229.604 30.2686 229.27 31.9211ZM238.963 41.5804V28.085H240.655V29.6981C241.245 28.6161 242.602 27.9276 244.078 27.9276C247.048 27.9276 249.016 29.9736 249.016 33.0425C249.016 36.1114 247.048 38.1574 244.078 38.1574C242.622 38.1574 241.245 37.4492 240.655 36.3672V41.5804H238.963ZM240.655 33.0425C240.655 35.1868 242.032 36.7016 243.98 36.7016C245.888 36.7016 247.304 35.2065 247.304 33.0425C247.304 30.8785 245.888 29.3834 243.98 29.3834C242.032 29.3834 240.655 30.8785 240.655 33.0425Z" fill="white"/>
</svg>
