<svg width="229" height="39" viewBox="0 0 229 39" fill="none" xmlns="http://www.w3.org/2000/svg">
<circle cx="19.1176" cy="19.1176" r="19.1176" fill="#7351FB"/>
<path d="M19.788 22.088H16.752L15.806 26.4H13.716L14.662 22.088H12V20.064H15.102L15.696 17.314H12.946V15.312H16.136L17.082 11H19.172L18.226 15.312H21.24L22.186 11H24.298L23.352 15.312H25.904V17.314H22.912L22.318 20.064H25.002V22.088H21.878L20.932 26.4H18.842L19.788 22.088ZM20.228 20.064L20.822 17.314H17.786L17.192 20.064H20.228Z" fill="white"/>
<path d="M55.0834 25.2457C52.7154 25.2457 50.9714 23.9177 50.7794 21.4057H52.2034C52.3634 23.1337 53.5474 23.9817 55.0834 23.9817C56.5074 23.9817 57.5154 23.2457 57.5154 22.1417C57.5154 19.1337 51.1154 20.7337 51.1154 16.7497C51.1154 14.9577 52.6674 13.7897 54.7954 13.7897C57.0834 13.7897 58.5234 14.9897 58.7954 16.9897H57.3554C57.1314 15.7577 56.1714 15.0537 54.7954 15.0537C53.4354 15.0537 52.5874 15.6937 52.5874 16.7017C52.5874 19.2937 58.9874 17.7257 58.9874 22.0617C58.9874 23.9817 57.3554 25.2457 55.0834 25.2457ZM63.4835 25.2457C62.1075 25.2457 61.0995 24.3817 61.0995 22.7337V18.1897H59.7235V17.0537H61.0995V15.0057H62.4595V17.0537H64.5075V18.1897H62.4595V22.6217C62.4595 23.5657 62.9395 24.0297 63.6435 24.0297C63.9475 24.0297 64.2835 23.9657 64.5555 23.8697V25.0377C64.2515 25.1817 63.8515 25.2457 63.4835 25.2457ZM69.2969 25.2457C66.9129 25.2457 65.2489 23.5177 65.2489 21.0857C65.2489 18.6537 66.9129 16.9257 69.2009 16.9257C71.6649 16.9257 73.2009 18.8457 72.8969 21.2617H66.6409C66.7049 22.9737 67.7289 24.0617 69.2489 24.0617C70.4169 24.0617 71.1849 23.4697 71.4409 22.5417H72.8169C72.5289 24.1097 71.1529 25.2457 69.2969 25.2457ZM66.7209 20.1737H71.5049C71.5049 18.8937 70.5609 18.0937 69.2009 18.0937C67.8889 18.0937 66.9929 18.8297 66.7209 20.1737ZM74.6046 28.0297V17.0537H75.9806V18.3657C76.4606 17.4857 77.5646 16.9257 78.7646 16.9257C81.1806 16.9257 82.7806 18.5897 82.7806 21.0857C82.7806 23.5817 81.1806 25.2457 78.7646 25.2457C77.5806 25.2457 76.4606 24.6697 75.9806 23.7897V28.0297H74.6046ZM75.9806 21.0857C75.9806 22.8297 77.1006 24.0617 78.6846 24.0617C80.2366 24.0617 81.3886 22.8457 81.3886 21.0857C81.3886 19.3257 80.2366 18.1097 78.6846 18.1097C77.1006 18.1097 75.9806 19.3257 75.9806 21.0857Z" fill="#0A0132"/>
<path fill-rule="evenodd" clip-rule="evenodd" d="M110.459 10.9298C110.758 10.6312 111.242 10.6312 111.541 10.9298L119.188 18.5768C119.486 18.8755 119.486 19.3597 119.188 19.6583L111.541 27.3054C111.242 27.604 110.758 27.604 110.459 27.3054C110.161 27.0067 110.161 26.5225 110.459 26.2239L117.566 19.1176L110.459 12.0112C110.161 11.7126 110.161 11.2284 110.459 10.9298Z" fill="#0A0132"/>
<circle cx="163" cy="19.1176" r="19.1176" fill="#D1CDFF"/>
<path d="M163.788 22.088H160.752L159.806 26.4H157.716L158.662 22.088H156V20.064H159.102L159.696 17.314H156.946V15.312H160.136L161.082 11H163.172L162.226 15.312H165.24L166.186 11H168.298L167.352 15.312H169.904V17.314H166.912L166.318 20.064H169.002V22.088H165.878L164.932 26.4H162.842L163.788 22.088ZM164.228 20.064L164.822 17.314H161.786L161.192 20.064H164.228Z" fill="#0A0132"/>
<path d="M198.966 25.2457C196.598 25.2457 194.854 23.9177 194.662 21.4057H196.086C196.246 23.1337 197.43 23.9817 198.966 23.9817C200.39 23.9817 201.398 23.2457 201.398 22.1417C201.398 19.1337 194.998 20.7337 194.998 16.7497C194.998 14.9577 196.55 13.7897 198.678 13.7897C200.966 13.7897 202.406 14.9897 202.678 16.9897H201.238C201.014 15.7577 200.054 15.0537 198.678 15.0537C197.318 15.0537 196.47 15.6937 196.47 16.7017C196.47 19.2937 202.87 17.7257 202.87 22.0617C202.87 23.9817 201.238 25.2457 198.966 25.2457ZM207.366 25.2457C205.99 25.2457 204.982 24.3817 204.982 22.7337V18.1897H203.606V17.0537H204.982V15.0057H206.342V17.0537H208.39V18.1897H206.342V22.6217C206.342 23.5657 206.822 24.0297 207.526 24.0297C207.83 24.0297 208.166 23.9657 208.438 23.8697V25.0377C208.134 25.1817 207.734 25.2457 207.366 25.2457ZM213.18 25.2457C210.796 25.2457 209.132 23.5177 209.132 21.0857C209.132 18.6537 210.796 16.9257 213.084 16.9257C215.548 16.9257 217.084 18.8457 216.78 21.2617H210.524C210.588 22.9737 211.612 24.0617 213.132 24.0617C214.3 24.0617 215.068 23.4697 215.324 22.5417H216.7C216.412 24.1097 215.036 25.2457 213.18 25.2457ZM210.604 20.1737H215.388C215.388 18.8937 214.444 18.0937 213.084 18.0937C211.772 18.0937 210.876 18.8297 210.604 20.1737ZM218.487 28.0297V17.0537H219.863V18.3657C220.343 17.4857 221.447 16.9257 222.647 16.9257C225.063 16.9257 226.663 18.5897 226.663 21.0857C226.663 23.5817 225.063 25.2457 222.647 25.2457C221.463 25.2457 220.343 24.6697 219.863 23.7897V28.0297H218.487ZM219.863 21.0857C219.863 22.8297 220.983 24.0617 222.567 24.0617C224.119 24.0617 225.271 22.8457 225.271 21.0857C225.271 19.3257 224.119 18.1097 222.567 18.1097C220.983 18.1097 219.863 19.3257 219.863 21.0857Z" fill="#0A0132"/>
</svg>
