<svg width="200" height="125" viewBox="0 0 200 125" fill="none" xmlns="http://www.w3.org/2000/svg">
<path d="M190 124L10 124C5.02945 124 1 119.971 0.999999 115L0.99999 10C0.99999 5.02946 5.02944 1.00003 9.99999 1.00002L190 1C194.971 1 199 5.02944 199 10L199 115C199 119.971 194.971 124 190 124Z" fill="#242424"/>
<path d="M190 124L10 124C5.02945 124 1 119.971 0.999999 115L0.99999 10C0.99999 5.02946 5.02944 1.00003 9.99999 1.00002L190 1C194.971 1 199 5.02944 199 10L199 115C199 119.971 194.971 124 190 124Z" stroke="#7351FB" stroke-width="2"/>
<rect width="48" height="48" transform="translate(76 39)" fill="#242424"/>
<path fill-rule="evenodd" clip-rule="evenodd" d="M115.982 52.3967C116.567 51.8103 117.516 51.8092 118.103 52.3943C119.498 53.7859 120.604 55.4389 121.359 57.2588C122.114 59.0787 122.503 61.0296 122.503 62.9999C122.503 64.9702 122.114 66.9212 121.359 68.741C120.604 70.5609 119.498 72.214 118.103 73.6056C117.516 74.1907 116.567 74.1896 115.982 73.6031C115.396 73.0166 115.398 72.0669 115.984 71.4818C117.1 70.3689 117.985 69.0468 118.588 67.5914C119.192 66.1359 119.503 64.5757 119.503 62.9999C119.503 61.4242 119.192 59.8639 118.588 58.4085C117.985 56.953 117.1 55.631 115.984 54.5181C115.398 53.933 115.396 52.9832 115.982 52.3967Z" fill="#7351FB"/>
<path fill-rule="evenodd" clip-rule="evenodd" d="M105.159 43.6525C105.674 43.9042 106 44.4271 106 45V81C106 81.5729 105.674 82.0958 105.159 82.3475C104.644 82.5992 104.031 82.5358 103.579 82.184L90.4853 72H82C81.2044 72 80.4413 71.6839 79.8787 71.1213C79.3161 70.5587 79 69.7957 79 69V57C79 56.2044 79.3161 55.4413 79.8787 54.8787C80.4413 54.3161 81.2043 54 82 54H90.4853L103.579 43.816C104.031 43.4643 104.644 43.4008 105.159 43.6525ZM103 48.067L91.9209 56.684C91.6576 56.8888 91.3336 57 91 57H82V69H91C91.3336 69 91.6576 69.1112 91.9209 69.316L103 77.9331V48.067Z" fill="#7351FB"/>
<path fill-rule="evenodd" clip-rule="evenodd" d="M91 54C91.8284 54 92.5 54.6716 92.5 55.5V70.5C92.5 71.3284 91.8284 72 91 72C90.1716 72 89.5 71.3284 89.5 70.5V55.5C89.5 54.6716 90.1716 54 91 54Z" fill="#7351FB"/>
<path fill-rule="evenodd" clip-rule="evenodd" d="M110.675 57.704C111.26 57.117 112.21 57.1152 112.796 57.6999C113.494 58.3949 114.048 59.2209 114.426 60.1305C114.803 61.04 114.998 62.0152 114.998 63.0001C114.998 63.9849 114.803 64.9601 114.426 65.8697C114.048 66.7792 113.494 67.6052 112.796 68.3003C112.21 68.8849 111.26 68.8831 110.675 68.2962C110.09 67.7093 110.092 66.7595 110.679 66.1749C111.097 65.7585 111.429 65.2638 111.655 64.7189C111.881 64.1741 111.998 63.59 111.998 63.0001C111.998 62.4101 111.881 61.826 111.655 61.2812C111.429 60.7364 111.097 60.2416 110.679 59.8253C110.092 59.2406 110.09 58.2909 110.675 57.704Z" fill="#7351FB"/>
</svg>
