<svg width="129" height="148" viewBox="0 0 129 148" fill="none" xmlns="http://www.w3.org/2000/svg">
<rect x="1" y="1" width="127" height="30" rx="9" fill="#EBE6FE"/>
<rect x="1" y="1" width="127" height="30" rx="9" stroke="#7351FB" stroke-width="2"/>
<path fill-rule="evenodd" clip-rule="evenodd" d="M107.646 13.6464C107.842 13.4512 108.158 13.4512 108.354 13.6464L113 18.2929L117.646 13.6464C117.842 13.4512 118.158 13.4512 118.354 13.6464C118.549 13.8417 118.549 14.1583 118.354 14.3536L113.354 19.3536C113.158 19.5488 112.842 19.5488 112.646 19.3536L107.646 14.3536C107.451 14.1583 107.451 13.8417 107.646 13.6464Z" fill="#7351FB"/>
<rect x="1" y="45" width="127" height="102" rx="9" fill="white"/>
<rect x="1" y="45" width="127" height="102" rx="9" stroke="#7351FB" stroke-width="2"/>
<rect x="16" y="60" width="97" height="8" rx="1.73688" fill="#EBE6FE"/>
<path d="M16 93.7369C16 92.7776 16.7776 92 17.7369 92H111.263C112.222 92 113 92.7776 113 93.7369V98.2631C113 99.2224 112.222 100 111.263 100H17.7369C16.7776 100 16 99.2224 16 98.2631V93.7369Z" fill="#EBE6FE"/>
<rect x="16" y="124" width="97" height="8" rx="1.73688" fill="#EBE6FE"/>
</svg>
