<svg width="231" height="130" viewBox="0 0 231 130" fill="none" xmlns="http://www.w3.org/2000/svg">
<g clip-path="url(#clip0_1262_5814)">
<path d="M0 10C0 4.47715 4.47715 0 10 0H221C226.523 0 231 4.47715 231 10V120C231 125.523 226.523 130 221 130H9.99999C4.47715 130 0 125.523 0 120V10Z" fill="#242424"/>
<rect y="2" width="271" height="29" fill="#4324C8"/>
<line y1="61" x2="271" y2="61" stroke="#7351FB" stroke-width="2"/>
<line y1="92" x2="271" y2="92" stroke="#7351FB" stroke-width="2"/>
<line y1="30" x2="271" y2="30" stroke="#7351FB" stroke-width="2"/>
<rect x="16" y="43" width="51" height="8" rx="1.73688" fill="#4324C8"/>
<rect x="16" y="12" width="51" height="8" rx="1.73688" fill="#7351FB"/>
<rect x="84" y="43" width="27" height="8" rx="1.73688" fill="#4324C8"/>
<rect x="84" y="12" width="41" height="8" rx="1.73688" fill="#7351FB"/>
<rect x="162" y="43" width="56" height="8" rx="1.73688" fill="#4324C8"/>
<rect x="169" y="12" width="49" height="8" rx="1.73688" fill="#7351FB"/>
<rect x="84" y="74" width="34" height="8" rx="1.73688" fill="#4324C8"/>
<rect x="16" y="74" width="35" height="8" rx="1.73688" fill="#4324C8"/>
<rect x="84" y="105" width="27" height="8" rx="1.73688" fill="#4324C8"/>
<rect x="152" y="74" width="66" height="8" rx="1.73688" fill="#4324C8"/>
<rect x="16" y="105" width="45" height="8" rx="1.73688" fill="#4324C8"/>
<rect x="162" y="105" width="56" height="8" rx="1.73688" fill="#4324C8"/>
</g>
<path d="M10 1H221C225.971 1 230 5.02944 230 10V120C230 124.971 225.971 129 221 129H10C5.02944 129 1 124.971 1 120V10C1 5.02944 5.02944 1 10 1Z" stroke="#7351FB" stroke-width="2"/>
<defs>
<clipPath id="clip0_1262_5814">
<path d="M0 10C0 4.47715 4.47715 0 10 0H221C226.523 0 231 4.47715 231 10V120C231 125.523 226.523 130 221 130H9.99999C4.47715 130 0 125.523 0 120V10Z" fill="white"/>
</clipPath>
</defs>
</svg>
