<svg width="195" height="34" viewBox="0 0 195 34" fill="none" xmlns="http://www.w3.org/2000/svg">
<path d="M0 26H65V34H0V26Z" fill="#7351FB"/>
<path d="M65 32H130V34H65V32Z" fill="#D1CDFF"/>
<path d="M130 32H195V34H130V32Z" fill="#D1CDFF"/>
<path d="M17.792 18V8.064H14.256V6.8H22.816V8.064H19.264V18H17.792ZM24.927 18.128C23.183 18.128 22.079 17.232 22.079 15.824C22.079 14.208 23.215 13.392 25.775 13.136L27.503 12.96V12.672C27.503 11.6 26.719 10.976 25.551 10.976C24.431 10.976 23.695 11.552 23.535 12.672H22.159C22.383 11.136 23.567 9.808 25.551 9.808C27.487 9.808 28.879 10.944 28.879 12.816V18H27.503V16.656C27.183 17.424 26.095 18.128 24.927 18.128ZM23.471 15.776C23.471 16.512 24.079 16.96 25.055 16.96C26.495 16.96 27.503 15.824 27.503 14.4V14.016L25.855 14.208C24.175 14.4 23.471 14.8 23.471 15.776ZM35.0918 18.128C33.9078 18.128 32.7718 17.552 32.3078 16.672V18H30.9318V6.672H32.3078V11.248C32.7718 10.368 33.8918 9.808 35.0918 9.808C37.5078 9.808 39.1078 11.472 39.1078 13.968C39.1078 16.464 37.5078 18.128 35.0918 18.128ZM32.3078 13.968C32.3078 15.712 33.4278 16.944 35.0118 16.944C36.5638 16.944 37.7158 15.728 37.7158 13.968C37.7158 12.208 36.5638 10.992 35.0118 10.992C33.4278 10.992 32.3078 12.208 32.3078 13.968ZM46.2904 8.512C45.7464 9.152 44.7064 9.632 43.5544 9.904V8.624C44.6264 8.416 45.7144 7.76 46.5144 6.8H47.7624V18H46.2904V8.512Z" fill="black"/>
<path d="M82.792 18V8.064H79.256V6.8H87.816V8.064H84.264V18H82.792ZM89.927 18.128C88.183 18.128 87.079 17.232 87.079 15.824C87.079 14.208 88.215 13.392 90.775 13.136L92.503 12.96V12.672C92.503 11.6 91.719 10.976 90.551 10.976C89.431 10.976 88.695 11.552 88.535 12.672H87.159C87.383 11.136 88.567 9.808 90.551 9.808C92.487 9.808 93.879 10.944 93.879 12.816V18H92.503V16.656C92.183 17.424 91.095 18.128 89.927 18.128ZM88.471 15.776C88.471 16.512 89.079 16.96 90.055 16.96C91.495 16.96 92.503 15.824 92.503 14.4V14.016L90.855 14.208C89.175 14.4 88.471 14.8 88.471 15.776ZM100.092 18.128C98.9078 18.128 97.7718 17.552 97.3078 16.672V18H95.9318V6.672H97.3078V11.248C97.7718 10.368 98.8918 9.808 100.092 9.808C102.508 9.808 104.108 11.472 104.108 13.968C104.108 16.464 102.508 18.128 100.092 18.128ZM97.3078 13.968C97.3078 15.712 98.4278 16.944 100.012 16.944C101.564 16.944 102.716 15.728 102.716 13.968C102.716 12.208 101.564 10.992 100.012 10.992C98.4278 10.992 97.3078 12.208 97.3078 13.968ZM109.05 18V16.832L113.306 12.992C114.554 11.872 115.194 11.008 115.194 10.032C115.194 8.768 114.25 7.936 112.954 7.936C111.402 7.936 110.474 9.008 110.602 10.704H109.146C109.018 8.336 110.602 6.672 112.954 6.672C115.114 6.672 116.666 8.032 116.666 10.032C116.666 11.424 115.818 12.624 114.138 13.984L111.098 16.736H116.698V18H109.05Z" fill="black"/>
<path d="M147.792 18V8.064H144.256V6.8H152.816V8.064H149.264V18H147.792ZM154.927 18.128C153.183 18.128 152.079 17.232 152.079 15.824C152.079 14.208 153.215 13.392 155.775 13.136L157.503 12.96V12.672C157.503 11.6 156.719 10.976 155.551 10.976C154.431 10.976 153.695 11.552 153.535 12.672H152.159C152.383 11.136 153.567 9.808 155.551 9.808C157.487 9.808 158.879 10.944 158.879 12.816V18H157.503V16.656C157.183 17.424 156.095 18.128 154.927 18.128ZM153.471 15.776C153.471 16.512 154.079 16.96 155.055 16.96C156.495 16.96 157.503 15.824 157.503 14.4V14.016L155.855 14.208C154.175 14.4 153.471 14.8 153.471 15.776ZM165.092 18.128C163.908 18.128 162.772 17.552 162.308 16.672V18H160.932V6.672H162.308V11.248C162.772 10.368 163.892 9.808 165.092 9.808C167.508 9.808 169.108 11.472 169.108 13.968C169.108 16.464 167.508 18.128 165.092 18.128ZM162.308 13.968C162.308 15.712 163.428 16.944 165.012 16.944C166.564 16.944 167.716 15.728 167.716 13.968C167.716 12.208 166.564 10.992 165.012 10.992C163.428 10.992 162.308 12.208 162.308 13.968ZM177.778 18.128C175.346 18.128 173.858 16.64 173.762 14.624H175.154C175.314 15.952 176.258 16.864 177.778 16.864C179.282 16.864 180.37 15.824 180.37 14.432C180.37 13.088 179.426 12.128 178.066 12.128C177.426 12.128 176.914 12.24 176.386 12.48V11.344L179.554 8.064H174.114V6.8H181.282V7.984L178.114 11.152C178.21 11.136 178.306 11.136 178.402 11.136C180.53 11.136 181.826 12.496 181.826 14.48C181.826 16.592 180.146 18.128 177.778 18.128Z" fill="black"/>
</svg>
