<svg width="200" height="31" viewBox="0 0 200 31" fill="none" xmlns="http://www.w3.org/2000/svg">
<path d="M10 1L190 1C194.971 1 199 5.02944 199 10V21C199 25.9706 194.971 30 190 30L10 30C5.02944 30 1 25.9706 1 21L1 10C1 5.02944 5.02944 1 10 1Z" fill="#242424"/>
<path d="M10 1L190 1C194.971 1 199 5.02944 199 10V21C199 25.9706 194.971 30 190 30L10 30C5.02944 30 1 25.9706 1 21L1 10C1 5.02944 5.02944 1 10 1Z" stroke="#7351FB" stroke-width="2"/>
<path d="M10.844 20V12.548H8.192V11.6H14.612V12.548H11.948V20H10.844ZM16.9641 20.096C15.1761 20.096 13.9281 18.8 13.9281 16.976C13.9281 15.152 15.1761 13.856 16.8921 13.856C18.7401 13.856 19.8921 15.296 19.6641 17.108H14.9721C15.0201 18.392 15.7881 19.208 16.9281 19.208C17.8041 19.208 18.3801 18.764 18.5721 18.068H19.6041C19.3881 19.244 18.3561 20.096 16.9641 20.096ZM15.0321 16.292H18.6201C18.6201 15.332 17.9121 14.732 16.8921 14.732C15.9081 14.732 15.2361 15.284 15.0321 16.292ZM24.2257 20L22.6777 17.72L21.1297 20H19.9657L22.0897 16.868L20.1097 13.952H21.3097L22.6897 15.98L24.0697 13.952H25.2337L23.2657 16.844L25.4137 20H24.2257ZM28.3775 20.096C27.3455 20.096 26.5895 19.448 26.5895 18.212V14.804H25.5575V13.952H26.5895V12.416H27.6095V13.952H29.1455V14.804H27.6095V18.128C27.6095 18.836 27.9695 19.184 28.4975 19.184C28.7255 19.184 28.9775 19.136 29.1815 19.064V19.94C28.9535 20.048 28.6535 20.096 28.3775 20.096ZM32.8509 20V13.952H33.8829V20H32.8509ZM32.6589 12.092C32.6589 11.696 32.9589 11.408 33.3549 11.408C33.7629 11.408 34.0629 11.696 34.0629 12.092C34.0629 12.488 33.7629 12.776 33.3549 12.776C32.9589 12.776 32.6589 12.488 32.6589 12.092ZM35.4996 20V13.952H36.5196V14.996C36.8916 14.372 37.6596 13.856 38.6676 13.856C39.9396 13.856 40.9116 14.648 40.9116 16.04V20H39.8796V16.268C39.8796 15.296 39.3276 14.756 38.4636 14.756C37.2756 14.756 36.5196 15.788 36.5196 17.408V20H35.4996ZM42.4723 22.184V13.952H43.5043V14.936C43.8643 14.276 44.6923 13.856 45.5923 13.856C47.4043 13.856 48.6043 15.104 48.6043 16.976C48.6043 18.848 47.4043 20.096 45.5923 20.096C44.7043 20.096 43.8643 19.664 43.5043 19.004V22.184H42.4723ZM43.5043 16.976C43.5043 18.284 44.3443 19.208 45.5323 19.208C46.6963 19.208 47.5603 18.296 47.5603 16.976C47.5603 15.656 46.6963 14.744 45.5323 14.744C44.3443 14.744 43.5043 15.656 43.5043 16.976ZM52.0151 20.096C50.7431 20.096 49.7831 19.304 49.7831 17.804V13.952H50.8031V17.684C50.8031 18.656 51.3551 19.196 52.2071 19.196C53.4071 19.196 54.1511 18.164 54.1511 16.544V13.952H55.1831V20H54.1511V18.908C53.7671 19.604 53.0111 20.096 52.0151 20.096ZM58.94 20.096C57.908 20.096 57.152 19.448 57.152 18.212V14.804H56.12V13.952H57.152V12.416H58.172V13.952H59.708V14.804H58.172V18.128C58.172 18.836 58.532 19.184 59.06 19.184C59.288 19.184 59.54 19.136 59.744 19.064V19.94C59.516 20.048 59.216 20.096 58.94 20.096Z" fill="white"/>
<path d="M62 9.5L62 21.5" stroke="#7351FB"/>
</svg>
