<svg width="200" height="125" viewBox="0 0 200 125" fill="none" xmlns="http://www.w3.org/2000/svg">
<path d="M10 1L190 1C194.971 1.00001 199 5.02944 199 10V115C199 119.971 194.971 124 190 124L10 124C5.02944 124 1 119.971 1 115L1 10C1 5.02944 5.02944 1 10 1Z" fill="white"/>
<path d="M10 1L190 1C194.971 1.00001 199 5.02944 199 10V115C199 119.971 194.971 124 190 124L10 124C5.02944 124 1 119.971 1 115L1 10C1 5.02944 5.02944 1 10 1Z" stroke="#7351FB" stroke-width="2"/>
<path d="M10.844 20V12.548H8.192V11.6H14.612V12.548H11.948V20H10.844ZM16.9641 20.096C15.1761 20.096 13.9281 18.8 13.9281 16.976C13.9281 15.152 15.1761 13.856 16.8921 13.856C18.7401 13.856 19.8921 15.296 19.6641 17.108H14.9721C15.0201 18.392 15.7881 19.208 16.9281 19.208C17.8041 19.208 18.3801 18.764 18.5721 18.068H19.6041C19.3881 19.244 18.3561 20.096 16.9641 20.096ZM15.0321 16.292H18.6201C18.6201 15.332 17.9121 14.732 16.8921 14.732C15.9081 14.732 15.2361 15.284 15.0321 16.292ZM24.2257 20L22.6777 17.72L21.1297 20H19.9657L22.0897 16.868L20.1097 13.952H21.3097L22.6897 15.98L24.0697 13.952H25.2337L23.2657 16.844L25.4137 20H24.2257ZM28.3775 20.096C27.3455 20.096 26.5895 19.448 26.5895 18.212V14.804H25.5575V13.952H26.5895V12.416H27.6095V13.952H29.1455V14.804H27.6095V18.128C27.6095 18.836 27.9695 19.184 28.4975 19.184C28.7255 19.184 28.9775 19.136 29.1815 19.064V19.94C28.9535 20.048 28.6535 20.096 28.3775 20.096ZM34.7109 20.096C33.4029 20.096 32.5749 19.424 32.5749 18.368C32.5749 17.156 33.4269 16.544 35.3469 16.352L36.6429 16.22V16.004C36.6429 15.2 36.0549 14.732 35.1789 14.732C34.3389 14.732 33.7869 15.164 33.6669 16.004H32.6349C32.8029 14.852 33.6909 13.856 35.1789 13.856C36.6309 13.856 37.6749 14.708 37.6749 16.112V20H36.6429V18.992C36.4029 19.568 35.5869 20.096 34.7109 20.096ZM33.6189 18.332C33.6189 18.884 34.0749 19.22 34.8069 19.22C35.8869 19.22 36.6429 18.368 36.6429 17.3V17.012L35.4069 17.156C34.1469 17.3 33.6189 17.6 33.6189 18.332ZM39.2144 20V13.952H40.2344V15.02C40.5704 14.324 41.3264 13.856 42.1304 13.856C42.3704 13.856 42.6224 13.892 42.8144 13.988V14.972C42.5264 14.852 42.2504 14.816 42.0104 14.816C41.0024 14.816 40.2344 15.8 40.2344 17.576V20H39.2144ZM46.1321 20.096C44.3441 20.096 43.0961 18.8 43.0961 16.976C43.0961 15.152 44.3441 13.856 46.0601 13.856C47.9081 13.856 49.0601 15.296 48.8321 17.108H44.1401C44.1881 18.392 44.9561 19.208 46.0961 19.208C46.9721 19.208 47.5481 18.764 47.7401 18.068H48.7721C48.5561 19.244 47.5241 20.096 46.1321 20.096ZM44.2001 16.292H47.7881C47.7881 15.332 47.0801 14.732 46.0601 14.732C45.0761 14.732 44.4041 15.284 44.2001 16.292ZM51.9609 20.096C50.6529 20.096 49.8249 19.424 49.8249 18.368C49.8249 17.156 50.6769 16.544 52.5969 16.352L53.8929 16.22V16.004C53.8929 15.2 53.3049 14.732 52.4289 14.732C51.5889 14.732 51.0369 15.164 50.9169 16.004H49.8849C50.0529 14.852 50.9409 13.856 52.4289 13.856C53.8809 13.856 54.9249 14.708 54.9249 16.112V20H53.8929V18.992C53.6529 19.568 52.8369 20.096 51.9609 20.096ZM50.8689 18.332C50.8689 18.884 51.3249 19.22 52.0569 19.22C53.1369 19.22 53.8929 18.368 53.8929 17.3V17.012L52.6569 17.156C51.3969 17.3 50.8689 17.6 50.8689 18.332ZM59.1126 20V13.952H60.1446V20H59.1126ZM58.9206 12.092C58.9206 11.696 59.2206 11.408 59.6166 11.408C60.0246 11.408 60.3246 11.696 60.3246 12.092C60.3246 12.488 60.0246 12.776 59.6166 12.776C59.2206 12.776 58.9206 12.488 58.9206 12.092ZM61.7613 20V13.952H62.7813V14.996C63.1533 14.372 63.9213 13.856 64.9293 13.856C66.2013 13.856 67.1733 14.648 67.1733 16.04V20H66.1413V16.268C66.1413 15.296 65.5893 14.756 64.7253 14.756C63.5373 14.756 62.7813 15.788 62.7813 17.408V20H61.7613ZM68.734 22.184V13.952H69.766V14.936C70.126 14.276 70.954 13.856 71.854 13.856C73.666 13.856 74.866 15.104 74.866 16.976C74.866 18.848 73.666 20.096 71.854 20.096C70.966 20.096 70.126 19.664 69.766 19.004V22.184H68.734ZM69.766 16.976C69.766 18.284 70.606 19.208 71.794 19.208C72.958 19.208 73.822 18.296 73.822 16.976C73.822 15.656 72.958 14.744 71.794 14.744C70.606 14.744 69.766 15.656 69.766 16.976ZM78.2768 20.096C77.0048 20.096 76.0448 19.304 76.0448 17.804V13.952H77.0648V17.684C77.0648 18.656 77.6168 19.196 78.4688 19.196C79.6688 19.196 80.4128 18.164 80.4128 16.544V13.952H81.4448V20H80.4128V18.908C80.0288 19.604 79.2728 20.096 78.2768 20.096ZM85.2017 20.096C84.1697 20.096 83.4137 19.448 83.4137 18.212V14.804H82.3817V13.952H83.4137V12.416H84.4337V13.952H85.9697V14.804H84.4337V18.128C84.4337 18.836 84.7937 19.184 85.3217 19.184C85.5497 19.184 85.8017 19.136 86.0057 19.064V19.94C85.7777 20.048 85.4777 20.096 85.2017 20.096Z" fill="#0A0132"/>
<path d="M89 9.5L89 21.5" stroke="#7351FB"/>
</svg>
