<svg width="130" height="137" viewBox="0 0 130 137" fill="none" xmlns="http://www.w3.org/2000/svg">
<path d="M38.7031 21.1604H78.4912C88.1798 21.1604 96.0342 29.0148 96.0342 38.7034V39.427C96.0341 49.1155 88.1797 56.97 78.4912 56.97H38.7031C29.0146 56.97 21.1603 49.1155 21.1602 39.427V38.7034C21.1602 29.0148 29.0146 21.1604 38.7031 21.1604Z" fill="white"/>
<path d="M38.7031 21.1604H78.4912C88.1798 21.1604 96.0342 29.0148 96.0342 38.7034V39.427C96.0341 49.1155 88.1797 56.97 78.4912 56.97H38.7031C29.0146 56.97 21.1603 49.1155 21.1602 39.427V38.7034C21.1602 29.0148 29.0146 21.1604 38.7031 21.1604Z" stroke="#737373" stroke-width="3.2554"/>
<rect x="26.043" y="26.0432" width="26.0432" height="26.0432" rx="13.0216" fill="#737373"/>
<path d="M19.5322 97.3001C19.5322 86.7125 28.1151 78.1296 38.7026 78.1296H78.4913C89.0788 78.1296 97.6617 86.7125 97.6617 97.3001V98.024C97.6617 108.612 89.0789 117.194 78.4913 117.194H38.7027C28.1151 117.194 19.5322 108.612 19.5322 98.024V97.3001Z" fill="#7351FB"/>
<rect x="65.1074" y="84.6404" width="26.0432" height="26.0432" rx="13.0216" fill="white"/>
</svg>
