<svg width="130" height="137" viewBox="0 0 130 137" fill="none" xmlns="http://www.w3.org/2000/svg">
<path d="M38.7041 21.1603H78.4922C88.1808 21.1603 96.0352 29.0147 96.0352 38.7032V39.4269C96.0351 49.1154 88.1807 56.9698 78.4922 56.9698H38.7041C29.0156 56.9698 21.1612 49.1154 21.1611 39.4269V38.7032C21.1611 29.0147 29.0155 21.1603 38.7041 21.1603Z" fill="#242424"/>
<path d="M38.7041 21.1603H78.4922C88.1808 21.1603 96.0352 29.0147 96.0352 38.7032V39.4269C96.0351 49.1154 88.1807 56.9698 78.4922 56.9698H38.7041C29.0156 56.9698 21.1612 49.1154 21.1611 39.4269V38.7032C21.1611 29.0147 29.0155 21.1603 38.7041 21.1603Z" stroke="#767676" stroke-width="3.2554"/>
<rect x="26.0449" y="26.0433" width="26.0432" height="26.0432" rx="13.0216" fill="#767676"/>
<path d="M19.5332 97.2999C19.5332 86.7124 28.1161 78.1295 38.7036 78.1295H78.4923C89.0798 78.1295 97.6627 86.7124 97.6627 97.2999V98.0239C97.6627 108.611 89.0798 117.194 78.4923 117.194H38.7036C28.1161 117.194 19.5332 108.611 19.5332 98.0239V97.2999Z" fill="#7351FB"/>
<rect x="65.1094" y="84.6405" width="26.0432" height="26.0432" rx="13.0216" fill="#242424"/>
</svg>
