<svg width="127" height="48" viewBox="0 0 127 48" fill="none" xmlns="http://www.w3.org/2000/svg">
<path d="M24 1H103C115.703 1 126 11.2975 126 24C126 36.7025 115.703 47 103 47H24C11.2975 47 1 36.7025 1 24C1 11.2975 11.2975 1 24 1Z" fill="white"/>
<path d="M24 1H103C115.703 1 126 11.2975 126 24C126 36.7025 115.703 47 103 47H24C11.2975 47 1 36.7025 1 24C1 11.2975 11.2975 1 24 1Z" stroke="#7351FB" stroke-width="2"/>
<path d="M28.266 30V18.822H24.288V17.4H33.918V18.822H29.922V30H28.266ZM37.4821 30.144C34.8181 30.144 32.8921 28.2 32.8921 25.464C32.8921 22.728 34.8181 20.784 37.4821 20.784C40.1461 20.784 42.0721 22.728 42.0721 25.464C42.0721 28.2 40.1281 30.144 37.4821 30.144ZM34.4581 25.464C34.4581 27.426 35.7181 28.794 37.4821 28.794C39.2461 28.794 40.5061 27.426 40.5061 25.464C40.5061 23.484 39.2461 22.116 37.4821 22.116C35.7181 22.116 34.4581 23.484 34.4581 25.464ZM47.7247 33.42C45.7627 33.42 44.1247 32.34 43.8367 30.612H45.3847C45.6367 31.53 46.5547 32.106 47.7787 32.106C49.4347 32.106 50.6767 31.224 50.6767 29.604V28.164C50.1367 29.046 48.9667 29.622 47.6527 29.622C45.1147 29.622 43.4047 27.84 43.4047 25.212C43.4047 22.548 45.0967 20.784 47.6527 20.784C48.9487 20.784 50.1367 21.324 50.6767 22.188V20.928H52.2427V29.46C52.2427 31.944 50.3167 33.42 47.7247 33.42ZM44.9167 25.212C44.9167 27.048 46.1047 28.344 47.7967 28.344C49.4707 28.344 50.6767 27.048 50.6767 25.194C50.6767 23.304 49.4707 22.062 47.7967 22.062C46.1047 22.062 44.9167 23.322 44.9167 25.212ZM58.4298 33.42C56.4678 33.42 54.8298 32.34 54.5418 30.612H56.0898C56.3418 31.53 57.2598 32.106 58.4838 32.106C60.1398 32.106 61.3818 31.224 61.3818 29.604V28.164C60.8418 29.046 59.6718 29.622 58.3578 29.622C55.8198 29.622 54.1098 27.84 54.1098 25.212C54.1098 22.548 55.8018 20.784 58.3578 20.784C59.6538 20.784 60.8418 21.324 61.3818 22.188V20.928H62.9478V29.46C62.9478 31.944 61.0218 33.42 58.4298 33.42ZM55.6218 25.212C55.6218 27.048 56.8098 28.344 58.5018 28.344C60.1758 28.344 61.3818 27.048 61.3818 25.194C61.3818 23.304 60.1758 22.062 58.5018 22.062C56.8098 22.062 55.6218 23.322 55.6218 25.212ZM65.3369 30V17.256H66.8849V30H65.3369ZM73.2879 30.144C70.6059 30.144 68.7339 28.2 68.7339 25.464C68.7339 22.728 70.6059 20.784 73.1799 20.784C75.9519 20.784 77.6799 22.944 77.3379 25.662H70.2999C70.3719 27.588 71.5239 28.812 73.2339 28.812C74.5479 28.812 75.4119 28.146 75.6999 27.102H77.2479C76.9239 28.866 75.3759 30.144 73.2879 30.144ZM70.3899 24.438H75.7719C75.7719 22.998 74.7099 22.098 73.1799 22.098C71.7039 22.098 70.6959 22.926 70.3899 24.438Z" fill="#0A0132"/>
<path fill-rule="evenodd" clip-rule="evenodd" d="M103 15.75C98.4437 15.75 94.75 19.4437 94.75 24C94.75 28.5563 98.4437 32.25 103 32.25C107.556 32.25 111.25 28.5563 111.25 24C111.25 19.4437 107.556 15.75 103 15.75ZM93.25 24C93.25 18.6152 97.6152 14.25 103 14.25C108.385 14.25 112.75 18.6152 112.75 24C112.75 29.3848 108.385 33.75 103 33.75C97.6152 33.75 93.25 29.3848 93.25 24Z" fill="#0A0132"/>
<path fill-rule="evenodd" clip-rule="evenodd" d="M98.5 24C98.5 23.5858 98.8358 23.25 99.25 23.25H106.75C107.164 23.25 107.5 23.5858 107.5 24C107.5 24.4142 107.164 24.75 106.75 24.75H99.25C98.8358 24.75 98.5 24.4142 98.5 24Z" fill="#0A0132"/>
<path fill-rule="evenodd" clip-rule="evenodd" d="M103 19.5C103.414 19.5 103.75 19.8358 103.75 20.25V27.75C103.75 28.1642 103.414 28.5 103 28.5C102.586 28.5 102.25 28.1642 102.25 27.75V20.25C102.25 19.8358 102.586 19.5 103 19.5Z" fill="#0A0132"/>
</svg>
