<svg width="174" height="32" viewBox="0 0 174 32" fill="none" xmlns="http://www.w3.org/2000/svg">
<g clip-path="url(#clip0_1262_5856)">
<path d="M9.72419 22V10.8H11.1962V20.736H16.8442V22H9.72419ZM20.3879 22.128C18.6439 22.128 17.5399 21.232 17.5399 19.824C17.5399 18.208 18.6759 17.392 21.2359 17.136L22.9639 16.96V16.672C22.9639 15.6 22.1799 14.976 21.0119 14.976C19.8919 14.976 19.1559 15.552 18.9959 16.672H17.6199C17.8439 15.136 19.0279 13.808 21.0119 13.808C22.9479 13.808 24.3399 14.944 24.3399 16.816V22H22.9639V20.656C22.6439 21.424 21.5559 22.128 20.3879 22.128ZM18.9319 19.776C18.9319 20.512 19.5399 20.96 20.5159 20.96C21.9559 20.96 22.9639 19.824 22.9639 18.4V18.016L21.3159 18.208C19.6359 18.4 18.9319 18.8 18.9319 19.776ZM30.5527 22.128C29.3687 22.128 28.2327 21.552 27.7687 20.672V22H26.3927V10.672H27.7687V15.248C28.2327 14.368 29.3527 13.808 30.5527 13.808C32.9687 13.808 34.5687 15.472 34.5687 17.968C34.5687 20.464 32.9687 22.128 30.5527 22.128ZM27.7687 17.968C27.7687 19.712 28.8887 20.944 30.4727 20.944C32.0247 20.944 33.1767 19.728 33.1767 17.968C33.1767 16.208 32.0247 14.992 30.4727 14.992C28.8887 14.992 27.7687 16.208 27.7687 17.968ZM39.7724 22.128C37.3884 22.128 35.7244 20.4 35.7244 17.968C35.7244 15.536 37.3884 13.808 39.6764 13.808C42.1404 13.808 43.6764 15.728 43.3724 18.144H37.1164C37.1804 19.856 38.2044 20.944 39.7244 20.944C40.8924 20.944 41.6604 20.352 41.9164 19.424H43.2924C43.0044 20.992 41.6284 22.128 39.7724 22.128ZM37.1964 17.056H41.9804C41.9804 15.776 41.0364 14.976 39.6764 14.976C38.3644 14.976 37.4684 15.712 37.1964 17.056ZM45.0642 22V10.672H46.4402V22H45.0642Z" fill="white"/>
<rect x="56" width="2" height="32" fill="#7351FB"/>
<rect width="56" height="32" transform="translate(58)" fill="#7351FB"/>
<path d="M67.7242 22V10.8H69.1962V20.736H74.8442V22H67.7242ZM78.3879 22.128C76.6439 22.128 75.5399 21.232 75.5399 19.824C75.5399 18.208 76.6759 17.392 79.2359 17.136L80.9639 16.96V16.672C80.9639 15.6 80.1799 14.976 79.0119 14.976C77.8919 14.976 77.1559 15.552 76.9959 16.672H75.6199C75.8439 15.136 77.0279 13.808 79.0119 13.808C80.9479 13.808 82.3399 14.944 82.3399 16.816V22H80.9639V20.656C80.6439 21.424 79.5559 22.128 78.3879 22.128ZM76.9319 19.776C76.9319 20.512 77.5399 20.96 78.5159 20.96C79.9559 20.96 80.9639 19.824 80.9639 18.4V18.016L79.3159 18.208C77.6359 18.4 76.9319 18.8 76.9319 19.776ZM88.5527 22.128C87.3687 22.128 86.2327 21.552 85.7687 20.672V22H84.3927V10.672H85.7687V15.248C86.2327 14.368 87.3527 13.808 88.5527 13.808C90.9687 13.808 92.5687 15.472 92.5687 17.968C92.5687 20.464 90.9687 22.128 88.5527 22.128ZM85.7687 17.968C85.7687 19.712 86.8887 20.944 88.4727 20.944C90.0247 20.944 91.1767 19.728 91.1767 17.968C91.1767 16.208 90.0247 14.992 88.4727 14.992C86.8887 14.992 85.7687 16.208 85.7687 17.968ZM97.7724 22.128C95.3884 22.128 93.7244 20.4 93.7244 17.968C93.7244 15.536 95.3884 13.808 97.6764 13.808C100.14 13.808 101.676 15.728 101.372 18.144H95.1164C95.1804 19.856 96.2044 20.944 97.7244 20.944C98.8924 20.944 99.6604 20.352 99.9164 19.424H101.292C101.004 20.992 99.6284 22.128 97.7724 22.128ZM95.1964 17.056H99.9804C99.9804 15.776 99.0364 14.976 97.6764 14.976C96.3644 14.976 95.4684 15.712 95.1964 17.056ZM103.064 22V10.672H104.44V22H103.064Z" fill="white"/>
<rect x="114" width="2" height="32" fill="#7351FB"/>
<rect x="116" width="2" height="32" fill="#7351FB"/>
<path d="M127.724 22V10.8H129.196V20.736H134.844V22H127.724ZM138.388 22.128C136.644 22.128 135.54 21.232 135.54 19.824C135.54 18.208 136.676 17.392 139.236 17.136L140.964 16.96V16.672C140.964 15.6 140.18 14.976 139.012 14.976C137.892 14.976 137.156 15.552 136.996 16.672H135.62C135.844 15.136 137.028 13.808 139.012 13.808C140.948 13.808 142.34 14.944 142.34 16.816V22H140.964V20.656C140.644 21.424 139.556 22.128 138.388 22.128ZM136.932 19.776C136.932 20.512 137.54 20.96 138.516 20.96C139.956 20.96 140.964 19.824 140.964 18.4V18.016L139.316 18.208C137.636 18.4 136.932 18.8 136.932 19.776ZM148.553 22.128C147.369 22.128 146.233 21.552 145.769 20.672V22H144.393V10.672H145.769V15.248C146.233 14.368 147.353 13.808 148.553 13.808C150.969 13.808 152.569 15.472 152.569 17.968C152.569 20.464 150.969 22.128 148.553 22.128ZM145.769 17.968C145.769 19.712 146.889 20.944 148.473 20.944C150.025 20.944 151.177 19.728 151.177 17.968C151.177 16.208 150.025 14.992 148.473 14.992C146.889 14.992 145.769 16.208 145.769 17.968ZM157.772 22.128C155.388 22.128 153.724 20.4 153.724 17.968C153.724 15.536 155.388 13.808 157.676 13.808C160.14 13.808 161.676 15.728 161.372 18.144H155.116C155.18 19.856 156.204 20.944 157.724 20.944C158.892 20.944 159.66 20.352 159.916 19.424H161.292C161.004 20.992 159.628 22.128 157.772 22.128ZM155.196 17.056H159.98C159.98 15.776 159.036 14.976 157.676 14.976C156.364 14.976 155.468 15.712 155.196 17.056ZM163.064 22V10.672H164.44V22H163.064Z" fill="white"/>
</g>
<path d="M8 1H166C169.866 1 173 4.13401 173 8V24C173 27.866 169.866 31 166 31H8C4.13401 31 1 27.866 1 24V8C1 4.13401 4.13401 1 8 1Z" stroke="#7351FB" stroke-width="2"/>
<defs>
<clipPath id="clip0_1262_5856">
<path d="M0 8C0 3.58172 3.58172 0 8 0H166C170.418 0 174 3.58172 174 8V24C174 28.4183 170.418 32 166 32H8C3.58172 32 0 28.4183 0 24V8Z" fill="white"/>
</clipPath>
</defs>
</svg>
