<svg width="736" height="138" viewBox="0 0 736 138" fill="none" xmlns="http://www.w3.org/2000/svg">
<path d="M0 12C0 5.37258 5.37258 0 12 0H724C730.627 0 736 5.37258 736 12V126C736 132.627 730.627 138 724 138H12C5.3726 138 0 132.627 0 126V12Z" fill="white"/>
<path d="M107.896 42.128C106.637 42.128 105.603 41.7867 104.792 41.104C103.992 40.4213 103.539 39.4613 103.432 38.224H105.56C105.635 38.8853 105.885 39.392 106.312 39.744C106.739 40.096 107.267 40.272 107.896 40.272C108.451 40.272 108.899 40.1493 109.24 39.904C109.592 39.6587 109.768 39.328 109.768 38.912C109.768 38.592 109.661 38.3307 109.448 38.128C109.245 37.9147 108.989 37.7493 108.68 37.632C108.381 37.504 107.949 37.3547 107.384 37.184C106.627 36.9707 106.008 36.7573 105.528 36.544C105.048 36.32 104.637 35.9893 104.296 35.552C103.955 35.1147 103.784 34.5387 103.784 33.824C103.784 33.2053 103.949 32.6613 104.28 32.192C104.621 31.712 105.08 31.3387 105.656 31.072C106.243 30.8053 106.893 30.672 107.608 30.672C108.813 30.672 109.789 30.976 110.536 31.584C111.283 32.1813 111.715 33.0187 111.832 34.096H109.72C109.613 33.6053 109.373 33.2213 109 32.944C108.627 32.6667 108.163 32.528 107.608 32.528C107.107 32.528 106.707 32.64 106.408 32.864C106.109 33.0773 105.96 33.3653 105.96 33.728C105.96 33.984 106.051 34.1973 106.232 34.368C106.424 34.5387 106.659 34.6773 106.936 34.784C107.213 34.8907 107.613 35.0187 108.136 35.168C108.925 35.3813 109.571 35.6 110.072 35.824C110.584 36.048 111.021 36.4 111.384 36.88C111.757 37.3493 111.944 37.984 111.944 38.784C111.944 39.4453 111.773 40.032 111.432 40.544C111.091 41.0453 110.611 41.4347 109.992 41.712C109.384 41.9893 108.685 42.128 107.896 42.128ZM117.077 42.128C116.256 42.128 115.53 41.952 114.901 41.6C114.272 41.248 113.781 40.7573 113.429 40.128C113.088 39.4987 112.917 38.7787 112.917 37.968C112.917 37.168 113.093 36.4533 113.445 35.824C113.797 35.1947 114.277 34.704 114.885 34.352C115.504 33.9893 116.202 33.808 116.981 33.808C117.76 33.808 118.448 33.9787 119.045 34.32C119.642 34.6507 120.101 35.1147 120.421 35.712C120.752 36.3093 120.917 36.976 120.917 37.712C120.917 37.9253 120.901 38.1547 120.869 38.4H114.933C115.008 39.0507 115.237 39.552 115.621 39.904C116.005 40.256 116.485 40.432 117.061 40.432C117.509 40.432 117.882 40.336 118.181 40.144C118.48 39.952 118.677 39.6907 118.773 39.36H120.789C120.64 40.192 120.234 40.864 119.573 41.376C118.912 41.8773 118.08 42.128 117.077 42.128ZM118.773 36.912C118.762 36.4533 118.592 36.0853 118.261 35.808C117.93 35.52 117.504 35.376 116.981 35.376C115.936 35.376 115.285 35.888 115.029 36.912H118.773ZM131.903 33.808C132.767 33.808 133.471 34.08 134.015 34.624C134.559 35.1573 134.831 35.872 134.831 36.768V42H132.799V37.2C132.799 36.6987 132.671 36.304 132.415 36.016C132.169 35.728 131.828 35.584 131.391 35.584C130.825 35.584 130.377 35.8133 130.047 36.272C129.727 36.7307 129.567 37.3067 129.567 38V42H127.535V37.2C127.535 36.6987 127.412 36.304 127.167 36.016C126.921 35.728 126.58 35.584 126.143 35.584C125.577 35.584 125.129 35.8133 124.799 36.272C124.479 36.7307 124.319 37.3067 124.319 38V42H122.287V33.936H124.319V35.056C124.564 34.6933 124.905 34.3947 125.343 34.16C125.791 33.9253 126.287 33.808 126.831 33.808C127.396 33.808 127.897 33.936 128.335 34.192C128.772 34.4373 129.065 34.7627 129.215 35.168C129.524 34.7627 129.919 34.4373 130.399 34.192C130.879 33.936 131.38 33.808 131.903 33.808ZM138.985 42.128C138.142 42.128 137.465 41.9093 136.953 41.472C136.441 41.0347 136.185 40.464 136.185 39.76C136.185 38.96 136.468 38.3467 137.033 37.92C137.609 37.4827 138.505 37.2 139.721 37.072L141.289 36.912V36.736C141.289 36.32 141.15 35.9893 140.873 35.744C140.596 35.4987 140.228 35.376 139.769 35.376C139.342 35.376 138.99 35.488 138.713 35.712C138.446 35.936 138.286 36.256 138.233 36.672H136.233C136.308 36.1387 136.5 35.6533 136.809 35.216C137.129 34.7787 137.54 34.4373 138.041 34.192C138.553 33.936 139.129 33.808 139.769 33.808C140.836 33.808 141.694 34.0907 142.345 34.656C142.996 35.2107 143.321 35.9947 143.321 37.008V42H141.289V40.976C141.108 41.3067 140.804 41.584 140.377 41.808C139.95 42.0213 139.486 42.128 138.985 42.128ZM138.185 39.68C138.185 39.9573 138.292 40.176 138.505 40.336C138.718 40.496 139.012 40.576 139.385 40.576C139.961 40.576 140.42 40.3787 140.761 39.984C141.113 39.5787 141.289 39.0827 141.289 38.496V38.368L139.801 38.56C139.236 38.624 138.825 38.7467 138.569 38.928C138.313 39.0987 138.185 39.3493 138.185 39.68ZM145.005 33.936H147.037V34.992C147.261 34.6613 147.603 34.384 148.061 34.16C148.531 33.9253 149.064 33.808 149.661 33.808C150.547 33.808 151.267 34.08 151.821 34.624C152.376 35.1573 152.653 35.888 152.653 36.816V42H150.621V37.248C150.621 36.736 150.477 36.3307 150.189 36.032C149.912 35.7333 149.539 35.584 149.069 35.584C148.44 35.584 147.944 35.84 147.581 36.352C147.219 36.864 147.037 37.5787 147.037 38.496V42H145.005V33.936ZM157.695 42.128C156.852 42.128 156.164 41.8827 155.631 41.392C155.108 40.8907 154.847 40.1973 154.847 39.312V35.584H153.551V33.936H154.847V31.968H156.879V33.936H158.783V35.584H156.879V39.136C156.879 39.5413 156.975 39.8507 157.167 40.064C157.359 40.2667 157.626 40.368 157.967 40.368C158.266 40.368 158.559 40.3147 158.847 40.208V41.92C158.506 42.0587 158.122 42.128 157.695 42.128ZM160.068 33.936H162.1V42H160.068V33.936ZM161.076 32.768C160.713 32.768 160.415 32.656 160.18 32.432C159.945 32.1973 159.828 31.9093 159.828 31.568C159.828 31.216 159.945 30.928 160.18 30.704C160.415 30.4693 160.713 30.352 161.076 30.352C161.439 30.352 161.737 30.4693 161.972 30.704C162.207 30.928 162.324 31.216 162.324 31.568C162.324 31.9093 162.207 32.1973 161.972 32.432C161.737 32.656 161.439 32.768 161.076 32.768ZM166.76 42.128C165.768 42.128 164.979 41.8667 164.392 41.344C163.805 40.8107 163.485 40.1333 163.432 39.312H165.304C165.347 39.7067 165.491 40.0107 165.736 40.224C165.992 40.4373 166.333 40.544 166.76 40.544C167.133 40.544 167.427 40.464 167.64 40.304C167.864 40.144 167.976 39.92 167.976 39.632C167.976 39.3333 167.843 39.1147 167.576 38.976C167.309 38.8373 166.888 38.6987 166.312 38.56C165.736 38.4107 165.272 38.2613 164.92 38.112C164.568 37.9627 164.259 37.7333 163.992 37.424C163.736 37.104 163.608 36.672 163.608 36.128C163.608 35.6907 163.725 35.296 163.96 34.944C164.195 34.592 164.531 34.3147 164.968 34.112C165.405 33.9093 165.907 33.808 166.472 33.808C167.421 33.808 168.179 34.032 168.744 34.48C169.32 34.928 169.661 35.552 169.768 36.352H167.912C167.848 36.0213 167.688 35.7653 167.432 35.584C167.176 35.4027 166.856 35.312 166.472 35.312C166.173 35.312 165.928 35.376 165.736 35.504C165.544 35.632 165.448 35.8027 165.448 36.016C165.448 36.2827 165.571 36.4747 165.816 36.592C166.061 36.7093 166.461 36.8373 167.016 36.976C167.613 37.1147 168.099 37.264 168.472 37.424C168.856 37.5733 169.187 37.824 169.464 38.176C169.741 38.5173 169.88 38.9867 169.88 39.584C169.88 40.0747 169.747 40.512 169.48 40.896C169.213 41.28 168.84 41.584 168.36 41.808C167.891 42.0213 167.357 42.128 166.76 42.128ZM174.344 38.416L173.272 39.456V42H171.24V30.672H173.272V36.784L176.296 33.936H178.984L175.816 36.992L179.256 42H176.824L174.344 38.416ZM183.337 30.8H190.937V32.656H185.513V35.248H189.897V37.104H185.513V42H183.337V30.8ZM193.829 42.128C192.986 42.128 192.309 41.9093 191.797 41.472C191.285 41.0347 191.029 40.464 191.029 39.76C191.029 38.96 191.311 38.3467 191.877 37.92C192.453 37.4827 193.349 37.2 194.565 37.072L196.133 36.912V36.736C196.133 36.32 195.994 35.9893 195.717 35.744C195.439 35.4987 195.071 35.376 194.613 35.376C194.186 35.376 193.834 35.488 193.557 35.712C193.29 35.936 193.13 36.256 193.077 36.672H191.077C191.151 36.1387 191.343 35.6533 191.653 35.216C191.973 34.7787 192.383 34.4373 192.885 34.192C193.397 33.936 193.973 33.808 194.613 33.808C195.679 33.808 196.538 34.0907 197.189 34.656C197.839 35.2107 198.165 35.9947 198.165 37.008V42H196.133V40.976C195.951 41.3067 195.647 41.584 195.221 41.808C194.794 42.0213 194.33 42.128 193.829 42.128ZM193.029 39.68C193.029 39.9573 193.135 40.176 193.349 40.336C193.562 40.496 193.855 40.576 194.229 40.576C194.805 40.576 195.263 40.3787 195.605 39.984C195.957 39.5787 196.133 39.0827 196.133 38.496V38.368L194.645 38.56C194.079 38.624 193.669 38.7467 193.413 38.928C193.157 39.0987 193.029 39.3493 193.029 39.68ZM199.849 33.936H201.881V35.024C202.105 34.6613 202.43 34.368 202.857 34.144C203.294 33.92 203.758 33.808 204.249 33.808C204.601 33.808 204.9 33.8613 205.145 33.968V35.888C204.814 35.76 204.452 35.696 204.057 35.696C203.428 35.696 202.905 35.9733 202.489 36.528C202.084 37.072 201.881 37.8773 201.881 38.944V42H199.849V33.936ZM209.575 45.04C208.913 45.04 208.316 44.9227 207.783 44.688C207.249 44.464 206.817 44.1493 206.487 43.744C206.167 43.3387 205.969 42.8853 205.895 42.384H207.911C207.996 42.7253 208.193 42.992 208.503 43.184C208.812 43.376 209.191 43.472 209.639 43.472C210.247 43.472 210.737 43.312 211.111 42.992C211.495 42.6827 211.687 42.2347 211.687 41.648V40.592C211.452 40.912 211.127 41.1627 210.711 41.344C210.295 41.5253 209.852 41.616 209.383 41.616C208.615 41.616 207.943 41.456 207.367 41.136C206.791 40.816 206.348 40.3627 206.039 39.776C205.729 39.1787 205.575 38.4907 205.575 37.712C205.575 36.9227 205.729 36.2347 206.039 35.648C206.348 35.0613 206.791 34.608 207.367 34.288C207.943 33.968 208.615 33.808 209.383 33.808C209.852 33.808 210.295 33.8987 210.711 34.08C211.127 34.2507 211.452 34.4907 211.687 34.8V33.936H213.719V41.456C213.719 42.2027 213.543 42.8427 213.191 43.376C212.839 43.92 212.348 44.3307 211.719 44.608C211.1 44.896 210.385 45.04 209.575 45.04ZM209.623 39.984C210.231 39.984 210.727 39.776 211.111 39.36C211.495 38.9333 211.687 38.384 211.687 37.712C211.687 37.0293 211.495 36.48 211.111 36.064C210.727 35.648 210.231 35.44 209.623 35.44C209.004 35.44 208.503 35.648 208.119 36.064C207.735 36.48 207.543 37.0293 207.543 37.712C207.543 38.384 207.735 38.9333 208.119 39.36C208.503 39.776 209.004 39.984 209.623 39.984ZM219.218 42.128C218.396 42.128 217.671 41.952 217.042 41.6C216.412 41.248 215.922 40.7573 215.57 40.128C215.228 39.4987 215.058 38.7787 215.058 37.968C215.058 37.168 215.234 36.4533 215.586 35.824C215.938 35.1947 216.418 34.704 217.026 34.352C217.644 33.9893 218.343 33.808 219.122 33.808C219.9 33.808 220.588 33.9787 221.186 34.32C221.783 34.6507 222.242 35.1147 222.562 35.712C222.892 36.3093 223.058 36.976 223.058 37.712C223.058 37.9253 223.042 38.1547 223.01 38.4H217.074C217.148 39.0507 217.378 39.552 217.762 39.904C218.146 40.256 218.626 40.432 219.202 40.432C219.65 40.432 220.023 40.336 220.322 40.144C220.62 39.952 220.818 39.6907 220.914 39.36H222.93C222.78 40.192 222.375 40.864 221.714 41.376C221.052 41.8773 220.22 42.128 219.218 42.128ZM220.914 36.912C220.903 36.4533 220.732 36.0853 220.402 35.808C220.071 35.52 219.644 35.376 219.122 35.376C218.076 35.376 217.426 35.888 217.17 36.912H220.914ZM227.726 42.128C226.884 42.128 226.196 41.8827 225.662 41.392C225.14 40.8907 224.878 40.1973 224.878 39.312V35.584H223.582V33.936H224.878V31.968H226.91V33.936H228.814V35.584H226.91V39.136C226.91 39.5413 227.006 39.8507 227.198 40.064C227.39 40.2667 227.657 40.368 227.998 40.368C228.297 40.368 228.59 40.3147 228.878 40.208V41.92C228.537 42.0587 228.153 42.128 227.726 42.128ZM233.766 42.128C232.955 42.128 232.23 41.952 231.59 41.6C230.95 41.2373 230.449 40.7413 230.086 40.112C229.723 39.472 229.542 38.752 229.542 37.952C229.542 37.152 229.723 36.4373 230.086 35.808C230.449 35.1787 230.95 34.688 231.59 34.336C232.23 33.984 232.955 33.808 233.766 33.808C234.577 33.808 235.302 33.984 235.942 34.336C236.582 34.688 237.083 35.1787 237.446 35.808C237.809 36.4373 237.99 37.152 237.99 37.952C237.99 38.752 237.809 39.472 237.446 40.112C237.083 40.7413 236.582 41.2373 235.942 41.6C235.302 41.952 234.577 42.128 233.766 42.128ZM233.766 40.4C234.406 40.4 234.929 40.176 235.334 39.728C235.739 39.2693 235.942 38.6773 235.942 37.952C235.942 37.2373 235.739 36.656 235.334 36.208C234.929 35.76 234.406 35.536 233.766 35.536C233.126 35.536 232.603 35.76 232.198 36.208C231.793 36.656 231.59 37.2373 231.59 37.952C231.59 38.6773 231.793 39.2693 232.198 39.728C232.603 40.176 233.126 40.4 233.766 40.4ZM242.453 38.416L241.381 39.456V42H239.349V30.672H241.381V36.784L244.405 33.936H247.093L243.925 36.992L247.365 42H244.933L242.453 38.416ZM251.312 42.128C250.49 42.128 249.765 41.952 249.136 41.6C248.506 41.248 248.016 40.7573 247.664 40.128C247.322 39.4987 247.152 38.7787 247.152 37.968C247.152 37.168 247.328 36.4533 247.68 35.824C248.032 35.1947 248.512 34.704 249.12 34.352C249.738 33.9893 250.437 33.808 251.216 33.808C251.994 33.808 252.682 33.9787 253.28 34.32C253.877 34.6507 254.336 35.1147 254.656 35.712C254.986 36.3093 255.152 36.976 255.152 37.712C255.152 37.9253 255.136 38.1547 255.104 38.4H249.168C249.242 39.0507 249.472 39.552 249.856 39.904C250.24 40.256 250.72 40.432 251.296 40.432C251.744 40.432 252.117 40.336 252.416 40.144C252.714 39.952 252.912 39.6907 253.008 39.36H255.024C254.874 40.192 254.469 40.864 253.808 41.376C253.146 41.8773 252.314 42.128 251.312 42.128ZM253.008 36.912C252.997 36.4533 252.826 36.0853 252.496 35.808C252.165 35.52 251.738 35.376 251.216 35.376C250.17 35.376 249.52 35.888 249.264 36.912H253.008ZM256.521 33.936H258.553V34.992C258.777 34.6613 259.118 34.384 259.577 34.16C260.046 33.9253 260.58 33.808 261.177 33.808C262.062 33.808 262.782 34.08 263.337 34.624C263.892 35.1573 264.169 35.888 264.169 36.816V42H262.137V37.248C262.137 36.736 261.993 36.3307 261.705 36.032C261.428 35.7333 261.054 35.584 260.585 35.584C259.956 35.584 259.46 35.84 259.097 36.352C258.734 36.864 258.553 37.5787 258.553 38.496V42H256.521V33.936Z" fill="#0A0132"/>
<path fill-rule="evenodd" clip-rule="evenodd" d="M187.708 65.2818C188.001 65.5745 188.002 66.0493 187.709 66.3424L181.353 72.7081C181.06 73.0012 180.585 73.0015 180.292 72.7088C179.999 72.4162 179.999 71.9413 180.291 71.6482L186.648 65.2826C186.94 64.9895 187.415 64.9891 187.708 65.2818Z" fill="#004FCF"/>
<path fill-rule="evenodd" clip-rule="evenodd" d="M179.759 66.8759C180.051 67.1688 180.051 67.6437 179.759 67.9366L177.105 70.5897C176.402 71.2932 176.007 72.2473 176.007 73.2422C176.007 74.2371 176.402 75.1912 177.105 75.8947C177.809 76.5982 178.763 76.9934 179.758 76.9934C180.251 76.9934 180.738 76.8963 181.193 76.7078C181.649 76.5193 182.062 76.243 182.41 75.8947L185.063 73.2415C185.356 72.9487 185.831 72.9487 186.124 73.2415C186.417 73.5344 186.417 74.0093 186.124 74.3022L183.471 76.9553C182.983 77.4429 182.405 77.8297 181.767 78.0936C181.13 78.3575 180.447 78.4934 179.758 78.4934C178.365 78.4934 177.03 77.9401 176.045 76.9553C175.06 75.9705 174.507 74.6349 174.507 73.2422C174.507 71.8495 175.06 70.5138 176.045 69.529L178.698 66.8759C178.991 66.583 179.466 66.583 179.759 66.8759Z" fill="#004FCF"/>
<path fill-rule="evenodd" clip-rule="evenodd" d="M184.529 61.0447C185.514 60.0599 186.849 59.5066 188.242 59.5066C189.635 59.5066 190.971 60.0599 191.955 61.0447C192.94 62.0294 193.493 63.3651 193.493 64.7578C193.493 66.1505 192.94 67.4862 191.955 68.4709L189.302 71.1241C189.009 71.417 188.534 71.417 188.242 71.1241C187.949 70.8312 187.949 70.3563 188.242 70.0634L190.895 67.4103C191.598 66.7068 191.993 65.7527 191.993 64.7578C191.993 63.7629 191.598 62.8088 190.895 62.1053C190.191 61.4018 189.237 61.0066 188.242 61.0066C187.247 61.0066 186.293 61.4018 185.59 62.1053L182.937 64.7584C182.644 65.0513 182.169 65.0513 181.876 64.7584C181.583 64.4655 181.583 63.9907 181.876 63.6978L184.529 61.0447Z" fill="#004FCF"/>
<path d="M146.54 96.8H151.228C151.868 96.8 152.433 96.9173 152.924 97.152C153.425 97.3867 153.809 97.7173 154.076 98.144C154.353 98.5707 154.492 99.0613 154.492 99.616C154.492 100.128 154.337 100.603 154.028 101.04C153.719 101.467 153.34 101.765 152.892 101.936C153.511 102.096 154.028 102.432 154.444 102.944C154.86 103.456 155.068 104.043 155.068 104.704C155.068 105.355 154.908 105.931 154.588 106.432C154.268 106.923 153.815 107.307 153.228 107.584C152.652 107.861 151.996 108 151.26 108H146.54V96.8ZM151.052 106.144C151.585 106.144 152.023 105.995 152.364 105.696C152.716 105.397 152.892 105.013 152.892 104.544C152.892 104.085 152.716 103.712 152.364 103.424C152.023 103.125 151.585 102.976 151.052 102.976H148.716V106.144H151.052ZM150.892 101.232C151.329 101.232 151.687 101.115 151.964 100.88C152.252 100.635 152.396 100.32 152.396 99.936C152.396 99.5627 152.252 99.2587 151.964 99.024C151.687 98.7787 151.329 98.656 150.892 98.656H148.716V101.232H150.892ZM158.907 108.128C158.064 108.128 157.387 107.909 156.875 107.472C156.363 107.035 156.107 106.464 156.107 105.76C156.107 104.96 156.39 104.347 156.955 103.92C157.531 103.483 158.427 103.2 159.643 103.072L161.211 102.912V102.736C161.211 102.32 161.072 101.989 160.795 101.744C160.518 101.499 160.15 101.376 159.691 101.376C159.264 101.376 158.912 101.488 158.635 101.712C158.368 101.936 158.208 102.256 158.155 102.672H156.155C156.23 102.139 156.422 101.653 156.731 101.216C157.051 100.779 157.462 100.437 157.963 100.192C158.475 99.936 159.051 99.808 159.691 99.808C160.758 99.808 161.616 100.091 162.267 100.656C162.918 101.211 163.243 101.995 163.243 103.008V108H161.211V106.976C161.03 107.307 160.726 107.584 160.299 107.808C159.872 108.021 159.408 108.128 158.907 108.128ZM158.107 105.68C158.107 105.957 158.214 106.176 158.427 106.336C158.64 106.496 158.934 106.576 159.307 106.576C159.883 106.576 160.342 106.379 160.683 105.984C161.035 105.579 161.211 105.083 161.211 104.496V104.368L159.723 104.56C159.158 104.624 158.747 104.747 158.491 104.928C158.235 105.099 158.107 105.349 158.107 105.68ZM167.791 108.128C166.799 108.128 166.01 107.867 165.423 107.344C164.837 106.811 164.517 106.133 164.463 105.312H166.335C166.378 105.707 166.522 106.011 166.767 106.224C167.023 106.437 167.365 106.544 167.791 106.544C168.165 106.544 168.458 106.464 168.671 106.304C168.895 106.144 169.007 105.92 169.007 105.632C169.007 105.333 168.874 105.115 168.607 104.976C168.341 104.837 167.919 104.699 167.343 104.56C166.767 104.411 166.303 104.261 165.951 104.112C165.599 103.963 165.29 103.733 165.023 103.424C164.767 103.104 164.639 102.672 164.639 102.128C164.639 101.691 164.757 101.296 164.991 100.944C165.226 100.592 165.562 100.315 165.999 100.112C166.437 99.9093 166.938 99.808 167.503 99.808C168.453 99.808 169.21 100.032 169.775 100.48C170.351 100.928 170.693 101.552 170.799 102.352H168.943C168.879 102.021 168.719 101.765 168.463 101.584C168.207 101.403 167.887 101.312 167.503 101.312C167.205 101.312 166.959 101.376 166.767 101.504C166.575 101.632 166.479 101.803 166.479 102.016C166.479 102.283 166.602 102.475 166.847 102.592C167.093 102.709 167.493 102.837 168.047 102.976C168.645 103.115 169.13 103.264 169.503 103.424C169.887 103.573 170.218 103.824 170.495 104.176C170.773 104.517 170.911 104.987 170.911 105.584C170.911 106.075 170.778 106.512 170.511 106.896C170.245 107.28 169.871 107.584 169.391 107.808C168.922 108.021 168.389 108.128 167.791 108.128ZM175.999 108.128C175.178 108.128 174.452 107.952 173.823 107.6C173.194 107.248 172.703 106.757 172.351 106.128C172.01 105.499 171.839 104.779 171.839 103.968C171.839 103.168 172.015 102.453 172.367 101.824C172.719 101.195 173.199 100.704 173.807 100.352C174.426 99.9893 175.124 99.808 175.903 99.808C176.682 99.808 177.37 99.9787 177.967 100.32C178.564 100.651 179.023 101.115 179.343 101.712C179.674 102.309 179.839 102.976 179.839 103.712C179.839 103.925 179.823 104.155 179.791 104.4H173.855C173.93 105.051 174.159 105.552 174.543 105.904C174.927 106.256 175.407 106.432 175.983 106.432C176.431 106.432 176.804 106.336 177.103 106.144C177.402 105.952 177.599 105.691 177.695 105.36H179.711C179.562 106.192 179.156 106.864 178.495 107.376C177.834 107.877 177.002 108.128 175.999 108.128ZM177.695 102.912C177.684 102.453 177.514 102.085 177.183 101.808C176.852 101.52 176.426 101.376 175.903 101.376C174.858 101.376 174.207 101.888 173.951 102.912H177.695ZM184.508 108.128C183.665 108.128 182.977 107.883 182.444 107.392C181.921 106.891 181.66 106.197 181.66 105.312V101.584H180.364V99.936H181.66V97.968H183.692V99.936H185.596V101.584H183.692V105.136C183.692 105.541 183.788 105.851 183.98 106.064C184.172 106.267 184.438 106.368 184.78 106.368C185.078 106.368 185.372 106.315 185.66 106.208V107.92C185.318 108.059 184.934 108.128 184.508 108.128ZM190.547 108.128C189.737 108.128 189.011 107.952 188.371 107.6C187.731 107.237 187.23 106.741 186.867 106.112C186.505 105.472 186.323 104.752 186.323 103.952C186.323 103.152 186.505 102.437 186.867 101.808C187.23 101.179 187.731 100.688 188.371 100.336C189.011 99.984 189.737 99.808 190.547 99.808C191.358 99.808 192.083 99.984 192.723 100.336C193.363 100.688 193.865 101.179 194.227 101.808C194.59 102.437 194.771 103.152 194.771 103.952C194.771 104.752 194.59 105.472 194.227 106.112C193.865 106.741 193.363 107.237 192.723 107.6C192.083 107.952 191.358 108.128 190.547 108.128ZM190.547 106.4C191.187 106.4 191.71 106.176 192.115 105.728C192.521 105.269 192.723 104.677 192.723 103.952C192.723 103.237 192.521 102.656 192.115 102.208C191.71 101.76 191.187 101.536 190.547 101.536C189.907 101.536 189.385 101.76 188.979 102.208C188.574 102.656 188.371 103.237 188.371 103.952C188.371 104.677 188.574 105.269 188.979 105.728C189.385 106.176 189.907 106.4 190.547 106.4ZM199.234 104.416L198.162 105.456V108H196.13V96.672H198.162V102.784L201.186 99.936H203.874L200.706 102.992L204.146 108H201.714L199.234 104.416ZM208.093 108.128C207.271 108.128 206.546 107.952 205.917 107.6C205.287 107.248 204.797 106.757 204.445 106.128C204.103 105.499 203.933 104.779 203.933 103.968C203.933 103.168 204.109 102.453 204.461 101.824C204.813 101.195 205.293 100.704 205.901 100.352C206.519 99.9893 207.218 99.808 207.997 99.808C208.775 99.808 209.463 99.9787 210.061 100.32C210.658 100.651 211.117 101.115 211.437 101.712C211.767 102.309 211.933 102.976 211.933 103.712C211.933 103.925 211.917 104.155 211.885 104.4H205.949C206.023 105.051 206.253 105.552 206.637 105.904C207.021 106.256 207.501 106.432 208.077 106.432C208.525 106.432 208.898 106.336 209.197 106.144C209.495 105.952 209.693 105.691 209.789 105.36H211.805C211.655 106.192 211.25 106.864 210.589 107.376C209.927 107.877 209.095 108.128 208.093 108.128ZM209.789 102.912C209.778 102.453 209.607 102.085 209.277 101.808C208.946 101.52 208.519 101.376 207.997 101.376C206.951 101.376 206.301 101.888 206.045 102.912H209.789ZM213.302 99.936H215.334V100.992C215.558 100.661 215.9 100.384 216.358 100.16C216.828 99.9253 217.361 99.808 217.958 99.808C218.844 99.808 219.564 100.08 220.118 100.624C220.673 101.157 220.95 101.888 220.95 102.816V108H218.918V103.248C218.918 102.736 218.774 102.331 218.486 102.032C218.209 101.733 217.836 101.584 217.366 101.584C216.737 101.584 216.241 101.84 215.878 102.352C215.516 102.864 215.334 103.579 215.334 104.496V108H213.302V99.936Z" fill="#0A0132"/>
<circle cx="408" cy="40" r="16" fill="#7351FB"/>
<path d="M436.512 41.664H444.256V43.376H436.512V41.664ZM436.512 38.208H444.256V39.92H436.512V38.208Z" fill="#0A0132"/>
<path d="M460.76 46.128C459.768 46.128 458.979 45.8667 458.392 45.344C457.805 44.8107 457.485 44.1333 457.432 43.312H459.304C459.347 43.7067 459.491 44.0107 459.736 44.224C459.992 44.4373 460.333 44.544 460.76 44.544C461.133 44.544 461.427 44.464 461.64 44.304C461.864 44.144 461.976 43.92 461.976 43.632C461.976 43.3333 461.843 43.1147 461.576 42.976C461.309 42.8373 460.888 42.6987 460.312 42.56C459.736 42.4107 459.272 42.2613 458.92 42.112C458.568 41.9627 458.259 41.7333 457.992 41.424C457.736 41.104 457.608 40.672 457.608 40.128C457.608 39.6907 457.725 39.296 457.96 38.944C458.195 38.592 458.531 38.3147 458.968 38.112C459.405 37.9093 459.907 37.808 460.472 37.808C461.421 37.808 462.179 38.032 462.744 38.48C463.32 38.928 463.661 39.552 463.768 40.352H461.912C461.848 40.0213 461.688 39.7653 461.432 39.584C461.176 39.4027 460.856 39.312 460.472 39.312C460.173 39.312 459.928 39.376 459.736 39.504C459.544 39.632 459.448 39.8027 459.448 40.016C459.448 40.2827 459.571 40.4747 459.816 40.592C460.061 40.7093 460.461 40.8373 461.016 40.976C461.613 41.1147 462.099 41.264 462.472 41.424C462.856 41.5733 463.187 41.824 463.464 42.176C463.741 42.5173 463.88 42.9867 463.88 43.584C463.88 44.0747 463.747 44.512 463.48 44.896C463.213 45.28 462.84 45.584 462.36 45.808C461.891 46.0213 461.357 46.128 460.76 46.128ZM468.792 46.128C468.002 46.128 467.309 45.9573 466.712 45.616C466.114 45.2747 465.65 44.7947 465.32 44.176C464.989 43.5467 464.824 42.8107 464.824 41.968C464.824 41.1253 464.989 40.3947 465.32 39.776C465.65 39.1467 466.114 38.6613 466.712 38.32C467.309 37.9787 468.002 37.808 468.792 37.808C469.304 37.808 469.784 37.9093 470.232 38.112C470.68 38.3147 471.01 38.5867 471.224 38.928V34.672H473.272V46H471.224V44.992C471.01 45.3333 470.68 45.6107 470.232 45.824C469.784 46.0267 469.304 46.128 468.792 46.128ZM469.048 44.4C469.698 44.4 470.221 44.176 470.616 43.728C471.021 43.2693 471.224 42.6827 471.224 41.968C471.224 41.2427 471.021 40.656 470.616 40.208C470.221 39.76 469.698 39.536 469.048 39.536C468.408 39.536 467.885 39.76 467.48 40.208C467.074 40.656 466.872 41.2427 466.872 41.968C466.872 42.6827 467.074 43.2693 467.48 43.728C467.885 44.176 468.408 44.4 469.048 44.4ZM477.932 46.128C476.94 46.128 476.151 45.8667 475.564 45.344C474.977 44.8107 474.657 44.1333 474.604 43.312H476.476C476.519 43.7067 476.663 44.0107 476.908 44.224C477.164 44.4373 477.505 44.544 477.932 44.544C478.305 44.544 478.599 44.464 478.812 44.304C479.036 44.144 479.148 43.92 479.148 43.632C479.148 43.3333 479.015 43.1147 478.748 42.976C478.481 42.8373 478.06 42.6987 477.484 42.56C476.908 42.4107 476.444 42.2613 476.092 42.112C475.74 41.9627 475.431 41.7333 475.164 41.424C474.908 41.104 474.78 40.672 474.78 40.128C474.78 39.6907 474.897 39.296 475.132 38.944C475.367 38.592 475.703 38.3147 476.14 38.112C476.577 37.9093 477.079 37.808 477.644 37.808C478.593 37.808 479.351 38.032 479.916 38.48C480.492 38.928 480.833 39.552 480.94 40.352H479.084C479.02 40.0213 478.86 39.7653 478.604 39.584C478.348 39.4027 478.028 39.312 477.644 39.312C477.345 39.312 477.1 39.376 476.908 39.504C476.716 39.632 476.62 39.8027 476.62 40.016C476.62 40.2827 476.743 40.4747 476.988 40.592C477.233 40.7093 477.633 40.8373 478.188 40.976C478.785 41.1147 479.271 41.264 479.644 41.424C480.028 41.5733 480.359 41.824 480.636 42.176C480.913 42.5173 481.052 42.9867 481.052 43.584C481.052 44.0747 480.919 44.512 480.652 44.896C480.385 45.28 480.012 45.584 479.532 45.808C479.063 46.0213 478.529 46.128 477.932 46.128ZM482.238 40.528H487.39V42.24H482.238V40.528ZM492.78 46.128C491.99 46.128 491.281 45.952 490.652 45.6C490.022 45.2373 489.532 44.7413 489.18 44.112C488.828 43.472 488.652 42.752 488.652 41.952C488.652 41.1627 488.828 40.4533 489.18 39.824C489.532 39.1947 490.017 38.704 490.636 38.352C491.265 37.9893 491.974 37.808 492.764 37.808C493.852 37.808 494.732 38.0853 495.404 38.64C496.076 39.1947 496.47 39.952 496.588 40.912H494.556C494.47 40.496 494.268 40.1653 493.948 39.92C493.628 39.664 493.238 39.536 492.78 39.536C492.182 39.536 491.686 39.76 491.292 40.208C490.897 40.656 490.7 41.2373 490.7 41.952C490.7 42.6667 490.897 43.2533 491.292 43.712C491.686 44.1707 492.182 44.4 492.78 44.4C493.26 44.4 493.665 44.2773 493.996 44.032C494.326 43.7867 494.529 43.4507 494.604 43.024H496.635C496.55 43.6 496.337 44.128 495.996 44.608C495.654 45.0773 495.206 45.4507 494.652 45.728C494.097 45.9947 493.473 46.128 492.78 46.128ZM501.688 46.128C500.877 46.128 500.152 45.952 499.512 45.6C498.872 45.2373 498.371 44.7413 498.008 44.112C497.645 43.472 497.464 42.752 497.464 41.952C497.464 41.152 497.645 40.4373 498.008 39.808C498.371 39.1787 498.872 38.688 499.512 38.336C500.152 37.984 500.877 37.808 501.688 37.808C502.499 37.808 503.224 37.984 503.864 38.336C504.504 38.688 505.005 39.1787 505.368 39.808C505.731 40.4373 505.912 41.152 505.912 41.952C505.912 42.752 505.731 43.472 505.368 44.112C505.005 44.7413 504.504 45.2373 503.864 45.6C503.224 45.952 502.499 46.128 501.688 46.128ZM501.688 44.4C502.328 44.4 502.851 44.176 503.256 43.728C503.661 43.2693 503.864 42.6773 503.864 41.952C503.864 41.2373 503.661 40.656 503.256 40.208C502.851 39.76 502.328 39.536 501.688 39.536C501.048 39.536 500.525 39.76 500.12 40.208C499.715 40.656 499.512 41.2373 499.512 41.952C499.512 42.6773 499.715 43.2693 500.12 43.728C500.525 44.176 501.048 44.4 501.688 44.4ZM507.271 34.672H509.303V46H507.271V34.672ZM514.891 46.128C514.08 46.128 513.355 45.952 512.715 45.6C512.075 45.2373 511.574 44.7413 511.211 44.112C510.848 43.472 510.667 42.752 510.667 41.952C510.667 41.152 510.848 40.4373 511.211 39.808C511.574 39.1787 512.075 38.688 512.715 38.336C513.355 37.984 514.08 37.808 514.891 37.808C515.702 37.808 516.427 37.984 517.067 38.336C517.707 38.688 518.208 39.1787 518.571 39.808C518.934 40.4373 519.115 41.152 519.115 41.952C519.115 42.752 518.934 43.472 518.571 44.112C518.208 44.7413 517.707 45.2373 517.067 45.6C516.427 45.952 515.702 46.128 514.891 46.128ZM514.891 44.4C515.531 44.4 516.054 44.176 516.459 43.728C516.864 43.2693 517.067 42.6773 517.067 41.952C517.067 41.2373 516.864 40.656 516.459 40.208C516.054 39.76 515.531 39.536 514.891 39.536C514.251 39.536 513.728 39.76 513.323 40.208C512.918 40.656 512.715 41.2373 512.715 41.952C512.715 42.6773 512.918 43.2693 513.323 43.728C513.728 44.176 514.251 44.4 514.891 44.4ZM520.474 37.936H522.506V39.024C522.73 38.6613 523.055 38.368 523.482 38.144C523.919 37.92 524.383 37.808 524.874 37.808C525.226 37.808 525.525 37.8613 525.77 37.968V39.888C525.439 39.76 525.077 39.696 524.682 39.696C524.053 39.696 523.53 39.9733 523.114 40.528C522.709 41.072 522.506 41.8773 522.506 42.944V46H520.474V37.936ZM526.347 40.528H531.499V42.24H526.347V40.528ZM537.673 46.128C537.161 46.128 536.681 46.0267 536.233 45.824C535.785 45.6107 535.449 45.3333 535.225 44.992V46H533.193V34.672H535.225V38.928C535.449 38.5867 535.785 38.3147 536.233 38.112C536.681 37.9093 537.161 37.808 537.673 37.808C538.462 37.808 539.156 37.9787 539.753 38.32C540.35 38.6613 540.814 39.1467 541.145 39.776C541.476 40.3947 541.641 41.1253 541.641 41.968C541.641 42.8107 541.476 43.5467 541.145 44.176C540.814 44.7947 540.35 45.2747 539.753 45.616C539.156 45.9573 538.462 46.128 537.673 46.128ZM537.401 44.384C538.041 44.384 538.564 44.16 538.969 43.712C539.385 43.264 539.593 42.6827 539.593 41.968C539.593 41.2427 539.385 40.656 538.969 40.208C538.564 39.76 538.041 39.536 537.401 39.536C536.761 39.536 536.238 39.76 535.833 40.208C535.428 40.656 535.225 41.2427 535.225 41.968C535.225 42.6827 535.428 43.264 535.833 43.712C536.238 44.16 536.761 44.384 537.401 44.384ZM543.021 37.936H545.053V39.024C545.277 38.6613 545.602 38.368 546.029 38.144C546.466 37.92 546.93 37.808 547.421 37.808C547.773 37.808 548.072 37.8613 548.317 37.968V39.888C547.986 39.76 547.624 39.696 547.229 39.696C546.6 39.696 546.077 39.9733 545.661 40.528C545.256 41.072 545.053 41.8773 545.053 42.944V46H543.021V37.936ZM551.61 46.128C550.767 46.128 550.09 45.9093 549.578 45.472C549.066 45.0347 548.81 44.464 548.81 43.76C548.81 42.96 549.093 42.3467 549.658 41.92C550.234 41.4827 551.13 41.2 552.346 41.072L553.914 40.912V40.736C553.914 40.32 553.775 39.9893 553.498 39.744C553.221 39.4987 552.853 39.376 552.394 39.376C551.967 39.376 551.615 39.488 551.338 39.712C551.071 39.936 550.911 40.256 550.858 40.672H548.858C548.933 40.1387 549.125 39.6533 549.434 39.216C549.754 38.7787 550.165 38.4373 550.666 38.192C551.178 37.936 551.754 37.808 552.394 37.808C553.461 37.808 554.319 38.0907 554.97 38.656C555.621 39.2107 555.946 39.9947 555.946 41.008V46H553.914V44.976C553.733 45.3067 553.429 45.584 553.002 45.808C552.575 46.0213 552.111 46.128 551.61 46.128ZM550.81 43.68C550.81 43.9573 550.917 44.176 551.13 44.336C551.343 44.496 551.637 44.576 552.01 44.576C552.586 44.576 553.045 44.3787 553.386 43.984C553.738 43.5787 553.914 43.0827 553.914 42.496V42.368L552.426 42.56C551.861 42.624 551.45 42.7467 551.194 42.928C550.938 43.0987 550.81 43.3493 550.81 43.68ZM557.63 37.936H559.662V38.992C559.886 38.6613 560.228 38.384 560.686 38.16C561.156 37.9253 561.689 37.808 562.286 37.808C563.172 37.808 563.892 38.08 564.446 38.624C565.001 39.1573 565.278 39.888 565.278 40.816V46H563.246V41.248C563.246 40.736 563.102 40.3307 562.814 40.032C562.537 39.7333 562.164 39.584 561.694 39.584C561.065 39.584 560.569 39.84 560.206 40.352C559.844 40.864 559.662 41.5787 559.662 42.496V46H557.63V37.936ZM570.542 46.128C569.752 46.128 569.059 45.9573 568.462 45.616C567.864 45.2747 567.4 44.7947 567.07 44.176C566.739 43.5467 566.574 42.8107 566.574 41.968C566.574 41.1253 566.739 40.3947 567.07 39.776C567.4 39.1467 567.864 38.6613 568.462 38.32C569.059 37.9787 569.752 37.808 570.542 37.808C571.054 37.808 571.534 37.9093 571.982 38.112C572.43 38.3147 572.76 38.5867 572.974 38.928V34.672H575.022V46H572.974V44.992C572.76 45.3333 572.43 45.6107 571.982 45.824C571.534 46.0267 571.054 46.128 570.542 46.128ZM570.798 44.4C571.448 44.4 571.971 44.176 572.366 43.728C572.771 43.2693 572.974 42.6827 572.974 41.968C572.974 41.2427 572.771 40.656 572.366 40.208C571.971 39.76 571.448 39.536 570.798 39.536C570.158 39.536 569.635 39.76 569.23 40.208C568.824 40.656 568.622 41.2427 568.622 41.968C568.622 42.6827 568.824 43.2693 569.23 43.728C569.635 44.176 570.158 44.4 570.798 44.4ZM576.722 40.528H581.874V42.24H576.722V40.528ZM583.568 37.936H585.6V38.928C585.835 38.5867 586.171 38.3147 586.608 38.112C587.056 37.9093 587.536 37.808 588.048 37.808C588.837 37.808 589.531 37.9787 590.128 38.32C590.725 38.6613 591.189 39.1467 591.52 39.776C591.851 40.3947 592.016 41.1253 592.016 41.968C592.016 42.8107 591.851 43.5467 591.52 44.176C591.189 44.7947 590.725 45.2747 590.128 45.616C589.531 45.9573 588.837 46.128 588.048 46.128C587.547 46.128 587.072 46.0267 586.624 45.824C586.176 45.6107 585.84 45.3333 585.616 44.992V48.912H583.568V37.936ZM587.792 44.384C588.432 44.384 588.955 44.16 589.36 43.712C589.765 43.264 589.968 42.6827 589.968 41.968C589.968 41.2427 589.765 40.656 589.36 40.208C588.955 39.76 588.432 39.536 587.792 39.536C587.152 39.536 586.629 39.76 586.224 40.208C585.819 40.656 585.616 41.2427 585.616 41.968C585.616 42.6827 585.819 43.264 586.224 43.712C586.629 44.16 587.152 44.384 587.792 44.384ZM593.396 37.936H595.428V39.024C595.652 38.6613 595.977 38.368 596.404 38.144C596.841 37.92 597.305 37.808 597.796 37.808C598.148 37.808 598.447 37.8613 598.692 37.968V39.888C598.361 39.76 597.999 39.696 597.604 39.696C596.975 39.696 596.452 39.9733 596.036 40.528C595.631 41.072 595.428 41.8773 595.428 42.944V46H593.396V37.936ZM599.709 37.936H601.741V46H599.709V37.936ZM600.717 36.768C600.354 36.768 600.055 36.656 599.821 36.432C599.586 36.1973 599.469 35.9093 599.469 35.568C599.469 35.216 599.586 34.928 599.821 34.704C600.055 34.4693 600.354 34.352 600.717 34.352C601.079 34.352 601.378 34.4693 601.613 34.704C601.847 34.928 601.965 35.216 601.965 35.568C601.965 35.9093 601.847 36.1973 601.613 36.432C601.378 36.656 601.079 36.768 600.717 36.768ZM613.153 37.808C614.017 37.808 614.721 38.08 615.265 38.624C615.809 39.1573 616.081 39.872 616.081 40.768V46H614.049V41.2C614.049 40.6987 613.921 40.304 613.665 40.016C613.419 39.728 613.078 39.584 612.641 39.584C612.075 39.584 611.627 39.8133 611.297 40.272C610.977 40.7307 610.817 41.3067 610.817 42V46H608.785V41.2C608.785 40.6987 608.662 40.304 608.417 40.016C608.171 39.728 607.83 39.584 607.393 39.584C606.827 39.584 606.379 39.8133 606.049 40.272C605.729 40.7307 605.569 41.3067 605.569 42V46H603.537V37.936H605.569V39.056C605.814 38.6933 606.155 38.3947 606.593 38.16C607.041 37.9253 607.537 37.808 608.081 37.808C608.646 37.808 609.147 37.936 609.585 38.192C610.022 38.4373 610.315 38.7627 610.465 39.168C610.774 38.7627 611.169 38.4373 611.649 38.192C612.129 37.936 612.63 37.808 613.153 37.808ZM620.235 46.128C619.392 46.128 618.715 45.9093 618.203 45.472C617.691 45.0347 617.435 44.464 617.435 43.76C617.435 42.96 617.718 42.3467 618.283 41.92C618.859 41.4827 619.755 41.2 620.971 41.072L622.539 40.912V40.736C622.539 40.32 622.4 39.9893 622.123 39.744C621.846 39.4987 621.478 39.376 621.019 39.376C620.592 39.376 620.24 39.488 619.963 39.712C619.696 39.936 619.536 40.256 619.483 40.672H617.483C617.558 40.1387 617.75 39.6533 618.059 39.216C618.379 38.7787 618.79 38.4373 619.291 38.192C619.803 37.936 620.379 37.808 621.019 37.808C622.086 37.808 622.944 38.0907 623.595 38.656C624.246 39.2107 624.571 39.9947 624.571 41.008V46H622.539V44.976C622.358 45.3067 622.054 45.584 621.627 45.808C621.2 46.0213 620.736 46.128 620.235 46.128ZM619.435 43.68C619.435 43.9573 619.542 44.176 619.755 44.336C619.968 44.496 620.262 44.576 620.635 44.576C621.211 44.576 621.67 44.3787 622.011 43.984C622.363 43.5787 622.539 43.0827 622.539 42.496V42.368L621.051 42.56C620.486 42.624 620.075 42.7467 619.819 42.928C619.563 43.0987 619.435 43.3493 619.435 43.68ZM626.255 37.936H628.287V39.024C628.511 38.6613 628.837 38.368 629.263 38.144C629.701 37.92 630.165 37.808 630.655 37.808C631.007 37.808 631.306 37.8613 631.551 37.968V39.888C631.221 39.76 630.858 39.696 630.463 39.696C629.834 39.696 629.311 39.9733 628.895 40.528C628.49 41.072 628.287 41.8773 628.287 42.944V46H626.255V37.936ZM635.013 45.824L631.845 37.936H634.037L636.069 43.248L638.069 37.936H640.213L635.829 48.912H633.701L635.013 45.824ZM640.816 40.528H645.968V42.24H640.816V40.528ZM650.526 46.128C649.534 46.128 648.744 45.8667 648.158 45.344C647.571 44.8107 647.251 44.1333 647.198 43.312H649.07C649.112 43.7067 649.256 44.0107 649.502 44.224C649.758 44.4373 650.099 44.544 650.526 44.544C650.899 44.544 651.192 44.464 651.406 44.304C651.63 44.144 651.742 43.92 651.742 43.632C651.742 43.3333 651.608 43.1147 651.342 42.976C651.075 42.8373 650.654 42.6987 650.078 42.56C649.502 42.4107 649.038 42.2613 648.686 42.112C648.334 41.9627 648.024 41.7333 647.758 41.424C647.502 41.104 647.374 40.672 647.374 40.128C647.374 39.6907 647.491 39.296 647.726 38.944C647.96 38.592 648.296 38.3147 648.734 38.112C649.171 37.9093 649.672 37.808 650.238 37.808C651.187 37.808 651.944 38.032 652.51 38.48C653.086 38.928 653.427 39.552 653.534 40.352H651.678C651.614 40.0213 651.454 39.7653 651.198 39.584C650.942 39.4027 650.622 39.312 650.238 39.312C649.939 39.312 649.694 39.376 649.502 39.504C649.31 39.632 649.214 39.8027 649.214 40.016C649.214 40.2827 649.336 40.4747 649.582 40.592C649.827 40.7093 650.227 40.8373 650.782 40.976C651.379 41.1147 651.864 41.264 652.238 41.424C652.622 41.5733 652.952 41.824 653.23 42.176C653.507 42.5173 653.646 42.9867 653.646 43.584C653.646 44.0747 653.512 44.512 653.246 44.896C652.979 45.28 652.606 45.584 652.126 45.808C651.656 46.0213 651.123 46.128 650.526 46.128ZM658.336 46.128C657.493 46.128 656.805 45.8827 656.272 45.392C655.749 44.8907 655.488 44.1973 655.488 43.312V39.584H654.192V37.936H655.488V35.968H657.52V37.936H659.424V39.584H657.52V43.136C657.52 43.5413 657.616 43.8507 657.808 44.064C658 44.2667 658.266 44.368 658.608 44.368C658.906 44.368 659.2 44.3147 659.488 44.208V45.92C659.146 46.0587 658.762 46.128 658.336 46.128ZM660.709 37.936H662.741V39.024C662.965 38.6613 663.29 38.368 663.717 38.144C664.154 37.92 664.618 37.808 665.109 37.808C665.461 37.808 665.759 37.8613 666.005 37.968V39.888C665.674 39.76 665.311 39.696 664.917 39.696C664.287 39.696 663.765 39.9733 663.349 40.528C662.943 41.072 662.741 41.8773 662.741 42.944V46H660.709V37.936ZM670.579 46.128C669.768 46.128 669.043 45.952 668.403 45.6C667.763 45.2373 667.261 44.7413 666.899 44.112C666.536 43.472 666.355 42.752 666.355 41.952C666.355 41.152 666.536 40.4373 666.899 39.808C667.261 39.1787 667.763 38.688 668.403 38.336C669.043 37.984 669.768 37.808 670.579 37.808C671.389 37.808 672.115 37.984 672.755 38.336C673.395 38.688 673.896 39.1787 674.259 39.808C674.621 40.4373 674.803 41.152 674.803 41.952C674.803 42.752 674.621 43.472 674.259 44.112C673.896 44.7413 673.395 45.2373 672.755 45.6C672.115 45.952 671.389 46.128 670.579 46.128ZM670.579 44.4C671.219 44.4 671.741 44.176 672.147 43.728C672.552 43.2693 672.755 42.6773 672.755 41.952C672.755 41.2373 672.552 40.656 672.147 40.208C671.741 39.76 671.219 39.536 670.579 39.536C669.939 39.536 669.416 39.76 669.011 40.208C668.605 40.656 668.403 41.2373 668.403 41.952C668.403 42.6773 668.605 43.2693 669.011 43.728C669.416 44.176 669.939 44.4 670.579 44.4ZM676.162 37.936H678.194V38.992C678.418 38.6613 678.759 38.384 679.218 38.16C679.687 37.9253 680.22 37.808 680.818 37.808C681.703 37.808 682.423 38.08 682.978 38.624C683.532 39.1573 683.81 39.888 683.81 40.816V46H681.778V41.248C681.778 40.736 681.634 40.3307 681.346 40.032C681.068 39.7333 680.695 39.584 680.226 39.584C679.596 39.584 679.1 39.84 678.738 40.352C678.375 40.864 678.194 41.5787 678.194 42.496V46H676.162V37.936ZM689.137 49.04C688.476 49.04 687.878 48.9227 687.345 48.688C686.812 48.464 686.38 48.1493 686.049 47.744C685.729 47.3387 685.532 46.8853 685.457 46.384H687.473C687.558 46.7253 687.756 46.992 688.065 47.184C688.374 47.376 688.753 47.472 689.201 47.472C689.809 47.472 690.3 47.312 690.673 46.992C691.057 46.6827 691.249 46.2347 691.249 45.648V44.592C691.014 44.912 690.689 45.1627 690.273 45.344C689.857 45.5253 689.414 45.616 688.945 45.616C688.177 45.616 687.505 45.456 686.929 45.136C686.353 44.816 685.91 44.3627 685.601 43.776C685.292 43.1787 685.137 42.4907 685.137 41.712C685.137 40.9227 685.292 40.2347 685.601 39.648C685.91 39.0613 686.353 38.608 686.929 38.288C687.505 37.968 688.177 37.808 688.945 37.808C689.414 37.808 689.857 37.8987 690.273 38.08C690.689 38.2507 691.014 38.4907 691.249 38.8V37.936H693.281V45.456C693.281 46.2027 693.105 46.8427 692.753 47.376C692.401 47.92 691.91 48.3307 691.281 48.608C690.662 48.896 689.948 49.04 689.137 49.04ZM689.185 43.984C689.793 43.984 690.289 43.776 690.673 43.36C691.057 42.9333 691.249 42.384 691.249 41.712C691.249 41.0293 691.057 40.48 690.673 40.064C690.289 39.648 689.793 39.44 689.185 39.44C688.566 39.44 688.065 39.648 687.681 40.064C687.297 40.48 687.105 41.0293 687.105 41.712C687.105 42.384 687.297 42.9333 687.681 43.36C688.065 43.776 688.566 43.984 689.185 43.984Z" fill="#0A0132"/>
<rect x="392" y="68" width="320" height="2" fill="#DEDEDE"/>
<circle cx="408" cy="98" r="16" fill="#7351FB"/>
<path d="M436.512 99.664H444.256V101.376H436.512V99.664ZM436.512 96.208H444.256V97.92H436.512V96.208Z" fill="#0A0132"/>
<path d="M460.76 104.128C459.768 104.128 458.979 103.867 458.392 103.344C457.805 102.811 457.485 102.133 457.432 101.312H459.304C459.347 101.707 459.491 102.011 459.736 102.224C459.992 102.437 460.333 102.544 460.76 102.544C461.133 102.544 461.427 102.464 461.64 102.304C461.864 102.144 461.976 101.92 461.976 101.632C461.976 101.333 461.843 101.115 461.576 100.976C461.309 100.837 460.888 100.699 460.312 100.56C459.736 100.411 459.272 100.261 458.92 100.112C458.568 99.9627 458.259 99.7333 457.992 99.424C457.736 99.104 457.608 98.672 457.608 98.128C457.608 97.6907 457.725 97.296 457.96 96.944C458.195 96.592 458.531 96.3147 458.968 96.112C459.405 95.9093 459.907 95.808 460.472 95.808C461.421 95.808 462.179 96.032 462.744 96.48C463.32 96.928 463.661 97.552 463.768 98.352H461.912C461.848 98.0213 461.688 97.7653 461.432 97.584C461.176 97.4027 460.856 97.312 460.472 97.312C460.173 97.312 459.928 97.376 459.736 97.504C459.544 97.632 459.448 97.8027 459.448 98.016C459.448 98.2827 459.571 98.4747 459.816 98.592C460.061 98.7093 460.461 98.8373 461.016 98.976C461.613 99.1147 462.099 99.264 462.472 99.424C462.856 99.5733 463.187 99.824 463.464 100.176C463.741 100.517 463.88 100.987 463.88 101.584C463.88 102.075 463.747 102.512 463.48 102.896C463.213 103.28 462.84 103.584 462.36 103.808C461.891 104.021 461.357 104.128 460.76 104.128ZM468.792 104.128C468.002 104.128 467.309 103.957 466.712 103.616C466.114 103.275 465.65 102.795 465.32 102.176C464.989 101.547 464.824 100.811 464.824 99.968C464.824 99.1253 464.989 98.3947 465.32 97.776C465.65 97.1467 466.114 96.6613 466.712 96.32C467.309 95.9787 468.002 95.808 468.792 95.808C469.304 95.808 469.784 95.9093 470.232 96.112C470.68 96.3147 471.01 96.5867 471.224 96.928V92.672H473.272V104H471.224V102.992C471.01 103.333 470.68 103.611 470.232 103.824C469.784 104.027 469.304 104.128 468.792 104.128ZM469.048 102.4C469.698 102.4 470.221 102.176 470.616 101.728C471.021 101.269 471.224 100.683 471.224 99.968C471.224 99.2427 471.021 98.656 470.616 98.208C470.221 97.76 469.698 97.536 469.048 97.536C468.408 97.536 467.885 97.76 467.48 98.208C467.074 98.656 466.872 99.2427 466.872 99.968C466.872 100.683 467.074 101.269 467.48 101.728C467.885 102.176 468.408 102.4 469.048 102.4ZM477.932 104.128C476.94 104.128 476.151 103.867 475.564 103.344C474.977 102.811 474.657 102.133 474.604 101.312H476.476C476.519 101.707 476.663 102.011 476.908 102.224C477.164 102.437 477.505 102.544 477.932 102.544C478.305 102.544 478.599 102.464 478.812 102.304C479.036 102.144 479.148 101.92 479.148 101.632C479.148 101.333 479.015 101.115 478.748 100.976C478.481 100.837 478.06 100.699 477.484 100.56C476.908 100.411 476.444 100.261 476.092 100.112C475.74 99.9627 475.431 99.7333 475.164 99.424C474.908 99.104 474.78 98.672 474.78 98.128C474.78 97.6907 474.897 97.296 475.132 96.944C475.367 96.592 475.703 96.3147 476.14 96.112C476.577 95.9093 477.079 95.808 477.644 95.808C478.593 95.808 479.351 96.032 479.916 96.48C480.492 96.928 480.833 97.552 480.94 98.352H479.084C479.02 98.0213 478.86 97.7653 478.604 97.584C478.348 97.4027 478.028 97.312 477.644 97.312C477.345 97.312 477.1 97.376 476.908 97.504C476.716 97.632 476.62 97.8027 476.62 98.016C476.62 98.2827 476.743 98.4747 476.988 98.592C477.233 98.7093 477.633 98.8373 478.188 98.976C478.785 99.1147 479.271 99.264 479.644 99.424C480.028 99.5733 480.359 99.824 480.636 100.176C480.913 100.517 481.052 100.987 481.052 101.584C481.052 102.075 480.919 102.512 480.652 102.896C480.385 103.28 480.012 103.584 479.532 103.808C479.063 104.021 478.529 104.128 477.932 104.128ZM482.238 98.528H487.39V100.24H482.238V98.528ZM492.78 104.128C491.99 104.128 491.281 103.952 490.652 103.6C490.022 103.237 489.532 102.741 489.18 102.112C488.828 101.472 488.652 100.752 488.652 99.952C488.652 99.1627 488.828 98.4533 489.18 97.824C489.532 97.1947 490.017 96.704 490.636 96.352C491.265 95.9893 491.974 95.808 492.764 95.808C493.852 95.808 494.732 96.0853 495.404 96.64C496.076 97.1947 496.47 97.952 496.588 98.912H494.556C494.47 98.496 494.268 98.1653 493.948 97.92C493.628 97.664 493.238 97.536 492.78 97.536C492.182 97.536 491.686 97.76 491.292 98.208C490.897 98.656 490.7 99.2373 490.7 99.952C490.7 100.667 490.897 101.253 491.292 101.712C491.686 102.171 492.182 102.4 492.78 102.4C493.26 102.4 493.665 102.277 493.996 102.032C494.326 101.787 494.529 101.451 494.604 101.024H496.635C496.55 101.6 496.337 102.128 495.996 102.608C495.654 103.077 495.206 103.451 494.652 103.728C494.097 103.995 493.473 104.128 492.78 104.128ZM501.688 104.128C500.877 104.128 500.152 103.952 499.512 103.6C498.872 103.237 498.371 102.741 498.008 102.112C497.645 101.472 497.464 100.752 497.464 99.952C497.464 99.152 497.645 98.4373 498.008 97.808C498.371 97.1787 498.872 96.688 499.512 96.336C500.152 95.984 500.877 95.808 501.688 95.808C502.499 95.808 503.224 95.984 503.864 96.336C504.504 96.688 505.005 97.1787 505.368 97.808C505.731 98.4373 505.912 99.152 505.912 99.952C505.912 100.752 505.731 101.472 505.368 102.112C505.005 102.741 504.504 103.237 503.864 103.6C503.224 103.952 502.499 104.128 501.688 104.128ZM501.688 102.4C502.328 102.4 502.851 102.176 503.256 101.728C503.661 101.269 503.864 100.677 503.864 99.952C503.864 99.2373 503.661 98.656 503.256 98.208C502.851 97.76 502.328 97.536 501.688 97.536C501.048 97.536 500.525 97.76 500.12 98.208C499.715 98.656 499.512 99.2373 499.512 99.952C499.512 100.677 499.715 101.269 500.12 101.728C500.525 102.176 501.048 102.4 501.688 102.4ZM507.271 92.672H509.303V104H507.271V92.672ZM514.891 104.128C514.08 104.128 513.355 103.952 512.715 103.6C512.075 103.237 511.574 102.741 511.211 102.112C510.848 101.472 510.667 100.752 510.667 99.952C510.667 99.152 510.848 98.4373 511.211 97.808C511.574 97.1787 512.075 96.688 512.715 96.336C513.355 95.984 514.08 95.808 514.891 95.808C515.702 95.808 516.427 95.984 517.067 96.336C517.707 96.688 518.208 97.1787 518.571 97.808C518.934 98.4373 519.115 99.152 519.115 99.952C519.115 100.752 518.934 101.472 518.571 102.112C518.208 102.741 517.707 103.237 517.067 103.6C516.427 103.952 515.702 104.128 514.891 104.128ZM514.891 102.4C515.531 102.4 516.054 102.176 516.459 101.728C516.864 101.269 517.067 100.677 517.067 99.952C517.067 99.2373 516.864 98.656 516.459 98.208C516.054 97.76 515.531 97.536 514.891 97.536C514.251 97.536 513.728 97.76 513.323 98.208C512.918 98.656 512.715 99.2373 512.715 99.952C512.715 100.677 512.918 101.269 513.323 101.728C513.728 102.176 514.251 102.4 514.891 102.4ZM520.474 95.936H522.506V97.024C522.73 96.6613 523.055 96.368 523.482 96.144C523.919 95.92 524.383 95.808 524.874 95.808C525.226 95.808 525.525 95.8613 525.77 95.968V97.888C525.439 97.76 525.077 97.696 524.682 97.696C524.053 97.696 523.53 97.9733 523.114 98.528C522.709 99.072 522.506 99.8773 522.506 100.944V104H520.474V95.936ZM526.347 98.528H531.499V100.24H526.347V98.528ZM537.673 104.128C537.161 104.128 536.681 104.027 536.233 103.824C535.785 103.611 535.449 103.333 535.225 102.992V104H533.193V92.672H535.225V96.928C535.449 96.5867 535.785 96.3147 536.233 96.112C536.681 95.9093 537.161 95.808 537.673 95.808C538.462 95.808 539.156 95.9787 539.753 96.32C540.35 96.6613 540.814 97.1467 541.145 97.776C541.476 98.3947 541.641 99.1253 541.641 99.968C541.641 100.811 541.476 101.547 541.145 102.176C540.814 102.795 540.35 103.275 539.753 103.616C539.156 103.957 538.462 104.128 537.673 104.128ZM537.401 102.384C538.041 102.384 538.564 102.16 538.969 101.712C539.385 101.264 539.593 100.683 539.593 99.968C539.593 99.2427 539.385 98.656 538.969 98.208C538.564 97.76 538.041 97.536 537.401 97.536C536.761 97.536 536.238 97.76 535.833 98.208C535.428 98.656 535.225 99.2427 535.225 99.968C535.225 100.683 535.428 101.264 535.833 101.712C536.238 102.16 536.761 102.384 537.401 102.384ZM545.485 104.128C544.642 104.128 543.965 103.909 543.453 103.472C542.941 103.035 542.685 102.464 542.685 101.76C542.685 100.96 542.968 100.347 543.533 99.92C544.109 99.4827 545.005 99.2 546.221 99.072L547.789 98.912V98.736C547.789 98.32 547.65 97.9893 547.373 97.744C547.096 97.4987 546.728 97.376 546.269 97.376C545.842 97.376 545.49 97.488 545.213 97.712C544.946 97.936 544.786 98.256 544.733 98.672H542.733C542.808 98.1387 543 97.6533 543.309 97.216C543.629 96.7787 544.04 96.4373 544.541 96.192C545.053 95.936 545.629 95.808 546.269 95.808C547.336 95.808 548.194 96.0907 548.845 96.656C549.496 97.2107 549.821 97.9947 549.821 99.008V104H547.789V102.976C547.608 103.307 547.304 103.584 546.877 103.808C546.45 104.021 545.986 104.128 545.485 104.128ZM544.685 101.68C544.685 101.957 544.792 102.176 545.005 102.336C545.218 102.496 545.512 102.576 545.885 102.576C546.461 102.576 546.92 102.379 547.261 101.984C547.613 101.579 547.789 101.083 547.789 100.496V100.368L546.301 100.56C545.736 100.624 545.325 100.747 545.069 100.928C544.813 101.099 544.685 101.349 544.685 101.68ZM554.369 104.128C553.377 104.128 552.588 103.867 552.001 103.344C551.415 102.811 551.095 102.133 551.041 101.312H552.913C552.956 101.707 553.1 102.011 553.345 102.224C553.601 102.437 553.943 102.544 554.369 102.544C554.743 102.544 555.036 102.464 555.249 102.304C555.473 102.144 555.585 101.92 555.585 101.632C555.585 101.333 555.452 101.115 555.185 100.976C554.919 100.837 554.497 100.699 553.921 100.56C553.345 100.411 552.881 100.261 552.529 100.112C552.177 99.9627 551.868 99.7333 551.601 99.424C551.345 99.104 551.217 98.672 551.217 98.128C551.217 97.6907 551.335 97.296 551.569 96.944C551.804 96.592 552.14 96.3147 552.577 96.112C553.015 95.9093 553.516 95.808 554.081 95.808C555.031 95.808 555.788 96.032 556.353 96.48C556.929 96.928 557.271 97.552 557.377 98.352H555.521C555.457 98.0213 555.297 97.7653 555.041 97.584C554.785 97.4027 554.465 97.312 554.081 97.312C553.783 97.312 553.537 97.376 553.345 97.504C553.153 97.632 553.057 97.8027 553.057 98.016C553.057 98.2827 553.18 98.4747 553.425 98.592C553.671 98.7093 554.071 98.8373 554.625 98.976C555.223 99.1147 555.708 99.264 556.081 99.424C556.465 99.5733 556.796 99.824 557.073 100.176C557.351 100.517 557.489 100.987 557.489 101.584C557.489 102.075 557.356 102.512 557.089 102.896C556.823 103.28 556.449 103.584 555.969 103.808C555.5 104.021 554.967 104.128 554.369 104.128ZM562.577 104.128C561.756 104.128 561.03 103.952 560.401 103.6C559.772 103.248 559.281 102.757 558.929 102.128C558.588 101.499 558.417 100.779 558.417 99.968C558.417 99.168 558.593 98.4533 558.945 97.824C559.297 97.1947 559.777 96.704 560.385 96.352C561.004 95.9893 561.702 95.808 562.481 95.808C563.26 95.808 563.948 95.9787 564.545 96.32C565.142 96.6507 565.601 97.1147 565.921 97.712C566.252 98.3093 566.417 98.976 566.417 99.712C566.417 99.9253 566.401 100.155 566.369 100.4H560.433C560.508 101.051 560.737 101.552 561.121 101.904C561.505 102.256 561.985 102.432 562.561 102.432C563.009 102.432 563.382 102.336 563.681 102.144C563.98 101.952 564.177 101.691 564.273 101.36H566.289C566.14 102.192 565.734 102.864 565.073 103.376C564.412 103.877 563.58 104.128 562.577 104.128ZM564.273 98.912C564.262 98.4533 564.092 98.0853 563.761 97.808C563.43 97.52 563.004 97.376 562.481 97.376C561.436 97.376 560.785 97.888 560.529 98.912H564.273ZM567.691 98.528H572.843V100.24H567.691V98.528ZM574.537 95.936H576.569V96.928C576.803 96.5867 577.139 96.3147 577.577 96.112C578.025 95.9093 578.505 95.808 579.017 95.808C579.806 95.808 580.499 95.9787 581.097 96.32C581.694 96.6613 582.158 97.1467 582.489 97.776C582.819 98.3947 582.985 99.1253 582.985 99.968C582.985 100.811 582.819 101.547 582.489 102.176C582.158 102.795 581.694 103.275 581.097 103.616C580.499 103.957 579.806 104.128 579.017 104.128C578.515 104.128 578.041 104.027 577.593 103.824C577.145 103.611 576.809 103.333 576.585 102.992V106.912H574.537V95.936ZM578.761 102.384C579.401 102.384 579.923 102.16 580.329 101.712C580.734 101.264 580.937 100.683 580.937 99.968C580.937 99.2427 580.734 98.656 580.329 98.208C579.923 97.76 579.401 97.536 578.761 97.536C578.121 97.536 577.598 97.76 577.193 98.208C576.787 98.656 576.585 99.2427 576.585 99.968C576.585 100.683 576.787 101.264 577.193 101.712C577.598 102.16 578.121 102.384 578.761 102.384ZM587.261 104.128C586.375 104.128 585.655 103.861 585.101 103.328C584.546 102.784 584.269 102.043 584.269 101.104V95.936H586.301V100.672C586.301 101.195 586.439 101.605 586.717 101.904C586.994 102.203 587.373 102.352 587.853 102.352C588.482 102.352 588.978 102.096 589.341 101.584C589.703 101.061 589.885 100.341 589.885 99.424V95.936H591.917V104H589.885V102.912C589.65 103.264 589.303 103.557 588.845 103.792C588.386 104.016 587.858 104.128 587.261 104.128ZM593.709 95.936H595.741V97.024C595.965 96.6613 596.29 96.368 596.717 96.144C597.154 95.92 597.618 95.808 598.109 95.808C598.461 95.808 598.759 95.8613 599.005 95.968V97.888C598.674 97.76 598.311 97.696 597.917 97.696C597.287 97.696 596.765 97.9733 596.349 98.528C595.943 99.072 595.741 99.8773 595.741 100.944V104H593.709V95.936ZM600.021 95.936H602.053V96.928C602.288 96.5867 602.624 96.3147 603.061 96.112C603.509 95.9093 603.989 95.808 604.501 95.808C605.29 95.808 605.984 95.9787 606.581 96.32C607.178 96.6613 607.642 97.1467 607.973 97.776C608.304 98.3947 608.469 99.1253 608.469 99.968C608.469 100.811 608.304 101.547 607.973 102.176C607.642 102.795 607.178 103.275 606.581 103.616C605.984 103.957 605.29 104.128 604.501 104.128C604 104.128 603.525 104.027 603.077 103.824C602.629 103.611 602.293 103.333 602.069 102.992V106.912H600.021V95.936ZM604.245 102.384C604.885 102.384 605.408 102.16 605.813 101.712C606.218 101.264 606.421 100.683 606.421 99.968C606.421 99.2427 606.218 98.656 605.813 98.208C605.408 97.76 604.885 97.536 604.245 97.536C603.605 97.536 603.082 97.76 602.677 98.208C602.272 98.656 602.069 99.2427 602.069 99.968C602.069 100.683 602.272 101.264 602.677 101.712C603.082 102.16 603.605 102.384 604.245 102.384ZM609.849 92.672H611.881V104H609.849V92.672ZM617.405 104.128C616.584 104.128 615.859 103.952 615.229 103.6C614.6 103.248 614.109 102.757 613.757 102.128C613.416 101.499 613.245 100.779 613.245 99.968C613.245 99.168 613.421 98.4533 613.773 97.824C614.125 97.1947 614.605 96.704 615.213 96.352C615.832 95.9893 616.531 95.808 617.309 95.808C618.088 95.808 618.776 95.9787 619.373 96.32C619.971 96.6507 620.429 97.1147 620.749 97.712C621.08 98.3093 621.245 98.976 621.245 99.712C621.245 99.9253 621.229 100.155 621.197 100.4H615.261C615.336 101.051 615.565 101.552 615.949 101.904C616.333 102.256 616.813 102.432 617.389 102.432C617.837 102.432 618.211 102.336 618.509 102.144C618.808 101.952 619.005 101.691 619.101 101.36H621.117C620.968 102.192 620.563 102.864 619.901 103.376C619.24 103.877 618.408 104.128 617.405 104.128ZM619.101 98.912C619.091 98.4533 618.92 98.0853 618.589 97.808C618.259 97.52 617.832 97.376 617.309 97.376C616.264 97.376 615.613 97.888 615.357 98.912H619.101ZM622.519 98.528H627.671V100.24H622.519V98.528ZM633.621 104.128C632.693 104.128 631.887 103.909 631.205 103.472C630.533 103.035 630.015 102.427 629.653 101.648C629.29 100.869 629.109 99.9787 629.109 98.976C629.109 97.728 629.306 96.6293 629.701 95.68C630.095 94.72 630.65 93.9787 631.365 93.456C632.09 92.9333 632.927 92.672 633.877 92.672C634.975 92.672 635.877 92.96 636.581 93.536C637.285 94.1013 637.69 94.8693 637.797 95.84H635.717C635.642 95.424 635.434 95.0933 635.093 94.848C634.762 94.6027 634.357 94.48 633.877 94.48C633.087 94.48 632.474 94.7947 632.037 95.424C631.599 96.0427 631.338 96.8373 631.253 97.808C631.541 97.4027 631.914 97.0987 632.373 96.896C632.831 96.6827 633.338 96.576 633.893 96.576C634.629 96.576 635.29 96.7413 635.877 97.072C636.463 97.392 636.922 97.84 637.253 98.416C637.594 98.992 637.765 99.6373 637.765 100.352C637.765 101.077 637.583 101.728 637.221 102.304C636.869 102.869 636.378 103.317 635.749 103.648C635.119 103.968 634.41 104.128 633.621 104.128ZM633.589 102.336C634.197 102.336 634.693 102.149 635.077 101.776C635.471 101.403 635.669 100.912 635.669 100.304C635.669 99.7067 635.471 99.216 635.077 98.832C634.693 98.448 634.197 98.256 633.589 98.256C632.981 98.256 632.479 98.448 632.085 98.832C631.69 99.216 631.493 99.712 631.493 100.32C631.493 100.917 631.69 101.403 632.085 101.776C632.479 102.149 632.981 102.336 633.589 102.336ZM643.046 104.128C642.267 104.128 641.574 103.979 640.966 103.68C640.358 103.371 639.878 102.949 639.526 102.416C639.174 101.883 638.982 101.275 638.95 100.592H640.998C641.072 101.115 641.286 101.525 641.638 101.824C642 102.123 642.47 102.272 643.046 102.272C643.632 102.272 644.112 102.085 644.486 101.712C644.859 101.328 645.046 100.843 645.046 100.256C645.046 99.6587 644.859 99.168 644.486 98.784C644.112 98.4 643.632 98.208 643.046 98.208C642.63 98.208 642.262 98.2987 641.942 98.48C641.632 98.6507 641.382 98.9013 641.19 99.232H639.206L640.15 92.8H646.358V94.656H641.782L641.334 97.44C641.59 97.1627 641.91 96.9493 642.294 96.8C642.678 96.64 643.104 96.56 643.574 96.56C644.267 96.56 644.891 96.72 645.446 97.04C646 97.3493 646.432 97.7867 646.742 98.352C647.051 98.9067 647.206 99.5413 647.206 100.256C647.206 101.013 647.03 101.685 646.678 102.272C646.336 102.859 645.851 103.317 645.222 103.648C644.592 103.968 643.867 104.128 643.046 104.128ZM648.534 98.528H653.686V100.24H648.534V98.528ZM656.696 95.2C656.419 95.456 656.035 95.6907 655.544 95.904C655.053 96.1067 654.525 96.2773 653.96 96.416V94.544C654.44 94.4267 654.963 94.2133 655.528 93.904C656.093 93.584 656.595 93.216 657.032 92.8H658.872V104H656.696V95.2ZM665.122 104.128C664.215 104.128 663.415 103.899 662.722 103.44C662.039 102.971 661.511 102.304 661.138 101.44C660.764 100.576 660.578 99.5627 660.578 98.4C660.578 97.2373 660.764 96.224 661.138 95.36C661.511 94.496 662.039 93.8347 662.722 93.376C663.415 92.9067 664.215 92.672 665.122 92.672C666.039 92.672 666.839 92.9067 667.522 93.376C668.215 93.8347 668.748 94.496 669.122 95.36C669.506 96.224 669.698 97.2373 669.698 98.4C669.698 99.5627 669.506 100.576 669.122 101.44C668.748 102.304 668.215 102.971 667.522 103.44C666.839 103.899 666.039 104.128 665.122 104.128ZM665.122 102.272C665.89 102.272 666.476 101.941 666.882 101.28C667.298 100.608 667.506 99.648 667.506 98.4C667.506 97.152 667.298 96.1973 666.882 95.536C666.476 94.864 665.89 94.528 665.122 94.528C664.364 94.528 663.783 94.864 663.378 95.536C662.972 96.1973 662.77 97.152 662.77 98.4C662.77 99.648 662.972 100.608 663.378 101.28C663.783 101.941 664.364 102.272 665.122 102.272ZM675.528 104.128C674.621 104.128 673.821 103.899 673.128 103.44C672.445 102.971 671.917 102.304 671.544 101.44C671.17 100.576 670.984 99.5627 670.984 98.4C670.984 97.2373 671.17 96.224 671.544 95.36C671.917 94.496 672.445 93.8347 673.128 93.376C673.821 92.9067 674.621 92.672 675.528 92.672C676.445 92.672 677.245 92.9067 677.928 93.376C678.621 93.8347 679.154 94.496 679.528 95.36C679.912 96.224 680.104 97.2373 680.104 98.4C680.104 99.5627 679.912 100.576 679.528 101.44C679.154 102.304 678.621 102.971 677.928 103.44C677.245 103.899 676.445 104.128 675.528 104.128ZM675.528 102.272C676.296 102.272 676.882 101.941 677.288 101.28C677.704 100.608 677.912 99.648 677.912 98.4C677.912 97.152 677.704 96.1973 677.288 95.536C676.882 94.864 676.296 94.528 675.528 94.528C674.77 94.528 674.189 94.864 673.784 95.536C673.378 96.1973 673.176 97.152 673.176 98.4C673.176 99.648 673.378 100.608 673.784 101.28C674.189 101.941 674.77 102.272 675.528 102.272Z" fill="#0A0132"/>
</svg>
