<svg width="504" height="252" viewBox="0 0 504 252" fill="none" xmlns="http://www.w3.org/2000/svg">
<path d="M0 12C0 5.37258 5.37258 0 12 0H492C498.627 0 504 5.37258 504 12V240C504 246.627 498.627 252 492 252H12C5.3726 252 0 246.627 0 240V12Z" fill="white"/>
<path d="M24 32C24 27.5817 27.5817 24 32 24H112C116.418 24 120 27.5817 120 32V112C120 116.418 116.418 120 112 120H32C27.5817 120 24 116.418 24 112V32Z" fill="#FF8D70"/>
<path d="M35.99 44.112C33.974 44.112 32.504 42.558 32.504 40.472C32.504 38.372 33.974 36.832 35.99 36.832C37.754 36.832 38.93 37.84 39.154 39.296H37.95C37.754 38.428 36.998 37.882 35.99 37.882C34.702 37.882 33.722 38.946 33.722 40.472C33.722 41.984 34.702 43.062 35.99 43.062C37.082 43.062 37.866 42.446 38.006 41.55H39.21C39.014 42.978 37.754 44.112 35.99 44.112ZM42.7232 44.112C41.1972 44.112 40.2312 43.328 40.2312 42.096C40.2312 40.682 41.2252 39.968 43.4652 39.744L44.9772 39.59V39.338C44.9772 38.4 44.2912 37.854 43.2692 37.854C42.2892 37.854 41.6452 38.358 41.5052 39.338H40.3012C40.4972 37.994 41.5332 36.832 43.2692 36.832C44.9632 36.832 46.1812 37.826 46.1812 39.464V44H44.9772V42.824C44.6972 43.496 43.7452 44.112 42.7232 44.112ZM41.4492 42.054C41.4492 42.698 41.9812 43.09 42.8352 43.09C44.0952 43.09 44.9772 42.096 44.9772 40.85V40.514L43.5352 40.682C42.0652 40.85 41.4492 41.2 41.4492 42.054ZM50.3597 44.112C49.1557 44.112 48.2737 43.356 48.2737 41.914V37.938H47.0697V36.944H48.2737V35.152H49.4637V36.944H51.2557V37.938H49.4637V41.816C49.4637 42.642 49.8837 43.048 50.4997 43.048C50.7657 43.048 51.0597 42.992 51.2977 42.908V43.93C51.0317 44.056 50.6817 44.112 50.3597 44.112ZM55.4464 44.112C53.3604 44.112 51.9044 42.6 51.9044 40.472C51.9044 38.344 53.3604 36.832 55.3624 36.832C57.5184 36.832 58.8624 38.512 58.5964 40.626H53.1224C53.1784 42.124 54.0744 43.076 55.4044 43.076C56.4264 43.076 57.0984 42.558 57.3224 41.746H58.5264C58.2744 43.118 57.0704 44.112 55.4464 44.112ZM53.1924 39.674H57.3784C57.3784 38.554 56.5524 37.854 55.3624 37.854C54.2144 37.854 53.4304 38.498 53.1924 39.674ZM63.0307 46.66C61.5047 46.66 60.2307 45.82 60.0067 44.476H61.2107C61.4067 45.19 62.1207 45.638 63.0727 45.638C64.3607 45.638 65.3267 44.952 65.3267 43.692V42.572C64.9067 43.258 63.9967 43.706 62.9747 43.706C61.0007 43.706 59.6707 42.32 59.6707 40.276C59.6707 38.204 60.9867 36.832 62.9747 36.832C63.9827 36.832 64.9067 37.252 65.3267 37.924V36.944H66.5447V43.58C66.5447 45.512 65.0467 46.66 63.0307 46.66ZM60.8467 40.276C60.8467 41.704 61.7707 42.712 63.0867 42.712C64.3887 42.712 65.3267 41.704 65.3267 40.262C65.3267 38.792 64.3887 37.826 63.0867 37.826C61.7707 37.826 60.8467 38.806 60.8467 40.276ZM71.5388 44.112C69.4668 44.112 67.9688 42.6 67.9688 40.472C67.9688 38.344 69.4668 36.832 71.5388 36.832C73.6108 36.832 75.1088 38.344 75.1088 40.472C75.1088 42.6 73.5968 44.112 71.5388 44.112ZM69.1868 40.472C69.1868 41.998 70.1668 43.062 71.5388 43.062C72.9108 43.062 73.8908 41.998 73.8908 40.472C73.8908 38.932 72.9108 37.868 71.5388 37.868C70.1668 37.868 69.1868 38.932 69.1868 40.472ZM76.5653 44V36.944H77.7553V38.19C78.1473 37.378 79.0293 36.832 79.9673 36.832C80.2473 36.832 80.5413 36.874 80.7653 36.986V38.134C80.4293 37.994 80.1073 37.952 79.8273 37.952C78.6513 37.952 77.7553 39.1 77.7553 41.172V44H76.5653ZM82.7796 46.548L83.8156 44L81.0716 36.944H82.3596L84.4456 42.432L86.5176 36.944H87.7776L84.0256 46.548H82.7796ZM32.798 62.472V61.464H36.9V62.472H32.798ZM39.6369 57.698C39.1609 58.258 38.2509 58.678 37.2429 58.916V57.796C38.1809 57.614 39.1329 57.04 39.8329 56.2H40.9249V66H39.6369V57.698Z" fill="#0A0132"/>
<path d="M144 32C144 27.5817 147.582 24 152 24H232C236.418 24 240 27.5817 240 32V112C240 116.418 236.418 120 232 120H152C147.582 120 144 116.418 144 112V32Z" fill="#FFAC70"/>
<path d="M155.99 44.112C153.974 44.112 152.504 42.558 152.504 40.472C152.504 38.372 153.974 36.832 155.99 36.832C157.754 36.832 158.93 37.84 159.154 39.296H157.95C157.754 38.428 156.998 37.882 155.99 37.882C154.702 37.882 153.722 38.946 153.722 40.472C153.722 41.984 154.702 43.062 155.99 43.062C157.082 43.062 157.866 42.446 158.006 41.55H159.21C159.014 42.978 157.754 44.112 155.99 44.112ZM162.723 44.112C161.197 44.112 160.231 43.328 160.231 42.096C160.231 40.682 161.225 39.968 163.465 39.744L164.977 39.59V39.338C164.977 38.4 164.291 37.854 163.269 37.854C162.289 37.854 161.645 38.358 161.505 39.338H160.301C160.497 37.994 161.533 36.832 163.269 36.832C164.963 36.832 166.181 37.826 166.181 39.464V44H164.977V42.824C164.697 43.496 163.745 44.112 162.723 44.112ZM161.449 42.054C161.449 42.698 161.981 43.09 162.835 43.09C164.095 43.09 164.977 42.096 164.977 40.85V40.514L163.535 40.682C162.065 40.85 161.449 41.2 161.449 42.054ZM170.36 44.112C169.156 44.112 168.274 43.356 168.274 41.914V37.938H167.07V36.944H168.274V35.152H169.464V36.944H171.256V37.938H169.464V41.816C169.464 42.642 169.884 43.048 170.5 43.048C170.766 43.048 171.06 42.992 171.298 42.908V43.93C171.032 44.056 170.682 44.112 170.36 44.112ZM175.446 44.112C173.36 44.112 171.904 42.6 171.904 40.472C171.904 38.344 173.36 36.832 175.362 36.832C177.518 36.832 178.862 38.512 178.596 40.626H173.122C173.178 42.124 174.074 43.076 175.404 43.076C176.426 43.076 177.098 42.558 177.322 41.746H178.526C178.274 43.118 177.07 44.112 175.446 44.112ZM173.192 39.674H177.378C177.378 38.554 176.552 37.854 175.362 37.854C174.214 37.854 173.43 38.498 173.192 39.674ZM183.031 46.66C181.505 46.66 180.231 45.82 180.007 44.476H181.211C181.407 45.19 182.121 45.638 183.073 45.638C184.361 45.638 185.327 44.952 185.327 43.692V42.572C184.907 43.258 183.997 43.706 182.975 43.706C181.001 43.706 179.671 42.32 179.671 40.276C179.671 38.204 180.987 36.832 182.975 36.832C183.983 36.832 184.907 37.252 185.327 37.924V36.944H186.545V43.58C186.545 45.512 185.047 46.66 183.031 46.66ZM180.847 40.276C180.847 41.704 181.771 42.712 183.087 42.712C184.389 42.712 185.327 41.704 185.327 40.262C185.327 38.792 184.389 37.826 183.087 37.826C181.771 37.826 180.847 38.806 180.847 40.276ZM191.539 44.112C189.467 44.112 187.969 42.6 187.969 40.472C187.969 38.344 189.467 36.832 191.539 36.832C193.611 36.832 195.109 38.344 195.109 40.472C195.109 42.6 193.597 44.112 191.539 44.112ZM189.187 40.472C189.187 41.998 190.167 43.062 191.539 43.062C192.911 43.062 193.891 41.998 193.891 40.472C193.891 38.932 192.911 37.868 191.539 37.868C190.167 37.868 189.187 38.932 189.187 40.472ZM196.565 44V36.944H197.755V38.19C198.147 37.378 199.029 36.832 199.967 36.832C200.247 36.832 200.541 36.874 200.765 36.986V38.134C200.429 37.994 200.107 37.952 199.827 37.952C198.651 37.952 197.755 39.1 197.755 41.172V44H196.565ZM202.78 46.548L203.816 44L201.072 36.944H202.36L204.446 42.432L206.518 36.944H207.778L204.026 46.548H202.78ZM152.798 62.472V61.464H156.9V62.472H152.798ZM158.019 66V64.978L161.743 61.618C162.835 60.638 163.395 59.882 163.395 59.028C163.395 57.922 162.569 57.194 161.435 57.194C160.077 57.194 159.265 58.132 159.377 59.616H158.103C157.991 57.544 159.377 56.088 161.435 56.088C163.325 56.088 164.683 57.278 164.683 59.028C164.683 60.246 163.941 61.296 162.471 62.486L159.811 64.894H164.711V66H158.019Z" fill="#0A0132"/>
<path d="M264 32C264 27.5817 267.582 24 272 24H352C356.418 24 360 27.5817 360 32V112C360 116.418 356.418 120 352 120H272C267.582 120 264 116.418 264 112V32Z" fill="#FBC774"/>
<path d="M275.99 44.112C273.974 44.112 272.504 42.558 272.504 40.472C272.504 38.372 273.974 36.832 275.99 36.832C277.754 36.832 278.93 37.84 279.154 39.296H277.95C277.754 38.428 276.998 37.882 275.99 37.882C274.702 37.882 273.722 38.946 273.722 40.472C273.722 41.984 274.702 43.062 275.99 43.062C277.082 43.062 277.866 42.446 278.006 41.55H279.21C279.014 42.978 277.754 44.112 275.99 44.112ZM282.723 44.112C281.197 44.112 280.231 43.328 280.231 42.096C280.231 40.682 281.225 39.968 283.465 39.744L284.977 39.59V39.338C284.977 38.4 284.291 37.854 283.269 37.854C282.289 37.854 281.645 38.358 281.505 39.338H280.301C280.497 37.994 281.533 36.832 283.269 36.832C284.963 36.832 286.181 37.826 286.181 39.464V44H284.977V42.824C284.697 43.496 283.745 44.112 282.723 44.112ZM281.449 42.054C281.449 42.698 281.981 43.09 282.835 43.09C284.095 43.09 284.977 42.096 284.977 40.85V40.514L283.535 40.682C282.065 40.85 281.449 41.2 281.449 42.054ZM290.36 44.112C289.156 44.112 288.274 43.356 288.274 41.914V37.938H287.07V36.944H288.274V35.152H289.464V36.944H291.256V37.938H289.464V41.816C289.464 42.642 289.884 43.048 290.5 43.048C290.766 43.048 291.06 42.992 291.298 42.908V43.93C291.032 44.056 290.682 44.112 290.36 44.112ZM295.446 44.112C293.36 44.112 291.904 42.6 291.904 40.472C291.904 38.344 293.36 36.832 295.362 36.832C297.518 36.832 298.862 38.512 298.596 40.626H293.122C293.178 42.124 294.074 43.076 295.404 43.076C296.426 43.076 297.098 42.558 297.322 41.746H298.526C298.274 43.118 297.07 44.112 295.446 44.112ZM293.192 39.674H297.378C297.378 38.554 296.552 37.854 295.362 37.854C294.214 37.854 293.43 38.498 293.192 39.674ZM303.031 46.66C301.505 46.66 300.231 45.82 300.007 44.476H301.211C301.407 45.19 302.121 45.638 303.073 45.638C304.361 45.638 305.327 44.952 305.327 43.692V42.572C304.907 43.258 303.997 43.706 302.975 43.706C301.001 43.706 299.671 42.32 299.671 40.276C299.671 38.204 300.987 36.832 302.975 36.832C303.983 36.832 304.907 37.252 305.327 37.924V36.944H306.545V43.58C306.545 45.512 305.047 46.66 303.031 46.66ZM300.847 40.276C300.847 41.704 301.771 42.712 303.087 42.712C304.389 42.712 305.327 41.704 305.327 40.262C305.327 38.792 304.389 37.826 303.087 37.826C301.771 37.826 300.847 38.806 300.847 40.276ZM311.539 44.112C309.467 44.112 307.969 42.6 307.969 40.472C307.969 38.344 309.467 36.832 311.539 36.832C313.611 36.832 315.109 38.344 315.109 40.472C315.109 42.6 313.597 44.112 311.539 44.112ZM309.187 40.472C309.187 41.998 310.167 43.062 311.539 43.062C312.911 43.062 313.891 41.998 313.891 40.472C313.891 38.932 312.911 37.868 311.539 37.868C310.167 37.868 309.187 38.932 309.187 40.472ZM316.565 44V36.944H317.755V38.19C318.147 37.378 319.029 36.832 319.967 36.832C320.247 36.832 320.541 36.874 320.765 36.986V38.134C320.429 37.994 320.107 37.952 319.827 37.952C318.651 37.952 317.755 39.1 317.755 41.172V44H316.565ZM322.78 46.548L323.816 44L321.072 36.944H322.36L324.446 42.432L326.518 36.944H327.778L324.026 46.548H322.78ZM272.798 62.472V61.464H276.9V62.472H272.798ZM281.677 66.112C279.549 66.112 278.247 64.81 278.163 63.046H279.381C279.521 64.208 280.347 65.006 281.677 65.006C282.993 65.006 283.945 64.096 283.945 62.878C283.945 61.702 283.119 60.862 281.929 60.862C281.369 60.862 280.921 60.96 280.459 61.17V60.176L283.231 57.306H278.471V56.2H284.743V57.236L281.971 60.008C282.055 59.994 282.139 59.994 282.223 59.994C284.085 59.994 285.219 61.184 285.219 62.92C285.219 64.768 283.749 66.112 281.677 66.112Z" fill="#0A0132"/>
<path d="M384 32C384 27.5817 387.582 24 392 24H472C476.418 24 480 27.5817 480 32V112C480 116.418 476.418 120 472 120H392C387.582 120 384 116.418 384 112V32Z" fill="#FBE774"/>
<path d="M395.99 44.112C393.974 44.112 392.504 42.558 392.504 40.472C392.504 38.372 393.974 36.832 395.99 36.832C397.754 36.832 398.93 37.84 399.154 39.296H397.95C397.754 38.428 396.998 37.882 395.99 37.882C394.702 37.882 393.722 38.946 393.722 40.472C393.722 41.984 394.702 43.062 395.99 43.062C397.082 43.062 397.866 42.446 398.006 41.55H399.21C399.014 42.978 397.754 44.112 395.99 44.112ZM402.723 44.112C401.197 44.112 400.231 43.328 400.231 42.096C400.231 40.682 401.225 39.968 403.465 39.744L404.977 39.59V39.338C404.977 38.4 404.291 37.854 403.269 37.854C402.289 37.854 401.645 38.358 401.505 39.338H400.301C400.497 37.994 401.533 36.832 403.269 36.832C404.963 36.832 406.181 37.826 406.181 39.464V44H404.977V42.824C404.697 43.496 403.745 44.112 402.723 44.112ZM401.449 42.054C401.449 42.698 401.981 43.09 402.835 43.09C404.095 43.09 404.977 42.096 404.977 40.85V40.514L403.535 40.682C402.065 40.85 401.449 41.2 401.449 42.054ZM410.36 44.112C409.156 44.112 408.274 43.356 408.274 41.914V37.938H407.07V36.944H408.274V35.152H409.464V36.944H411.256V37.938H409.464V41.816C409.464 42.642 409.884 43.048 410.5 43.048C410.766 43.048 411.06 42.992 411.298 42.908V43.93C411.032 44.056 410.682 44.112 410.36 44.112ZM415.446 44.112C413.36 44.112 411.904 42.6 411.904 40.472C411.904 38.344 413.36 36.832 415.362 36.832C417.518 36.832 418.862 38.512 418.596 40.626H413.122C413.178 42.124 414.074 43.076 415.404 43.076C416.426 43.076 417.098 42.558 417.322 41.746H418.526C418.274 43.118 417.07 44.112 415.446 44.112ZM413.192 39.674H417.378C417.378 38.554 416.552 37.854 415.362 37.854C414.214 37.854 413.43 38.498 413.192 39.674ZM423.031 46.66C421.505 46.66 420.231 45.82 420.007 44.476H421.211C421.407 45.19 422.121 45.638 423.073 45.638C424.361 45.638 425.327 44.952 425.327 43.692V42.572C424.907 43.258 423.997 43.706 422.975 43.706C421.001 43.706 419.671 42.32 419.671 40.276C419.671 38.204 420.987 36.832 422.975 36.832C423.983 36.832 424.907 37.252 425.327 37.924V36.944H426.545V43.58C426.545 45.512 425.047 46.66 423.031 46.66ZM420.847 40.276C420.847 41.704 421.771 42.712 423.087 42.712C424.389 42.712 425.327 41.704 425.327 40.262C425.327 38.792 424.389 37.826 423.087 37.826C421.771 37.826 420.847 38.806 420.847 40.276ZM431.539 44.112C429.467 44.112 427.969 42.6 427.969 40.472C427.969 38.344 429.467 36.832 431.539 36.832C433.611 36.832 435.109 38.344 435.109 40.472C435.109 42.6 433.597 44.112 431.539 44.112ZM429.187 40.472C429.187 41.998 430.167 43.062 431.539 43.062C432.911 43.062 433.891 41.998 433.891 40.472C433.891 38.932 432.911 37.868 431.539 37.868C430.167 37.868 429.187 38.932 429.187 40.472ZM436.565 44V36.944H437.755V38.19C438.147 37.378 439.029 36.832 439.967 36.832C440.247 36.832 440.541 36.874 440.765 36.986V38.134C440.429 37.994 440.107 37.952 439.827 37.952C438.651 37.952 437.755 39.1 437.755 41.172V44H436.565ZM442.78 46.548L443.816 44L441.072 36.944H442.36L444.446 42.432L446.518 36.944H447.778L444.026 46.548H442.78ZM392.798 62.472V61.464H396.9V62.472H392.798ZM403.161 66V63.578H398.009V62.556L402.993 56.2H404.449V62.472H405.835V63.578H404.449V66H403.161ZM399.339 62.472H403.161V57.67L399.339 62.472Z" fill="#0A0132"/>
<path d="M24 140C24 135.582 27.5817 132 32 132H112C116.418 132 120 135.582 120 140V220C120 224.418 116.418 228 112 228H32C27.5817 228 24 224.418 24 220V140Z" fill="#82E3CB"/>
<path d="M35.99 152.112C33.974 152.112 32.504 150.558 32.504 148.472C32.504 146.372 33.974 144.832 35.99 144.832C37.754 144.832 38.93 145.84 39.154 147.296H37.95C37.754 146.428 36.998 145.882 35.99 145.882C34.702 145.882 33.722 146.946 33.722 148.472C33.722 149.984 34.702 151.062 35.99 151.062C37.082 151.062 37.866 150.446 38.006 149.55H39.21C39.014 150.978 37.754 152.112 35.99 152.112ZM42.7232 152.112C41.1972 152.112 40.2312 151.328 40.2312 150.096C40.2312 148.682 41.2252 147.968 43.4652 147.744L44.9772 147.59V147.338C44.9772 146.4 44.2912 145.854 43.2692 145.854C42.2892 145.854 41.6452 146.358 41.5052 147.338H40.3012C40.4972 145.994 41.5332 144.832 43.2692 144.832C44.9632 144.832 46.1812 145.826 46.1812 147.464V152H44.9772V150.824C44.6972 151.496 43.7452 152.112 42.7232 152.112ZM41.4492 150.054C41.4492 150.698 41.9812 151.09 42.8352 151.09C44.0952 151.09 44.9772 150.096 44.9772 148.85V148.514L43.5352 148.682C42.0652 148.85 41.4492 149.2 41.4492 150.054ZM50.3597 152.112C49.1557 152.112 48.2737 151.356 48.2737 149.914V145.938H47.0697V144.944H48.2737V143.152H49.4637V144.944H51.2557V145.938H49.4637V149.816C49.4637 150.642 49.8837 151.048 50.4997 151.048C50.7657 151.048 51.0597 150.992 51.2977 150.908V151.93C51.0317 152.056 50.6817 152.112 50.3597 152.112ZM55.4464 152.112C53.3604 152.112 51.9044 150.6 51.9044 148.472C51.9044 146.344 53.3604 144.832 55.3624 144.832C57.5184 144.832 58.8624 146.512 58.5964 148.626H53.1224C53.1784 150.124 54.0744 151.076 55.4044 151.076C56.4264 151.076 57.0984 150.558 57.3224 149.746H58.5264C58.2744 151.118 57.0704 152.112 55.4464 152.112ZM53.1924 147.674H57.3784C57.3784 146.554 56.5524 145.854 55.3624 145.854C54.2144 145.854 53.4304 146.498 53.1924 147.674ZM63.0307 154.66C61.5047 154.66 60.2307 153.82 60.0067 152.476H61.2107C61.4067 153.19 62.1207 153.638 63.0727 153.638C64.3607 153.638 65.3267 152.952 65.3267 151.692V150.572C64.9067 151.258 63.9967 151.706 62.9747 151.706C61.0007 151.706 59.6707 150.32 59.6707 148.276C59.6707 146.204 60.9867 144.832 62.9747 144.832C63.9827 144.832 64.9067 145.252 65.3267 145.924V144.944H66.5447V151.58C66.5447 153.512 65.0467 154.66 63.0307 154.66ZM60.8467 148.276C60.8467 149.704 61.7707 150.712 63.0867 150.712C64.3887 150.712 65.3267 149.704 65.3267 148.262C65.3267 146.792 64.3887 145.826 63.0867 145.826C61.7707 145.826 60.8467 146.806 60.8467 148.276ZM71.5388 152.112C69.4668 152.112 67.9688 150.6 67.9688 148.472C67.9688 146.344 69.4668 144.832 71.5388 144.832C73.6108 144.832 75.1088 146.344 75.1088 148.472C75.1088 150.6 73.5968 152.112 71.5388 152.112ZM69.1868 148.472C69.1868 149.998 70.1668 151.062 71.5388 151.062C72.9108 151.062 73.8908 149.998 73.8908 148.472C73.8908 146.932 72.9108 145.868 71.5388 145.868C70.1668 145.868 69.1868 146.932 69.1868 148.472ZM76.5653 152V144.944H77.7553V146.19C78.1473 145.378 79.0293 144.832 79.9673 144.832C80.2473 144.832 80.5413 144.874 80.7653 144.986V146.134C80.4293 145.994 80.1073 145.952 79.8273 145.952C78.6513 145.952 77.7553 147.1 77.7553 149.172V152H76.5653ZM82.7796 154.548L83.8156 152L81.0716 144.944H82.3596L84.4456 150.432L86.5176 144.944H87.7776L84.0256 154.548H82.7796ZM32.798 170.472V169.464H36.9V170.472H32.798ZM41.7192 174.112C39.7312 174.112 38.3732 172.894 38.2192 171.158H39.4372C39.6052 172.278 40.4592 173.006 41.7192 173.006C42.9932 173.006 43.9172 172.068 43.9172 170.752C43.9172 169.422 43.0072 168.47 41.7192 168.47C40.7532 168.47 40.0112 168.932 39.6472 169.632H38.4572L39.2552 164.2H44.4912V165.306H40.2212L39.7452 168.414C40.2352 167.868 41.0052 167.462 41.9852 167.462C43.8332 167.462 45.1912 168.834 45.1912 170.752C45.1912 172.726 43.7772 174.112 41.7192 174.112Z" fill="#0A0132"/>
<path d="M144 140C144 135.582 147.582 132 152 132H232C236.418 132 240 135.582 240 140V220C240 224.418 236.418 228 232 228H152C147.582 228 144 224.418 144 220V140Z" fill="#75C7F0"/>
<path d="M155.99 152.112C153.974 152.112 152.504 150.558 152.504 148.472C152.504 146.372 153.974 144.832 155.99 144.832C157.754 144.832 158.93 145.84 159.154 147.296H157.95C157.754 146.428 156.998 145.882 155.99 145.882C154.702 145.882 153.722 146.946 153.722 148.472C153.722 149.984 154.702 151.062 155.99 151.062C157.082 151.062 157.866 150.446 158.006 149.55H159.21C159.014 150.978 157.754 152.112 155.99 152.112ZM162.723 152.112C161.197 152.112 160.231 151.328 160.231 150.096C160.231 148.682 161.225 147.968 163.465 147.744L164.977 147.59V147.338C164.977 146.4 164.291 145.854 163.269 145.854C162.289 145.854 161.645 146.358 161.505 147.338H160.301C160.497 145.994 161.533 144.832 163.269 144.832C164.963 144.832 166.181 145.826 166.181 147.464V152H164.977V150.824C164.697 151.496 163.745 152.112 162.723 152.112ZM161.449 150.054C161.449 150.698 161.981 151.09 162.835 151.09C164.095 151.09 164.977 150.096 164.977 148.85V148.514L163.535 148.682C162.065 148.85 161.449 149.2 161.449 150.054ZM170.36 152.112C169.156 152.112 168.274 151.356 168.274 149.914V145.938H167.07V144.944H168.274V143.152H169.464V144.944H171.256V145.938H169.464V149.816C169.464 150.642 169.884 151.048 170.5 151.048C170.766 151.048 171.06 150.992 171.298 150.908V151.93C171.032 152.056 170.682 152.112 170.36 152.112ZM175.446 152.112C173.36 152.112 171.904 150.6 171.904 148.472C171.904 146.344 173.36 144.832 175.362 144.832C177.518 144.832 178.862 146.512 178.596 148.626H173.122C173.178 150.124 174.074 151.076 175.404 151.076C176.426 151.076 177.098 150.558 177.322 149.746H178.526C178.274 151.118 177.07 152.112 175.446 152.112ZM173.192 147.674H177.378C177.378 146.554 176.552 145.854 175.362 145.854C174.214 145.854 173.43 146.498 173.192 147.674ZM183.031 154.66C181.505 154.66 180.231 153.82 180.007 152.476H181.211C181.407 153.19 182.121 153.638 183.073 153.638C184.361 153.638 185.327 152.952 185.327 151.692V150.572C184.907 151.258 183.997 151.706 182.975 151.706C181.001 151.706 179.671 150.32 179.671 148.276C179.671 146.204 180.987 144.832 182.975 144.832C183.983 144.832 184.907 145.252 185.327 145.924V144.944H186.545V151.58C186.545 153.512 185.047 154.66 183.031 154.66ZM180.847 148.276C180.847 149.704 181.771 150.712 183.087 150.712C184.389 150.712 185.327 149.704 185.327 148.262C185.327 146.792 184.389 145.826 183.087 145.826C181.771 145.826 180.847 146.806 180.847 148.276ZM191.539 152.112C189.467 152.112 187.969 150.6 187.969 148.472C187.969 146.344 189.467 144.832 191.539 144.832C193.611 144.832 195.109 146.344 195.109 148.472C195.109 150.6 193.597 152.112 191.539 152.112ZM189.187 148.472C189.187 149.998 190.167 151.062 191.539 151.062C192.911 151.062 193.891 149.998 193.891 148.472C193.891 146.932 192.911 145.868 191.539 145.868C190.167 145.868 189.187 146.932 189.187 148.472ZM196.565 152V144.944H197.755V146.19C198.147 145.378 199.029 144.832 199.967 144.832C200.247 144.832 200.541 144.874 200.765 144.986V146.134C200.429 145.994 200.107 145.952 199.827 145.952C198.651 145.952 197.755 147.1 197.755 149.172V152H196.565ZM202.78 154.548L203.816 152L201.072 144.944H202.36L204.446 150.432L206.518 144.944H207.778L204.026 154.548H202.78ZM152.798 170.472V169.464H156.9V170.472H152.798ZM162.139 174.112C159.689 174.112 158.359 172.278 158.359 169.66C158.359 166.258 159.927 164.088 162.419 164.088C164.183 164.088 165.443 165.068 165.639 166.608H164.421C164.253 165.74 163.441 165.18 162.419 165.18C160.515 165.18 159.703 166.93 159.591 168.946C160.137 167.966 161.187 167.476 162.279 167.476C164.225 167.476 165.625 168.904 165.625 170.808C165.625 172.726 164.155 174.112 162.139 174.112ZM159.843 170.822C159.843 172.124 160.781 173.02 162.125 173.02C163.441 173.02 164.393 172.124 164.393 170.808C164.393 169.478 163.441 168.568 162.125 168.568C160.781 168.568 159.843 169.492 159.843 170.822Z" fill="#0A0132"/>
<path d="M264 140C264 135.582 267.582 132 272 132H352C356.418 132 360 135.582 360 140V220C360 224.418 356.418 228 352 228H272C267.582 228 264 224.418 264 220V140Z" fill="#C79AF4"/>
<path d="M275.99 152.112C273.974 152.112 272.504 150.558 272.504 148.472C272.504 146.372 273.974 144.832 275.99 144.832C277.754 144.832 278.93 145.84 279.154 147.296H277.95C277.754 146.428 276.998 145.882 275.99 145.882C274.702 145.882 273.722 146.946 273.722 148.472C273.722 149.984 274.702 151.062 275.99 151.062C277.082 151.062 277.866 150.446 278.006 149.55H279.21C279.014 150.978 277.754 152.112 275.99 152.112ZM282.723 152.112C281.197 152.112 280.231 151.328 280.231 150.096C280.231 148.682 281.225 147.968 283.465 147.744L284.977 147.59V147.338C284.977 146.4 284.291 145.854 283.269 145.854C282.289 145.854 281.645 146.358 281.505 147.338H280.301C280.497 145.994 281.533 144.832 283.269 144.832C284.963 144.832 286.181 145.826 286.181 147.464V152H284.977V150.824C284.697 151.496 283.745 152.112 282.723 152.112ZM281.449 150.054C281.449 150.698 281.981 151.09 282.835 151.09C284.095 151.09 284.977 150.096 284.977 148.85V148.514L283.535 148.682C282.065 148.85 281.449 149.2 281.449 150.054ZM290.36 152.112C289.156 152.112 288.274 151.356 288.274 149.914V145.938H287.07V144.944H288.274V143.152H289.464V144.944H291.256V145.938H289.464V149.816C289.464 150.642 289.884 151.048 290.5 151.048C290.766 151.048 291.06 150.992 291.298 150.908V151.93C291.032 152.056 290.682 152.112 290.36 152.112ZM295.446 152.112C293.36 152.112 291.904 150.6 291.904 148.472C291.904 146.344 293.36 144.832 295.362 144.832C297.518 144.832 298.862 146.512 298.596 148.626H293.122C293.178 150.124 294.074 151.076 295.404 151.076C296.426 151.076 297.098 150.558 297.322 149.746H298.526C298.274 151.118 297.07 152.112 295.446 152.112ZM293.192 147.674H297.378C297.378 146.554 296.552 145.854 295.362 145.854C294.214 145.854 293.43 146.498 293.192 147.674ZM303.031 154.66C301.505 154.66 300.231 153.82 300.007 152.476H301.211C301.407 153.19 302.121 153.638 303.073 153.638C304.361 153.638 305.327 152.952 305.327 151.692V150.572C304.907 151.258 303.997 151.706 302.975 151.706C301.001 151.706 299.671 150.32 299.671 148.276C299.671 146.204 300.987 144.832 302.975 144.832C303.983 144.832 304.907 145.252 305.327 145.924V144.944H306.545V151.58C306.545 153.512 305.047 154.66 303.031 154.66ZM300.847 148.276C300.847 149.704 301.771 150.712 303.087 150.712C304.389 150.712 305.327 149.704 305.327 148.262C305.327 146.792 304.389 145.826 303.087 145.826C301.771 145.826 300.847 146.806 300.847 148.276ZM311.539 152.112C309.467 152.112 307.969 150.6 307.969 148.472C307.969 146.344 309.467 144.832 311.539 144.832C313.611 144.832 315.109 146.344 315.109 148.472C315.109 150.6 313.597 152.112 311.539 152.112ZM309.187 148.472C309.187 149.998 310.167 151.062 311.539 151.062C312.911 151.062 313.891 149.998 313.891 148.472C313.891 146.932 312.911 145.868 311.539 145.868C310.167 145.868 309.187 146.932 309.187 148.472ZM316.565 152V144.944H317.755V146.19C318.147 145.378 319.029 144.832 319.967 144.832C320.247 144.832 320.541 144.874 320.765 144.986V146.134C320.429 145.994 320.107 145.952 319.827 145.952C318.651 145.952 317.755 147.1 317.755 149.172V152H316.565ZM322.78 154.548L323.816 152L321.072 144.944H322.36L324.446 150.432L326.518 144.944H327.778L324.026 154.548H322.78ZM272.798 170.472V169.464H276.9V170.472H272.798ZM278.42 174C278.7 171.242 280.338 167.91 282.676 165.306H277.16V164.2H284.02V165.306C281.584 168.148 279.89 171.466 279.694 174H278.42Z" fill="#0A0132"/>
<path d="M384 140C384 135.582 387.582 132 392 132H472C476.418 132 480 135.582 480 140V220C480 224.418 476.418 228 472 228H392C387.582 228 384 224.418 384 220V140Z" fill="#F5A3CC"/>
<path d="M395.99 152.112C393.974 152.112 392.504 150.558 392.504 148.472C392.504 146.372 393.974 144.832 395.99 144.832C397.754 144.832 398.93 145.84 399.154 147.296H397.95C397.754 146.428 396.998 145.882 395.99 145.882C394.702 145.882 393.722 146.946 393.722 148.472C393.722 149.984 394.702 151.062 395.99 151.062C397.082 151.062 397.866 150.446 398.006 149.55H399.21C399.014 150.978 397.754 152.112 395.99 152.112ZM402.723 152.112C401.197 152.112 400.231 151.328 400.231 150.096C400.231 148.682 401.225 147.968 403.465 147.744L404.977 147.59V147.338C404.977 146.4 404.291 145.854 403.269 145.854C402.289 145.854 401.645 146.358 401.505 147.338H400.301C400.497 145.994 401.533 144.832 403.269 144.832C404.963 144.832 406.181 145.826 406.181 147.464V152H404.977V150.824C404.697 151.496 403.745 152.112 402.723 152.112ZM401.449 150.054C401.449 150.698 401.981 151.09 402.835 151.09C404.095 151.09 404.977 150.096 404.977 148.85V148.514L403.535 148.682C402.065 148.85 401.449 149.2 401.449 150.054ZM410.36 152.112C409.156 152.112 408.274 151.356 408.274 149.914V145.938H407.07V144.944H408.274V143.152H409.464V144.944H411.256V145.938H409.464V149.816C409.464 150.642 409.884 151.048 410.5 151.048C410.766 151.048 411.06 150.992 411.298 150.908V151.93C411.032 152.056 410.682 152.112 410.36 152.112ZM415.446 152.112C413.36 152.112 411.904 150.6 411.904 148.472C411.904 146.344 413.36 144.832 415.362 144.832C417.518 144.832 418.862 146.512 418.596 148.626H413.122C413.178 150.124 414.074 151.076 415.404 151.076C416.426 151.076 417.098 150.558 417.322 149.746H418.526C418.274 151.118 417.07 152.112 415.446 152.112ZM413.192 147.674H417.378C417.378 146.554 416.552 145.854 415.362 145.854C414.214 145.854 413.43 146.498 413.192 147.674ZM423.031 154.66C421.505 154.66 420.231 153.82 420.007 152.476H421.211C421.407 153.19 422.121 153.638 423.073 153.638C424.361 153.638 425.327 152.952 425.327 151.692V150.572C424.907 151.258 423.997 151.706 422.975 151.706C421.001 151.706 419.671 150.32 419.671 148.276C419.671 146.204 420.987 144.832 422.975 144.832C423.983 144.832 424.907 145.252 425.327 145.924V144.944H426.545V151.58C426.545 153.512 425.047 154.66 423.031 154.66ZM420.847 148.276C420.847 149.704 421.771 150.712 423.087 150.712C424.389 150.712 425.327 149.704 425.327 148.262C425.327 146.792 424.389 145.826 423.087 145.826C421.771 145.826 420.847 146.806 420.847 148.276ZM431.539 152.112C429.467 152.112 427.969 150.6 427.969 148.472C427.969 146.344 429.467 144.832 431.539 144.832C433.611 144.832 435.109 146.344 435.109 148.472C435.109 150.6 433.597 152.112 431.539 152.112ZM429.187 148.472C429.187 149.998 430.167 151.062 431.539 151.062C432.911 151.062 433.891 149.998 433.891 148.472C433.891 146.932 432.911 145.868 431.539 145.868C430.167 145.868 429.187 146.932 429.187 148.472ZM436.565 152V144.944H437.755V146.19C438.147 145.378 439.029 144.832 439.967 144.832C440.247 144.832 440.541 144.874 440.765 144.986V146.134C440.429 145.994 440.107 145.952 439.827 145.952C438.651 145.952 437.755 147.1 437.755 149.172V152H436.565ZM442.78 154.548L443.816 152L441.072 144.944H442.36L444.446 150.432L446.518 144.944H447.778L444.026 154.548H442.78ZM392.798 170.472V169.464H396.9V170.472H392.798ZM401.817 174.112C399.857 174.112 398.317 172.992 398.317 171.326C398.317 170.22 399.143 169.184 400.263 168.876C399.353 168.554 398.681 167.63 398.681 166.706C398.681 165.236 399.997 164.088 401.817 164.088C403.651 164.088 404.953 165.236 404.953 166.706C404.953 167.63 404.295 168.554 403.385 168.876C404.505 169.184 405.317 170.22 405.317 171.326C405.317 172.992 403.777 174.112 401.817 174.112ZM399.549 171.284C399.549 172.32 400.501 173.076 401.817 173.076C403.147 173.076 404.085 172.32 404.085 171.284C404.085 170.22 403.147 169.492 401.817 169.492C400.501 169.492 399.549 170.22 399.549 171.284ZM399.857 166.748C399.871 167.7 400.683 168.372 401.817 168.372C402.951 168.372 403.763 167.7 403.777 166.748C403.791 165.796 402.979 165.11 401.817 165.11C400.655 165.11 399.843 165.796 399.857 166.748Z" fill="#0A0132"/>
</svg>
