<svg width="736" height="394" viewBox="0 0 736 394" fill="none" xmlns="http://www.w3.org/2000/svg">
<path d="M0 12C0 5.37258 5.37258 0 12 0H724C730.627 0 736 5.37258 736 12V382C736 388.627 730.627 394 724 394H12C5.3726 394 0 388.627 0 382V12Z" fill="white"/>
<g clip-path="url(#clip0_1_11)">
<rect width="320" height="320" transform="translate(24 24)" fill="white"/>
<rect x="24" y="24" width="320" height="320" fill="#F1F1F1"/>
<rect x="64" y="64" width="240" height="240" fill="white"/>
<rect x="104" y="104" width="160" height="160" fill="#F1F1F1"/>
<path d="M33.078 44V34.2H36.886C38.748 34.2 39.98 35.32 39.98 37.028C39.98 38.736 38.748 39.856 36.886 39.856H34.352V44H33.078ZM34.352 38.75H36.76C37.936 38.75 38.706 38.064 38.706 37.028C38.706 35.992 37.936 35.306 36.76 35.306H34.352V38.75ZM43.1607 44.112C41.6347 44.112 40.6687 43.328 40.6687 42.096C40.6687 40.682 41.6627 39.968 43.9027 39.744L45.4147 39.59V39.338C45.4147 38.4 44.7287 37.854 43.7067 37.854C42.7267 37.854 42.0827 38.358 41.9427 39.338H40.7387C40.9347 37.994 41.9707 36.832 43.7067 36.832C45.4007 36.832 46.6187 37.826 46.6187 39.464V44H45.4147V42.824C45.1347 43.496 44.1827 44.112 43.1607 44.112ZM41.8867 42.054C41.8867 42.698 42.4187 43.09 43.2727 43.09C44.5327 43.09 45.4147 42.096 45.4147 40.85V40.514L43.9727 40.682C42.5027 40.85 41.8867 41.2 41.8867 42.054ZM51.3549 46.66C49.8289 46.66 48.5549 45.82 48.3309 44.476H49.5349C49.7309 45.19 50.4449 45.638 51.3969 45.638C52.6849 45.638 53.6509 44.952 53.6509 43.692V42.572C53.2309 43.258 52.3209 43.706 51.2989 43.706C49.3249 43.706 47.9949 42.32 47.9949 40.276C47.9949 38.204 49.3109 36.832 51.2989 36.832C52.3069 36.832 53.2309 37.252 53.6509 37.924V36.944H54.8689V43.58C54.8689 45.512 53.3709 46.66 51.3549 46.66ZM49.1709 40.276C49.1709 41.704 50.0949 42.712 51.4109 42.712C52.7129 42.712 53.6509 41.704 53.6509 40.262C53.6509 38.792 52.7129 37.826 51.4109 37.826C50.0949 37.826 49.1709 38.806 49.1709 40.276ZM59.8351 44.112C57.7491 44.112 56.2931 42.6 56.2931 40.472C56.2931 38.344 57.7491 36.832 59.7511 36.832C61.9071 36.832 63.2511 38.512 62.9851 40.626H57.5111C57.5671 42.124 58.4631 43.076 59.7931 43.076C60.8151 43.076 61.4871 42.558 61.7111 41.746H62.9151C62.6631 43.118 61.4591 44.112 59.8351 44.112ZM57.5811 39.674H61.7671C61.7671 38.554 60.9411 37.854 59.7511 37.854C58.6031 37.854 57.8191 38.498 57.5811 39.674ZM67.7089 44V34.2H70.7329C73.4209 34.2 75.5909 36.006 75.5909 39.1C75.5909 42.18 73.4209 44 70.7329 44H67.7089ZM68.9969 42.894H70.6069C72.6929 42.894 74.3029 41.508 74.3029 39.1C74.3029 36.692 72.6929 35.306 70.6069 35.306H68.9969V42.894ZM80.1788 44.112C78.0928 44.112 76.6368 42.6 76.6368 40.472C76.6368 38.344 78.0928 36.832 80.0948 36.832C82.2508 36.832 83.5948 38.512 83.3288 40.626H77.8548C77.9108 42.124 78.8068 43.076 80.1368 43.076C81.1588 43.076 81.8308 42.558 82.0548 41.746H83.2588C83.0068 43.118 81.8028 44.112 80.1788 44.112ZM77.9248 39.674H82.1108C82.1108 38.554 81.2848 37.854 80.0948 37.854C78.9468 37.854 78.1628 38.498 77.9248 39.674ZM85.1891 36.132C85.1891 34.648 86.0711 33.892 87.2891 33.892C87.6111 33.892 87.9611 33.948 88.1851 34.046V35.11C87.9611 34.998 87.6811 34.942 87.4291 34.942C86.7991 34.942 86.3931 35.362 86.3931 36.188V36.944H88.1851V37.938H86.3931V44H85.1891V37.938H83.9991V36.944H85.1891V36.132ZM91.19 44.112C89.664 44.112 88.698 43.328 88.698 42.096C88.698 40.682 89.692 39.968 91.932 39.744L93.444 39.59V39.338C93.444 38.4 92.758 37.854 91.736 37.854C90.756 37.854 90.112 38.358 89.972 39.338H88.768C88.964 37.994 90 36.832 91.736 36.832C93.43 36.832 94.648 37.826 94.648 39.464V44H93.444V42.824C93.164 43.496 92.212 44.112 91.19 44.112ZM89.916 42.054C89.916 42.698 90.448 43.09 91.302 43.09C92.562 43.09 93.444 42.096 93.444 40.85V40.514L92.002 40.682C90.532 40.85 89.916 41.2 89.916 42.054ZM98.9642 44.112C97.4802 44.112 96.3602 43.188 96.3602 41.438V36.944H97.5502V41.298C97.5502 42.432 98.1942 43.062 99.1882 43.062C100.588 43.062 101.456 41.858 101.456 39.968V36.944H102.66V44H101.456V42.726C101.008 43.538 100.126 44.112 98.9642 44.112ZM104.551 44V34.088H105.755V44H104.551ZM110.119 44.112C108.915 44.112 108.033 43.356 108.033 41.914V37.938H106.829V36.944H108.033V35.152H109.223V36.944H111.015V37.938H109.223V41.816C109.223 42.642 109.643 43.048 110.259 43.048C110.525 43.048 110.819 42.992 111.057 42.908V43.93C110.791 44.056 110.441 44.112 110.119 44.112Z" fill="#595959"/>
<path d="M76.242 82.112C74.17 82.112 72.644 80.95 72.476 78.752H73.722C73.862 80.264 74.898 81.006 76.242 81.006C77.488 81.006 78.37 80.362 78.37 79.396C78.37 76.764 72.77 78.164 72.77 74.678C72.77 73.11 74.128 72.088 75.99 72.088C77.992 72.088 79.252 73.138 79.49 74.888H78.23C78.034 73.81 77.194 73.194 75.99 73.194C74.8 73.194 74.058 73.754 74.058 74.636C74.058 76.904 79.658 75.532 79.658 79.326C79.658 81.006 78.23 82.112 76.242 82.112ZM83.6615 82.112C82.1775 82.112 81.0575 81.188 81.0575 79.438V74.944H82.2475V79.298C82.2475 80.432 82.8915 81.062 83.8855 81.062C85.2855 81.062 86.1535 79.858 86.1535 77.968V74.944H87.3575V82H86.1535V80.726C85.7055 81.538 84.8235 82.112 83.6615 82.112ZM89.2625 82V74.944H90.4525V76.19C90.8445 75.378 91.7265 74.832 92.6645 74.832C92.9445 74.832 93.2385 74.874 93.4625 74.986V76.134C93.1265 75.994 92.8045 75.952 92.5245 75.952C91.3485 75.952 90.4525 77.1 90.4525 79.172V82H89.2625ZM95.0152 74.132C95.0152 72.648 95.8972 71.892 97.1152 71.892C97.4372 71.892 97.7872 71.948 98.0112 72.046V73.11C97.7872 72.998 97.5072 72.942 97.2552 72.942C96.6252 72.942 96.2192 73.362 96.2192 74.188V74.944H98.0112V75.938H96.2192V82H95.0152V75.938H93.8252V74.944H95.0152V74.132ZM101.016 82.112C99.4902 82.112 98.5242 81.328 98.5242 80.096C98.5242 78.682 99.5182 77.968 101.758 77.744L103.27 77.59V77.338C103.27 76.4 102.584 75.854 101.562 75.854C100.582 75.854 99.9382 76.358 99.7982 77.338H98.5942C98.7902 75.994 99.8262 74.832 101.562 74.832C103.256 74.832 104.474 75.826 104.474 77.464V82H103.27V80.824C102.99 81.496 102.038 82.112 101.016 82.112ZM99.7422 80.054C99.7422 80.698 100.274 81.09 101.128 81.09C102.388 81.09 103.27 80.096 103.27 78.85V78.514L101.828 78.682C100.358 78.85 99.7422 79.2 99.7422 80.054ZM109.308 82.112C107.292 82.112 105.822 80.558 105.822 78.472C105.822 76.372 107.292 74.832 109.308 74.832C111.072 74.832 112.248 75.84 112.472 77.296H111.268C111.072 76.428 110.316 75.882 109.308 75.882C108.02 75.882 107.04 76.946 107.04 78.472C107.04 79.984 108.02 81.062 109.308 81.062C110.4 81.062 111.184 80.446 111.324 79.55H112.528C112.332 80.978 111.072 82.112 109.308 82.112ZM116.98 82.112C114.894 82.112 113.438 80.6 113.438 78.472C113.438 76.344 114.894 74.832 116.896 74.832C119.052 74.832 120.396 76.512 120.13 78.626H114.656C114.712 80.124 115.608 81.076 116.938 81.076C117.96 81.076 118.632 80.558 118.856 79.746H120.06C119.808 81.118 118.604 82.112 116.98 82.112ZM114.726 77.674H118.912C118.912 76.554 118.086 75.854 116.896 75.854C115.748 75.854 114.964 76.498 114.726 77.674ZM121.47 78.472V77.464H125.572V78.472H121.47ZM128.309 73.698C127.833 74.258 126.923 74.678 125.915 74.916V73.796C126.853 73.614 127.805 73.04 128.505 72.2H129.597V82H128.309V73.698Z" fill="#595959"/>
<path d="M116.242 124.112C114.17 124.112 112.644 122.95 112.476 120.752H113.722C113.862 122.264 114.898 123.006 116.242 123.006C117.488 123.006 118.37 122.362 118.37 121.396C118.37 118.764 112.77 120.164 112.77 116.678C112.77 115.11 114.128 114.088 115.99 114.088C117.992 114.088 119.252 115.138 119.49 116.888H118.23C118.034 115.81 117.194 115.194 115.99 115.194C114.8 115.194 114.058 115.754 114.058 116.636C114.058 118.904 119.658 117.532 119.658 121.326C119.658 123.006 118.23 124.112 116.242 124.112ZM123.661 124.112C122.177 124.112 121.057 123.188 121.057 121.438V116.944H122.247V121.298C122.247 122.432 122.891 123.062 123.885 123.062C125.285 123.062 126.153 121.858 126.153 119.968V116.944H127.357V124H126.153V122.726C125.705 123.538 124.823 124.112 123.661 124.112ZM129.263 124V116.944H130.453V118.19C130.845 117.378 131.727 116.832 132.665 116.832C132.945 116.832 133.239 116.874 133.463 116.986V118.134C133.127 117.994 132.805 117.952 132.525 117.952C131.349 117.952 130.453 119.1 130.453 121.172V124H129.263ZM135.015 116.132C135.015 114.648 135.897 113.892 137.115 113.892C137.437 113.892 137.787 113.948 138.011 114.046V115.11C137.787 114.998 137.507 114.942 137.255 114.942C136.625 114.942 136.219 115.362 136.219 116.188V116.944H138.011V117.938H136.219V124H135.015V117.938H133.825V116.944H135.015V116.132ZM141.016 124.112C139.49 124.112 138.524 123.328 138.524 122.096C138.524 120.682 139.518 119.968 141.758 119.744L143.27 119.59V119.338C143.27 118.4 142.584 117.854 141.562 117.854C140.582 117.854 139.938 118.358 139.798 119.338H138.594C138.79 117.994 139.826 116.832 141.562 116.832C143.256 116.832 144.474 117.826 144.474 119.464V124H143.27V122.824C142.99 123.496 142.038 124.112 141.016 124.112ZM139.742 122.054C139.742 122.698 140.274 123.09 141.128 123.09C142.388 123.09 143.27 122.096 143.27 120.85V120.514L141.828 120.682C140.358 120.85 139.742 121.2 139.742 122.054ZM149.308 124.112C147.292 124.112 145.822 122.558 145.822 120.472C145.822 118.372 147.292 116.832 149.308 116.832C151.072 116.832 152.248 117.84 152.472 119.296H151.268C151.072 118.428 150.316 117.882 149.308 117.882C148.02 117.882 147.04 118.946 147.04 120.472C147.04 121.984 148.02 123.062 149.308 123.062C150.4 123.062 151.184 122.446 151.324 121.55H152.528C152.332 122.978 151.072 124.112 149.308 124.112ZM156.98 124.112C154.894 124.112 153.438 122.6 153.438 120.472C153.438 118.344 154.894 116.832 156.896 116.832C159.052 116.832 160.396 118.512 160.13 120.626H154.656C154.712 122.124 155.608 123.076 156.938 123.076C157.96 123.076 158.632 122.558 158.856 121.746H160.06C159.808 123.118 158.604 124.112 156.98 124.112ZM154.726 119.674H158.912C158.912 118.554 158.086 117.854 156.896 117.854C155.748 117.854 154.964 118.498 154.726 119.674ZM161.47 120.472V119.464H165.572V120.472H161.47ZM166.691 124V122.978L170.415 119.618C171.507 118.638 172.067 117.882 172.067 117.028C172.067 115.922 171.241 115.194 170.107 115.194C168.749 115.194 167.937 116.132 168.049 117.616H166.775C166.663 115.544 168.049 114.088 170.107 114.088C171.997 114.088 173.355 115.278 173.355 117.028C173.355 118.246 172.613 119.296 171.143 120.486L168.483 122.894H173.383V124H166.691Z" fill="#595959"/>
</g>
<path d="M25.078 364V354.2H26.366V362.894H31.308V364H25.078ZM32.3482 364V356.944H33.5522V364H32.3482ZM32.1242 354.774C32.1242 354.312 32.4742 353.976 32.9362 353.976C33.4122 353.976 33.7622 354.312 33.7622 354.774C33.7622 355.236 33.4122 355.572 32.9362 355.572C32.4742 355.572 32.1242 355.236 32.1242 354.774ZM38.3783 366.66C36.8523 366.66 35.5783 365.82 35.3543 364.476H36.5583C36.7543 365.19 37.4683 365.638 38.4203 365.638C39.7083 365.638 40.6743 364.952 40.6743 363.692V362.572C40.2543 363.258 39.3443 363.706 38.3223 363.706C36.3483 363.706 35.0183 362.32 35.0183 360.276C35.0183 358.204 36.3343 356.832 38.3223 356.832C39.3303 356.832 40.2543 357.252 40.6743 357.924V356.944H41.8923V363.58C41.8923 365.512 40.3943 366.66 38.3783 366.66ZM36.1943 360.276C36.1943 361.704 37.1183 362.712 38.4343 362.712C39.7363 362.712 40.6743 361.704 40.6743 360.262C40.6743 358.792 39.7363 357.826 38.4343 357.826C37.1183 357.826 36.1943 358.806 36.1943 360.276ZM43.7645 364V354.088H44.9545V358.162C45.3885 357.434 46.2845 356.832 47.4605 356.832C48.9445 356.832 50.0785 357.756 50.0785 359.38V364H48.8745V359.646C48.8745 358.512 48.2305 357.882 47.2225 357.882C45.8365 357.882 44.9545 359.086 44.9545 360.976V364H43.7645ZM54.2952 364.112C53.0912 364.112 52.2092 363.356 52.2092 361.914V357.938H51.0052V356.944H52.2092V355.152H53.3992V356.944H55.1912V357.938H53.3992V361.816C53.3992 362.642 53.8192 363.048 54.4352 363.048C54.7012 363.048 54.9952 362.992 55.2332 362.908V363.93C54.9672 364.056 54.6172 364.112 54.2952 364.112ZM59.6542 364V354.2H61.5022L64.0642 360.304C64.6522 361.718 64.8482 362.628 64.8482 362.628C64.8482 362.628 65.0582 361.732 65.6182 360.388L68.2222 354.2H70.0142V364H68.7262V358.078C68.7262 356.538 68.8242 355.6 68.8242 355.6C68.8242 355.6 68.5302 356.496 67.9702 357.84L65.3942 364H64.2882L61.7402 357.924C61.1382 356.51 60.8582 355.6 60.8582 355.6C60.8582 355.6 60.9422 356.552 60.9422 358.008V364H59.6542ZM75.0506 364.112C72.9786 364.112 71.4806 362.6 71.4806 360.472C71.4806 358.344 72.9786 356.832 75.0506 356.832C77.1226 356.832 78.6206 358.344 78.6206 360.472C78.6206 362.6 77.1086 364.112 75.0506 364.112ZM72.6986 360.472C72.6986 361.998 73.6786 363.062 75.0506 363.062C76.4226 363.062 77.4026 361.998 77.4026 360.472C77.4026 358.932 76.4226 357.868 75.0506 357.868C73.6786 357.868 72.6986 358.932 72.6986 360.472ZM83.143 364.112C81.029 364.112 79.629 362.656 79.629 360.472C79.629 358.288 81.029 356.832 83.143 356.832C84.193 356.832 85.159 357.322 85.579 358.092V354.088H86.783V364H85.579V362.838C85.159 363.608 84.179 364.112 83.143 364.112ZM80.847 360.472C80.847 362.012 81.855 363.076 83.213 363.076C84.599 363.076 85.579 361.998 85.579 360.472C85.579 358.932 84.599 357.868 83.213 357.868C81.855 357.868 80.847 358.932 80.847 360.472ZM91.7843 364.112C89.6983 364.112 88.2423 362.6 88.2423 360.472C88.2423 358.344 89.6983 356.832 91.7003 356.832C93.8563 356.832 95.2003 358.512 94.9343 360.626H89.4603C89.5163 362.124 90.4123 363.076 91.7423 363.076C92.7643 363.076 93.4363 362.558 93.6603 361.746H94.8643C94.6123 363.118 93.4083 364.112 91.7843 364.112ZM89.5303 359.674H93.7163C93.7163 358.554 92.8903 357.854 91.7003 357.854C90.5523 357.854 89.7683 358.498 89.5303 359.674Z" fill="#595959"/>
<g clip-path="url(#clip1_1_11)">
<rect width="320" height="320" transform="translate(392 24)" fill="white"/>
<rect x="392" y="24" width="320" height="320" fill="#161616"/>
<rect x="432" y="64" width="240" height="240" fill="#242424"/>
<rect x="472" y="104" width="160" height="160" fill="#161616"/>
<path d="M401.078 44V34.2H404.886C406.748 34.2 407.98 35.32 407.98 37.028C407.98 38.736 406.748 39.856 404.886 39.856H402.352V44H401.078ZM402.352 38.75H404.76C405.936 38.75 406.706 38.064 406.706 37.028C406.706 35.992 405.936 35.306 404.76 35.306H402.352V38.75ZM411.161 44.112C409.635 44.112 408.669 43.328 408.669 42.096C408.669 40.682 409.663 39.968 411.903 39.744L413.415 39.59V39.338C413.415 38.4 412.729 37.854 411.707 37.854C410.727 37.854 410.083 38.358 409.943 39.338H408.739C408.935 37.994 409.971 36.832 411.707 36.832C413.401 36.832 414.619 37.826 414.619 39.464V44H413.415V42.824C413.135 43.496 412.183 44.112 411.161 44.112ZM409.887 42.054C409.887 42.698 410.419 43.09 411.273 43.09C412.533 43.09 413.415 42.096 413.415 40.85V40.514L411.973 40.682C410.503 40.85 409.887 41.2 409.887 42.054ZM419.355 46.66C417.829 46.66 416.555 45.82 416.331 44.476H417.535C417.731 45.19 418.445 45.638 419.397 45.638C420.685 45.638 421.651 44.952 421.651 43.692V42.572C421.231 43.258 420.321 43.706 419.299 43.706C417.325 43.706 415.995 42.32 415.995 40.276C415.995 38.204 417.311 36.832 419.299 36.832C420.307 36.832 421.231 37.252 421.651 37.924V36.944H422.869V43.58C422.869 45.512 421.371 46.66 419.355 46.66ZM417.171 40.276C417.171 41.704 418.095 42.712 419.411 42.712C420.713 42.712 421.651 41.704 421.651 40.262C421.651 38.792 420.713 37.826 419.411 37.826C418.095 37.826 417.171 38.806 417.171 40.276ZM427.835 44.112C425.749 44.112 424.293 42.6 424.293 40.472C424.293 38.344 425.749 36.832 427.751 36.832C429.907 36.832 431.251 38.512 430.985 40.626H425.511C425.567 42.124 426.463 43.076 427.793 43.076C428.815 43.076 429.487 42.558 429.711 41.746H430.915C430.663 43.118 429.459 44.112 427.835 44.112ZM425.581 39.674H429.767C429.767 38.554 428.941 37.854 427.751 37.854C426.603 37.854 425.819 38.498 425.581 39.674ZM435.709 44V34.2H438.733C441.421 34.2 443.591 36.006 443.591 39.1C443.591 42.18 441.421 44 438.733 44H435.709ZM436.997 42.894H438.607C440.693 42.894 442.303 41.508 442.303 39.1C442.303 36.692 440.693 35.306 438.607 35.306H436.997V42.894ZM448.179 44.112C446.093 44.112 444.637 42.6 444.637 40.472C444.637 38.344 446.093 36.832 448.095 36.832C450.251 36.832 451.595 38.512 451.329 40.626H445.855C445.911 42.124 446.807 43.076 448.137 43.076C449.159 43.076 449.831 42.558 450.055 41.746H451.259C451.007 43.118 449.803 44.112 448.179 44.112ZM445.925 39.674H450.111C450.111 38.554 449.285 37.854 448.095 37.854C446.947 37.854 446.163 38.498 445.925 39.674ZM453.189 36.132C453.189 34.648 454.071 33.892 455.289 33.892C455.611 33.892 455.961 33.948 456.185 34.046V35.11C455.961 34.998 455.681 34.942 455.429 34.942C454.799 34.942 454.393 35.362 454.393 36.188V36.944H456.185V37.938H454.393V44H453.189V37.938H451.999V36.944H453.189V36.132ZM459.19 44.112C457.664 44.112 456.698 43.328 456.698 42.096C456.698 40.682 457.692 39.968 459.932 39.744L461.444 39.59V39.338C461.444 38.4 460.758 37.854 459.736 37.854C458.756 37.854 458.112 38.358 457.972 39.338H456.768C456.964 37.994 458 36.832 459.736 36.832C461.43 36.832 462.648 37.826 462.648 39.464V44H461.444V42.824C461.164 43.496 460.212 44.112 459.19 44.112ZM457.916 42.054C457.916 42.698 458.448 43.09 459.302 43.09C460.562 43.09 461.444 42.096 461.444 40.85V40.514L460.002 40.682C458.532 40.85 457.916 41.2 457.916 42.054ZM466.964 44.112C465.48 44.112 464.36 43.188 464.36 41.438V36.944H465.55V41.298C465.55 42.432 466.194 43.062 467.188 43.062C468.588 43.062 469.456 41.858 469.456 39.968V36.944H470.66V44H469.456V42.726C469.008 43.538 468.126 44.112 466.964 44.112ZM472.551 44V34.088H473.755V44H472.551ZM478.119 44.112C476.915 44.112 476.033 43.356 476.033 41.914V37.938H474.829V36.944H476.033V35.152H477.223V36.944H479.015V37.938H477.223V41.816C477.223 42.642 477.643 43.048 478.259 43.048C478.525 43.048 478.819 42.992 479.057 42.908V43.93C478.791 44.056 478.441 44.112 478.119 44.112Z" fill="#DEDEDE"/>
<path d="M444.242 82.112C442.17 82.112 440.644 80.95 440.476 78.752H441.722C441.862 80.264 442.898 81.006 444.242 81.006C445.488 81.006 446.37 80.362 446.37 79.396C446.37 76.764 440.77 78.164 440.77 74.678C440.77 73.11 442.128 72.088 443.99 72.088C445.992 72.088 447.252 73.138 447.49 74.888H446.23C446.034 73.81 445.194 73.194 443.99 73.194C442.8 73.194 442.058 73.754 442.058 74.636C442.058 76.904 447.658 75.532 447.658 79.326C447.658 81.006 446.23 82.112 444.242 82.112ZM451.661 82.112C450.177 82.112 449.057 81.188 449.057 79.438V74.944H450.247V79.298C450.247 80.432 450.891 81.062 451.885 81.062C453.285 81.062 454.153 79.858 454.153 77.968V74.944H455.357V82H454.153V80.726C453.705 81.538 452.823 82.112 451.661 82.112ZM457.263 82V74.944H458.453V76.19C458.845 75.378 459.727 74.832 460.665 74.832C460.945 74.832 461.239 74.874 461.463 74.986V76.134C461.127 75.994 460.805 75.952 460.525 75.952C459.349 75.952 458.453 77.1 458.453 79.172V82H457.263ZM463.015 74.132C463.015 72.648 463.897 71.892 465.115 71.892C465.437 71.892 465.787 71.948 466.011 72.046V73.11C465.787 72.998 465.507 72.942 465.255 72.942C464.625 72.942 464.219 73.362 464.219 74.188V74.944H466.011V75.938H464.219V82H463.015V75.938H461.825V74.944H463.015V74.132ZM469.016 82.112C467.49 82.112 466.524 81.328 466.524 80.096C466.524 78.682 467.518 77.968 469.758 77.744L471.27 77.59V77.338C471.27 76.4 470.584 75.854 469.562 75.854C468.582 75.854 467.938 76.358 467.798 77.338H466.594C466.79 75.994 467.826 74.832 469.562 74.832C471.256 74.832 472.474 75.826 472.474 77.464V82H471.27V80.824C470.99 81.496 470.038 82.112 469.016 82.112ZM467.742 80.054C467.742 80.698 468.274 81.09 469.128 81.09C470.388 81.09 471.27 80.096 471.27 78.85V78.514L469.828 78.682C468.358 78.85 467.742 79.2 467.742 80.054ZM477.308 82.112C475.292 82.112 473.822 80.558 473.822 78.472C473.822 76.372 475.292 74.832 477.308 74.832C479.072 74.832 480.248 75.84 480.472 77.296H479.268C479.072 76.428 478.316 75.882 477.308 75.882C476.02 75.882 475.04 76.946 475.04 78.472C475.04 79.984 476.02 81.062 477.308 81.062C478.4 81.062 479.184 80.446 479.324 79.55H480.528C480.332 80.978 479.072 82.112 477.308 82.112ZM484.98 82.112C482.894 82.112 481.438 80.6 481.438 78.472C481.438 76.344 482.894 74.832 484.896 74.832C487.052 74.832 488.396 76.512 488.13 78.626H482.656C482.712 80.124 483.608 81.076 484.938 81.076C485.96 81.076 486.632 80.558 486.856 79.746H488.06C487.808 81.118 486.604 82.112 484.98 82.112ZM482.726 77.674H486.912C486.912 76.554 486.086 75.854 484.896 75.854C483.748 75.854 482.964 76.498 482.726 77.674ZM489.47 78.472V77.464H493.572V78.472H489.47ZM496.309 73.698C495.833 74.258 494.923 74.678 493.915 74.916V73.796C494.853 73.614 495.805 73.04 496.505 72.2H497.597V82H496.309V73.698Z" fill="#DEDEDE"/>
<path d="M484.242 124.112C482.17 124.112 480.644 122.95 480.476 120.752H481.722C481.862 122.264 482.898 123.006 484.242 123.006C485.488 123.006 486.37 122.362 486.37 121.396C486.37 118.764 480.77 120.164 480.77 116.678C480.77 115.11 482.128 114.088 483.99 114.088C485.992 114.088 487.252 115.138 487.49 116.888H486.23C486.034 115.81 485.194 115.194 483.99 115.194C482.8 115.194 482.058 115.754 482.058 116.636C482.058 118.904 487.658 117.532 487.658 121.326C487.658 123.006 486.23 124.112 484.242 124.112ZM491.661 124.112C490.177 124.112 489.057 123.188 489.057 121.438V116.944H490.247V121.298C490.247 122.432 490.891 123.062 491.885 123.062C493.285 123.062 494.153 121.858 494.153 119.968V116.944H495.357V124H494.153V122.726C493.705 123.538 492.823 124.112 491.661 124.112ZM497.263 124V116.944H498.453V118.19C498.845 117.378 499.727 116.832 500.665 116.832C500.945 116.832 501.239 116.874 501.463 116.986V118.134C501.127 117.994 500.805 117.952 500.525 117.952C499.349 117.952 498.453 119.1 498.453 121.172V124H497.263ZM503.015 116.132C503.015 114.648 503.897 113.892 505.115 113.892C505.437 113.892 505.787 113.948 506.011 114.046V115.11C505.787 114.998 505.507 114.942 505.255 114.942C504.625 114.942 504.219 115.362 504.219 116.188V116.944H506.011V117.938H504.219V124H503.015V117.938H501.825V116.944H503.015V116.132ZM509.016 124.112C507.49 124.112 506.524 123.328 506.524 122.096C506.524 120.682 507.518 119.968 509.758 119.744L511.27 119.59V119.338C511.27 118.4 510.584 117.854 509.562 117.854C508.582 117.854 507.938 118.358 507.798 119.338H506.594C506.79 117.994 507.826 116.832 509.562 116.832C511.256 116.832 512.474 117.826 512.474 119.464V124H511.27V122.824C510.99 123.496 510.038 124.112 509.016 124.112ZM507.742 122.054C507.742 122.698 508.274 123.09 509.128 123.09C510.388 123.09 511.27 122.096 511.27 120.85V120.514L509.828 120.682C508.358 120.85 507.742 121.2 507.742 122.054ZM517.308 124.112C515.292 124.112 513.822 122.558 513.822 120.472C513.822 118.372 515.292 116.832 517.308 116.832C519.072 116.832 520.248 117.84 520.472 119.296H519.268C519.072 118.428 518.316 117.882 517.308 117.882C516.02 117.882 515.04 118.946 515.04 120.472C515.04 121.984 516.02 123.062 517.308 123.062C518.4 123.062 519.184 122.446 519.324 121.55H520.528C520.332 122.978 519.072 124.112 517.308 124.112ZM524.98 124.112C522.894 124.112 521.438 122.6 521.438 120.472C521.438 118.344 522.894 116.832 524.896 116.832C527.052 116.832 528.396 118.512 528.13 120.626H522.656C522.712 122.124 523.608 123.076 524.938 123.076C525.96 123.076 526.632 122.558 526.856 121.746H528.06C527.808 123.118 526.604 124.112 524.98 124.112ZM522.726 119.674H526.912C526.912 118.554 526.086 117.854 524.896 117.854C523.748 117.854 522.964 118.498 522.726 119.674ZM529.47 120.472V119.464H533.572V120.472H529.47ZM534.691 124V122.978L538.415 119.618C539.507 118.638 540.067 117.882 540.067 117.028C540.067 115.922 539.241 115.194 538.107 115.194C536.749 115.194 535.937 116.132 536.049 117.616H534.775C534.663 115.544 536.049 114.088 538.107 114.088C539.997 114.088 541.355 115.278 541.355 117.028C541.355 118.246 540.613 119.296 539.143 120.486L536.483 122.894H541.383V124H534.691Z" fill="#DEDEDE"/>
</g>
<path d="M393.078 364V354.2H396.102C398.79 354.2 400.96 356.006 400.96 359.1C400.96 362.18 398.79 364 396.102 364H393.078ZM394.366 362.894H395.976C398.062 362.894 399.672 361.508 399.672 359.1C399.672 356.692 398.062 355.306 395.976 355.306H394.366V362.894ZM404.61 364.112C403.084 364.112 402.118 363.328 402.118 362.096C402.118 360.682 403.112 359.968 405.352 359.744L406.864 359.59V359.338C406.864 358.4 406.178 357.854 405.156 357.854C404.176 357.854 403.532 358.358 403.392 359.338H402.188C402.384 357.994 403.42 356.832 405.156 356.832C406.85 356.832 408.068 357.826 408.068 359.464V364H406.864V362.824C406.584 363.496 405.632 364.112 404.61 364.112ZM403.336 362.054C403.336 362.698 403.868 363.09 404.722 363.09C405.982 363.09 406.864 362.096 406.864 360.85V360.514L405.422 360.682C403.952 360.85 403.336 361.2 403.336 362.054ZM409.864 364V356.944H411.054V358.19C411.446 357.378 412.328 356.832 413.266 356.832C413.546 356.832 413.84 356.874 414.064 356.986V358.134C413.728 357.994 413.406 357.952 413.126 357.952C411.95 357.952 411.054 359.1 411.054 361.172V364H409.864ZM420.014 364L417.34 360.458L416.304 361.41V364H415.1V354.088H416.304V359.856L419.594 356.944H421.204L418.236 359.646L421.456 364H420.014ZM425.371 364V354.2H427.219L429.781 360.304C430.369 361.718 430.565 362.628 430.565 362.628C430.565 362.628 430.775 361.732 431.335 360.388L433.939 354.2H435.731V364H434.443V358.078C434.443 356.538 434.541 355.6 434.541 355.6C434.541 355.6 434.247 356.496 433.687 357.84L431.111 364H430.005L427.457 357.924C426.855 356.51 426.575 355.6 426.575 355.6C426.575 355.6 426.659 356.552 426.659 358.008V364H425.371ZM440.767 364.112C438.695 364.112 437.197 362.6 437.197 360.472C437.197 358.344 438.695 356.832 440.767 356.832C442.839 356.832 444.337 358.344 444.337 360.472C444.337 362.6 442.825 364.112 440.767 364.112ZM438.415 360.472C438.415 361.998 439.395 363.062 440.767 363.062C442.139 363.062 443.119 361.998 443.119 360.472C443.119 358.932 442.139 357.868 440.767 357.868C439.395 357.868 438.415 358.932 438.415 360.472ZM448.86 364.112C446.746 364.112 445.346 362.656 445.346 360.472C445.346 358.288 446.746 356.832 448.86 356.832C449.91 356.832 450.876 357.322 451.296 358.092V354.088H452.5V364H451.296V362.838C450.876 363.608 449.896 364.112 448.86 364.112ZM446.564 360.472C446.564 362.012 447.572 363.076 448.93 363.076C450.316 363.076 451.296 361.998 451.296 360.472C451.296 358.932 450.316 357.868 448.93 357.868C447.572 357.868 446.564 358.932 446.564 360.472ZM457.501 364.112C455.415 364.112 453.959 362.6 453.959 360.472C453.959 358.344 455.415 356.832 457.417 356.832C459.573 356.832 460.917 358.512 460.651 360.626H455.177C455.233 362.124 456.129 363.076 457.459 363.076C458.481 363.076 459.153 362.558 459.377 361.746H460.581C460.329 363.118 459.125 364.112 457.501 364.112ZM455.247 359.674H459.433C459.433 358.554 458.607 357.854 457.417 357.854C456.269 357.854 455.485 358.498 455.247 359.674Z" fill="#595959"/>
<defs>
<clipPath id="clip0_1_11">
<rect width="320" height="320" fill="white" transform="translate(24 24)"/>
</clipPath>
<clipPath id="clip1_1_11">
<rect width="320" height="320" fill="white" transform="translate(392 24)"/>
</clipPath>
</defs>
</svg>
