<svg width="504" height="252" viewBox="0 0 504 252" fill="none" xmlns="http://www.w3.org/2000/svg">
<path d="M0 12C0 5.37258 5.37258 0 12 0H492C498.627 0 504 5.37258 504 12V240C504 246.627 498.627 252 492 252H12C5.3726 252 0 246.627 0 240V12Z" fill="white"/>
<path d="M24 32C24 27.5817 27.5817 24 32 24H112C116.418 24 120 27.5817 120 32V112C120 116.418 116.418 120 112 120H32C27.5817 120 24 116.418 24 112V32Z" fill="#004FCF"/>
<path d="M32.938 44V36.944H34.142V44H32.938ZM32.714 34.774C32.714 34.312 33.064 33.976 33.526 33.976C34.002 33.976 34.352 34.312 34.352 34.774C34.352 35.236 34.002 35.572 33.526 35.572C33.064 35.572 32.714 35.236 32.714 34.774ZM36.0282 44V36.944H37.2182V38.162C37.6522 37.434 38.5482 36.832 39.7242 36.832C41.2082 36.832 42.3422 37.756 42.3422 39.38V44H41.1382V39.646C41.1382 38.512 40.4942 37.882 39.4862 37.882C38.1002 37.882 37.2182 39.086 37.2182 40.976V44H36.0282ZM44.5289 36.132C44.5289 34.648 45.4109 33.892 46.6289 33.892C46.9509 33.892 47.3009 33.948 47.5249 34.046V35.11C47.3009 34.998 47.0209 34.942 46.7689 34.942C46.1389 34.942 45.7329 35.362 45.7329 36.188V36.944H47.5249V37.938H45.7329V44H44.5289V37.938H43.3389V36.944H44.5289V36.132ZM51.4275 44.112C49.3555 44.112 47.8575 42.6 47.8575 40.472C47.8575 38.344 49.3555 36.832 51.4275 36.832C53.4995 36.832 54.9975 38.344 54.9975 40.472C54.9975 42.6 53.4855 44.112 51.4275 44.112ZM49.0755 40.472C49.0755 41.998 50.0555 43.062 51.4275 43.062C52.7995 43.062 53.7795 41.998 53.7795 40.472C53.7795 38.932 52.7995 37.868 51.4275 37.868C50.0555 37.868 49.0755 38.932 49.0755 40.472ZM32.798 62.472V61.464H36.9V62.472H32.798ZM40.9492 66.112C39.1292 66.112 38.2192 64.908 38.1492 63.69H39.3532C39.4512 64.586 40.0392 65.09 40.9492 65.09C41.8172 65.09 42.3632 64.712 42.3632 63.984C42.3632 62.248 38.3312 63.34 38.3312 60.736C38.3312 59.658 39.3112 58.832 40.7252 58.832C42.2652 58.832 43.2452 59.588 43.4412 60.946H42.2372C42.1392 60.232 41.5232 59.854 40.7252 59.854C40.0392 59.854 39.5072 60.134 39.5072 60.694C39.5072 62.29 43.5672 61.114 43.5672 63.956C43.5672 65.23 42.4752 66.112 40.9492 66.112ZM47.3792 66.112C46.1752 66.112 45.2932 65.356 45.2932 63.914V59.938H44.0892V58.944H45.2932V57.152H46.4832V58.944H48.2752V59.938H46.4832V63.816C46.4832 64.642 46.9032 65.048 47.5192 65.048C47.7852 65.048 48.0792 64.992 48.3172 64.908V65.93C48.0512 66.056 47.7012 66.112 47.3792 66.112ZM49.5086 66V58.944H50.6986V60.19C51.0906 59.378 51.9726 58.832 52.9106 58.832C53.1906 58.832 53.4846 58.874 53.7086 58.986V60.134C53.3726 59.994 53.0506 59.952 52.7706 59.952C51.5946 59.952 50.6986 61.1 50.6986 63.172V66H49.5086ZM57.6072 66.112C55.5352 66.112 54.0372 64.6 54.0372 62.472C54.0372 60.344 55.5352 58.832 57.6072 58.832C59.6792 58.832 61.1772 60.344 61.1772 62.472C61.1772 64.6 59.6652 66.112 57.6072 66.112ZM55.2552 62.472C55.2552 63.998 56.2352 65.062 57.6072 65.062C58.9792 65.062 59.9592 63.998 59.9592 62.472C59.9592 60.932 58.9792 59.868 57.6072 59.868C56.2352 59.868 55.2552 60.932 55.2552 62.472ZM62.6336 66V58.944H63.8236V60.162C64.2576 59.434 65.1536 58.832 66.3296 58.832C67.8136 58.832 68.9476 59.756 68.9476 61.38V66H67.7436V61.646C67.7436 60.512 67.0996 59.882 66.0916 59.882C64.7056 59.882 63.8236 61.086 63.8236 62.976V66H62.6336ZM73.7084 68.66C72.1824 68.66 70.9084 67.82 70.6844 66.476H71.8884C72.0844 67.19 72.7984 67.638 73.7504 67.638C75.0384 67.638 76.0044 66.952 76.0044 65.692V64.572C75.5844 65.258 74.6744 65.706 73.6524 65.706C71.6784 65.706 70.3484 64.32 70.3484 62.276C70.3484 60.204 71.6644 58.832 73.6524 58.832C74.6604 58.832 75.5844 59.252 76.0044 59.924V58.944H77.2224V65.58C77.2224 67.512 75.7244 68.66 73.7084 68.66ZM71.5244 62.276C71.5244 63.704 72.4484 64.712 73.7644 64.712C75.0664 64.712 76.0044 63.704 76.0044 62.262C76.0044 60.792 75.0664 59.826 73.7644 59.826C72.4484 59.826 71.5244 60.806 71.5244 62.276Z" fill="white"/>
<path d="M144 32C144 27.5817 147.582 24 152 24H232C236.418 24 240 27.5817 240 32V112C240 116.418 236.418 120 232 120H152C147.582 120 144 116.418 144 112V32Z" fill="#096638"/>
<path d="M155.248 44.112C153.428 44.112 152.518 42.908 152.448 41.69H153.652C153.75 42.586 154.338 43.09 155.248 43.09C156.116 43.09 156.662 42.712 156.662 41.984C156.662 40.248 152.63 41.34 152.63 38.736C152.63 37.658 153.61 36.832 155.024 36.832C156.564 36.832 157.544 37.588 157.74 38.946H156.536C156.438 38.232 155.822 37.854 155.024 37.854C154.338 37.854 153.806 38.134 153.806 38.694C153.806 40.29 157.866 39.114 157.866 41.956C157.866 43.23 156.774 44.112 155.248 44.112ZM161.816 44.112C160.332 44.112 159.212 43.188 159.212 41.438V36.944H160.402V41.298C160.402 42.432 161.046 43.062 162.04 43.062C163.44 43.062 164.308 41.858 164.308 39.968V36.944H165.512V44H164.308V42.726C163.86 43.538 162.978 44.112 161.816 44.112ZM170.455 44.112C168.439 44.112 166.969 42.558 166.969 40.472C166.969 38.372 168.439 36.832 170.455 36.832C172.219 36.832 173.395 37.84 173.619 39.296H172.415C172.219 38.428 171.463 37.882 170.455 37.882C169.167 37.882 168.187 38.946 168.187 40.472C168.187 41.984 169.167 43.062 170.455 43.062C171.547 43.062 172.331 42.446 172.471 41.55H173.675C173.479 42.978 172.219 44.112 170.455 44.112ZM178.07 44.112C176.054 44.112 174.584 42.558 174.584 40.472C174.584 38.372 176.054 36.832 178.07 36.832C179.834 36.832 181.01 37.84 181.234 39.296H180.03C179.834 38.428 179.078 37.882 178.07 37.882C176.782 37.882 175.802 38.946 175.802 40.472C175.802 41.984 176.782 43.062 178.07 43.062C179.162 43.062 179.946 42.446 180.086 41.55H181.29C181.094 42.978 179.834 44.112 178.07 44.112ZM185.741 44.112C183.655 44.112 182.199 42.6 182.199 40.472C182.199 38.344 183.655 36.832 185.657 36.832C187.813 36.832 189.157 38.512 188.891 40.626H183.417C183.473 42.124 184.369 43.076 185.699 43.076C186.721 43.076 187.393 42.558 187.617 41.746H188.821C188.569 43.118 187.365 44.112 185.741 44.112ZM183.487 39.674H187.673C187.673 38.554 186.847 37.854 185.657 37.854C184.509 37.854 183.725 38.498 183.487 39.674ZM192.682 44.112C190.862 44.112 189.952 42.908 189.882 41.69H191.086C191.184 42.586 191.772 43.09 192.682 43.09C193.55 43.09 194.096 42.712 194.096 41.984C194.096 40.248 190.064 41.34 190.064 38.736C190.064 37.658 191.044 36.832 192.458 36.832C193.998 36.832 194.978 37.588 195.174 38.946H193.97C193.872 38.232 193.256 37.854 192.458 37.854C191.772 37.854 191.24 38.134 191.24 38.694C191.24 40.29 195.3 39.114 195.3 41.956C195.3 43.23 194.208 44.112 192.682 44.112ZM199.025 44.112C197.205 44.112 196.295 42.908 196.225 41.69H197.429C197.527 42.586 198.115 43.09 199.025 43.09C199.893 43.09 200.439 42.712 200.439 41.984C200.439 40.248 196.407 41.34 196.407 38.736C196.407 37.658 197.387 36.832 198.801 36.832C200.341 36.832 201.321 37.588 201.517 38.946H200.313C200.215 38.232 199.599 37.854 198.801 37.854C198.115 37.854 197.583 38.134 197.583 38.694C197.583 40.29 201.643 39.114 201.643 41.956C201.643 43.23 200.551 44.112 199.025 44.112ZM152.798 62.472V61.464H156.9V62.472H152.798ZM160.949 66.112C159.129 66.112 158.219 64.908 158.149 63.69H159.353C159.451 64.586 160.039 65.09 160.949 65.09C161.817 65.09 162.363 64.712 162.363 63.984C162.363 62.248 158.331 63.34 158.331 60.736C158.331 59.658 159.311 58.832 160.725 58.832C162.265 58.832 163.245 59.588 163.441 60.946H162.237C162.139 60.232 161.523 59.854 160.725 59.854C160.039 59.854 159.507 60.134 159.507 60.694C159.507 62.29 163.567 61.114 163.567 63.956C163.567 65.23 162.475 66.112 160.949 66.112ZM167.379 66.112C166.175 66.112 165.293 65.356 165.293 63.914V59.938H164.089V58.944H165.293V57.152H166.483V58.944H168.275V59.938H166.483V63.816C166.483 64.642 166.903 65.048 167.519 65.048C167.785 65.048 168.079 64.992 168.317 64.908V65.93C168.051 66.056 167.701 66.112 167.379 66.112ZM169.509 66V58.944H170.699V60.19C171.091 59.378 171.973 58.832 172.911 58.832C173.191 58.832 173.485 58.874 173.709 58.986V60.134C173.373 59.994 173.051 59.952 172.771 59.952C171.595 59.952 170.699 61.1 170.699 63.172V66H169.509ZM177.607 66.112C175.535 66.112 174.037 64.6 174.037 62.472C174.037 60.344 175.535 58.832 177.607 58.832C179.679 58.832 181.177 60.344 181.177 62.472C181.177 64.6 179.665 66.112 177.607 66.112ZM175.255 62.472C175.255 63.998 176.235 65.062 177.607 65.062C178.979 65.062 179.959 63.998 179.959 62.472C179.959 60.932 178.979 59.868 177.607 59.868C176.235 59.868 175.255 60.932 175.255 62.472ZM182.634 66V58.944H183.824V60.162C184.258 59.434 185.154 58.832 186.33 58.832C187.814 58.832 188.948 59.756 188.948 61.38V66H187.744V61.646C187.744 60.512 187.1 59.882 186.092 59.882C184.706 59.882 183.824 61.086 183.824 62.976V66H182.634ZM193.708 68.66C192.182 68.66 190.908 67.82 190.684 66.476H191.888C192.084 67.19 192.798 67.638 193.75 67.638C195.038 67.638 196.004 66.952 196.004 65.692V64.572C195.584 65.258 194.674 65.706 193.652 65.706C191.678 65.706 190.348 64.32 190.348 62.276C190.348 60.204 191.664 58.832 193.652 58.832C194.66 58.832 195.584 59.252 196.004 59.924V58.944H197.222V65.58C197.222 67.512 195.724 68.66 193.708 68.66ZM191.524 62.276C191.524 63.704 192.448 64.712 193.764 64.712C195.066 64.712 196.004 63.704 196.004 62.262C196.004 60.792 195.066 59.826 193.764 59.826C192.448 59.826 191.524 60.806 191.524 62.276Z" fill="white"/>
<path d="M264 32C264 27.5817 267.582 24 272 24H352C356.418 24 360 27.5817 360 32V112C360 116.418 356.418 120 352 120H272C267.582 120 264 116.418 264 112V32Z" fill="#FFB700"/>
<path d="M274.66 44L272.168 36.944H273.456L275.29 42.446L277.11 36.944H278.272L280.092 42.446L281.926 36.944H283.158L280.666 44H279.476L277.67 38.666L275.85 44H274.66ZM286.264 44.112C284.738 44.112 283.772 43.328 283.772 42.096C283.772 40.682 284.766 39.968 287.006 39.744L288.518 39.59V39.338C288.518 38.4 287.832 37.854 286.81 37.854C285.83 37.854 285.186 38.358 285.046 39.338H283.842C284.038 37.994 285.074 36.832 286.81 36.832C288.504 36.832 289.722 37.826 289.722 39.464V44H288.518V42.824C288.238 43.496 287.286 44.112 286.264 44.112ZM284.99 42.054C284.99 42.698 285.522 43.09 286.376 43.09C287.636 43.09 288.518 42.096 288.518 40.85V40.514L287.076 40.682C285.606 40.85 284.99 41.2 284.99 42.054ZM291.518 44V36.944H292.708V38.19C293.1 37.378 293.982 36.832 294.92 36.832C295.2 36.832 295.494 36.874 295.718 36.986V38.134C295.382 37.994 295.06 37.952 294.78 37.952C293.604 37.952 292.708 39.1 292.708 41.172V44H291.518ZM296.768 44V36.944H297.958V38.162C298.392 37.434 299.288 36.832 300.464 36.832C301.948 36.832 303.082 37.756 303.082 39.38V44H301.878V39.646C301.878 38.512 301.234 37.882 300.226 37.882C298.84 37.882 297.958 39.086 297.958 40.976V44H296.768ZM304.889 44V36.944H306.093V44H304.889ZM304.665 34.774C304.665 34.312 305.015 33.976 305.477 33.976C305.953 33.976 306.303 34.312 306.303 34.774C306.303 35.236 305.953 35.572 305.477 35.572C305.015 35.572 304.665 35.236 304.665 34.774ZM307.979 44V36.944H309.169V38.162C309.603 37.434 310.499 36.832 311.675 36.832C313.159 36.832 314.293 37.756 314.293 39.38V44H313.089V39.646C313.089 38.512 312.445 37.882 311.437 37.882C310.051 37.882 309.169 39.086 309.169 40.976V44H307.979ZM319.054 46.66C317.528 46.66 316.254 45.82 316.03 44.476H317.234C317.43 45.19 318.144 45.638 319.096 45.638C320.384 45.638 321.35 44.952 321.35 43.692V42.572C320.93 43.258 320.02 43.706 318.998 43.706C317.024 43.706 315.694 42.32 315.694 40.276C315.694 38.204 317.01 36.832 318.998 36.832C320.006 36.832 320.93 37.252 321.35 37.924V36.944H322.568V43.58C322.568 45.512 321.07 46.66 319.054 46.66ZM316.87 40.276C316.87 41.704 317.794 42.712 319.11 42.712C320.412 42.712 321.35 41.704 321.35 40.262C321.35 38.792 320.412 37.826 319.11 37.826C317.794 37.826 316.87 38.806 316.87 40.276ZM272.798 62.472V61.464H276.9V62.472H272.798ZM280.949 66.112C279.129 66.112 278.219 64.908 278.149 63.69H279.353C279.451 64.586 280.039 65.09 280.949 65.09C281.817 65.09 282.363 64.712 282.363 63.984C282.363 62.248 278.331 63.34 278.331 60.736C278.331 59.658 279.311 58.832 280.725 58.832C282.265 58.832 283.245 59.588 283.441 60.946H282.237C282.139 60.232 281.523 59.854 280.725 59.854C280.039 59.854 279.507 60.134 279.507 60.694C279.507 62.29 283.567 61.114 283.567 63.956C283.567 65.23 282.475 66.112 280.949 66.112ZM287.379 66.112C286.175 66.112 285.293 65.356 285.293 63.914V59.938H284.089V58.944H285.293V57.152H286.483V58.944H288.275V59.938H286.483V63.816C286.483 64.642 286.903 65.048 287.519 65.048C287.785 65.048 288.079 64.992 288.317 64.908V65.93C288.051 66.056 287.701 66.112 287.379 66.112ZM289.509 66V58.944H290.699V60.19C291.091 59.378 291.973 58.832 292.911 58.832C293.191 58.832 293.485 58.874 293.709 58.986V60.134C293.373 59.994 293.051 59.952 292.771 59.952C291.595 59.952 290.699 61.1 290.699 63.172V66H289.509ZM297.607 66.112C295.535 66.112 294.037 64.6 294.037 62.472C294.037 60.344 295.535 58.832 297.607 58.832C299.679 58.832 301.177 60.344 301.177 62.472C301.177 64.6 299.665 66.112 297.607 66.112ZM295.255 62.472C295.255 63.998 296.235 65.062 297.607 65.062C298.979 65.062 299.959 63.998 299.959 62.472C299.959 60.932 298.979 59.868 297.607 59.868C296.235 59.868 295.255 60.932 295.255 62.472ZM302.634 66V58.944H303.824V60.162C304.258 59.434 305.154 58.832 306.33 58.832C307.814 58.832 308.948 59.756 308.948 61.38V66H307.744V61.646C307.744 60.512 307.1 59.882 306.092 59.882C304.706 59.882 303.824 61.086 303.824 62.976V66H302.634ZM313.708 68.66C312.182 68.66 310.908 67.82 310.684 66.476H311.888C312.084 67.19 312.798 67.638 313.75 67.638C315.038 67.638 316.004 66.952 316.004 65.692V64.572C315.584 65.258 314.674 65.706 313.652 65.706C311.678 65.706 310.348 64.32 310.348 62.276C310.348 60.204 311.664 58.832 313.652 58.832C314.66 58.832 315.584 59.252 316.004 59.924V58.944H317.222V65.58C317.222 67.512 315.724 68.66 313.708 68.66ZM311.524 62.276C311.524 63.704 312.448 64.712 313.764 64.712C315.066 64.712 316.004 63.704 316.004 62.262C316.004 60.792 315.066 59.826 313.764 59.826C312.448 59.826 311.524 60.806 311.524 62.276Z" fill="#0A0132"/>
<path d="M384 32C384 27.5817 387.582 24 392 24H472C476.418 24 480 27.5817 480 32V112C480 116.418 476.418 120 472 120H392C387.582 120 384 116.418 384 112V32Z" fill="#B60203"/>
<path d="M395.99 44.112C393.974 44.112 392.504 42.558 392.504 40.472C392.504 38.372 393.974 36.832 395.99 36.832C397.754 36.832 398.93 37.84 399.154 39.296H397.95C397.754 38.428 396.998 37.882 395.99 37.882C394.702 37.882 393.722 38.946 393.722 40.472C393.722 41.984 394.702 43.062 395.99 43.062C397.082 43.062 397.866 42.446 398.006 41.55H399.21C399.014 42.978 397.754 44.112 395.99 44.112ZM400.567 44V36.944H401.757V38.19C402.149 37.378 403.031 36.832 403.969 36.832C404.249 36.832 404.543 36.874 404.767 36.986V38.134C404.431 37.994 404.109 37.952 403.829 37.952C402.653 37.952 401.757 39.1 401.757 41.172V44H400.567ZM405.803 44V36.944H407.007V44H405.803ZM405.579 34.774C405.579 34.312 405.929 33.976 406.391 33.976C406.867 33.976 407.217 34.312 407.217 34.774C407.217 35.236 406.867 35.572 406.391 35.572C405.929 35.572 405.579 35.236 405.579 34.774ZM411.371 44.112C410.167 44.112 409.285 43.356 409.285 41.914V37.938H408.081V36.944H409.285V35.152H410.475V36.944H412.267V37.938H410.475V41.816C410.475 42.642 410.895 43.048 411.511 43.048C411.777 43.048 412.071 42.992 412.309 42.908V43.93C412.043 44.056 411.693 44.112 411.371 44.112ZM413.487 44V36.944H414.691V44H413.487ZM413.263 34.774C413.263 34.312 413.613 33.976 414.075 33.976C414.551 33.976 414.901 34.312 414.901 34.774C414.901 35.236 414.551 35.572 414.075 35.572C413.613 35.572 413.263 35.236 413.263 34.774ZM419.615 44.112C417.599 44.112 416.129 42.558 416.129 40.472C416.129 38.372 417.599 36.832 419.615 36.832C421.379 36.832 422.555 37.84 422.779 39.296H421.575C421.379 38.428 420.623 37.882 419.615 37.882C418.327 37.882 417.347 38.946 417.347 40.472C417.347 41.984 418.327 43.062 419.615 43.062C420.707 43.062 421.491 42.446 421.631 41.55H422.835C422.639 42.978 421.379 44.112 419.615 44.112ZM426.348 44.112C424.822 44.112 423.856 43.328 423.856 42.096C423.856 40.682 424.85 39.968 427.09 39.744L428.602 39.59V39.338C428.602 38.4 427.916 37.854 426.894 37.854C425.914 37.854 425.27 38.358 425.13 39.338H423.926C424.122 37.994 425.158 36.832 426.894 36.832C428.588 36.832 429.806 37.826 429.806 39.464V44H428.602V42.824C428.322 43.496 427.37 44.112 426.348 44.112ZM425.074 42.054C425.074 42.698 425.606 43.09 426.46 43.09C427.72 43.09 428.602 42.096 428.602 40.85V40.514L427.16 40.682C425.69 40.85 425.074 41.2 425.074 42.054ZM431.588 44V34.088H432.792V44H431.588ZM392.798 62.472V61.464H396.9V62.472H392.798ZM400.949 66.112C399.129 66.112 398.219 64.908 398.149 63.69H399.353C399.451 64.586 400.039 65.09 400.949 65.09C401.817 65.09 402.363 64.712 402.363 63.984C402.363 62.248 398.331 63.34 398.331 60.736C398.331 59.658 399.311 58.832 400.725 58.832C402.265 58.832 403.245 59.588 403.441 60.946H402.237C402.139 60.232 401.523 59.854 400.725 59.854C400.039 59.854 399.507 60.134 399.507 60.694C399.507 62.29 403.567 61.114 403.567 63.956C403.567 65.23 402.475 66.112 400.949 66.112ZM407.379 66.112C406.175 66.112 405.293 65.356 405.293 63.914V59.938H404.089V58.944H405.293V57.152H406.483V58.944H408.275V59.938H406.483V63.816C406.483 64.642 406.903 65.048 407.519 65.048C407.785 65.048 408.079 64.992 408.317 64.908V65.93C408.051 66.056 407.701 66.112 407.379 66.112ZM409.509 66V58.944H410.699V60.19C411.091 59.378 411.973 58.832 412.911 58.832C413.191 58.832 413.485 58.874 413.709 58.986V60.134C413.373 59.994 413.051 59.952 412.771 59.952C411.595 59.952 410.699 61.1 410.699 63.172V66H409.509ZM417.607 66.112C415.535 66.112 414.037 64.6 414.037 62.472C414.037 60.344 415.535 58.832 417.607 58.832C419.679 58.832 421.177 60.344 421.177 62.472C421.177 64.6 419.665 66.112 417.607 66.112ZM415.255 62.472C415.255 63.998 416.235 65.062 417.607 65.062C418.979 65.062 419.959 63.998 419.959 62.472C419.959 60.932 418.979 59.868 417.607 59.868C416.235 59.868 415.255 60.932 415.255 62.472ZM422.634 66V58.944H423.824V60.162C424.258 59.434 425.154 58.832 426.33 58.832C427.814 58.832 428.948 59.756 428.948 61.38V66H427.744V61.646C427.744 60.512 427.1 59.882 426.092 59.882C424.706 59.882 423.824 61.086 423.824 62.976V66H422.634ZM433.708 68.66C432.182 68.66 430.908 67.82 430.684 66.476H431.888C432.084 67.19 432.798 67.638 433.75 67.638C435.038 67.638 436.004 66.952 436.004 65.692V64.572C435.584 65.258 434.674 65.706 433.652 65.706C431.678 65.706 430.348 64.32 430.348 62.276C430.348 60.204 431.664 58.832 433.652 58.832C434.66 58.832 435.584 59.252 436.004 59.924V58.944H437.222V65.58C437.222 67.512 435.724 68.66 433.708 68.66ZM431.524 62.276C431.524 63.704 432.448 64.712 433.764 64.712C435.066 64.712 436.004 63.704 436.004 62.262C436.004 60.792 435.066 59.826 433.764 59.826C432.448 59.826 431.524 60.806 431.524 62.276Z" fill="white"/>
<path d="M24 140C24 135.582 27.5817 132 32 132H112C116.418 132 120 135.582 120 140V220C120 224.418 116.418 228 112 228H32C27.5817 228 24 224.418 24 220V140Z" fill="#E6F0FF"/>
<path d="M32.938 152V144.944H34.142V152H32.938ZM32.714 142.774C32.714 142.312 33.064 141.976 33.526 141.976C34.002 141.976 34.352 142.312 34.352 142.774C34.352 143.236 34.002 143.572 33.526 143.572C33.064 143.572 32.714 143.236 32.714 142.774ZM36.0282 152V144.944H37.2182V146.162C37.6522 145.434 38.5482 144.832 39.7242 144.832C41.2082 144.832 42.3422 145.756 42.3422 147.38V152H41.1382V147.646C41.1382 146.512 40.4942 145.882 39.4862 145.882C38.1002 145.882 37.2182 147.086 37.2182 148.976V152H36.0282ZM44.5289 144.132C44.5289 142.648 45.4109 141.892 46.6289 141.892C46.9509 141.892 47.3009 141.948 47.5249 142.046V143.11C47.3009 142.998 47.0209 142.942 46.7689 142.942C46.1389 142.942 45.7329 143.362 45.7329 144.188V144.944H47.5249V145.938H45.7329V152H44.5289V145.938H43.3389V144.944H44.5289V144.132ZM51.4275 152.112C49.3555 152.112 47.8575 150.6 47.8575 148.472C47.8575 146.344 49.3555 144.832 51.4275 144.832C53.4995 144.832 54.9975 146.344 54.9975 148.472C54.9975 150.6 53.4855 152.112 51.4275 152.112ZM49.0755 148.472C49.0755 149.998 50.0555 151.062 51.4275 151.062C52.7995 151.062 53.7795 149.998 53.7795 148.472C53.7795 146.932 52.7995 145.868 51.4275 145.868C50.0555 145.868 49.0755 146.932 49.0755 148.472ZM32.798 170.472V169.464H36.9V170.472H32.798ZM40.9492 174.112C39.1292 174.112 38.2192 172.908 38.1492 171.69H39.3532C39.4512 172.586 40.0392 173.09 40.9492 173.09C41.8172 173.09 42.3632 172.712 42.3632 171.984C42.3632 170.248 38.3312 171.34 38.3312 168.736C38.3312 167.658 39.3112 166.832 40.7252 166.832C42.2652 166.832 43.2452 167.588 43.4412 168.946H42.2372C42.1392 168.232 41.5232 167.854 40.7252 167.854C40.0392 167.854 39.5072 168.134 39.5072 168.694C39.5072 170.29 43.5672 169.114 43.5672 171.956C43.5672 173.23 42.4752 174.112 40.9492 174.112ZM47.5169 174.112C46.0329 174.112 44.9129 173.188 44.9129 171.438V166.944H46.1029V171.298C46.1029 172.432 46.7469 173.062 47.7409 173.062C49.1409 173.062 50.0089 171.858 50.0089 169.968V166.944H51.2129V174H50.0089V172.726C49.5609 173.538 48.6789 174.112 47.5169 174.112ZM56.758 174.112C55.722 174.112 54.728 173.608 54.322 172.838V174H53.118V164.088H54.322V168.092C54.728 167.322 55.708 166.832 56.758 166.832C58.872 166.832 60.272 168.288 60.272 170.472C60.272 172.656 58.872 174.112 56.758 174.112ZM54.322 170.472C54.322 171.998 55.302 173.076 56.688 173.076C58.046 173.076 59.054 172.012 59.054 170.472C59.054 168.932 58.046 167.868 56.688 167.868C55.302 167.868 54.322 168.932 54.322 170.472ZM64.1136 174.112C62.9096 174.112 62.0276 173.356 62.0276 171.914V167.938H60.8236V166.944H62.0276V165.152H63.2176V166.944H65.0096V167.938H63.2176V171.816C63.2176 172.642 63.6376 173.048 64.2536 173.048C64.5196 173.048 64.8136 172.992 65.0516 172.908V173.93C64.7856 174.056 64.4356 174.112 64.1136 174.112ZM66.229 174V164.088H67.433V174H66.229ZM72.4132 174.112C70.3272 174.112 68.8712 172.6 68.8712 170.472C68.8712 168.344 70.3272 166.832 72.3292 166.832C74.4852 166.832 75.8292 168.512 75.5632 170.626H70.0892C70.1452 172.124 71.0412 173.076 72.3712 173.076C73.3932 173.076 74.0652 172.558 74.2892 171.746H75.4932C75.2412 173.118 74.0372 174.112 72.4132 174.112ZM70.1592 169.674H74.3452C74.3452 168.554 73.5192 167.854 72.3292 167.854C71.1812 167.854 70.3972 168.498 70.1592 169.674Z" fill="#0A0132"/>
<path d="M144 140C144 135.582 147.582 132 152 132H232C236.418 132 240 135.582 240 140V220C240 224.418 236.418 228 232 228H152C147.582 228 144 224.418 144 220V140Z" fill="#CFF7E2"/>
<path d="M155.248 152.112C153.428 152.112 152.518 150.908 152.448 149.69H153.652C153.75 150.586 154.338 151.09 155.248 151.09C156.116 151.09 156.662 150.712 156.662 149.984C156.662 148.248 152.63 149.34 152.63 146.736C152.63 145.658 153.61 144.832 155.024 144.832C156.564 144.832 157.544 145.588 157.74 146.946H156.536C156.438 146.232 155.822 145.854 155.024 145.854C154.338 145.854 153.806 146.134 153.806 146.694C153.806 148.29 157.866 147.114 157.866 149.956C157.866 151.23 156.774 152.112 155.248 152.112ZM161.816 152.112C160.332 152.112 159.212 151.188 159.212 149.438V144.944H160.402V149.298C160.402 150.432 161.046 151.062 162.04 151.062C163.44 151.062 164.308 149.858 164.308 147.968V144.944H165.512V152H164.308V150.726C163.86 151.538 162.978 152.112 161.816 152.112ZM170.455 152.112C168.439 152.112 166.969 150.558 166.969 148.472C166.969 146.372 168.439 144.832 170.455 144.832C172.219 144.832 173.395 145.84 173.619 147.296H172.415C172.219 146.428 171.463 145.882 170.455 145.882C169.167 145.882 168.187 146.946 168.187 148.472C168.187 149.984 169.167 151.062 170.455 151.062C171.547 151.062 172.331 150.446 172.471 149.55H173.675C173.479 150.978 172.219 152.112 170.455 152.112ZM178.07 152.112C176.054 152.112 174.584 150.558 174.584 148.472C174.584 146.372 176.054 144.832 178.07 144.832C179.834 144.832 181.01 145.84 181.234 147.296H180.03C179.834 146.428 179.078 145.882 178.07 145.882C176.782 145.882 175.802 146.946 175.802 148.472C175.802 149.984 176.782 151.062 178.07 151.062C179.162 151.062 179.946 150.446 180.086 149.55H181.29C181.094 150.978 179.834 152.112 178.07 152.112ZM185.741 152.112C183.655 152.112 182.199 150.6 182.199 148.472C182.199 146.344 183.655 144.832 185.657 144.832C187.813 144.832 189.157 146.512 188.891 148.626H183.417C183.473 150.124 184.369 151.076 185.699 151.076C186.721 151.076 187.393 150.558 187.617 149.746H188.821C188.569 151.118 187.365 152.112 185.741 152.112ZM183.487 147.674H187.673C187.673 146.554 186.847 145.854 185.657 145.854C184.509 145.854 183.725 146.498 183.487 147.674ZM192.682 152.112C190.862 152.112 189.952 150.908 189.882 149.69H191.086C191.184 150.586 191.772 151.09 192.682 151.09C193.55 151.09 194.096 150.712 194.096 149.984C194.096 148.248 190.064 149.34 190.064 146.736C190.064 145.658 191.044 144.832 192.458 144.832C193.998 144.832 194.978 145.588 195.174 146.946H193.97C193.872 146.232 193.256 145.854 192.458 145.854C191.772 145.854 191.24 146.134 191.24 146.694C191.24 148.29 195.3 147.114 195.3 149.956C195.3 151.23 194.208 152.112 192.682 152.112ZM199.025 152.112C197.205 152.112 196.295 150.908 196.225 149.69H197.429C197.527 150.586 198.115 151.09 199.025 151.09C199.893 151.09 200.439 150.712 200.439 149.984C200.439 148.248 196.407 149.34 196.407 146.736C196.407 145.658 197.387 144.832 198.801 144.832C200.341 144.832 201.321 145.588 201.517 146.946H200.313C200.215 146.232 199.599 145.854 198.801 145.854C198.115 145.854 197.583 146.134 197.583 146.694C197.583 148.29 201.643 147.114 201.643 149.956C201.643 151.23 200.551 152.112 199.025 152.112ZM152.798 170.472V169.464H156.9V170.472H152.798ZM160.949 174.112C159.129 174.112 158.219 172.908 158.149 171.69H159.353C159.451 172.586 160.039 173.09 160.949 173.09C161.817 173.09 162.363 172.712 162.363 171.984C162.363 170.248 158.331 171.34 158.331 168.736C158.331 167.658 159.311 166.832 160.725 166.832C162.265 166.832 163.245 167.588 163.441 168.946H162.237C162.139 168.232 161.523 167.854 160.725 167.854C160.039 167.854 159.507 168.134 159.507 168.694C159.507 170.29 163.567 169.114 163.567 171.956C163.567 173.23 162.475 174.112 160.949 174.112ZM167.517 174.112C166.033 174.112 164.913 173.188 164.913 171.438V166.944H166.103V171.298C166.103 172.432 166.747 173.062 167.741 173.062C169.141 173.062 170.009 171.858 170.009 169.968V166.944H171.213V174H170.009V172.726C169.561 173.538 168.679 174.112 167.517 174.112ZM176.758 174.112C175.722 174.112 174.728 173.608 174.322 172.838V174H173.118V164.088H174.322V168.092C174.728 167.322 175.708 166.832 176.758 166.832C178.872 166.832 180.272 168.288 180.272 170.472C180.272 172.656 178.872 174.112 176.758 174.112ZM174.322 170.472C174.322 171.998 175.302 173.076 176.688 173.076C178.046 173.076 179.054 172.012 179.054 170.472C179.054 168.932 178.046 167.868 176.688 167.868C175.302 167.868 174.322 168.932 174.322 170.472ZM184.114 174.112C182.91 174.112 182.028 173.356 182.028 171.914V167.938H180.824V166.944H182.028V165.152H183.218V166.944H185.01V167.938H183.218V171.816C183.218 172.642 183.638 173.048 184.254 173.048C184.52 173.048 184.814 172.992 185.052 172.908V173.93C184.786 174.056 184.436 174.112 184.114 174.112ZM186.229 174V164.088H187.433V174H186.229ZM192.413 174.112C190.327 174.112 188.871 172.6 188.871 170.472C188.871 168.344 190.327 166.832 192.329 166.832C194.485 166.832 195.829 168.512 195.563 170.626H190.089C190.145 172.124 191.041 173.076 192.371 173.076C193.393 173.076 194.065 172.558 194.289 171.746H195.493C195.241 173.118 194.037 174.112 192.413 174.112ZM190.159 169.674H194.345C194.345 168.554 193.519 167.854 192.329 167.854C191.181 167.854 190.397 168.498 190.159 169.674Z" fill="#0A0132"/>
<path d="M264 140C264 135.582 267.582 132 272 132H352C356.418 132 360 135.582 360 140V220C360 224.418 356.418 228 352 228H272C267.582 228 264 224.418 264 220V140Z" fill="#FCEED2"/>
<path d="M274.66 152L272.168 144.944H273.456L275.29 150.446L277.11 144.944H278.272L280.092 150.446L281.926 144.944H283.158L280.666 152H279.476L277.67 146.666L275.85 152H274.66ZM286.264 152.112C284.738 152.112 283.772 151.328 283.772 150.096C283.772 148.682 284.766 147.968 287.006 147.744L288.518 147.59V147.338C288.518 146.4 287.832 145.854 286.81 145.854C285.83 145.854 285.186 146.358 285.046 147.338H283.842C284.038 145.994 285.074 144.832 286.81 144.832C288.504 144.832 289.722 145.826 289.722 147.464V152H288.518V150.824C288.238 151.496 287.286 152.112 286.264 152.112ZM284.99 150.054C284.99 150.698 285.522 151.09 286.376 151.09C287.636 151.09 288.518 150.096 288.518 148.85V148.514L287.076 148.682C285.606 148.85 284.99 149.2 284.99 150.054ZM291.518 152V144.944H292.708V146.19C293.1 145.378 293.982 144.832 294.92 144.832C295.2 144.832 295.494 144.874 295.718 144.986V146.134C295.382 145.994 295.06 145.952 294.78 145.952C293.604 145.952 292.708 147.1 292.708 149.172V152H291.518ZM296.768 152V144.944H297.958V146.162C298.392 145.434 299.288 144.832 300.464 144.832C301.948 144.832 303.082 145.756 303.082 147.38V152H301.878V147.646C301.878 146.512 301.234 145.882 300.226 145.882C298.84 145.882 297.958 147.086 297.958 148.976V152H296.768ZM304.889 152V144.944H306.093V152H304.889ZM304.665 142.774C304.665 142.312 305.015 141.976 305.477 141.976C305.953 141.976 306.303 142.312 306.303 142.774C306.303 143.236 305.953 143.572 305.477 143.572C305.015 143.572 304.665 143.236 304.665 142.774ZM307.979 152V144.944H309.169V146.162C309.603 145.434 310.499 144.832 311.675 144.832C313.159 144.832 314.293 145.756 314.293 147.38V152H313.089V147.646C313.089 146.512 312.445 145.882 311.437 145.882C310.051 145.882 309.169 147.086 309.169 148.976V152H307.979ZM319.054 154.66C317.528 154.66 316.254 153.82 316.03 152.476H317.234C317.43 153.19 318.144 153.638 319.096 153.638C320.384 153.638 321.35 152.952 321.35 151.692V150.572C320.93 151.258 320.02 151.706 318.998 151.706C317.024 151.706 315.694 150.32 315.694 148.276C315.694 146.204 317.01 144.832 318.998 144.832C320.006 144.832 320.93 145.252 321.35 145.924V144.944H322.568V151.58C322.568 153.512 321.07 154.66 319.054 154.66ZM316.87 148.276C316.87 149.704 317.794 150.712 319.11 150.712C320.412 150.712 321.35 149.704 321.35 148.262C321.35 146.792 320.412 145.826 319.11 145.826C317.794 145.826 316.87 146.806 316.87 148.276ZM272.798 170.472V169.464H276.9V170.472H272.798ZM280.949 174.112C279.129 174.112 278.219 172.908 278.149 171.69H279.353C279.451 172.586 280.039 173.09 280.949 173.09C281.817 173.09 282.363 172.712 282.363 171.984C282.363 170.248 278.331 171.34 278.331 168.736C278.331 167.658 279.311 166.832 280.725 166.832C282.265 166.832 283.245 167.588 283.441 168.946H282.237C282.139 168.232 281.523 167.854 280.725 167.854C280.039 167.854 279.507 168.134 279.507 168.694C279.507 170.29 283.567 169.114 283.567 171.956C283.567 173.23 282.475 174.112 280.949 174.112ZM287.517 174.112C286.033 174.112 284.913 173.188 284.913 171.438V166.944H286.103V171.298C286.103 172.432 286.747 173.062 287.741 173.062C289.141 173.062 290.009 171.858 290.009 169.968V166.944H291.213V174H290.009V172.726C289.561 173.538 288.679 174.112 287.517 174.112ZM296.758 174.112C295.722 174.112 294.728 173.608 294.322 172.838V174H293.118V164.088H294.322V168.092C294.728 167.322 295.708 166.832 296.758 166.832C298.872 166.832 300.272 168.288 300.272 170.472C300.272 172.656 298.872 174.112 296.758 174.112ZM294.322 170.472C294.322 171.998 295.302 173.076 296.688 173.076C298.046 173.076 299.054 172.012 299.054 170.472C299.054 168.932 298.046 167.868 296.688 167.868C295.302 167.868 294.322 168.932 294.322 170.472ZM304.114 174.112C302.91 174.112 302.028 173.356 302.028 171.914V167.938H300.824V166.944H302.028V165.152H303.218V166.944H305.01V167.938H303.218V171.816C303.218 172.642 303.638 173.048 304.254 173.048C304.52 173.048 304.814 172.992 305.052 172.908V173.93C304.786 174.056 304.436 174.112 304.114 174.112ZM306.229 174V164.088H307.433V174H306.229ZM312.413 174.112C310.327 174.112 308.871 172.6 308.871 170.472C308.871 168.344 310.327 166.832 312.329 166.832C314.485 166.832 315.829 168.512 315.563 170.626H310.089C310.145 172.124 311.041 173.076 312.371 173.076C313.393 173.076 314.065 172.558 314.289 171.746H315.493C315.241 173.118 314.037 174.112 312.413 174.112ZM310.159 169.674H314.345C314.345 168.554 313.519 167.854 312.329 167.854C311.181 167.854 310.397 168.498 310.159 169.674Z" fill="#0A0132"/>
<path d="M384 140C384 135.582 387.582 132 392 132H472C476.418 132 480 135.582 480 140V220C480 224.418 476.418 228 472 228H392C387.582 228 384 224.418 384 220V140Z" fill="#FFEAE9"/>
<path d="M395.99 152.112C393.974 152.112 392.504 150.558 392.504 148.472C392.504 146.372 393.974 144.832 395.99 144.832C397.754 144.832 398.93 145.84 399.154 147.296H397.95C397.754 146.428 396.998 145.882 395.99 145.882C394.702 145.882 393.722 146.946 393.722 148.472C393.722 149.984 394.702 151.062 395.99 151.062C397.082 151.062 397.866 150.446 398.006 149.55H399.21C399.014 150.978 397.754 152.112 395.99 152.112ZM400.567 152V144.944H401.757V146.19C402.149 145.378 403.031 144.832 403.969 144.832C404.249 144.832 404.543 144.874 404.767 144.986V146.134C404.431 145.994 404.109 145.952 403.829 145.952C402.653 145.952 401.757 147.1 401.757 149.172V152H400.567ZM405.803 152V144.944H407.007V152H405.803ZM405.579 142.774C405.579 142.312 405.929 141.976 406.391 141.976C406.867 141.976 407.217 142.312 407.217 142.774C407.217 143.236 406.867 143.572 406.391 143.572C405.929 143.572 405.579 143.236 405.579 142.774ZM411.371 152.112C410.167 152.112 409.285 151.356 409.285 149.914V145.938H408.081V144.944H409.285V143.152H410.475V144.944H412.267V145.938H410.475V149.816C410.475 150.642 410.895 151.048 411.511 151.048C411.777 151.048 412.071 150.992 412.309 150.908V151.93C412.043 152.056 411.693 152.112 411.371 152.112ZM413.487 152V144.944H414.691V152H413.487ZM413.263 142.774C413.263 142.312 413.613 141.976 414.075 141.976C414.551 141.976 414.901 142.312 414.901 142.774C414.901 143.236 414.551 143.572 414.075 143.572C413.613 143.572 413.263 143.236 413.263 142.774ZM419.615 152.112C417.599 152.112 416.129 150.558 416.129 148.472C416.129 146.372 417.599 144.832 419.615 144.832C421.379 144.832 422.555 145.84 422.779 147.296H421.575C421.379 146.428 420.623 145.882 419.615 145.882C418.327 145.882 417.347 146.946 417.347 148.472C417.347 149.984 418.327 151.062 419.615 151.062C420.707 151.062 421.491 150.446 421.631 149.55H422.835C422.639 150.978 421.379 152.112 419.615 152.112ZM426.348 152.112C424.822 152.112 423.856 151.328 423.856 150.096C423.856 148.682 424.85 147.968 427.09 147.744L428.602 147.59V147.338C428.602 146.4 427.916 145.854 426.894 145.854C425.914 145.854 425.27 146.358 425.13 147.338H423.926C424.122 145.994 425.158 144.832 426.894 144.832C428.588 144.832 429.806 145.826 429.806 147.464V152H428.602V150.824C428.322 151.496 427.37 152.112 426.348 152.112ZM425.074 150.054C425.074 150.698 425.606 151.09 426.46 151.09C427.72 151.09 428.602 150.096 428.602 148.85V148.514L427.16 148.682C425.69 148.85 425.074 149.2 425.074 150.054ZM431.588 152V142.088H432.792V152H431.588ZM392.798 170.472V169.464H396.9V170.472H392.798ZM400.949 174.112C399.129 174.112 398.219 172.908 398.149 171.69H399.353C399.451 172.586 400.039 173.09 400.949 173.09C401.817 173.09 402.363 172.712 402.363 171.984C402.363 170.248 398.331 171.34 398.331 168.736C398.331 167.658 399.311 166.832 400.725 166.832C402.265 166.832 403.245 167.588 403.441 168.946H402.237C402.139 168.232 401.523 167.854 400.725 167.854C400.039 167.854 399.507 168.134 399.507 168.694C399.507 170.29 403.567 169.114 403.567 171.956C403.567 173.23 402.475 174.112 400.949 174.112ZM407.517 174.112C406.033 174.112 404.913 173.188 404.913 171.438V166.944H406.103V171.298C406.103 172.432 406.747 173.062 407.741 173.062C409.141 173.062 410.009 171.858 410.009 169.968V166.944H411.213V174H410.009V172.726C409.561 173.538 408.679 174.112 407.517 174.112ZM416.758 174.112C415.722 174.112 414.728 173.608 414.322 172.838V174H413.118V164.088H414.322V168.092C414.728 167.322 415.708 166.832 416.758 166.832C418.872 166.832 420.272 168.288 420.272 170.472C420.272 172.656 418.872 174.112 416.758 174.112ZM414.322 170.472C414.322 171.998 415.302 173.076 416.688 173.076C418.046 173.076 419.054 172.012 419.054 170.472C419.054 168.932 418.046 167.868 416.688 167.868C415.302 167.868 414.322 168.932 414.322 170.472ZM424.114 174.112C422.91 174.112 422.028 173.356 422.028 171.914V167.938H420.824V166.944H422.028V165.152H423.218V166.944H425.01V167.938H423.218V171.816C423.218 172.642 423.638 173.048 424.254 173.048C424.52 173.048 424.814 172.992 425.052 172.908V173.93C424.786 174.056 424.436 174.112 424.114 174.112ZM426.229 174V164.088H427.433V174H426.229ZM432.413 174.112C430.327 174.112 428.871 172.6 428.871 170.472C428.871 168.344 430.327 166.832 432.329 166.832C434.485 166.832 435.829 168.512 435.563 170.626H430.089C430.145 172.124 431.041 173.076 432.371 173.076C433.393 173.076 434.065 172.558 434.289 171.746H435.493C435.241 173.118 434.037 174.112 432.413 174.112ZM430.159 169.674H434.345C434.345 168.554 433.519 167.854 432.329 167.854C431.181 167.854 430.397 168.498 430.159 169.674Z" fill="#0A0132"/>
</svg>
