<svg fill="none" height="96" viewBox="0 0 96 96" width="96" xmlns="http://www.w3.org/2000/svg" xmlns:xlink="http://www.w3.org/1999/xlink"><clipPath id="a"><path d="m11 24h75v48h-75z"/></clipPath><path d="m0 0h96v96h-96z" fill="#0b0134"/><g clip-path="url(#a)" fill="#fff"><path d="m63.2627 25.63c-6.4927 0-12.3308 2.769-16.4092 7.1748l9.9983 9.9983c2.8645 2.8644 2.8645 7.5294 0 10.3938l-9.9983 9.9983c4.0921 4.4058 9.9301 7.1748 16.4092 7.1748 12.3581 0 22.37-10.012 22.37-22.37 0-12.3581-10.0119-22.37-22.37-22.37z"/><path d="m40.8926 48c0-5.8653 2.2643-11.2123 5.9608-15.1952l-6.6565-6.6565c-2.8644-2.8644-7.5294-2.8644-10.3938 0l-16.6548 16.6548c-2.8644 2.8644-2.8644 7.5294 0 10.3938l16.6548 16.6548c2.8644 2.8644 7.5294 2.8644 10.3938 0l6.6565-6.6565c-3.7102-3.9829-5.9608-9.3299-5.9608-15.1952z"/></g></svg>