<svg fill="none" viewBox="0 0 75 48" xmlns="http://www.w3.org/2000/svg"><g clip-path="url(#a)" fill="currentColor"><path d="m52.262 1.63c-6.4928 0-12.331 2.769-16.409 7.1748l9.9983 9.9983c2.8644 2.8644 2.8644 7.5294 0 10.394l-9.9983 9.9983c4.092 4.4058 9.9301 7.1748 16.409 7.1748 12.358 0 22.37-10.012 22.37-22.37 0-12.358-10.012-22.37-22.37-22.37z"/><path d="m29.893 24c0-5.8653 2.2643-11.212 5.9608-15.195l-6.6565-6.6564c-2.8644-2.8645-7.5294-2.8645-10.394 0l-16.655 16.655c-2.8645 2.8644-2.8645 7.5294 0 10.394l16.655 16.655c2.8644 2.8644 7.5294 2.8644 10.394 0l6.6565-6.6565c-3.7102-3.9829-5.9608-9.3299-5.9608-15.195z"/></g><defs><clipPath id="a"><rect width="75" height="48" fill="currentColor"/></clipPath></defs></svg>
