<svg width="300" height="315" viewBox="0 0 300 315" fill="none" xmlns="http://www.w3.org/2000/svg">
<mask id="mask0_1161_860" style="mask-type:luminance" maskUnits="userSpaceOnUse" x="0" y="0" width="300" height="315">
<path d="M300 0H0V314.891H300V0Z" fill="white"/>
</mask>
<g mask="url(#mask0_1161_860)">
<path d="M47.7364 32.4172C21.3663 32.4172 0 53.7256 0 80.016C0 106.306 21.3663 127.615 47.7364 127.615C74.1065 127.615 95.4616 106.306 95.4616 80.016C95.4616 53.7256 74.0953 32.4172 47.7364 32.4172Z" fill="#FFD997"/>
<path d="M188.206 161.127C188.825 111.696 157.37 71.2215 117.951 70.7239C78.5308 70.2262 46.0736 109.894 45.4553 159.324C44.8369 208.755 76.2916 249.229 115.711 249.727C155.131 250.225 187.589 210.557 188.206 161.127Z" fill="#181190"/>
<path d="M217.16 266.753C206.181 219.771 211.575 194.525 206.304 177.312C205.522 174.742 201.445 191.562 201.881 185.997C198.329 186.603 192.555 190.003 189.047 190.261C184.993 190.552 186.635 213.039 182.648 212.983C181.62 212.972 180.604 212.916 179.587 212.893C177.275 219.222 176.08 225.73 176.974 231.71C180.514 255.689 199.222 283.988 195.816 293.347L194.554 297.352C194.364 297.936 194.185 298.508 193.995 299.092H220.812C221.84 284.695 217.16 266.753 217.16 266.753Z" fill="#FFA492"/>
<path d="M209.754 178.31C205.376 149.731 209.419 121.488 195.168 100.718C191.549 101.291 187.93 101.986 184.345 102.761C183.608 102.918 182.882 103.097 182.145 103.266C182.145 103.288 182.145 103.299 182.156 103.322C182.926 105.936 183.798 108.517 184.635 111.109C185.406 113.521 186.143 115.956 186.69 118.447C187.416 121.723 187.584 124.989 187.483 128.445C187.427 130.397 187.506 132.35 187.774 134.268C188.109 136.748 188.567 139.206 188.913 141.697C189.661 147.105 187.841 149.439 188.12 154.892C188.399 160.402 188.6 174.428 188.824 179.948L189.583 194.423L196.039 191.326C203.556 190.451 211.039 186.726 209.754 178.333V178.31Z" fill="#9191FF"/>
<path d="M99.1474 310.346C99.1921 310.537 99.2815 310.705 99.3485 310.873C99.3261 310.615 99.2926 310.357 99.2703 310.11C99.2256 310.189 99.1363 310.301 99.1474 310.346Z" fill="#9C86C3"/>
<path d="M117.722 195.299C118.291 195.433 118.85 195.568 119.419 195.691C118.973 193.84 118.369 194.109 117.722 195.299Z" fill="#9C86C3"/>
<path d="M117.722 195.299C116.471 194.996 115.22 194.693 113.958 194.412C113.143 212.433 115.644 199.147 117.722 195.299Z" fill="#9C86C3"/>
<path d="M122.669 194.996C122.836 194.39 122.971 194.008 123.105 193.818C122.982 194.019 122.836 194.39 122.669 194.996Z" fill="#9C86C3"/>
<path d="M190.577 231.924C187.338 214.935 184.289 198.889 181.866 184.1L181.553 182.215L179.196 182.462C177.074 182.686 175.779 183.158 174.628 183.573C173.679 183.921 172.908 184.201 171.612 184.358C165.335 184.246 158.991 184.19 152.625 184.134C135.067 183.977 116.918 183.82 99.3042 182.339L99.4494 182.002L97.9192 181.89C97.4948 181.744 97.0481 181.688 96.5678 181.699C96.4226 181.048 96.1657 180.487 95.6631 180.083C95.4062 179.881 95.0711 179.713 94.6579 179.601C94.4569 179.545 94.2446 179.511 94.0324 179.5C93.2171 179.444 92.4241 179.724 91.8433 180.263L93.4963 181.419C93.3958 181.407 93.2953 181.396 93.1948 181.374H93.1724C92.1784 181.205 91.1843 181.026 90.2015 180.813L86.4933 180.027L87.2305 183.046C87.3869 183.696 87.5432 185.2 87.331 188.622C87.2528 189.969 86.4598 191.787 85.3764 194.322C82.8634 200.157 90.9609 210.941 89.5648 228.916C88.6378 240.911 73.1352 265.799 66.1992 299.069H202.629C198.798 275.157 194.453 252.323 190.566 231.901L190.577 231.924Z" fill="#0D0043"/>
<path d="M123.618 257.092C131.18 256.116 138.73 254.982 146.191 253.254C152.077 251.897 157.84 250.157 163.347 247.352C173.142 242.348 181.597 234.471 188.298 224.798C194.519 215.81 192.241 204.589 195.915 193.862L196.686 190.732C194.631 191.091 193.212 190.058 192.118 190.575C191.202 191.001 187.807 189.071 186.556 189.307C180.424 189.531 181.072 198.137 174.862 198.44C157.74 199.26 140.037 200.112 122.792 199.518L122.915 199.147L121.418 199.114C120.994 198.99 120.558 198.945 120.089 198.979C119.91 198.295 119.631 197.711 119.117 197.307C118.849 197.105 118.525 196.948 118.112 196.847C117.911 196.802 116.526 191.82 116.325 191.82C115.532 191.82 111.053 193.29 110.517 193.896L112.617 197.161C112.516 197.161 103.514 199.215 109.892 199.349L107.434 199.529C106.463 199.417 114.806 198.564 113.834 198.396L110.171 197.767L111.064 200.943C111.254 201.627 102.33 201.605 102.319 205.274C102.319 206.71 92.6801 212.534 91.7643 215.283C89.6421 221.645 104.195 230.083 103.838 249.327C103.793 251.919 103.525 255.442 103.101 259.673C109.936 258.73 116.794 257.956 123.641 257.069L123.618 257.092Z" fill="#8780FF"/>
<path d="M202.84 254.96C203.767 259.807 201.88 264.879 197.993 267.303C177.141 280.33 115.32 270.871 101.325 268.829C81.7904 269.614 111.288 202.962 108.496 188.252L107.435 188.678C114.56 179.937 122.368 171.275 125.562 159.74C127.315 153.411 128.432 146.791 128.689 140.159C128.812 136.838 128.712 133.494 128.231 130.218C127.762 127.053 126.88 123.979 125.797 121.005C121.541 109.347 114.147 99.5962 108.473 88.8018C116.37 84.6164 126.545 82.2488 140.294 81.396C152.468 80.633 149.776 73.2384 160.99 80.0831L168.875 83.3821C199.3 96.5554 201.087 106.475 205.32 129.533C204.784 131.284 197.044 147.397 196.541 149.17C194.129 157.709 201.567 149.214 200.718 158.113C199.869 166.921 196.094 186.176 196.731 195.018L202.829 254.971L202.84 254.96Z" fill="#8780FF"/>
<path d="M152.458 201.593L64.8356 239.541C58.5423 242.267 55.6399 249.601 58.3528 255.924L80.4291 307.372C83.142 313.695 90.443 316.612 96.7363 313.886L184.359 275.938C190.652 273.213 193.554 265.878 190.841 259.555L168.765 208.106C166.052 201.783 158.751 198.868 152.458 201.593Z" fill="#D9D9FF"/>
<path d="M126.847 267.426C133.034 267.426 138.05 262.388 138.05 256.172C138.05 249.957 133.034 244.917 126.847 244.917C120.661 244.917 115.645 249.957 115.645 256.172C115.645 262.388 120.661 267.426 126.847 267.426Z" fill="#8780FF"/>
<path d="M130.633 253.03C116.649 239.733 113.053 229.915 98.5329 216.439L104.542 189.486L73.3691 182.148C71.5262 179.679 69.7615 178.434 68.142 179.152C66.2768 179.982 63.7749 183.326 61.4518 188.151L57.8107 185.335L61.1279 192.751C59.5866 201.728 55.8003 211.737 56.0125 217.101C56.2135 222.307 57.1964 227.3 59.3855 231.901C60.279 234.123 61.6752 236.143 63.8308 238.813C80.8077 259.931 116.482 275.819 116.951 285.828L117.409 290.047C118.336 298.654 115.543 301.717 122.747 305.891C131.426 310.907 134.486 310.391 148.358 303.67C170.227 293.077 130.644 253.03 130.644 253.03H130.633Z" fill="#FFA492"/>
<path d="M178.201 89.5987L174.203 83.1355C173.577 82.1368 172.326 81.6319 171.232 82.0807C169.847 82.6642 169.355 84.3024 170.115 85.5255L174.191 92.0897C175.487 94.1768 175.867 96.6566 175.264 98.8895C175.197 99.1476 175.119 99.3833 175.029 99.5965C174.046 101.942 172.561 103.681 168.618 104.478L168.127 104.556C161.157 105.97 151.127 104.006 142.996 99.8994C143.633 99.7087 144.247 99.5291 144.783 99.3608C149.307 97.9582 149.474 92.3366 154.188 92.0673C160.387 91.7194 161.783 90.7095 164.385 89.8119C163.67 89.363 162.955 88.903 162.252 88.4429C159.716 86.771 157.148 85.1552 154.623 83.4609C152.758 82.2154 150.915 80.925 149.084 79.6234C147.464 80.1732 145.442 80.6332 142.717 80.8015C127.896 81.6992 116.939 84.1341 108.417 88.3981C110.55 92.2468 112.918 95.9609 115.286 99.675C118.972 98.3622 120.033 106.082 123.786 105.072C125.606 104.579 128.499 103.827 131.671 102.996C134.631 102.211 137.792 102.559 140.517 103.961C147.006 107.316 154.545 109.392 161.258 109.729C163.994 109.864 166.597 109.706 168.92 109.235L169.411 109.157C174.415 108.147 177.576 105.689 179.352 101.437C179.508 101.055 179.664 100.618 179.787 100.146C180.737 96.6342 180.156 92.7966 178.168 89.5987H178.201Z" fill="#413ECB"/>
<path d="M185.786 113.409C181.084 100.977 174.907 90.2383 167.066 85.8285L174.483 84.8074C208.76 101.179 200.775 159.044 198.105 196.982C198.049 197.835 196.798 197.823 196.742 196.982L194.486 155.7C193.693 141.248 190.912 126.941 185.786 113.409Z" fill="#181190"/>
<path d="M79.1332 120.108C82.8302 118.009 86.0022 115.126 89.4646 112.68C91.2963 111.389 93.262 110.312 95.2278 109.246C97.2717 108.135 99.338 107.081 101.438 106.082C107.246 103.288 113.266 100.876 119.398 98.8334C118.404 98.508 117.141 97.1166 116.214 97.0268C112.908 96.7126 123.653 93.9635 120.38 93.3576C117.108 92.7517 113.489 90.5748 110.284 89.6547C110.071 89.5986 107.972 90.3953 105.258 91.4725C93.9433 95.9608 84.8629 104.825 80.1496 116.102C80.1161 116.192 80.0714 116.281 80.0379 116.371C79.6023 117.415 79.1221 118.772 78.5859 120.377C78.7646 120.276 78.9545 120.209 79.1332 120.108Z" fill="#413EC9"/>
<path d="M119.709 98.9007C118.682 98.8333 117.23 97.1165 116.214 97.0268C112.908 96.7126 123.652 93.9635 120.38 93.3576C117.107 92.7516 113.488 90.5748 110.283 89.6547C110.071 89.5986 110.752 93.3576 108.038 94.4348C96.7237 98.9231 84.8621 104.825 80.16 116.102C80.1264 116.192 80.0818 116.281 80.0483 116.371C76.5077 124.865 69.4713 154.051 63.9985 169.749C60.3127 180.341 58.8943 182.754 56.3365 191.988C53.9799 198.306 81.5897 209.695 103.738 207.182L105.648 204.702C106.273 203.984 109.557 189.284 110.182 188.577C114.527 183.607 118.95 178.669 122.591 173.104C124.434 170.276 126.076 167.291 127.427 164.172C128.835 160.918 129.817 157.54 130.622 154.073C132.252 147.027 133.202 139.699 132.844 132.439C132.487 125.236 130.287 118.481 127.182 112.074C124.97 107.507 122.379 103.176 119.709 98.9007Z" fill="#8780FF"/>
<path d="M276.065 227.491C275.942 227.368 275.83 227.233 275.719 227.11C275.842 227.233 275.942 227.368 276.065 227.491Z" fill="#BE8089"/>
<path d="M278.108 233.45C278.142 233.18 278.187 232.911 278.254 232.63C278.198 232.9 278.142 233.18 278.108 233.45Z" fill="#BE8089"/>
<path d="M278.063 234.269C278.063 234.033 278.086 233.797 278.108 233.562C278.086 233.797 278.075 234.033 278.063 234.269Z" fill="#BE8089"/>
<path d="M294.84 223.609C294.84 223.755 294.862 223.889 294.896 224.024C294.851 223.889 294.829 223.755 294.84 223.609Z" fill="#BE8089"/>
<path d="M277.093 228.332C276.959 228.242 276.858 228.142 276.735 228.052C276.858 228.142 276.97 228.242 277.093 228.332Z" fill="#BE8089"/>
<path d="M295.108 224.393C295.041 224.304 294.974 224.203 294.94 224.102C294.963 224.147 294.974 224.203 294.996 224.248C295.03 224.304 295.074 224.348 295.108 224.393Z" fill="#BE8089"/>
<path d="M280.175 239.138C280.052 239.048 279.929 238.948 279.807 238.836C279.918 238.948 280.041 239.037 280.175 239.138Z" fill="#BE8089"/>
<path d="M299.933 231.823C299.933 231.823 299.922 231.878 299.911 231.901C299.911 231.878 299.922 231.845 299.933 231.823Z" fill="#BE8089"/>
<path d="M274.065 224.304C274.065 224.304 274.043 224.203 274.021 224.147C274.032 224.203 274.043 224.248 274.065 224.304Z" fill="#BE8089"/>
<path d="M295.187 224.495C295.287 224.607 295.41 224.697 295.555 224.764C295.41 224.697 295.287 224.596 295.187 224.495Z" fill="#BE8089"/>
<path d="M279.214 238.173C279.08 237.994 278.957 237.803 278.846 237.612C278.957 237.814 279.08 237.994 279.214 238.173Z" fill="#BE8089"/>
<path d="M273.942 221.981C273.942 221.981 273.954 221.926 273.965 221.903C273.965 221.926 273.954 221.959 273.942 221.981Z" fill="#BE8089"/>
<path d="M278.779 237.478C278.69 237.309 278.611 237.141 278.533 236.962C278.6 237.141 278.69 237.309 278.779 237.478Z" fill="#BE8089"/>
<path d="M278.455 236.749C278.388 236.558 278.332 236.367 278.276 236.176C278.332 236.378 278.388 236.569 278.455 236.749Z" fill="#BE8089"/>
<path d="M279.025 230.196C279.025 230.05 279.002 229.915 278.969 229.78C279.013 229.915 279.036 230.05 279.025 230.196Z" fill="#BE8089"/>
<path d="M278.242 236.042C278.187 235.795 278.142 235.548 278.108 235.301C278.142 235.559 278.187 235.806 278.242 236.042Z" fill="#BE8089"/>
<path d="M299.353 228.355C299.353 228.355 299.408 228.456 299.43 228.511C299.408 228.456 299.375 228.411 299.353 228.355Z" fill="#BE8089"/>
<path d="M295.756 220.355C295.722 220.624 295.677 220.893 295.61 221.174C295.666 220.905 295.722 220.635 295.756 220.355Z" fill="#BE8089"/>
<path d="M274.511 225.448C274.511 225.448 274.456 225.348 274.434 225.292C274.456 225.348 274.489 225.392 274.511 225.448Z" fill="#BE8089"/>
<path d="M294.65 215.62C294.784 215.799 294.907 215.99 295.019 216.181C294.907 215.979 294.784 215.799 294.65 215.62Z" fill="#BE8089"/>
<path d="M297.812 226.313C297.934 226.437 298.046 226.56 298.158 226.683C298.046 226.56 297.934 226.425 297.812 226.313Z" fill="#BE8089"/>
<path d="M295.085 216.326C295.174 216.495 295.252 216.663 295.331 216.843C295.264 216.663 295.174 216.495 295.085 216.326Z" fill="#BE8089"/>
<path d="M295.633 217.763C295.689 218.01 295.733 218.257 295.767 218.503C295.733 218.245 295.689 217.998 295.633 217.763Z" fill="#BE8089"/>
<path d="M278.678 229.308C278.578 229.196 278.455 229.107 278.31 229.04C278.455 229.107 278.578 229.207 278.678 229.308Z" fill="#BE8089"/>
<path d="M278.757 229.41C278.824 229.499 278.891 229.6 278.924 229.701C278.902 229.656 278.891 229.6 278.869 229.555C278.835 229.5 278.79 229.455 278.757 229.41Z" fill="#BE8089"/>
<path d="M295.811 219.547C295.811 219.783 295.789 220.007 295.767 220.243C295.789 220.007 295.8 219.771 295.811 219.547Z" fill="#BE8089"/>
<path d="M280.923 239.599C280.722 239.498 280.521 239.385 280.342 239.262C280.532 239.385 280.722 239.509 280.923 239.599Z" fill="#BE8089"/>
<path d="M296.771 225.471C296.894 225.561 297.006 225.662 297.118 225.751C296.995 225.662 296.894 225.561 296.771 225.471Z" fill="#BE8089"/>
<path d="M292.941 214.206C293.142 214.307 293.343 214.419 293.522 214.542C293.332 214.419 293.142 214.296 292.941 214.206Z" fill="#BE8089"/>
<path d="M278.566 231.542C278.667 231.273 278.779 230.992 278.901 230.723C278.767 230.992 278.667 231.273 278.566 231.542Z" fill="#BE8089"/>
<path d="M299.799 229.5C299.799 229.5 299.821 229.6 299.832 229.656C299.821 229.6 299.81 229.555 299.799 229.5Z" fill="#BE8089"/>
<path d="M298.659 227.267C298.771 227.402 298.849 227.559 298.95 227.705C298.849 227.559 298.771 227.413 298.659 227.267Z" fill="#BE8089"/>
<path d="M293.689 214.666C293.812 214.767 293.935 214.867 294.058 214.968C293.946 214.856 293.823 214.755 293.689 214.666Z" fill="#BE8089"/>
<path d="M278.254 232.63C278.198 232.9 278.143 233.18 278.109 233.45C278.109 233.483 278.109 233.517 278.109 233.551C278.087 233.786 278.076 234.022 278.064 234.258C278.064 234.336 278.064 234.415 278.064 234.493C278.064 234.695 278.076 234.897 278.098 235.099C278.098 235.166 278.098 235.223 278.12 235.29C278.154 235.548 278.198 235.795 278.254 236.03C278.254 236.075 278.277 236.12 278.288 236.165C278.344 236.367 278.399 236.558 278.466 236.737C278.489 236.805 278.522 236.872 278.545 236.939C278.612 237.119 278.701 237.287 278.79 237.455C278.813 237.489 278.824 237.534 278.835 237.568C278.835 237.579 278.846 237.59 278.857 237.601C278.969 237.803 279.092 237.983 279.226 238.162C279.259 238.207 279.293 238.241 279.326 238.275C279.438 238.409 279.55 238.544 279.673 238.667C279.729 238.723 279.773 238.768 279.829 238.813C279.941 238.925 280.064 239.015 280.198 239.116C280.253 239.161 280.309 239.195 280.365 239.24C280.555 239.363 280.745 239.486 280.946 239.576C283.749 240.911 287.39 239.116 289.077 235.559C289.379 234.908 290.116 234.65 290.752 234.953H290.764C294.304 236.648 298.258 235.739 299.598 232.922C299.755 232.586 299.866 232.238 299.933 231.89C299.933 231.867 299.944 231.834 299.956 231.811C300.023 231.475 300.034 231.127 300.023 230.779C300.023 230.734 300.023 230.689 300.023 230.644C300 230.308 299.944 229.971 299.866 229.635C299.855 229.578 299.844 229.534 299.833 229.477C299.743 229.141 299.621 228.815 299.464 228.49C299.442 228.434 299.408 228.389 299.386 228.333C299.352 228.254 299.319 228.187 299.274 228.108C299.196 227.963 299.073 227.817 298.984 227.671C298.895 227.525 298.805 227.379 298.694 227.233C298.537 227.031 298.37 226.841 298.191 226.661C298.079 226.538 297.968 226.403 297.845 226.291C297.632 226.089 297.398 225.909 297.163 225.73C297.041 225.64 296.94 225.539 296.817 225.449C296.437 225.191 296.046 224.955 295.611 224.753H295.6C295.455 224.675 295.343 224.585 295.231 224.473C295.198 224.439 295.175 224.406 295.153 224.361C295.119 224.316 295.075 224.271 295.041 224.215C295.019 224.17 294.997 224.114 294.985 224.069C294.985 224.047 294.963 224.024 294.952 224.002C294.907 223.867 294.885 223.732 294.896 223.586C294.896 223.553 294.896 223.53 294.896 223.508C294.907 223.362 294.941 223.216 295.008 223.07C295.131 222.79 295.242 222.509 295.343 222.24C295.376 222.161 295.399 222.083 295.421 222.004C295.488 221.802 295.544 221.589 295.6 221.387C295.622 221.309 295.644 221.23 295.656 221.163C295.711 220.893 295.767 220.613 295.801 220.344C295.801 220.31 295.801 220.265 295.801 220.231C295.823 219.996 295.834 219.76 295.845 219.536C295.845 219.457 295.845 219.379 295.845 219.289C295.845 219.087 295.834 218.885 295.812 218.694C295.812 218.627 295.812 218.56 295.79 218.492C295.756 218.234 295.711 217.987 295.656 217.752C295.644 217.707 295.633 217.662 295.611 217.606C295.555 217.415 295.499 217.224 295.432 217.033C295.41 216.966 295.376 216.899 295.354 216.832C295.287 216.652 295.198 216.484 295.108 216.315C295.086 216.282 295.075 216.248 295.064 216.214C295.064 216.203 295.052 216.192 295.041 216.181C294.93 215.979 294.807 215.799 294.673 215.62C294.639 215.586 294.606 215.541 294.583 215.507C294.472 215.373 294.36 215.238 294.237 215.115C294.181 215.059 294.137 215.014 294.081 214.969C293.969 214.857 293.846 214.756 293.712 214.666C293.656 214.621 293.6 214.587 293.556 214.542C293.366 214.419 293.176 214.296 292.975 214.206C290.172 212.871 286.53 214.666 284.844 218.223C284.542 218.874 283.805 219.132 283.169 218.829H283.157C279.617 217.134 275.663 218.043 274.323 220.86C274.166 221.196 274.055 221.544 273.988 221.892C273.988 221.915 273.976 221.948 273.965 221.971C273.898 222.307 273.887 222.655 273.898 223.003C273.898 223.048 273.898 223.093 273.898 223.138C273.921 223.474 273.976 223.811 274.055 224.148C274.066 224.204 274.077 224.249 274.099 224.305C274.189 224.641 274.312 224.967 274.468 225.281C274.49 225.337 274.524 225.382 274.546 225.438C274.58 225.516 274.613 225.584 274.658 225.662C274.736 225.808 274.859 225.954 274.948 226.1C275.049 226.246 275.127 226.392 275.239 226.538C275.395 226.74 275.562 226.919 275.741 227.11C275.864 227.233 275.965 227.368 276.087 227.491C276.3 227.693 276.534 227.862 276.769 228.041C276.892 228.131 277.003 228.232 277.126 228.322C277.506 228.58 277.897 228.815 278.332 229.017H278.344C278.489 229.096 278.612 229.186 278.712 229.298C278.746 229.332 278.768 229.365 278.79 229.41C278.824 229.455 278.869 229.5 278.902 229.556C278.924 229.601 278.947 229.657 278.958 229.702C278.958 229.724 278.98 229.747 278.991 229.769C279.036 229.904 279.058 230.038 279.047 230.184C279.047 230.218 279.047 230.24 279.047 230.263C279.036 230.409 279.003 230.555 278.936 230.701C278.802 230.981 278.701 231.262 278.6 231.531C278.567 231.609 278.545 231.688 278.522 231.766C278.455 231.98 278.399 232.182 278.344 232.395C278.321 232.473 278.31 232.541 278.288 232.619L278.254 232.63Z" fill="#C8B7FE"/>
<path d="M289.557 225.472C289.49 225.337 289.401 225.214 289.3 225.101C288.474 224.114 286.999 223.979 286.016 224.821C285.145 225.55 284.944 226.784 285.48 227.749C285.547 227.884 285.637 228.008 285.737 228.12C286.564 229.107 288.038 229.242 289.021 228.4C289.892 227.671 290.093 226.437 289.557 225.472Z" fill="#8A88FF"/>
<path d="M236.002 227.581C236.728 227.357 237.443 227.099 238.157 226.784C238.794 226.493 239.397 226.178 239.945 225.842C240.134 225.73 240.291 225.595 240.469 225.483C240.816 225.247 241.173 225.011 241.497 224.765C241.687 224.607 241.854 224.428 242.033 224.271C242.301 224.035 242.569 223.8 242.804 223.542C242.982 223.351 243.128 223.138 243.295 222.947C243.474 222.722 243.675 222.509 243.843 222.262C243.865 222.229 243.876 222.195 243.898 222.161C244.099 221.87 244.267 221.555 244.446 221.241C244.568 221.017 244.714 220.804 244.837 220.568C245.004 220.22 245.149 219.85 245.306 219.491C245.395 219.266 245.507 219.042 245.596 218.806C245.741 218.38 245.864 217.931 245.998 217.482C246.054 217.269 246.132 217.078 246.177 216.865C246.344 216.181 246.49 215.474 246.612 214.733C246.624 214.643 246.646 214.531 246.668 214.419C246.668 214.363 246.691 214.318 246.691 214.262C246.713 214.116 246.735 213.948 246.735 213.791C246.735 213.768 246.735 213.757 246.735 213.734C246.746 213.734 246.758 213.712 246.78 213.701C246.813 213.678 246.858 213.645 246.892 213.622C247.227 213.398 247.551 213.151 247.852 212.893C247.919 212.837 247.997 212.77 248.064 212.702C248.377 212.41 248.679 212.107 248.958 211.782C249.014 211.726 249.058 211.659 249.103 211.591C249.226 211.445 249.338 211.3 249.449 211.142C249.595 210.941 249.729 210.727 249.851 210.514C250.064 210.155 249.974 209.661 249.572 209.37C249.483 209.302 249.382 209.257 249.271 209.224C249.237 209.224 249.204 209.224 249.159 209.212C249.081 209.201 249.014 209.19 248.936 209.19C248.891 209.19 248.857 209.213 248.813 209.224C248.746 209.235 248.69 209.246 248.634 209.269C248.601 209.291 248.567 209.325 248.545 209.347C248.5 209.381 248.455 209.403 248.422 209.448C248.422 209.459 248.411 209.471 248.399 209.482C248.277 209.684 248.154 209.886 248.009 210.088C247.942 210.189 247.852 210.278 247.774 210.379C247.707 210.469 247.64 210.548 247.573 210.638C247.338 210.918 247.093 211.199 246.813 211.445C246.813 211.445 246.802 211.457 246.791 211.468C246.512 211.726 246.21 211.95 245.898 212.175C245.808 212.242 245.708 212.298 245.618 212.354C245.507 212.422 245.406 212.5 245.294 212.568C245.283 212.568 245.272 212.568 245.25 212.568C245.116 212.545 244.982 212.534 244.848 212.511C244.636 212.478 244.412 212.455 244.211 212.433C243.977 212.41 243.742 212.377 243.507 212.354C243.306 212.332 243.105 212.321 242.915 212.298C242.692 212.276 242.458 212.265 242.234 212.253C242.044 212.253 241.854 212.231 241.676 212.22C241.452 212.22 241.229 212.22 241.006 212.208C240.827 212.208 240.648 212.208 240.481 212.208C240.246 212.208 240.023 212.22 239.788 212.231C239.621 212.231 239.453 212.231 239.286 212.253C239.04 212.265 238.783 212.287 238.537 212.309C238.381 212.321 238.224 212.332 238.057 212.343C237.778 212.366 237.476 212.41 237.186 212.444C237.052 212.455 236.918 212.478 236.773 212.489C236.337 212.545 235.89 212.612 235.421 212.691C234.941 212.77 234.472 212.87 234.014 212.983C233.869 213.016 233.723 213.061 233.578 213.106C233.277 213.185 232.975 213.274 232.673 213.375C232.506 213.432 232.35 213.488 232.182 213.555C231.914 213.656 231.646 213.757 231.389 213.869C231.222 213.936 231.065 214.015 230.909 214.082C230.652 214.195 230.406 214.318 230.16 214.453C230.015 214.531 229.859 214.61 229.714 214.688C229.457 214.834 229.211 214.98 228.965 215.137C228.843 215.216 228.72 215.283 228.608 215.362C228.273 215.586 227.949 215.822 227.636 216.057C227.614 216.08 227.592 216.091 227.569 216.113C227.268 216.36 226.966 216.607 226.676 216.865C225.659 217.785 224.755 218.806 223.995 219.906C222.476 222.072 221.471 224.495 220.991 226.874C220.857 227.525 220.957 227.862 221.784 228.007C226.598 228.827 231.277 229.062 235.834 227.66C235.879 227.648 235.924 227.626 235.968 227.615L236.002 227.581Z" fill="#7F72F6" stroke="#7F72F6" stroke-width="1.02" stroke-miterlimit="10"/>
<path d="M276.065 227.491C275.942 227.368 275.83 227.233 275.719 227.11C275.842 227.233 275.942 227.368 276.065 227.491Z" fill="#BE8089"/>
<path d="M278.108 233.45C278.142 233.18 278.187 232.911 278.254 232.63C278.198 232.9 278.142 233.18 278.108 233.45Z" fill="#BE8089"/>
<path d="M278.063 234.269C278.063 234.033 278.086 233.797 278.108 233.562C278.086 233.797 278.075 234.033 278.063 234.269Z" fill="#BE8089"/>
<path d="M294.84 223.609C294.84 223.755 294.862 223.889 294.896 224.024C294.851 223.889 294.829 223.755 294.84 223.609Z" fill="#BE8089"/>
<path d="M277.093 228.332C276.959 228.242 276.858 228.142 276.735 228.052C276.858 228.142 276.97 228.242 277.093 228.332Z" fill="#BE8089"/>
<path d="M295.108 224.393C295.041 224.304 294.974 224.203 294.94 224.102C294.963 224.147 294.974 224.203 294.996 224.248C295.03 224.304 295.074 224.348 295.108 224.393Z" fill="#BE8089"/>
<path d="M280.175 239.138C280.052 239.048 279.929 238.948 279.807 238.836C279.918 238.948 280.041 239.037 280.175 239.138Z" fill="#BE8089"/>
<path d="M299.933 231.823C299.933 231.823 299.922 231.878 299.911 231.901C299.911 231.878 299.922 231.845 299.933 231.823Z" fill="#BE8089"/>
<path d="M274.065 224.304C274.065 224.304 274.043 224.203 274.021 224.147C274.032 224.203 274.043 224.248 274.065 224.304Z" fill="#BE8089"/>
<path d="M295.187 224.495C295.287 224.607 295.41 224.697 295.555 224.764C295.41 224.697 295.287 224.596 295.187 224.495Z" fill="#BE8089"/>
<path d="M279.214 238.173C279.08 237.994 278.957 237.803 278.846 237.612C278.957 237.814 279.08 237.994 279.214 238.173Z" fill="#BE8089"/>
<path d="M273.942 221.981C273.942 221.981 273.954 221.926 273.965 221.903C273.965 221.926 273.954 221.959 273.942 221.981Z" fill="#BE8089"/>
<path d="M278.779 237.478C278.69 237.309 278.611 237.141 278.533 236.962C278.6 237.141 278.69 237.309 278.779 237.478Z" fill="#BE8089"/>
<path d="M278.455 236.749C278.388 236.558 278.332 236.367 278.276 236.176C278.332 236.378 278.388 236.569 278.455 236.749Z" fill="#BE8089"/>
<path d="M279.025 230.196C279.025 230.05 279.002 229.915 278.969 229.78C279.013 229.915 279.036 230.05 279.025 230.196Z" fill="#BE8089"/>
<path d="M278.242 236.042C278.187 235.795 278.142 235.548 278.108 235.301C278.142 235.559 278.187 235.806 278.242 236.042Z" fill="#BE8089"/>
<path d="M299.353 228.355C299.353 228.355 299.408 228.456 299.43 228.511C299.408 228.456 299.375 228.411 299.353 228.355Z" fill="#BE8089"/>
<path d="M295.756 220.355C295.722 220.624 295.677 220.893 295.61 221.174C295.666 220.905 295.722 220.635 295.756 220.355Z" fill="#BE8089"/>
<path d="M274.511 225.448C274.511 225.448 274.456 225.348 274.434 225.292C274.456 225.348 274.489 225.392 274.511 225.448Z" fill="#BE8089"/>
<path d="M294.65 215.62C294.784 215.799 294.907 215.99 295.019 216.181C294.907 215.979 294.784 215.799 294.65 215.62Z" fill="#BE8089"/>
<path d="M297.812 226.313C297.934 226.437 298.046 226.56 298.158 226.683C298.046 226.56 297.934 226.425 297.812 226.313Z" fill="#BE8089"/>
<path d="M295.085 216.326C295.174 216.495 295.252 216.663 295.331 216.843C295.264 216.663 295.174 216.495 295.085 216.326Z" fill="#BE8089"/>
<path d="M295.633 217.763C295.689 218.01 295.733 218.257 295.767 218.503C295.733 218.245 295.689 217.998 295.633 217.763Z" fill="#BE8089"/>
<path d="M278.678 229.308C278.578 229.196 278.455 229.107 278.31 229.04C278.455 229.107 278.578 229.207 278.678 229.308Z" fill="#BE8089"/>
<path d="M278.757 229.41C278.824 229.499 278.891 229.6 278.924 229.701C278.902 229.656 278.891 229.6 278.869 229.555C278.835 229.5 278.79 229.455 278.757 229.41Z" fill="#BE8089"/>
<path d="M295.811 219.547C295.811 219.783 295.789 220.007 295.767 220.243C295.789 220.007 295.8 219.771 295.811 219.547Z" fill="#BE8089"/>
<path d="M280.923 239.599C280.722 239.498 280.521 239.385 280.342 239.262C280.532 239.385 280.722 239.509 280.923 239.599Z" fill="#BE8089"/>
<path d="M296.771 225.471C296.894 225.561 297.006 225.662 297.118 225.751C296.995 225.662 296.894 225.561 296.771 225.471Z" fill="#BE8089"/>
<path d="M292.941 214.206C293.142 214.307 293.343 214.419 293.522 214.542C293.332 214.419 293.142 214.296 292.941 214.206Z" fill="#BE8089"/>
<path d="M278.566 231.542C278.667 231.273 278.779 230.992 278.901 230.723C278.767 230.992 278.667 231.273 278.566 231.542Z" fill="#BE8089"/>
<path d="M299.799 229.5C299.799 229.5 299.821 229.6 299.832 229.656C299.821 229.6 299.81 229.555 299.799 229.5Z" fill="#BE8089"/>
<path d="M298.659 227.267C298.771 227.402 298.849 227.559 298.95 227.705C298.849 227.559 298.771 227.413 298.659 227.267Z" fill="#BE8089"/>
<path d="M293.689 214.666C293.812 214.767 293.935 214.867 294.058 214.968C293.946 214.856 293.823 214.755 293.689 214.666Z" fill="#BE8089"/>
<path d="M265.198 262.209C265.377 262.298 265.567 262.377 265.756 262.433C266.684 262.758 267.365 263.017 268.068 263.23C268.102 263.23 268.124 263.252 268.158 263.252C268.225 263.275 268.27 263.252 268.337 263.263C268.392 263.263 268.448 263.286 268.493 263.275C268.56 263.275 268.616 263.241 268.672 263.219C268.705 263.207 268.75 263.196 268.783 263.174C268.839 263.14 268.884 263.073 268.928 263.017C268.951 262.983 268.984 262.972 268.995 262.938C269.063 262.826 269.118 262.702 269.163 262.545C270.47 258.371 269.643 254.522 267.555 250.831C264.528 245.501 259.882 241.899 254.822 238.735C254.721 238.667 254.621 238.622 254.532 238.6C254.52 238.6 254.509 238.6 254.498 238.6C254.465 238.6 254.442 238.6 254.42 238.6C254.364 238.6 254.297 238.6 254.252 238.634C254.23 238.634 254.197 238.656 254.174 238.679C254.13 238.712 254.085 238.757 254.04 238.802C254.018 238.824 254.007 238.847 253.984 238.869C253.928 238.948 253.884 239.049 253.839 239.161C252.331 242.752 252.063 246.398 253.426 250.079C255.615 255.992 259.993 259.718 265.198 262.197V262.209Z" fill="#83B49D" stroke="#83B49D" stroke-width="2.04" stroke-linecap="round" stroke-linejoin="round"/>
<path d="M106.642 92.3364C104.899 91.5173 102.867 91.6071 101.147 92.4711C91.7647 97.2063 84.0469 104.489 79.9478 114.307L79.8361 114.587C77.2673 120.77 61.3961 172.677 57.0625 187.657C57.1965 187.455 57.7885 186.21 58.682 184.325C62.647 175.909 72.4199 154.533 72.8778 153.557C76.4073 146.118 79.5793 138.813 83.991 133.158C85.9791 130.599 87.9672 128.052 90.1898 125.696C92.3901 123.373 94.7468 121.207 97.2487 119.21C102.208 115.238 107.681 111.916 113.466 109.302C115.354 108.45 117.286 107.675 119.24 106.98C117.163 100.056 113.153 95.3997 106.653 92.3364H106.642Z" fill="#413ECB"/>
<path d="M94.9033 88.8581C120.369 93.3464 124.3 107.642 118.939 146.129C117.23 158.393 102.912 197.846 100.209 211.232C99.6948 213.779 102.666 214.363 103.973 212.108C123.619 178.153 158.723 116.068 121.553 82.0021C119.162 79.8028 115.119 81.5645 111.635 80.2853L94.9145 88.8693L94.9033 88.8581Z" fill="#181190"/>
<path d="M169.054 105.106L168.853 105.151C156.366 107.687 132.855 99.7198 130.163 86.3782L127.181 71.5891C124.49 58.2363 132.431 45.366 144.929 42.8189C157.416 40.283 169.724 49.0464 172.416 62.388L175.398 77.1771C175.733 78.849 174.84 80.0048 174.404 81.5981C173.968 83.1915 173.991 85.2337 174.236 86.7485C174.996 91.5061 177.386 95.972 176.113 99.2149C174.94 102.211 173.555 104.174 169.065 105.095L169.054 105.106Z" fill="#FFA492"/>
<path opacity="0.8" d="M138.887 93.7055C136.642 93.4474 134.587 92.8527 132.699 92.0112C135.078 95.3662 138.786 98.2163 143.075 100.416C145.041 99.7311 146.75 98.9344 148.649 98.0816C150.927 97.0493 153.876 95.7589 157.126 93.8626C157.919 93.4025 157.427 92.1907 156.534 92.4151C150.659 93.9411 144.572 94.3563 138.887 93.6943V93.7055Z" fill="#CC5A5A"/>
<path d="M133.078 65.4402C137.769 60.2113 141.667 54.3316 145.141 48.2386C148.715 41.9774 151.865 35.4805 155.048 29.0061C158.644 21.6901 162.52 14.5088 165.882 7.08058C166.552 5.59943 167.178 4.10706 167.803 2.61469C185.562 8.57296 198.16 25.6286 197.669 45.411C197.066 69.6817 176.984 88.8693 152.825 88.2522C140.886 87.9492 130.186 82.8549 122.49 74.8657C126.355 72.1278 129.918 68.9748 133.078 65.4402Z" fill="#0D0043"/>
<path d="M187.975 62.5898C185.383 70.2312 179.598 78.9723 173.879 83.7187C164.017 91.9099 150.614 95.0742 138.887 93.7165C128.79 92.5383 122.245 85.0652 119.698 75.045C117.721 67.2465 118.168 57.9107 121.251 48.7882C121.876 46.9255 123.987 39.0709 124.803 37.3654C126.791 33.2361 128.354 28.254 131.258 25.1122C140.663 14.9461 155.048 11.7145 167.334 15.8999C184.981 21.9255 195.022 41.7639 187.975 62.5898Z" fill="#FFA492"/>
<path d="M118.905 26.7169C119.207 25.1235 119.509 23.5414 119.81 21.9593C122.591 9.97541 131.18 4.60063 140.562 3.56831C143.611 3.23168 146.962 5.16167 149.453 3.19802C153.943 -0.336546 158.488 -0.415092 163.369 0.493797C166.039 1.07728 168.708 1.69443 171.389 2.23303C183.284 4.64551 189.572 11.8829 193.794 24.282C197.837 36.1761 196.173 55.835 188.176 66.4275C188.812 62.2533 189.013 58.9544 188.902 56.4185C189.069 55.8126 189.203 55.1954 189.226 54.5558C189.293 53.0073 188.902 51.3242 187.807 50.1797C186.947 49.282 185.707 48.8893 184.479 49.1137C183.295 49.3269 182.491 49.787 181.731 50.6959C181.53 50.7856 181.162 51.1559 180.983 51.2793C180.826 51.3915 180.67 51.515 180.525 51.6384C180.134 51.975 179.754 52.3341 179.397 52.7044C178.95 53.1532 178.503 53.6133 178.057 54.0733C177.565 54.567 177.074 55.0608 176.571 55.5433C176.068 56.0258 175.544 56.497 175.007 56.9459C174.505 57.361 173.991 57.7426 173.444 58.0904C172.975 58.3821 172.472 58.629 171.936 58.7861C171.489 58.9095 171.009 58.9544 170.562 58.831C170.562 58.831 170.562 58.831 170.551 58.831C169.881 58.6402 169.479 57.967 169.523 57.2713C169.579 56.4522 169.736 55.5433 169.903 54.5895C171.299 46.6676 169.814 49.0127 162.52 47.8906C150.089 45.9831 138.842 40.8664 134.788 27.5024C133.47 23.1599 132.688 23.777 130.968 26.01C127.74 30.1954 127.561 31.5643 124.535 38.3193C119.788 35.7272 118.336 32.8771 118.928 26.7393L118.905 26.7169Z" fill="#0D0043"/>
<path d="M188.309 49.8206C191.716 57.9669 184.456 63.2856 181.228 67.3139C177.218 72.3072 174.169 75.8417 174.058 84.9418C178.793 80.9135 183.819 76.8292 185.752 74.4503C189.113 70.3098 188.879 65.5185 190.409 60.4355C192.788 52.5136 193.704 44.356 193.57 36.0975L188.309 49.8206Z" fill="#0D0043"/>
<path d="M130.778 45.411C130.555 45.0743 130.331 44.7489 130.041 44.4684C129.404 43.8513 128.589 43.4585 127.74 43.2229C126.69 42.9311 125.562 42.875 124.479 43.0321C124.177 43.077 123.887 43.1556 123.596 43.2565C123.563 43.3912 123.541 43.5146 123.552 43.6493C123.563 44.0308 123.73 44.5694 124.724 44.446C126.456 44.1767 125.987 43.1892 129.159 45.3436" fill="#0D0043"/>
<path d="M132.185 43.5819C129.583 39.1497 124.445 41.0909 123.652 43.0994C124.077 42.9647 124.501 42.875 124.959 42.8301C126.065 42.7403 127.193 42.8525 128.243 43.2228C129.047 43.5034 129.773 43.941 130.354 44.5806C130.577 44.8274 130.756 45.0967 130.923 45.366C131.348 45.2875 131.806 45.3997 132.465 46.2412C133.671 46.8135 132.867 44.7264 132.185 43.5707V43.5819Z" fill="#0D0043"/>
<path d="M145.075 46.9817C146.114 46.7012 147.219 46.6227 148.281 46.7798C148.783 46.8471 149.275 46.9705 149.744 47.1725C150.347 47.4306 150.928 47.756 151.486 48.1038C152.033 48.4404 152.569 48.8219 153.016 49.282C153.385 49.6635 153.698 50.0899 153.988 50.5275C154.066 50.4377 154.122 50.348 154.155 50.2582C155.094 48.0589 148.828 42.0782 143.389 45.624C142.093 46.4768 140.261 48.2272 141.992 48.2609C142.35 48.0926 142.651 47.9916 142.919 47.9355C143.567 47.4979 144.316 47.1837 145.064 46.9817H145.075Z" fill="#0D0043"/>
<path d="M172.539 55.9696L157.07 53.9835C156.378 53.8938 155.786 53.4225 155.596 52.7492C153.262 44.7039 142.472 42.9871 137.826 50.1011C137.647 50.3816 137.279 50.5163 136.988 50.3592C136.341 50.0114 135.581 49.843 134.855 49.8992C134.531 49.9216 134.263 49.6523 134.207 49.3269C132.197 37.9377 119.129 39.7779 117.621 50.6061C115.979 64.4077 132.521 66.5733 134.319 52.3004C135.056 51.8628 136.05 52.0872 136.542 52.7941C134.486 58.5953 138.384 65.6308 144.55 66.3826C150.134 67.3251 155.473 62.6909 156.02 57.1478C156.076 56.5419 156.635 56.1155 157.238 56.194L172.282 58.1353L172.562 55.9584L172.539 55.9696ZM132.063 52.7156C130.041 63.712 118.414 61.1424 119.766 50.9202C121.363 40.7429 133.202 41.5845 132.063 52.7156ZM153.775 57.159C151.865 67.9535 137.033 65.7767 138.262 54.8924C140.172 44.098 155.004 46.2748 153.775 57.159Z" fill="#0D0043"/>
<path d="M143.287 54.1406C142.661 55.9808 142.974 57.7425 143.968 58.0903C144.415 58.2474 145.588 58.0567 146.772 58.0567C148.257 58.0567 149.765 58.1465 150.111 57.1254C150.737 55.2851 147.196 52.0423 146.191 51.6945C145.186 51.3466 143.912 52.3004 143.287 54.1406Z" fill="white"/>
<path d="M142.628 53.9051C141.991 55.7678 142.527 57.6304 143.812 58.0681C145.096 58.5057 147.107 57.6192 147.732 55.7678C148.369 53.9051 147.375 52.0761 146.079 51.6385C144.795 51.2009 143.253 52.0425 142.617 53.9051H142.628Z" fill="#0D0043"/>
<path d="M123.764 50.5163C123.194 52.1882 123.474 53.7928 124.389 54.0958C124.792 54.2304 125.864 54.0621 126.936 54.0733C128.276 54.0733 129.65 54.1519 129.974 53.2205C130.544 51.5486 127.327 48.6088 126.411 48.2946C125.495 47.9804 124.334 48.8444 123.775 50.5163H123.764Z" fill="white"/>
<path d="M123.172 50.3031C122.602 51.9862 123.083 53.6806 124.255 54.0845C125.428 54.4885 127.238 53.6806 127.818 51.9974C128.399 50.3143 127.494 48.6536 126.322 48.2497C125.149 47.8457 123.753 48.62 123.183 50.3143L123.172 50.3031Z" fill="#0D0043"/>
<path opacity="0.8" d="M138.217 75.4828C135.38 75.6174 136.006 76.661 131.192 74.1924C129.181 73.1601 128.087 75.09 125.976 72.9917C124.122 72.3073 125.116 74.5066 126.043 75.7409C129.918 80.9137 139.814 78.5909 139.993 76.3917C140.026 76.0101 139.837 75.4379 138.217 75.4828Z" fill="#CC5A5A"/>
<path opacity="0.8" d="M126.869 66.6183C126.646 65.7207 126.579 65.3616 127.081 65.0025C128.098 64.5088 128.645 66.45 129.684 67.0672C129.985 67.2691 130.51 67.5272 130.89 67.6282C130.912 67.6282 130.879 67.6282 130.89 67.6282C132.409 67.9985 134.33 67.314 135.95 67.8077C137.591 68.2902 137.993 70.3212 136.24 70.9159C133.693 71.5667 127.953 70.2988 126.858 66.6071L126.869 66.6183Z" fill="#CC5A5A"/>
<g opacity="0.8">
<path d="M182.479 56.3737C182.479 56.3737 182.479 56.3737 182.479 56.3849C182.479 56.3625 182.479 56.3513 182.479 56.3288C182.479 56.3288 182.479 56.3401 182.479 56.3513C182.479 56.3513 182.479 56.3625 182.479 56.3737ZM182.445 56.5308C182.445 56.5308 182.445 56.5308 182.445 56.542V56.5308ZM182.412 56.5981C182.412 56.5981 182.367 56.6879 182.345 56.7328C182.345 56.7216 182.367 56.6767 182.423 56.5757C182.423 56.5757 182.423 56.5869 182.423 56.5981H182.412ZM182.512 56.2503C182.512 56.2503 182.49 56.183 182.49 56.2503C182.49 56.2727 182.49 56.2952 182.49 56.3288C182.49 56.1044 182.535 56.1269 182.523 56.2503H182.512ZM182.434 56.5308C182.401 56.5196 182.401 56.5084 182.434 56.5308ZM183.182 56.4972C183.182 56.4972 183.194 56.4971 183.205 56.4859C183.205 56.4859 183.205 56.4859 183.194 56.4859C183.205 56.4635 183.227 56.441 183.238 56.4186C183.305 56.3064 183.339 56.3176 183.316 56.3625C183.283 56.4074 183.238 56.4523 183.205 56.4747C183.238 56.441 183.272 56.4074 183.305 56.3737C183.283 56.4074 183.249 56.4523 183.182 56.5084V56.4972Z" fill="#D95757"/>
</g>
</g>
</svg>
