<svg width="1280" height="832" viewBox="0 0 1280 832" fill="none" xmlns="http://www.w3.org/2000/svg">
<rect width="1280" height="832" fill="white"/>
<path d="M28 16.5H1252C1258.35 16.5 1263.5 21.6487 1263.5 28V804C1263.5 810.351 1258.35 815.5 1252 815.5H28C21.6487 815.5 16.5 810.351 16.5 804V28L16.5146 27.4082C16.8226 21.3319 21.8472 16.5 28 16.5Z" stroke="#DEDEDE"/>
<g clip-path="url(#clip0_15_1047)">
<rect x="48" y="48" width="1184" height="736" fill="#F7F7F7"/>
<path d="M408 192C408 178.745 418.745 168 432 168H1148C1161.25 168 1172 178.745 1172 192V784H408V192Z" fill="white"/>
<g filter="url(#filter0_d_15_1047)">
<rect width="300" height="672" transform="translate(48 112)" fill="white"/>
<path fill-rule="evenodd" clip-rule="evenodd" d="M75 153.25C75 152.836 75.3358 152.5 75.75 152.5H92.25C92.6642 152.5 93 152.836 93 153.25V164.5C93 164.898 92.842 165.279 92.5607 165.561C92.2794 165.842 91.8978 166 91.5 166H87.75C87.3522 166 86.9706 165.842 86.6893 165.561C86.408 165.279 86.25 164.898 86.25 164.5V163H81.75V167.5C81.75 167.898 81.592 168.279 81.3107 168.561C81.0294 168.842 80.6478 169 80.25 169H76.5C76.1022 169 75.7206 168.842 75.4393 168.561C75.158 168.279 75 167.898 75 167.5V153.25ZM76.5 154V167.5H80.25V162.25C80.25 161.836 80.5858 161.5 81 161.5H87C87.4142 161.5 87.75 161.836 87.75 162.25V164.5H91.5V154H76.5Z" fill="#0A0132"/>
<path fill-rule="evenodd" clip-rule="evenodd" d="M75 159.25C75 158.836 75.3358 158.5 75.75 158.5H81C81.4142 158.5 81.75 158.836 81.75 159.25C81.75 159.664 81.4142 160 81 160H75.75C75.3358 160 75 159.664 75 159.25Z" fill="#0A0132"/>
<path fill-rule="evenodd" clip-rule="evenodd" d="M81 152.5C81.4142 152.5 81.75 152.836 81.75 153.25V162.25C81.75 162.664 81.4142 163 81 163C80.5858 163 80.25 162.664 80.25 162.25V153.25C80.25 152.836 80.5858 152.5 81 152.5Z" fill="#0A0132"/>
<path fill-rule="evenodd" clip-rule="evenodd" d="M86.25 159.25C86.25 158.836 86.5858 158.5 87 158.5H92.25C92.6642 158.5 93 158.836 93 159.25C93 159.664 92.6642 160 92.25 160H87C86.5858 160 86.25 159.664 86.25 159.25Z" fill="#0A0132"/>
<path fill-rule="evenodd" clip-rule="evenodd" d="M87 152.5C87.4142 152.5 87.75 152.836 87.75 153.25V162.25C87.75 162.664 87.4142 163 87 163C86.5858 163 86.25 162.664 86.25 162.25V153.25C86.25 152.836 86.5858 152.5 87 152.5Z" fill="#0A0132"/>
<path d="M107.232 166V154.8H109.344L112.272 161.776C112.944 163.392 113.168 164.432 113.168 164.432C113.168 164.432 113.408 163.408 114.048 161.872L117.024 154.8H119.072V166H117.6V159.232C117.6 157.472 117.712 156.4 117.712 156.4C117.712 156.4 117.376 157.424 116.736 158.96L113.792 166H112.528L109.616 159.056C108.928 157.44 108.608 156.4 108.608 156.4C108.608 156.4 108.704 157.488 108.704 159.152V166H107.232ZM124.796 166.128C122.412 166.128 120.748 164.4 120.748 161.968C120.748 159.536 122.412 157.808 124.7 157.808C127.164 157.808 128.7 159.728 128.396 162.144H122.14C122.204 163.856 123.228 164.944 124.748 164.944C125.916 164.944 126.684 164.352 126.94 163.424H128.316C128.028 164.992 126.652 166.128 124.796 166.128ZM122.22 161.056H127.004C127.004 159.776 126.06 158.976 124.7 158.976C123.388 158.976 122.492 159.712 122.22 161.056ZM130.104 166V157.936H131.464V159.328C131.96 158.496 132.984 157.808 134.328 157.808C136.024 157.808 137.32 158.864 137.32 160.72V166H135.944V161.024C135.944 159.728 135.208 159.008 134.056 159.008C132.472 159.008 131.464 160.384 131.464 162.544V166H130.104ZM142.281 166.128C140.585 166.128 139.305 165.072 139.305 163.072V157.936H140.664V162.912C140.664 164.208 141.401 164.928 142.536 164.928C144.137 164.928 145.129 163.552 145.129 161.392V157.936H146.505V166H145.129V164.544C144.617 165.472 143.609 166.128 142.281 166.128ZM157.317 166.128C154.117 166.128 151.781 163.712 151.781 160.4C151.781 157.088 154.117 154.672 157.317 154.672C160.485 154.672 162.837 157.088 162.837 160.4C162.837 163.712 160.485 166.128 157.317 166.128ZM153.253 160.4C153.253 162.992 154.965 164.864 157.317 164.864C159.669 164.864 161.381 162.976 161.381 160.4C161.381 157.824 159.669 155.936 157.317 155.936C154.965 155.936 153.253 157.808 153.253 160.4ZM164.557 168.912V157.936H165.933V159.248C166.413 158.368 167.517 157.808 168.717 157.808C171.133 157.808 172.733 159.472 172.733 161.968C172.733 164.464 171.133 166.128 168.717 166.128C167.533 166.128 166.413 165.552 165.933 164.672V168.912H164.557ZM165.933 161.968C165.933 163.712 167.053 164.944 168.637 164.944C170.189 164.944 171.341 163.728 171.341 161.968C171.341 160.208 170.189 158.992 168.637 158.992C167.053 158.992 165.933 160.208 165.933 161.968ZM177.123 166.128C175.747 166.128 174.739 165.264 174.739 163.616V159.072H173.363V157.936H174.739V155.888H176.099V157.936H178.147V159.072H176.099V163.504C176.099 164.448 176.579 164.912 177.283 164.912C177.587 164.912 177.923 164.848 178.195 164.752V165.92C177.891 166.064 177.491 166.128 177.123 166.128ZM179.541 166V157.936H180.917V166H179.541ZM179.285 155.456C179.285 154.928 179.685 154.544 180.213 154.544C180.757 154.544 181.157 154.928 181.157 155.456C181.157 155.984 180.757 156.368 180.213 156.368C179.685 156.368 179.285 155.984 179.285 155.456ZM186.64 166.128C184.272 166.128 182.56 164.4 182.56 161.968C182.56 159.536 184.272 157.808 186.64 157.808C189.008 157.808 190.72 159.536 190.72 161.968C190.72 164.4 188.992 166.128 186.64 166.128ZM183.952 161.968C183.952 163.712 185.072 164.928 186.64 164.928C188.208 164.928 189.328 163.712 189.328 161.968C189.328 160.208 188.208 158.992 186.64 158.992C185.072 158.992 183.952 160.208 183.952 161.968ZM192.385 166V157.936H193.745V159.328C194.241 158.496 195.265 157.808 196.609 157.808C198.305 157.808 199.601 158.864 199.601 160.72V166H198.225V161.024C198.225 159.728 197.489 159.008 196.337 159.008C194.753 159.008 193.745 160.384 193.745 162.544V166H192.385ZM210.317 166.128C207.117 166.128 204.781 163.712 204.781 160.4C204.781 157.088 207.117 154.672 210.317 154.672C213.485 154.672 215.837 157.088 215.837 160.4C215.837 163.712 213.485 166.128 210.317 166.128ZM206.253 160.4C206.253 162.992 207.965 164.864 210.317 164.864C212.669 164.864 214.381 162.976 214.381 160.4C214.381 157.824 212.669 155.936 210.317 155.936C207.965 155.936 206.253 157.808 206.253 160.4ZM217.557 166V157.936H218.917V159.328C219.413 158.496 220.437 157.808 221.781 157.808C223.477 157.808 224.773 158.864 224.773 160.72V166H223.397V161.024C223.397 159.728 222.661 159.008 221.509 159.008C219.925 159.008 218.917 160.384 218.917 162.544V166H217.557ZM230.39 166.128C228.006 166.128 226.342 164.4 226.342 161.968C226.342 159.536 228.006 157.808 230.294 157.808C232.758 157.808 234.294 159.728 233.99 162.144H227.734C227.798 163.856 228.822 164.944 230.342 164.944C231.51 164.944 232.278 164.352 232.534 163.424H233.91C233.622 164.992 232.246 166.128 230.39 166.128ZM227.814 161.056H232.598C232.598 159.776 231.654 158.976 230.294 158.976C228.982 158.976 228.086 159.712 227.814 161.056Z" fill="black"/>
<path d="M93 214.691V204.5C93 203.673 92.3269 203 91.5 203H76.5C75.6731 203 75 203.673 75 204.5V219.5C75 220.327 75.6731 221 76.5 221H86.6934C86.8978 221 87.0947 220.959 87.2775 220.881C87.3075 220.869 87.3356 220.856 87.3637 220.841C87.5025 220.77 87.6319 220.678 87.7462 220.565L92.5669 215.744C92.6803 215.63 92.7722 215.501 92.8415 215.362C92.8565 215.336 92.8687 215.307 92.88 215.279C92.9587 215.096 93.0009 214.896 93 214.691ZM76.5 204.5H91.5L91.5037 214.25H87C86.5856 214.25 86.25 214.586 86.25 215V219.5H76.5V204.5ZM90.4397 215.75L87.75 218.44V215.75H90.4397Z" fill="#0A0132"/>
<path d="M107.232 218V206.8H109.344L112.272 213.776C112.944 215.392 113.168 216.432 113.168 216.432C113.168 216.432 113.408 215.408 114.048 213.872L117.024 206.8H119.072V218H117.6V211.232C117.6 209.472 117.712 208.4 117.712 208.4C117.712 208.4 117.376 209.424 116.736 210.96L113.792 218H112.528L109.616 211.056C108.928 209.44 108.608 208.4 108.608 208.4C108.608 208.4 108.704 209.488 108.704 211.152V218H107.232ZM124.796 218.128C122.412 218.128 120.748 216.4 120.748 213.968C120.748 211.536 122.412 209.808 124.7 209.808C127.164 209.808 128.7 211.728 128.396 214.144H122.14C122.204 215.856 123.228 216.944 124.748 216.944C125.916 216.944 126.684 216.352 126.94 215.424H128.316C128.028 216.992 126.652 218.128 124.796 218.128ZM122.22 213.056H127.004C127.004 211.776 126.06 210.976 124.7 210.976C123.388 210.976 122.492 211.712 122.22 213.056ZM130.104 218V209.936H131.464V211.328C131.96 210.496 132.984 209.808 134.328 209.808C136.024 209.808 137.32 210.864 137.32 212.72V218H135.944V213.024C135.944 211.728 135.208 211.008 134.056 211.008C132.472 211.008 131.464 212.384 131.464 214.544V218H130.104ZM142.281 218.128C140.585 218.128 139.305 217.072 139.305 215.072V209.936H140.664V214.912C140.664 216.208 141.401 216.928 142.536 216.928C144.137 216.928 145.129 215.552 145.129 213.392V209.936H146.505V218H145.129V216.544C144.617 217.472 143.609 218.128 142.281 218.128ZM157.317 218.128C154.117 218.128 151.781 215.712 151.781 212.4C151.781 209.088 154.117 206.672 157.317 206.672C160.485 206.672 162.837 209.088 162.837 212.4C162.837 215.712 160.485 218.128 157.317 218.128ZM153.253 212.4C153.253 214.992 154.965 216.864 157.317 216.864C159.669 216.864 161.381 214.976 161.381 212.4C161.381 209.824 159.669 207.936 157.317 207.936C154.965 207.936 153.253 209.808 153.253 212.4ZM164.557 220.912V209.936H165.933V211.248C166.413 210.368 167.517 209.808 168.717 209.808C171.133 209.808 172.733 211.472 172.733 213.968C172.733 216.464 171.133 218.128 168.717 218.128C167.533 218.128 166.413 217.552 165.933 216.672V220.912H164.557ZM165.933 213.968C165.933 215.712 167.053 216.944 168.637 216.944C170.189 216.944 171.341 215.728 171.341 213.968C171.341 212.208 170.189 210.992 168.637 210.992C167.053 210.992 165.933 212.208 165.933 213.968ZM177.123 218.128C175.747 218.128 174.739 217.264 174.739 215.616V211.072H173.363V209.936H174.739V207.888H176.099V209.936H178.147V211.072H176.099V215.504C176.099 216.448 176.579 216.912 177.283 216.912C177.587 216.912 177.923 216.848 178.195 216.752V217.92C177.891 218.064 177.491 218.128 177.123 218.128ZM179.541 218V209.936H180.917V218H179.541ZM179.285 207.456C179.285 206.928 179.685 206.544 180.213 206.544C180.757 206.544 181.157 206.928 181.157 207.456C181.157 207.984 180.757 208.368 180.213 208.368C179.685 208.368 179.285 207.984 179.285 207.456ZM186.64 218.128C184.272 218.128 182.56 216.4 182.56 213.968C182.56 211.536 184.272 209.808 186.64 209.808C189.008 209.808 190.72 211.536 190.72 213.968C190.72 216.4 188.992 218.128 186.64 218.128ZM183.952 213.968C183.952 215.712 185.072 216.928 186.64 216.928C188.208 216.928 189.328 215.712 189.328 213.968C189.328 212.208 188.208 210.992 186.64 210.992C185.072 210.992 183.952 212.208 183.952 213.968ZM192.385 218V209.936H193.745V211.328C194.241 210.496 195.265 209.808 196.609 209.808C198.305 209.808 199.601 210.864 199.601 212.72V218H198.225V213.024C198.225 211.728 197.489 211.008 196.337 211.008C194.753 211.008 193.745 212.384 193.745 214.544V218H192.385ZM207.48 218V208.064H203.944V206.8H212.503V208.064H208.952V218H207.48ZM214.29 218L211.442 209.936H212.914L215.01 216.224L217.09 209.936H218.418L220.498 216.224L222.594 209.936H224.002L221.154 218H219.794L217.73 211.904L215.65 218H214.29ZM228.656 218.128C226.288 218.128 224.576 216.4 224.576 213.968C224.576 211.536 226.288 209.808 228.656 209.808C231.024 209.808 232.736 211.536 232.736 213.968C232.736 216.4 231.008 218.128 228.656 218.128ZM225.968 213.968C225.968 215.712 227.088 216.928 228.656 216.928C230.224 216.928 231.344 215.712 231.344 213.968C231.344 212.208 230.224 210.992 228.656 210.992C227.088 210.992 225.968 212.208 225.968 213.968Z" fill="black"/>
<path d="M91.5 255H76.5C75.6731 255 75 255.673 75 256.5V271.5C75 272.327 75.6731 273 76.5 273H91.5C92.3269 273 93 272.327 93 271.5V256.5C93 255.673 92.3269 255 91.5 255ZM76.5 256.5H91.5V266.25H88.8066C88.41 266.25 88.0369 266.404 87.7537 266.685L85.9406 268.5L82.065 268.504L80.2453 266.684C79.9678 266.408 79.5853 266.25 79.1962 266.25H76.5V256.5ZM76.5 271.5V267.749L79.185 267.746L81.0047 269.566C81.2822 269.842 81.6647 270 82.0538 270H85.9434C86.34 270 86.7131 269.846 86.9963 269.565L88.8094 267.75H91.5V271.5H76.5Z" fill="#0A0132"/>
<path d="M107.232 270V258.8H109.344L112.272 265.776C112.944 267.392 113.168 268.432 113.168 268.432C113.168 268.432 113.408 267.408 114.048 265.872L117.024 258.8H119.072V270H117.6V263.232C117.6 261.472 117.712 260.4 117.712 260.4C117.712 260.4 117.376 261.424 116.736 262.96L113.792 270H112.528L109.616 263.056C108.928 261.44 108.608 260.4 108.608 260.4C108.608 260.4 108.704 261.488 108.704 263.152V270H107.232ZM124.796 270.128C122.412 270.128 120.748 268.4 120.748 265.968C120.748 263.536 122.412 261.808 124.7 261.808C127.164 261.808 128.7 263.728 128.396 266.144H122.14C122.204 267.856 123.228 268.944 124.748 268.944C125.916 268.944 126.684 268.352 126.94 267.424H128.316C128.028 268.992 126.652 270.128 124.796 270.128ZM122.22 265.056H127.004C127.004 263.776 126.06 262.976 124.7 262.976C123.388 262.976 122.492 263.712 122.22 265.056ZM130.104 270V261.936H131.464V263.328C131.96 262.496 132.984 261.808 134.328 261.808C136.024 261.808 137.32 262.864 137.32 264.72V270H135.944V265.024C135.944 263.728 135.208 263.008 134.056 263.008C132.472 263.008 131.464 264.384 131.464 266.544V270H130.104ZM142.281 270.128C140.585 270.128 139.305 269.072 139.305 267.072V261.936H140.664V266.912C140.664 268.208 141.401 268.928 142.536 268.928C144.137 268.928 145.129 267.552 145.129 265.392V261.936H146.505V270H145.129V268.544C144.617 269.472 143.609 270.128 142.281 270.128ZM157.317 270.128C154.117 270.128 151.781 267.712 151.781 264.4C151.781 261.088 154.117 258.672 157.317 258.672C160.485 258.672 162.837 261.088 162.837 264.4C162.837 267.712 160.485 270.128 157.317 270.128ZM153.253 264.4C153.253 266.992 154.965 268.864 157.317 268.864C159.669 268.864 161.381 266.976 161.381 264.4C161.381 261.824 159.669 259.936 157.317 259.936C154.965 259.936 153.253 261.808 153.253 264.4ZM164.557 272.912V261.936H165.933V263.248C166.413 262.368 167.517 261.808 168.717 261.808C171.133 261.808 172.733 263.472 172.733 265.968C172.733 268.464 171.133 270.128 168.717 270.128C167.533 270.128 166.413 269.552 165.933 268.672V272.912H164.557ZM165.933 265.968C165.933 267.712 167.053 268.944 168.637 268.944C170.189 268.944 171.341 267.728 171.341 265.968C171.341 264.208 170.189 262.992 168.637 262.992C167.053 262.992 165.933 264.208 165.933 265.968ZM177.123 270.128C175.747 270.128 174.739 269.264 174.739 267.616V263.072H173.363V261.936H174.739V259.888H176.099V261.936H178.147V263.072H176.099V267.504C176.099 268.448 176.579 268.912 177.283 268.912C177.587 268.912 177.923 268.848 178.195 268.752V269.92C177.891 270.064 177.491 270.128 177.123 270.128ZM179.541 270V261.936H180.917V270H179.541ZM179.285 259.456C179.285 258.928 179.685 258.544 180.213 258.544C180.757 258.544 181.157 258.928 181.157 259.456C181.157 259.984 180.757 260.368 180.213 260.368C179.685 260.368 179.285 259.984 179.285 259.456ZM186.64 270.128C184.272 270.128 182.56 268.4 182.56 265.968C182.56 263.536 184.272 261.808 186.64 261.808C189.008 261.808 190.72 263.536 190.72 265.968C190.72 268.4 188.992 270.128 186.64 270.128ZM183.952 265.968C183.952 267.712 185.072 268.928 186.64 268.928C188.208 268.928 189.328 267.712 189.328 265.968C189.328 264.208 188.208 262.992 186.64 262.992C185.072 262.992 183.952 264.208 183.952 265.968ZM192.385 270V261.936H193.745V263.328C194.241 262.496 195.265 261.808 196.609 261.808C198.305 261.808 199.601 262.864 199.601 264.72V270H198.225V265.024C198.225 263.728 197.489 263.008 196.337 263.008C194.753 263.008 193.745 264.384 193.745 266.544V270H192.385ZM207.48 270V260.064H203.944V258.8H212.503V260.064H208.952V270H207.48ZM213.744 270V258.672H215.104V263.328C215.6 262.496 216.624 261.808 217.968 261.808C219.664 261.808 220.96 262.864 220.96 264.72V270H219.584V265.024C219.584 263.728 218.848 263.008 217.696 263.008C216.112 263.008 215.104 264.384 215.104 266.544V270H213.744ZM223.041 270V261.936H224.401V263.36C224.849 262.432 225.857 261.808 226.929 261.808C227.249 261.808 227.585 261.856 227.841 261.984V263.296C227.457 263.136 227.089 263.088 226.769 263.088C225.425 263.088 224.401 264.4 224.401 266.768V270H223.041ZM232.265 270.128C229.881 270.128 228.217 268.4 228.217 265.968C228.217 263.536 229.881 261.808 232.169 261.808C234.633 261.808 236.169 263.728 235.865 266.144H229.609C229.673 267.856 230.697 268.944 232.217 268.944C233.385 268.944 234.153 268.352 234.409 267.424H235.785C235.497 268.992 234.121 270.128 232.265 270.128ZM229.689 265.056H234.473C234.473 263.776 233.529 262.976 232.169 262.976C230.857 262.976 229.961 263.712 229.689 265.056ZM241.108 270.128C238.724 270.128 237.06 268.4 237.06 265.968C237.06 263.536 238.724 261.808 241.012 261.808C243.476 261.808 245.012 263.728 244.708 266.144H238.452C238.516 267.856 239.54 268.944 241.06 268.944C242.228 268.944 242.996 268.352 243.252 267.424H244.628C244.34 268.992 242.964 270.128 241.108 270.128ZM238.532 265.056H243.316C243.316 263.776 242.372 262.976 241.012 262.976C239.7 262.976 238.804 263.712 238.532 265.056Z" fill="black"/>
</g>
<rect width="1184" height="64" transform="translate(48 48)" fill="#EBE6FE"/>
<path d="M60 80C60 66.7452 70.7452 56 84 56C97.2548 56 108 66.7452 108 80C108 93.2548 97.2548 104 84 104C70.7452 104 60 93.2548 60 80Z" fill="#B4AEFF"/>
<path fill-rule="evenodd" clip-rule="evenodd" d="M91.2803 72.7197C91.5732 73.0126 91.5732 73.4874 91.2803 73.7803L77.7803 87.2803C77.4874 87.5732 77.0126 87.5732 76.7197 87.2803C76.4268 86.9874 76.4268 86.5126 76.7197 86.2197L90.2197 72.7197C90.5126 72.4268 90.9874 72.4268 91.2803 72.7197Z" fill="#0A0132"/>
<path fill-rule="evenodd" clip-rule="evenodd" d="M76.7197 72.7197C77.0126 72.4268 77.4874 72.4268 77.7803 72.7197L91.2803 86.2197C91.5732 86.5126 91.5732 86.9874 91.2803 87.2803C90.9874 87.5732 90.5126 87.5732 90.2197 87.2803L76.7197 73.7803C76.4268 73.4874 76.4268 73.0126 76.7197 72.7197Z" fill="#0A0132"/>
<g clip-path="url(#clip1_15_1047)">
<path fill-rule="evenodd" clip-rule="evenodd" d="M137.034 71.1361L133.129 67.2532C131.448 65.5823 128.712 65.5823 127.031 67.2532L117.26 76.9685C115.58 78.6394 115.58 81.3606 117.26 83.0315L127.031 92.7468C128.712 94.4177 131.448 94.4177 133.129 92.7468L137.034 88.8639C139.435 91.4339 142.86 93.0492 146.661 93.0492C153.911 93.0492 159.784 87.2089 159.784 80C159.784 72.7911 153.911 66.9508 146.661 66.9508C142.852 66.9508 139.427 68.5661 137.034 71.1361ZM137.034 71.1361C134.865 73.4595 133.537 76.5786 133.537 80C133.537 83.4214 134.857 86.5405 137.034 88.8639L142.9 83.0315C144.58 81.3606 144.58 78.6394 142.9 76.9685L137.034 71.1361Z" fill="#0A0132"/>
</g>
<path d="M175.272 88.692C171.72 88.692 169.104 86.7 168.816 82.932H170.952C171.192 85.524 172.968 86.796 175.272 86.796C177.408 86.796 178.92 85.692 178.92 84.036C178.92 79.524 169.32 81.924 169.32 75.948C169.32 73.26 171.648 71.508 174.84 71.508C178.272 71.508 180.432 73.308 180.84 76.308H178.68C178.344 74.46 176.904 73.404 174.84 73.404C172.8 73.404 171.528 74.364 171.528 75.876C171.528 79.764 181.128 77.412 181.128 83.916C181.128 86.796 178.68 88.692 175.272 88.692ZM183.6 88.5V76.404H185.664V88.5H183.6ZM183.216 72.684C183.216 71.892 183.816 71.316 184.608 71.316C185.424 71.316 186.024 71.892 186.024 72.684C186.024 73.476 185.424 74.052 184.608 74.052C183.816 74.052 183.216 73.476 183.216 72.684ZM197.298 88.5L192.714 82.428L190.938 84.06V88.5H188.874V71.508H190.938V81.396L196.578 76.404H199.338L194.25 81.036L199.77 88.5H197.298ZM205.45 88.692C203.386 88.692 201.874 87.396 201.874 84.924V78.108H199.81V76.404H201.874V73.332H203.914V76.404H206.986V78.108H203.914V84.756C203.914 86.172 204.634 86.868 205.69 86.868C206.146 86.868 206.65 86.772 207.058 86.628V88.38C206.602 88.596 206.002 88.692 205.45 88.692Z" fill="#0B0132"/>
</g>
<rect x="48.5" y="48.5" width="1183" height="735" stroke="#DEDEDE"/>
<defs>
<filter id="filter0_d_15_1047" x="36" y="104" width="324" height="696" filterUnits="userSpaceOnUse" color-interpolation-filters="sRGB">
<feFlood flood-opacity="0" result="BackgroundImageFix"/>
<feColorMatrix in="SourceAlpha" type="matrix" values="0 0 0 0 0 0 0 0 0 0 0 0 0 0 0 0 0 0 127 0" result="hardAlpha"/>
<feOffset dy="4"/>
<feGaussianBlur stdDeviation="6"/>
<feComposite in2="hardAlpha" operator="out"/>
<feColorMatrix type="matrix" values="0 0 0 0 0 0 0 0 0 0 0 0 0 0 0 0 0 0 0.1 0"/>
<feBlend mode="normal" in2="BackgroundImageFix" result="effect1_dropShadow_15_1047"/>
<feBlend mode="normal" in="SourceGraphic" in2="effect1_dropShadow_15_1047" result="shape"/>
</filter>
<clipPath id="clip0_15_1047">
<rect x="48" y="48" width="1184" height="736" fill="white"/>
</clipPath>
<clipPath id="clip1_15_1047">
<rect width="44" height="28" fill="white" transform="translate(116 66)"/>
</clipPath>
</defs>
</svg>
