<svg width="1280" height="832" viewBox="0 0 1280 832" fill="none" xmlns="http://www.w3.org/2000/svg">
<rect width="1280" height="832" fill="white"/>
<path d="M28 16.5H1252C1258.35 16.5 1263.5 21.6487 1263.5 28V804C1263.5 810.351 1258.35 815.5 1252 815.5H28C21.6487 815.5 16.5 810.351 16.5 804V28L16.5146 27.4082C16.8226 21.3319 21.8472 16.5 28 16.5Z" stroke="#DEDEDE"/>
<g clip-path="url(#clip0_15_1007)">
<rect x="48" y="48" width="1184" height="736" fill="#F7F7F7"/>
<rect width="1184" height="64" transform="translate(48 48)" fill="#EBE6FE"/>
<path fill-rule="evenodd" clip-rule="evenodd" d="M111 80C111 79.5858 111.336 79.25 111.75 79.25H128.25C128.664 79.25 129 79.5858 129 80C129 80.4142 128.664 80.75 128.25 80.75H111.75C111.336 80.75 111 80.4142 111 80Z" fill="#0A0132"/>
<path fill-rule="evenodd" clip-rule="evenodd" d="M111 74C111 73.5858 111.336 73.25 111.75 73.25H128.25C128.664 73.25 129 73.5858 129 74C129 74.4142 128.664 74.75 128.25 74.75H111.75C111.336 74.75 111 74.4142 111 74Z" fill="#0A0132"/>
<path fill-rule="evenodd" clip-rule="evenodd" d="M111 86C111 85.5858 111.336 85.25 111.75 85.25H128.25C128.664 85.25 129 85.5858 129 86C129 86.4142 128.664 86.75 128.25 86.75H111.75C111.336 86.75 111 86.4142 111 86Z" fill="#0A0132"/>
<g clip-path="url(#clip1_15_1007)">
<path fill-rule="evenodd" clip-rule="evenodd" d="M173.034 71.1361L169.129 67.2532C167.448 65.5823 164.712 65.5823 163.031 67.2532L153.26 76.9685C151.58 78.6394 151.58 81.3606 153.26 83.0315L163.031 92.7468C164.712 94.4177 167.448 94.4177 169.129 92.7468L173.034 88.8639C175.435 91.4339 178.86 93.0492 182.661 93.0492C189.911 93.0492 195.784 87.2089 195.784 80C195.784 72.7911 189.911 66.9508 182.661 66.9508C178.852 66.9508 175.427 68.5661 173.034 71.1361ZM173.034 71.1361C170.865 73.4595 169.537 76.5786 169.537 80C169.537 83.4214 170.857 86.5405 173.034 88.8639L178.9 83.0315C180.58 81.3606 180.58 78.6394 178.9 76.9685L173.034 71.1361Z" fill="#0A0132"/>
</g>
<path d="M211.272 88.692C207.72 88.692 205.104 86.7 204.816 82.932H206.952C207.192 85.524 208.968 86.796 211.272 86.796C213.408 86.796 214.92 85.692 214.92 84.036C214.92 79.524 205.32 81.924 205.32 75.948C205.32 73.26 207.648 71.508 210.84 71.508C214.272 71.508 216.432 73.308 216.84 76.308H214.68C214.344 74.46 212.904 73.404 210.84 73.404C208.8 73.404 207.528 74.364 207.528 75.876C207.528 79.764 217.128 77.412 217.128 83.916C217.128 86.796 214.68 88.692 211.272 88.692ZM219.6 88.5V76.404H221.664V88.5H219.6ZM219.216 72.684C219.216 71.892 219.816 71.316 220.608 71.316C221.424 71.316 222.024 71.892 222.024 72.684C222.024 73.476 221.424 74.052 220.608 74.052C219.816 74.052 219.216 73.476 219.216 72.684ZM233.298 88.5L228.714 82.428L226.938 84.06V88.5H224.874V71.508H226.938V81.396L232.578 76.404H235.338L230.25 81.036L235.77 88.5H233.298ZM241.45 88.692C239.386 88.692 237.874 87.396 237.874 84.924V78.108H235.81V76.404H237.874V73.332H239.914V76.404H242.986V78.108H239.914V84.756C239.914 86.172 240.634 86.868 241.69 86.868C242.146 86.868 242.65 86.772 243.058 86.628V88.38C242.602 88.596 242.002 88.692 241.45 88.692Z" fill="#0B0132"/>
<rect x="48" y="48" width="1184" height="736" fill="black" fill-opacity="0.25"/>
<g filter="url(#filter0_d_15_1007)">
<path d="M360 212C360 198.745 370.745 188 384 188H896C909.255 188 920 198.745 920 212V584C920 597.255 909.255 608 896 608H384C370.745 608 360 597.255 360 584V212Z" fill="white"/>
<path fill-rule="evenodd" clip-rule="evenodd" d="M899.28 208.72C899.573 209.013 899.573 209.487 899.28 209.78L885.78 223.28C885.487 223.573 885.013 223.573 884.72 223.28C884.427 222.987 884.427 222.513 884.72 222.22L898.22 208.72C898.513 208.427 898.987 208.427 899.28 208.72Z" fill="#0A0132"/>
<path fill-rule="evenodd" clip-rule="evenodd" d="M884.72 208.72C885.013 208.427 885.487 208.427 885.78 208.72L899.28 222.22C899.573 222.513 899.573 222.987 899.28 223.28C898.987 223.573 898.513 223.573 898.22 223.28L884.72 209.78C884.427 209.487 884.427 209.013 884.72 208.72Z" fill="#0A0132"/>
<path d="M630 572C630 558.745 640.745 548 654 548H711C724.255 548 735 558.745 735 572C735 585.255 724.255 596 711 596H654C640.745 596 630 585.255 630 572Z" fill="#DEDEDE"/>
<path d="M660.876 578.144C657.33 578.144 654.738 575.696 654.738 571.7C654.738 567.704 657.294 565.256 660.876 565.256C663.846 565.256 665.826 567.056 666.114 569.522H664.476C664.188 567.848 662.802 566.678 660.876 566.678C658.23 566.678 656.394 568.586 656.394 571.7C656.394 574.814 658.23 576.722 660.876 576.722C662.82 576.722 664.278 575.372 664.53 573.68H666.168C665.862 576.182 663.846 578.144 660.876 578.144ZM670.687 578.144C668.725 578.144 667.483 577.136 667.483 575.552C667.483 573.734 668.761 572.816 671.641 572.528L673.585 572.33V572.006C673.585 570.8 672.703 570.098 671.389 570.098C670.129 570.098 669.301 570.746 669.121 572.006H667.573C667.825 570.278 669.157 568.784 671.389 568.784C673.567 568.784 675.133 570.062 675.133 572.168V578H673.585V576.488C673.225 577.352 672.001 578.144 670.687 578.144ZM669.049 575.498C669.049 576.326 669.733 576.83 670.831 576.83C672.451 576.83 673.585 575.552 673.585 573.95V573.518L671.731 573.734C669.841 573.95 669.049 574.4 669.049 575.498ZM677.443 578V568.928H678.973V570.494C679.531 569.558 680.683 568.784 682.195 568.784C684.103 568.784 685.561 569.972 685.561 572.06V578H684.013V572.402C684.013 570.944 683.185 570.134 681.889 570.134C680.107 570.134 678.973 571.682 678.973 574.112V578H677.443ZM691.808 578.144C689.216 578.144 687.326 576.146 687.326 573.464C687.326 570.764 689.216 568.784 691.808 568.784C694.076 568.784 695.588 570.08 695.876 571.952H694.328C694.076 570.836 693.104 570.134 691.808 570.134C690.152 570.134 688.892 571.502 688.892 573.464C688.892 575.408 690.152 576.794 691.808 576.794C693.212 576.794 694.22 576.002 694.4 574.85H695.948C695.696 576.686 694.076 578.144 691.808 578.144ZM701.671 578.144C698.989 578.144 697.117 576.2 697.117 573.464C697.117 570.728 698.989 568.784 701.563 568.784C704.335 568.784 706.063 570.944 705.721 573.662H698.683C698.755 575.588 699.907 576.812 701.617 576.812C702.931 576.812 703.795 576.146 704.083 575.102H705.631C705.307 576.866 703.759 578.144 701.671 578.144ZM698.773 572.438H704.155C704.155 570.998 703.093 570.098 701.563 570.098C700.087 570.098 699.079 570.926 698.773 572.438ZM707.624 578V565.256H709.172V578H707.624Z" fill="#0A0132"/>
<path d="M745 572C745 558.745 755.745 548 769 548H884C897.255 548 908 558.745 908 572C908 585.255 897.255 596 884 596H769C755.745 596 745 585.255 745 572Z" fill="#7351FB"/>
<path d="M774.454 578.144C771.79 578.144 769.828 576.65 769.612 573.824H771.214C771.394 575.768 772.726 576.722 774.454 576.722C776.056 576.722 777.19 575.894 777.19 574.652C777.19 571.268 769.99 573.068 769.99 568.586C769.99 566.57 771.736 565.256 774.13 565.256C776.704 565.256 778.324 566.606 778.63 568.856H777.01C776.758 567.47 775.678 566.678 774.13 566.678C772.6 566.678 771.646 567.398 771.646 568.532C771.646 571.448 778.846 569.684 778.846 574.562C778.846 576.722 777.01 578.144 774.454 578.144ZM783.473 578.144C781.511 578.144 780.269 577.136 780.269 575.552C780.269 573.734 781.547 572.816 784.427 572.528L786.371 572.33V572.006C786.371 570.8 785.489 570.098 784.175 570.098C782.915 570.098 782.087 570.746 781.907 572.006H780.359C780.611 570.278 781.943 568.784 784.175 568.784C786.353 568.784 787.919 570.062 787.919 572.168V578H786.371V576.488C786.011 577.352 784.787 578.144 783.473 578.144ZM781.835 575.498C781.835 576.326 782.519 576.83 783.617 576.83C785.237 576.83 786.371 575.552 786.371 573.95V573.518L784.517 573.734C782.627 573.95 781.835 574.4 781.835 575.498ZM792.519 578L788.955 568.928H790.629L793.311 576.02L796.011 568.928H797.613L794.049 578H792.519ZM802.749 578.144C800.067 578.144 798.195 576.2 798.195 573.464C798.195 570.728 800.067 568.784 802.641 568.784C805.413 568.784 807.141 570.944 806.799 573.662H799.761C799.833 575.588 800.985 576.812 802.695 576.812C804.009 576.812 804.873 576.146 805.161 575.102H806.709C806.385 576.866 804.837 578.144 802.749 578.144ZM799.851 572.438H805.233C805.233 570.998 804.171 570.098 802.641 570.098C801.165 570.098 800.157 570.926 799.851 572.438ZM818.362 578.144C814.816 578.144 812.224 575.696 812.224 571.7C812.224 567.704 814.78 565.256 818.362 565.256C821.332 565.256 823.312 567.056 823.6 569.522H821.962C821.674 567.848 820.288 566.678 818.362 566.678C815.716 566.678 813.88 568.586 813.88 571.7C813.88 574.814 815.716 576.722 818.362 576.722C820.306 576.722 821.764 575.372 822.016 573.68H823.654C823.348 576.182 821.332 578.144 818.362 578.144ZM825.402 578V565.256H826.932V570.494C827.49 569.558 828.642 568.784 830.154 568.784C832.062 568.784 833.52 569.972 833.52 572.06V578H831.972V572.402C831.972 570.944 831.144 570.134 829.848 570.134C828.066 570.134 826.932 571.682 826.932 574.112V578H825.402ZM838.633 578.144C836.671 578.144 835.429 577.136 835.429 575.552C835.429 573.734 836.707 572.816 839.587 572.528L841.531 572.33V572.006C841.531 570.8 840.649 570.098 839.335 570.098C838.075 570.098 837.247 570.746 837.067 572.006H835.519C835.771 570.278 837.103 568.784 839.335 568.784C841.513 568.784 843.079 570.062 843.079 572.168V578H841.531V576.488C841.171 577.352 839.947 578.144 838.633 578.144ZM836.995 575.498C836.995 576.326 837.679 576.83 838.777 576.83C840.397 576.83 841.531 575.552 841.531 573.95V573.518L839.677 573.734C837.787 573.95 836.995 574.4 836.995 575.498ZM845.388 578V568.928H846.918V570.494C847.476 569.558 848.628 568.784 850.14 568.784C852.048 568.784 853.506 569.972 853.506 572.06V578H851.958V572.402C851.958 570.944 851.13 570.134 849.834 570.134C848.052 570.134 846.918 571.682 846.918 574.112V578H845.388ZM859.627 581.42C857.665 581.42 856.027 580.34 855.739 578.612H857.287C857.539 579.53 858.457 580.106 859.681 580.106C861.337 580.106 862.579 579.224 862.579 577.604V576.164C862.039 577.046 860.869 577.622 859.555 577.622C857.017 577.622 855.307 575.84 855.307 573.212C855.307 570.548 856.999 568.784 859.555 568.784C860.851 568.784 862.039 569.324 862.579 570.188V568.928H864.145V577.46C864.145 579.944 862.219 581.42 859.627 581.42ZM856.819 573.212C856.819 575.048 858.007 576.344 859.699 576.344C861.373 576.344 862.579 575.048 862.579 573.194C862.579 571.304 861.373 570.062 859.699 570.062C858.007 570.062 856.819 571.322 856.819 573.212ZM870.53 578.144C867.848 578.144 865.976 576.2 865.976 573.464C865.976 570.728 867.848 568.784 870.422 568.784C873.194 568.784 874.922 570.944 874.58 573.662H867.542C867.614 575.588 868.766 576.812 870.476 576.812C871.79 576.812 872.654 576.146 872.942 575.102H874.49C874.166 576.866 872.618 578.144 870.53 578.144ZM867.632 572.438H873.014C873.014 570.998 871.952 570.098 870.422 570.098C868.946 570.098 867.938 570.926 867.632 572.438ZM879.453 578.144C877.113 578.144 875.943 576.596 875.853 575.03H877.401C877.527 576.182 878.283 576.83 879.453 576.83C880.569 576.83 881.271 576.344 881.271 575.408C881.271 573.176 876.087 574.58 876.087 571.232C876.087 569.846 877.347 568.784 879.165 568.784C881.145 568.784 882.405 569.756 882.657 571.502H881.109C880.983 570.584 880.191 570.098 879.165 570.098C878.283 570.098 877.599 570.458 877.599 571.178C877.599 573.23 882.819 571.718 882.819 575.372C882.819 577.01 881.415 578.144 879.453 578.144Z" fill="white"/>
</g>
</g>
<rect x="48.5" y="48.5" width="1183" height="735" stroke="#DEDEDE"/>
<defs>
<filter id="filter0_d_15_1007" x="348" y="180" width="584" height="444" filterUnits="userSpaceOnUse" color-interpolation-filters="sRGB">
<feFlood flood-opacity="0" result="BackgroundImageFix"/>
<feColorMatrix in="SourceAlpha" type="matrix" values="0 0 0 0 0 0 0 0 0 0 0 0 0 0 0 0 0 0 127 0" result="hardAlpha"/>
<feOffset dy="4"/>
<feGaussianBlur stdDeviation="6"/>
<feComposite in2="hardAlpha" operator="out"/>
<feColorMatrix type="matrix" values="0 0 0 0 0 0 0 0 0 0 0 0 0 0 0 0 0 0 0.1 0"/>
<feBlend mode="normal" in2="BackgroundImageFix" result="effect1_dropShadow_15_1007"/>
<feBlend mode="normal" in="SourceGraphic" in2="effect1_dropShadow_15_1007" result="shape"/>
</filter>
<clipPath id="clip0_15_1007">
<rect x="48" y="48" width="1184" height="736" fill="white"/>
</clipPath>
<clipPath id="clip1_15_1007">
<rect width="44" height="28" fill="white" transform="translate(152 66)"/>
</clipPath>
</defs>
</svg>
