<svg width="1280" height="832" viewBox="0 0 1280 832" fill="none" xmlns="http://www.w3.org/2000/svg">
<rect width="1280" height="832" fill="white"/>
<path d="M28 16.5H1252C1258.35 16.5 1263.5 21.6487 1263.5 28V804C1263.5 810.351 1258.35 815.5 1252 815.5H28C21.6487 815.5 16.5 810.351 16.5 804V28L16.5146 27.4082C16.8226 21.3319 21.8472 16.5 28 16.5Z" stroke="#DEDEDE"/>
<g clip-path="url(#clip0_15_1029)">
<rect x="48" y="48" width="1184" height="736" fill="#F7F7F7"/>
<rect width="1184" height="64" transform="translate(48 48)" fill="#EBE6FE"/>
<path fill-rule="evenodd" clip-rule="evenodd" d="M111 80C111 79.5858 111.336 79.25 111.75 79.25H128.25C128.664 79.25 129 79.5858 129 80C129 80.4142 128.664 80.75 128.25 80.75H111.75C111.336 80.75 111 80.4142 111 80Z" fill="#0A0132"/>
<path fill-rule="evenodd" clip-rule="evenodd" d="M111 74C111 73.5858 111.336 73.25 111.75 73.25H128.25C128.664 73.25 129 73.5858 129 74C129 74.4142 128.664 74.75 128.25 74.75H111.75C111.336 74.75 111 74.4142 111 74Z" fill="#0A0132"/>
<path fill-rule="evenodd" clip-rule="evenodd" d="M111 86C111 85.5858 111.336 85.25 111.75 85.25H128.25C128.664 85.25 129 85.5858 129 86C129 86.4142 128.664 86.75 128.25 86.75H111.75C111.336 86.75 111 86.4142 111 86Z" fill="#0A0132"/>
<g clip-path="url(#clip1_15_1029)">
<path fill-rule="evenodd" clip-rule="evenodd" d="M173.034 71.1361L169.129 67.2532C167.448 65.5823 164.712 65.5823 163.031 67.2532L153.26 76.9685C151.58 78.6394 151.58 81.3606 153.26 83.0315L163.031 92.7468C164.712 94.4177 167.448 94.4177 169.129 92.7468L173.034 88.8639C175.435 91.4339 178.86 93.0492 182.661 93.0492C189.911 93.0492 195.784 87.2089 195.784 80C195.784 72.7911 189.911 66.9508 182.661 66.9508C178.852 66.9508 175.427 68.5661 173.034 71.1361ZM173.034 71.1361C170.865 73.4595 169.537 76.5786 169.537 80C169.537 83.4214 170.857 86.5405 173.034 88.8639L178.9 83.0315C180.58 81.3606 180.58 78.6394 178.9 76.9685L173.034 71.1361Z" fill="#0A0132"/>
</g>
<path d="M211.272 88.692C207.72 88.692 205.104 86.7 204.816 82.932H206.952C207.192 85.524 208.968 86.796 211.272 86.796C213.408 86.796 214.92 85.692 214.92 84.036C214.92 79.524 205.32 81.924 205.32 75.948C205.32 73.26 207.648 71.508 210.84 71.508C214.272 71.508 216.432 73.308 216.84 76.308H214.68C214.344 74.46 212.904 73.404 210.84 73.404C208.8 73.404 207.528 74.364 207.528 75.876C207.528 79.764 217.128 77.412 217.128 83.916C217.128 86.796 214.68 88.692 211.272 88.692ZM219.6 88.5V76.404H221.664V88.5H219.6ZM219.216 72.684C219.216 71.892 219.816 71.316 220.608 71.316C221.424 71.316 222.024 71.892 222.024 72.684C222.024 73.476 221.424 74.052 220.608 74.052C219.816 74.052 219.216 73.476 219.216 72.684ZM233.298 88.5L228.714 82.428L226.938 84.06V88.5H224.874V71.508H226.938V81.396L232.578 76.404H235.338L230.25 81.036L235.77 88.5H233.298ZM241.45 88.692C239.386 88.692 237.874 87.396 237.874 84.924V78.108H235.81V76.404H237.874V73.332H239.914V76.404H242.986V78.108H239.914V84.756C239.914 86.172 240.634 86.868 241.69 86.868C242.146 86.868 242.65 86.772 243.058 86.628V88.38C242.602 88.596 242.002 88.692 241.45 88.692Z" fill="#0B0132"/>
<path d="M108 192C108 178.745 118.745 168 132 168H1148C1161.25 168 1172 178.745 1172 192V784H108V192Z" fill="white"/>
<path d="M141.04 202.8H144.8C145.856 202.8 146.816 203.013 147.68 203.44C148.544 203.867 149.232 204.501 149.744 205.344C150.256 206.187 150.512 207.205 150.512 208.4C150.512 209.595 150.256 210.613 149.744 211.456C149.232 212.299 148.539 212.933 147.664 213.36C146.8 213.787 145.845 214 144.8 214H141.04V202.8ZM144.544 212.144C145.259 212.144 145.899 212.011 146.464 211.744C147.04 211.467 147.493 211.051 147.824 210.496C148.165 209.931 148.336 209.232 148.336 208.4C148.336 207.568 148.165 206.875 147.824 206.32C147.493 205.755 147.04 205.339 146.464 205.072C145.899 204.795 145.259 204.656 144.544 204.656H143.216V212.144H144.544ZM155.64 214.128C154.818 214.128 154.093 213.952 153.464 213.6C152.834 213.248 152.344 212.757 151.992 212.128C151.65 211.499 151.48 210.779 151.48 209.968C151.48 209.168 151.656 208.453 152.008 207.824C152.36 207.195 152.84 206.704 153.448 206.352C154.066 205.989 154.765 205.808 155.544 205.808C156.322 205.808 157.01 205.979 157.608 206.32C158.205 206.651 158.664 207.115 158.984 207.712C159.314 208.309 159.48 208.976 159.48 209.712C159.48 209.925 159.464 210.155 159.432 210.4H153.496C153.57 211.051 153.8 211.552 154.184 211.904C154.568 212.256 155.048 212.432 155.624 212.432C156.072 212.432 156.445 212.336 156.744 212.144C157.042 211.952 157.24 211.691 157.336 211.36H159.352C159.202 212.192 158.797 212.864 158.136 213.376C157.474 213.877 156.642 214.128 155.64 214.128ZM157.336 208.912C157.325 208.453 157.154 208.085 156.824 207.808C156.493 207.52 156.066 207.376 155.544 207.376C154.498 207.376 153.848 207.888 153.592 208.912H157.336ZM170.465 205.808C171.329 205.808 172.033 206.08 172.577 206.624C173.121 207.157 173.393 207.872 173.393 208.768V214H171.361V209.2C171.361 208.699 171.233 208.304 170.977 208.016C170.732 207.728 170.39 207.584 169.953 207.584C169.388 207.584 168.94 207.813 168.609 208.272C168.289 208.731 168.129 209.307 168.129 210V214H166.097V209.2C166.097 208.699 165.974 208.304 165.729 208.016C165.484 207.728 165.142 207.584 164.705 207.584C164.14 207.584 163.692 207.813 163.361 208.272C163.041 208.731 162.881 209.307 162.881 210V214H160.849V205.936H162.881V207.056C163.126 206.693 163.468 206.395 163.905 206.16C164.353 205.925 164.849 205.808 165.393 205.808C165.958 205.808 166.46 205.936 166.897 206.192C167.334 206.437 167.628 206.763 167.777 207.168C168.086 206.763 168.481 206.437 168.961 206.192C169.441 205.936 169.942 205.808 170.465 205.808ZM178.876 214.128C178.065 214.128 177.34 213.952 176.7 213.6C176.06 213.237 175.558 212.741 175.196 212.112C174.833 211.472 174.652 210.752 174.652 209.952C174.652 209.152 174.833 208.437 175.196 207.808C175.558 207.179 176.06 206.688 176.7 206.336C177.34 205.984 178.065 205.808 178.876 205.808C179.686 205.808 180.412 205.984 181.052 206.336C181.692 206.688 182.193 207.179 182.556 207.808C182.918 208.437 183.1 209.152 183.1 209.952C183.1 210.752 182.918 211.472 182.556 212.112C182.193 212.741 181.692 213.237 181.052 213.6C180.412 213.952 179.686 214.128 178.876 214.128ZM178.876 212.4C179.516 212.4 180.038 212.176 180.444 211.728C180.849 211.269 181.052 210.677 181.052 209.952C181.052 209.237 180.849 208.656 180.444 208.208C180.038 207.76 179.516 207.536 178.876 207.536C178.236 207.536 177.713 207.76 177.308 208.208C176.902 208.656 176.7 209.237 176.7 209.952C176.7 210.677 176.902 211.269 177.308 211.728C177.713 212.176 178.236 212.4 178.876 212.4ZM187.818 202.672H189.85V214H187.818V202.672ZM194.11 214.128C193.267 214.128 192.59 213.909 192.078 213.472C191.566 213.035 191.31 212.464 191.31 211.76C191.31 210.96 191.593 210.347 192.158 209.92C192.734 209.483 193.63 209.2 194.846 209.072L196.414 208.912V208.736C196.414 208.32 196.275 207.989 195.998 207.744C195.721 207.499 195.353 207.376 194.894 207.376C194.467 207.376 194.115 207.488 193.838 207.712C193.571 207.936 193.411 208.256 193.358 208.672H191.358C191.433 208.139 191.625 207.653 191.934 207.216C192.254 206.779 192.665 206.437 193.166 206.192C193.678 205.936 194.254 205.808 194.894 205.808C195.961 205.808 196.819 206.091 197.47 206.656C198.121 207.211 198.446 207.995 198.446 209.008V214H196.414V212.976C196.233 213.307 195.929 213.584 195.502 213.808C195.075 214.021 194.611 214.128 194.11 214.128ZM193.31 211.68C193.31 211.957 193.417 212.176 193.63 212.336C193.843 212.496 194.137 212.576 194.51 212.576C195.086 212.576 195.545 212.379 195.886 211.984C196.238 211.579 196.414 211.083 196.414 210.496V210.368L194.926 210.56C194.361 210.624 193.95 210.747 193.694 210.928C193.438 211.099 193.31 211.349 193.31 211.68ZM204.61 214.128C204.098 214.128 203.618 214.027 203.17 213.824C202.722 213.611 202.386 213.333 202.162 212.992V214H200.13V202.672H202.162V206.928C202.386 206.587 202.722 206.315 203.17 206.112C203.618 205.909 204.098 205.808 204.61 205.808C205.4 205.808 206.093 205.979 206.69 206.32C207.288 206.661 207.752 207.147 208.082 207.776C208.413 208.395 208.578 209.125 208.578 209.968C208.578 210.811 208.413 211.547 208.082 212.176C207.752 212.795 207.288 213.275 206.69 213.616C206.093 213.957 205.4 214.128 204.61 214.128ZM204.338 212.384C204.978 212.384 205.501 212.16 205.906 211.712C206.322 211.264 206.53 210.683 206.53 209.968C206.53 209.243 206.322 208.656 205.906 208.208C205.501 207.76 204.978 207.536 204.338 207.536C203.698 207.536 203.176 207.76 202.77 208.208C202.365 208.656 202.162 209.243 202.162 209.968C202.162 210.683 202.365 211.264 202.77 211.712C203.176 212.16 203.698 212.384 204.338 212.384ZM213.687 214.128C212.865 214.128 212.14 213.952 211.511 213.6C210.881 213.248 210.391 212.757 210.039 212.128C209.697 211.499 209.527 210.779 209.527 209.968C209.527 209.168 209.703 208.453 210.055 207.824C210.407 207.195 210.887 206.704 211.495 206.352C212.113 205.989 212.812 205.808 213.591 205.808C214.369 205.808 215.057 205.979 215.655 206.32C216.252 206.651 216.711 207.115 217.031 207.712C217.361 208.309 217.527 208.976 217.527 209.712C217.527 209.925 217.511 210.155 217.479 210.4H211.543C211.617 211.051 211.847 211.552 212.231 211.904C212.615 212.256 213.095 212.432 213.671 212.432C214.119 212.432 214.492 212.336 214.791 212.144C215.089 211.952 215.287 211.691 215.383 211.36H217.399C217.249 212.192 216.844 212.864 216.183 213.376C215.521 213.877 214.689 214.128 213.687 214.128ZM215.383 208.912C215.372 208.453 215.201 208.085 214.871 207.808C214.54 207.52 214.113 207.376 213.591 207.376C212.545 207.376 211.895 207.888 211.639 208.912H215.383ZM218.896 202.672H220.928V214H218.896V202.672Z" fill="#0A0132"/>
<path d="M144 229H540C546.075 229 551 233.925 551 240V264C551 270.075 546.075 275 540 275H144C137.925 275 133 270.075 133 264V240C133 233.925 137.925 229 144 229Z" fill="white"/>
<path d="M144 229H540C546.075 229 551 233.925 551 240V264C551 270.075 546.075 275 540 275H144C137.925 275 133 270.075 133 264V240C133 233.925 137.925 229 144 229Z" stroke="#767676" stroke-width="2"/>
<path d="M148.848 258.128C146.48 258.128 144.736 256.8 144.544 254.288H145.968C146.128 256.016 147.312 256.864 148.848 256.864C150.272 256.864 151.28 256.128 151.28 255.024C151.28 252.016 144.88 253.616 144.88 249.632C144.88 247.84 146.432 246.672 148.56 246.672C150.848 246.672 152.288 247.872 152.56 249.872H151.12C150.896 248.64 149.936 247.936 148.56 247.936C147.2 247.936 146.352 248.576 146.352 249.584C146.352 252.176 152.752 250.608 152.752 254.944C152.752 256.864 151.12 258.128 148.848 258.128ZM157.952 258.128C155.568 258.128 153.904 256.4 153.904 253.968C153.904 251.536 155.568 249.808 157.856 249.808C160.32 249.808 161.856 251.728 161.552 254.144H155.296C155.36 255.856 156.384 256.944 157.904 256.944C159.072 256.944 159.84 256.352 160.096 255.424H161.472C161.184 256.992 159.808 258.128 157.952 258.128ZM155.376 253.056H160.16C160.16 251.776 159.216 250.976 157.856 250.976C156.544 250.976 155.648 251.712 155.376 253.056ZM163.244 258V246.672H164.62V258H163.244ZM170.312 258.128C167.928 258.128 166.264 256.4 166.264 253.968C166.264 251.536 167.928 249.808 170.216 249.808C172.68 249.808 174.216 251.728 173.911 254.144H167.656C167.72 255.856 168.744 256.944 170.264 256.944C171.432 256.944 172.2 256.352 172.456 255.424H173.832C173.544 256.992 172.168 258.128 170.312 258.128ZM167.736 253.056H172.52C172.52 251.776 171.576 250.976 170.216 250.976C168.904 250.976 168.008 251.712 167.736 253.056ZM179.091 258.128C176.787 258.128 175.107 256.352 175.107 253.968C175.107 251.568 176.787 249.808 179.091 249.808C181.107 249.808 182.451 250.96 182.707 252.624H181.331C181.107 251.632 180.243 251.008 179.091 251.008C177.619 251.008 176.499 252.224 176.499 253.968C176.499 255.696 177.619 256.928 179.091 256.928C180.339 256.928 181.235 256.224 181.395 255.2H182.771C182.547 256.832 181.107 258.128 179.091 258.128ZM187.076 258.128C185.7 258.128 184.692 257.264 184.692 255.616V251.072H183.316V249.936H184.692V247.888H186.052V249.936H188.1V251.072H186.052V255.504C186.052 256.448 186.532 256.912 187.236 256.912C187.54 256.912 187.876 256.848 188.148 256.752V257.92C187.844 258.064 187.444 258.128 187.076 258.128ZM189.494 258V249.936H190.87V258H189.494ZM189.238 247.456C189.238 246.928 189.638 246.544 190.166 246.544C190.71 246.544 191.11 246.928 191.11 247.456C191.11 247.984 190.71 248.368 190.166 248.368C189.638 248.368 189.238 247.984 189.238 247.456ZM196.594 258.128C194.226 258.128 192.514 256.4 192.514 253.968C192.514 251.536 194.226 249.808 196.594 249.808C198.962 249.808 200.674 251.536 200.674 253.968C200.674 256.4 198.946 258.128 196.594 258.128ZM193.906 253.968C193.906 255.712 195.026 256.928 196.594 256.928C198.162 256.928 199.282 255.712 199.282 253.968C199.282 252.208 198.162 250.992 196.594 250.992C195.026 250.992 193.906 252.208 193.906 253.968ZM202.338 258V249.936H203.698V251.328C204.194 250.496 205.218 249.808 206.562 249.808C208.258 249.808 209.554 250.864 209.554 252.72V258H208.178V253.024C208.178 251.728 207.442 251.008 206.29 251.008C204.706 251.008 203.698 252.384 203.698 254.544V258H202.338ZM211.075 259.152V258H218.291V259.152H211.075Z" fill="#0A0132"/>
<path fill-rule="evenodd" clip-rule="evenodd" d="M528 243.75C523.444 243.75 519.75 247.444 519.75 252C519.75 256.556 523.444 260.25 528 260.25C532.556 260.25 536.25 256.556 536.25 252C536.25 247.444 532.556 243.75 528 243.75ZM518.25 252C518.25 246.615 522.615 242.25 528 242.25C533.385 242.25 537.75 246.615 537.75 252C537.75 257.385 533.385 261.75 528 261.75C522.615 261.75 518.25 257.385 518.25 252Z" fill="#0A0132"/>
<path fill-rule="evenodd" clip-rule="evenodd" d="M524.123 250.318C524.431 250.04 524.905 250.065 525.182 250.373L528 253.504L530.818 250.373C531.095 250.065 531.569 250.04 531.877 250.318C532.185 250.595 532.21 251.069 531.932 251.377L528.557 255.127C528.415 255.285 528.213 255.375 528 255.375C527.787 255.375 527.585 255.285 527.443 255.127L524.068 251.377C523.79 251.069 523.815 250.595 524.123 250.318Z" fill="#0A0132"/>
<g filter="url(#filter0_d_15_1029)">
<path d="M132 300C132 293.373 137.373 288 144 288H540C546.627 288 552 293.373 552 300V484C552 490.627 546.627 496 540 496H144C137.373 496 132 490.627 132 484V300Z" fill="white" shape-rendering="crispEdges"/>
<path d="M156.848 326.128C154.48 326.128 152.736 324.8 152.544 322.288H153.968C154.128 324.016 155.312 324.864 156.848 324.864C158.272 324.864 159.28 324.128 159.28 323.024C159.28 320.016 152.88 321.616 152.88 317.632C152.88 315.84 154.432 314.672 156.56 314.672C158.848 314.672 160.288 315.872 160.56 317.872H159.12C158.896 316.64 157.936 315.936 156.56 315.936C155.2 315.936 154.352 316.576 154.352 317.584C154.352 320.176 160.752 318.608 160.752 322.944C160.752 324.864 159.12 326.128 156.848 326.128ZM165.952 326.128C163.568 326.128 161.904 324.4 161.904 321.968C161.904 319.536 163.568 317.808 165.856 317.808C168.32 317.808 169.856 319.728 169.552 322.144H163.296C163.36 323.856 164.384 324.944 165.904 324.944C167.072 324.944 167.84 324.352 168.096 323.424H169.472C169.184 324.992 167.808 326.128 165.952 326.128ZM163.376 321.056H168.16C168.16 319.776 167.216 318.976 165.856 318.976C164.544 318.976 163.648 319.712 163.376 321.056ZM171.244 326V314.672H172.62V326H171.244ZM178.312 326.128C175.928 326.128 174.264 324.4 174.264 321.968C174.264 319.536 175.928 317.808 178.216 317.808C180.68 317.808 182.216 319.728 181.911 322.144H175.656C175.72 323.856 176.744 324.944 178.264 324.944C179.432 324.944 180.2 324.352 180.456 323.424H181.832C181.544 324.992 180.168 326.128 178.312 326.128ZM175.736 321.056H180.52C180.52 319.776 179.576 318.976 178.216 318.976C176.904 318.976 176.008 319.712 175.736 321.056ZM187.091 326.128C184.787 326.128 183.107 324.352 183.107 321.968C183.107 319.568 184.787 317.808 187.091 317.808C189.107 317.808 190.451 318.96 190.707 320.624H189.331C189.107 319.632 188.243 319.008 187.091 319.008C185.619 319.008 184.499 320.224 184.499 321.968C184.499 323.696 185.619 324.928 187.091 324.928C188.339 324.928 189.235 324.224 189.395 323.2H190.771C190.547 324.832 189.107 326.128 187.091 326.128ZM195.076 326.128C193.7 326.128 192.692 325.264 192.692 323.616V319.072H191.316V317.936H192.692V315.888H194.052V317.936H196.1V319.072H194.052V323.504C194.052 324.448 194.532 324.912 195.236 324.912C195.54 324.912 195.876 324.848 196.148 324.752V325.92C195.844 326.064 195.444 326.128 195.076 326.128ZM197.494 326V317.936H198.87V326H197.494ZM197.238 315.456C197.238 314.928 197.638 314.544 198.166 314.544C198.71 314.544 199.11 314.928 199.11 315.456C199.11 315.984 198.71 316.368 198.166 316.368C197.638 316.368 197.238 315.984 197.238 315.456ZM204.594 326.128C202.226 326.128 200.514 324.4 200.514 321.968C200.514 319.536 202.226 317.808 204.594 317.808C206.962 317.808 208.674 319.536 208.674 321.968C208.674 324.4 206.946 326.128 204.594 326.128ZM201.906 321.968C201.906 323.712 203.026 324.928 204.594 324.928C206.162 324.928 207.282 323.712 207.282 321.968C207.282 320.208 206.162 318.992 204.594 318.992C203.026 318.992 201.906 320.208 201.906 321.968ZM210.338 326V317.936H211.698V319.328C212.194 318.496 213.218 317.808 214.562 317.808C216.258 317.808 217.554 318.864 217.554 320.72V326H216.178V321.024C216.178 319.728 215.442 319.008 214.29 319.008C212.706 319.008 211.698 320.384 211.698 322.544V326H210.338ZM228.27 326.128C225.07 326.128 222.734 323.712 222.734 320.4C222.734 317.088 225.07 314.672 228.27 314.672C231.438 314.672 233.79 317.088 233.79 320.4C233.79 323.712 231.438 326.128 228.27 326.128ZM224.206 320.4C224.206 322.992 225.918 324.864 228.27 324.864C230.622 324.864 232.334 322.976 232.334 320.4C232.334 317.824 230.622 315.936 228.27 315.936C225.918 315.936 224.206 317.808 224.206 320.4ZM235.51 326V317.936H236.87V319.328C237.366 318.496 238.39 317.808 239.734 317.808C241.43 317.808 242.726 318.864 242.726 320.72V326H241.35V321.024C241.35 319.728 240.614 319.008 239.462 319.008C237.878 319.008 236.87 320.384 236.87 322.544V326H235.51ZM248.343 326.128C245.959 326.128 244.295 324.4 244.295 321.968C244.295 319.536 245.959 317.808 248.247 317.808C250.711 317.808 252.247 319.728 251.943 322.144H245.687C245.751 323.856 246.775 324.944 248.295 324.944C249.463 324.944 250.231 324.352 250.487 323.424H251.863C251.575 324.992 250.199 326.128 248.343 326.128ZM245.767 321.056H250.551C250.551 319.776 249.607 318.976 248.247 318.976C246.935 318.976 246.039 319.712 245.767 321.056Z" fill="#0B0132"/>
<path d="M140 352C140 347.582 143.582 344 148 344H536C540.418 344 544 347.582 544 352V384C544 388.418 540.418 392 536 392H148C143.582 392 140 388.418 140 384V352Z" fill="#C2BCFF"/>
<path d="M156.848 374.128C154.48 374.128 152.736 372.8 152.544 370.288H153.968C154.128 372.016 155.312 372.864 156.848 372.864C158.272 372.864 159.28 372.128 159.28 371.024C159.28 368.016 152.88 369.616 152.88 365.632C152.88 363.84 154.432 362.672 156.56 362.672C158.848 362.672 160.288 363.872 160.56 365.872H159.12C158.896 364.64 157.936 363.936 156.56 363.936C155.2 363.936 154.352 364.576 154.352 365.584C154.352 368.176 160.752 366.608 160.752 370.944C160.752 372.864 159.12 374.128 156.848 374.128ZM165.952 374.128C163.568 374.128 161.904 372.4 161.904 369.968C161.904 367.536 163.568 365.808 165.856 365.808C168.32 365.808 169.856 367.728 169.552 370.144H163.296C163.36 371.856 164.384 372.944 165.904 372.944C167.072 372.944 167.84 372.352 168.096 371.424H169.472C169.184 372.992 167.808 374.128 165.952 374.128ZM163.376 369.056H168.16C168.16 367.776 167.216 366.976 165.856 366.976C164.544 366.976 163.648 367.712 163.376 369.056ZM171.244 374V362.672H172.62V374H171.244ZM178.312 374.128C175.928 374.128 174.264 372.4 174.264 369.968C174.264 367.536 175.928 365.808 178.216 365.808C180.68 365.808 182.216 367.728 181.911 370.144H175.656C175.72 371.856 176.744 372.944 178.264 372.944C179.432 372.944 180.2 372.352 180.456 371.424H181.832C181.544 372.992 180.168 374.128 178.312 374.128ZM175.736 369.056H180.52C180.52 367.776 179.576 366.976 178.216 366.976C176.904 366.976 176.008 367.712 175.736 369.056ZM187.091 374.128C184.787 374.128 183.107 372.352 183.107 369.968C183.107 367.568 184.787 365.808 187.091 365.808C189.107 365.808 190.451 366.96 190.707 368.624H189.331C189.107 367.632 188.243 367.008 187.091 367.008C185.619 367.008 184.499 368.224 184.499 369.968C184.499 371.696 185.619 372.928 187.091 372.928C188.339 372.928 189.235 372.224 189.395 371.2H190.771C190.547 372.832 189.107 374.128 187.091 374.128ZM195.076 374.128C193.7 374.128 192.692 373.264 192.692 371.616V367.072H191.316V365.936H192.692V363.888H194.052V365.936H196.1V367.072H194.052V371.504C194.052 372.448 194.532 372.912 195.236 372.912C195.54 372.912 195.876 372.848 196.148 372.752V373.92C195.844 374.064 195.444 374.128 195.076 374.128ZM197.494 374V365.936H198.87V374H197.494ZM197.238 363.456C197.238 362.928 197.638 362.544 198.166 362.544C198.71 362.544 199.11 362.928 199.11 363.456C199.11 363.984 198.71 364.368 198.166 364.368C197.638 364.368 197.238 363.984 197.238 363.456ZM204.594 374.128C202.226 374.128 200.514 372.4 200.514 369.968C200.514 367.536 202.226 365.808 204.594 365.808C206.962 365.808 208.674 367.536 208.674 369.968C208.674 372.4 206.946 374.128 204.594 374.128ZM201.906 369.968C201.906 371.712 203.026 372.928 204.594 372.928C206.162 372.928 207.282 371.712 207.282 369.968C207.282 368.208 206.162 366.992 204.594 366.992C203.026 366.992 201.906 368.208 201.906 369.968ZM210.338 374V365.936H211.698V367.328C212.194 366.496 213.218 365.808 214.562 365.808C216.258 365.808 217.554 366.864 217.554 368.72V374H216.178V369.024C216.178 367.728 215.442 367.008 214.29 367.008C212.706 367.008 211.698 368.384 211.698 370.544V374H210.338ZM225.433 374V364.064H221.897V362.8H230.457V364.064H226.905V374H225.433ZM232.243 374L229.395 365.936H230.867L232.963 372.224L235.043 365.936H236.371L238.451 372.224L240.547 365.936H241.955L239.107 374H237.747L235.683 367.904L233.603 374H232.243ZM246.609 374.128C244.241 374.128 242.529 372.4 242.529 369.968C242.529 367.536 244.241 365.808 246.609 365.808C248.977 365.808 250.689 367.536 250.689 369.968C250.689 372.4 248.961 374.128 246.609 374.128ZM243.921 369.968C243.921 371.712 245.041 372.928 246.609 372.928C248.177 372.928 249.297 371.712 249.297 369.968C249.297 368.208 248.177 366.992 246.609 366.992C245.041 366.992 243.921 368.208 243.921 369.968Z" fill="#0A0132"/>
<path d="M156.848 422.128C154.48 422.128 152.736 420.8 152.544 418.288H153.968C154.128 420.016 155.312 420.864 156.848 420.864C158.272 420.864 159.28 420.128 159.28 419.024C159.28 416.016 152.88 417.616 152.88 413.632C152.88 411.84 154.432 410.672 156.56 410.672C158.848 410.672 160.288 411.872 160.56 413.872H159.12C158.896 412.64 157.936 411.936 156.56 411.936C155.2 411.936 154.352 412.576 154.352 413.584C154.352 416.176 160.752 414.608 160.752 418.944C160.752 420.864 159.12 422.128 156.848 422.128ZM165.952 422.128C163.568 422.128 161.904 420.4 161.904 417.968C161.904 415.536 163.568 413.808 165.856 413.808C168.32 413.808 169.856 415.728 169.552 418.144H163.296C163.36 419.856 164.384 420.944 165.904 420.944C167.072 420.944 167.84 420.352 168.096 419.424H169.472C169.184 420.992 167.808 422.128 165.952 422.128ZM163.376 417.056H168.16C168.16 415.776 167.216 414.976 165.856 414.976C164.544 414.976 163.648 415.712 163.376 417.056ZM171.244 422V410.672H172.62V422H171.244ZM178.312 422.128C175.928 422.128 174.264 420.4 174.264 417.968C174.264 415.536 175.928 413.808 178.216 413.808C180.68 413.808 182.216 415.728 181.911 418.144H175.656C175.72 419.856 176.744 420.944 178.264 420.944C179.432 420.944 180.2 420.352 180.456 419.424H181.832C181.544 420.992 180.168 422.128 178.312 422.128ZM175.736 417.056H180.52C180.52 415.776 179.576 414.976 178.216 414.976C176.904 414.976 176.008 415.712 175.736 417.056ZM187.091 422.128C184.787 422.128 183.107 420.352 183.107 417.968C183.107 415.568 184.787 413.808 187.091 413.808C189.107 413.808 190.451 414.96 190.707 416.624H189.331C189.107 415.632 188.243 415.008 187.091 415.008C185.619 415.008 184.499 416.224 184.499 417.968C184.499 419.696 185.619 420.928 187.091 420.928C188.339 420.928 189.235 420.224 189.395 419.2H190.771C190.547 420.832 189.107 422.128 187.091 422.128ZM195.076 422.128C193.7 422.128 192.692 421.264 192.692 419.616V415.072H191.316V413.936H192.692V411.888H194.052V413.936H196.1V415.072H194.052V419.504C194.052 420.448 194.532 420.912 195.236 420.912C195.54 420.912 195.876 420.848 196.148 420.752V421.92C195.844 422.064 195.444 422.128 195.076 422.128ZM197.494 422V413.936H198.87V422H197.494ZM197.238 411.456C197.238 410.928 197.638 410.544 198.166 410.544C198.71 410.544 199.11 410.928 199.11 411.456C199.11 411.984 198.71 412.368 198.166 412.368C197.638 412.368 197.238 411.984 197.238 411.456ZM204.594 422.128C202.226 422.128 200.514 420.4 200.514 417.968C200.514 415.536 202.226 413.808 204.594 413.808C206.962 413.808 208.674 415.536 208.674 417.968C208.674 420.4 206.946 422.128 204.594 422.128ZM201.906 417.968C201.906 419.712 203.026 420.928 204.594 420.928C206.162 420.928 207.282 419.712 207.282 417.968C207.282 416.208 206.162 414.992 204.594 414.992C203.026 414.992 201.906 416.208 201.906 417.968ZM210.338 422V413.936H211.698V415.328C212.194 414.496 213.218 413.808 214.562 413.808C216.258 413.808 217.554 414.864 217.554 416.72V422H216.178V417.024C216.178 415.728 215.442 415.008 214.29 415.008C212.706 415.008 211.698 416.384 211.698 418.544V422H210.338ZM225.433 422V412.064H221.897V410.8H230.457V412.064H226.905V422H225.433ZM231.697 422V410.672H233.057V415.328C233.553 414.496 234.577 413.808 235.921 413.808C237.617 413.808 238.913 414.864 238.913 416.72V422H237.537V417.024C237.537 415.728 236.801 415.008 235.649 415.008C234.065 415.008 233.057 416.384 233.057 418.544V422H231.697ZM240.994 422V413.936H242.354V415.36C242.802 414.432 243.81 413.808 244.882 413.808C245.202 413.808 245.538 413.856 245.794 413.984V415.296C245.41 415.136 245.042 415.088 244.722 415.088C243.378 415.088 242.354 416.4 242.354 418.768V422H240.994ZM250.218 422.128C247.834 422.128 246.17 420.4 246.17 417.968C246.17 415.536 247.834 413.808 250.122 413.808C252.586 413.808 254.122 415.728 253.818 418.144H247.562C247.626 419.856 248.65 420.944 250.17 420.944C251.338 420.944 252.106 420.352 252.362 419.424H253.738C253.45 420.992 252.074 422.128 250.218 422.128ZM247.642 417.056H252.426C252.426 415.776 251.482 414.976 250.122 414.976C248.81 414.976 247.914 415.712 247.642 417.056ZM259.062 422.128C256.678 422.128 255.014 420.4 255.014 417.968C255.014 415.536 256.678 413.808 258.966 413.808C261.43 413.808 262.966 415.728 262.661 418.144H256.406C256.47 419.856 257.494 420.944 259.014 420.944C260.182 420.944 260.95 420.352 261.206 419.424H262.582C262.294 420.992 260.918 422.128 259.062 422.128ZM256.486 417.056H261.27C261.27 415.776 260.326 414.976 258.966 414.976C257.654 414.976 256.758 415.712 256.486 417.056Z" fill="#0A0132"/>
<path d="M156.848 470.128C154.48 470.128 152.736 468.8 152.544 466.288H153.968C154.128 468.016 155.312 468.864 156.848 468.864C158.272 468.864 159.28 468.128 159.28 467.024C159.28 464.016 152.88 465.616 152.88 461.632C152.88 459.84 154.432 458.672 156.56 458.672C158.848 458.672 160.288 459.872 160.56 461.872H159.12C158.896 460.64 157.936 459.936 156.56 459.936C155.2 459.936 154.352 460.576 154.352 461.584C154.352 464.176 160.752 462.608 160.752 466.944C160.752 468.864 159.12 470.128 156.848 470.128ZM165.952 470.128C163.568 470.128 161.904 468.4 161.904 465.968C161.904 463.536 163.568 461.808 165.856 461.808C168.32 461.808 169.856 463.728 169.552 466.144H163.296C163.36 467.856 164.384 468.944 165.904 468.944C167.072 468.944 167.84 468.352 168.096 467.424H169.472C169.184 468.992 167.808 470.128 165.952 470.128ZM163.376 465.056H168.16C168.16 463.776 167.216 462.976 165.856 462.976C164.544 462.976 163.648 463.712 163.376 465.056ZM171.244 470V458.672H172.62V470H171.244ZM178.312 470.128C175.928 470.128 174.264 468.4 174.264 465.968C174.264 463.536 175.928 461.808 178.216 461.808C180.68 461.808 182.216 463.728 181.911 466.144H175.656C175.72 467.856 176.744 468.944 178.264 468.944C179.432 468.944 180.2 468.352 180.456 467.424H181.832C181.544 468.992 180.168 470.128 178.312 470.128ZM175.736 465.056H180.52C180.52 463.776 179.576 462.976 178.216 462.976C176.904 462.976 176.008 463.712 175.736 465.056ZM187.091 470.128C184.787 470.128 183.107 468.352 183.107 465.968C183.107 463.568 184.787 461.808 187.091 461.808C189.107 461.808 190.451 462.96 190.707 464.624H189.331C189.107 463.632 188.243 463.008 187.091 463.008C185.619 463.008 184.499 464.224 184.499 465.968C184.499 467.696 185.619 468.928 187.091 468.928C188.339 468.928 189.235 468.224 189.395 467.2H190.771C190.547 468.832 189.107 470.128 187.091 470.128ZM195.076 470.128C193.7 470.128 192.692 469.264 192.692 467.616V463.072H191.316V461.936H192.692V459.888H194.052V461.936H196.1V463.072H194.052V467.504C194.052 468.448 194.532 468.912 195.236 468.912C195.54 468.912 195.876 468.848 196.148 468.752V469.92C195.844 470.064 195.444 470.128 195.076 470.128ZM197.494 470V461.936H198.87V470H197.494ZM197.238 459.456C197.238 458.928 197.638 458.544 198.166 458.544C198.71 458.544 199.11 458.928 199.11 459.456C199.11 459.984 198.71 460.368 198.166 460.368C197.638 460.368 197.238 459.984 197.238 459.456ZM204.594 470.128C202.226 470.128 200.514 468.4 200.514 465.968C200.514 463.536 202.226 461.808 204.594 461.808C206.962 461.808 208.674 463.536 208.674 465.968C208.674 468.4 206.946 470.128 204.594 470.128ZM201.906 465.968C201.906 467.712 203.026 468.928 204.594 468.928C206.162 468.928 207.282 467.712 207.282 465.968C207.282 464.208 206.162 462.992 204.594 462.992C203.026 462.992 201.906 464.208 201.906 465.968ZM210.338 470V461.936H211.698V463.328C212.194 462.496 213.218 461.808 214.562 461.808C216.258 461.808 217.554 462.864 217.554 464.72V470H216.178V465.024C216.178 463.728 215.442 463.008 214.29 463.008C212.706 463.008 211.698 464.384 211.698 466.544V470H210.338ZM223.326 470V458.8H230.526V460.064H224.798V463.488H229.502V464.752H224.798V470H223.326ZM234.812 470.128C232.444 470.128 230.732 468.4 230.732 465.968C230.732 463.536 232.444 461.808 234.812 461.808C237.18 461.808 238.892 463.536 238.892 465.968C238.892 468.4 237.164 470.128 234.812 470.128ZM232.124 465.968C232.124 467.712 233.244 468.928 234.812 468.928C236.38 468.928 237.5 467.712 237.5 465.968C237.5 464.208 236.38 462.992 234.812 462.992C233.244 462.992 232.124 464.208 232.124 465.968ZM243.437 470.128C241.741 470.128 240.461 469.072 240.461 467.072V461.936H241.821V466.912C241.821 468.208 242.557 468.928 243.693 468.928C245.293 468.928 246.285 467.552 246.285 465.392V461.936H247.661V470H246.285V468.544C245.773 469.472 244.765 470.128 243.437 470.128ZM249.838 470V461.936H251.198V463.36C251.646 462.432 252.654 461.808 253.726 461.808C254.046 461.808 254.382 461.856 254.638 461.984V463.296C254.254 463.136 253.886 463.088 253.566 463.088C252.222 463.088 251.198 464.4 251.198 466.768V470H249.838Z" fill="#0A0132"/>
</g>
</g>
<rect x="48.5" y="48.5" width="1183" height="735" stroke="#DEDEDE"/>
<defs>
<filter id="filter0_d_15_1029" x="120" y="280" width="444" height="232" filterUnits="userSpaceOnUse" color-interpolation-filters="sRGB">
<feFlood flood-opacity="0" result="BackgroundImageFix"/>
<feColorMatrix in="SourceAlpha" type="matrix" values="0 0 0 0 0 0 0 0 0 0 0 0 0 0 0 0 0 0 127 0" result="hardAlpha"/>
<feOffset dy="4"/>
<feGaussianBlur stdDeviation="6"/>
<feComposite in2="hardAlpha" operator="out"/>
<feColorMatrix type="matrix" values="0 0 0 0 0 0 0 0 0 0 0 0 0 0 0 0 0 0 0.1 0"/>
<feBlend mode="normal" in2="BackgroundImageFix" result="effect1_dropShadow_15_1029"/>
<feBlend mode="normal" in="SourceGraphic" in2="effect1_dropShadow_15_1029" result="shape"/>
</filter>
<clipPath id="clip0_15_1029">
<rect x="48" y="48" width="1184" height="736" fill="white"/>
</clipPath>
<clipPath id="clip1_15_1029">
<rect width="44" height="28" fill="white" transform="translate(152 66)"/>
</clipPath>
</defs>
</svg>
