<svg width="1280" height="832" viewBox="0 0 1280 832" fill="none" xmlns="http://www.w3.org/2000/svg">
<rect width="1280" height="832" fill="white"/>
<path d="M28 16.5H1252C1258.35 16.5 1263.5 21.6487 1263.5 28V804C1263.5 810.351 1258.35 815.5 1252 815.5H28C21.6487 815.5 16.5 810.351 16.5 804V28L16.5146 27.4082C16.8226 21.3319 21.8472 16.5 28 16.5Z" stroke="#DEDEDE"/>
<g clip-path="url(#clip0_15_1075)">
<rect x="48" y="48" width="1184" height="736" fill="#F7F7F7"/>
<rect width="1184" height="64" transform="translate(48 48)" fill="#EBE6FE"/>
<g clip-path="url(#clip1_15_1075)">
<path fill-rule="evenodd" clip-rule="evenodd" d="M117.034 71.1361L113.129 67.2532C111.448 65.5823 108.712 65.5823 107.031 67.2532L97.2604 76.9685C95.5799 78.6394 95.5799 81.3606 97.2604 83.0315L107.031 92.7468C108.712 94.4177 111.448 94.4177 113.129 92.7468L117.034 88.8639C119.435 91.4339 122.86 93.0492 126.661 93.0492C133.911 93.0492 139.784 87.2089 139.784 80C139.784 72.7911 133.911 66.9508 126.661 66.9508C122.852 66.9508 119.427 68.5661 117.034 71.1361ZM117.034 71.1361C114.865 73.4595 113.537 76.5786 113.537 80C113.537 83.4214 114.857 86.5405 117.034 88.8639L122.9 83.0315C124.58 81.3606 124.58 78.6394 122.9 76.9685L117.034 71.1361Z" fill="#0A0132"/>
</g>
<path d="M155.272 88.692C151.72 88.692 149.104 86.7 148.816 82.932H150.952C151.192 85.524 152.968 86.796 155.272 86.796C157.408 86.796 158.92 85.692 158.92 84.036C158.92 79.524 149.32 81.924 149.32 75.948C149.32 73.26 151.648 71.508 154.84 71.508C158.272 71.508 160.432 73.308 160.84 76.308H158.68C158.344 74.46 156.904 73.404 154.84 73.404C152.8 73.404 151.528 74.364 151.528 75.876C151.528 79.764 161.128 77.412 161.128 83.916C161.128 86.796 158.68 88.692 155.272 88.692ZM163.6 88.5V76.404H165.664V88.5H163.6ZM163.216 72.684C163.216 71.892 163.816 71.316 164.608 71.316C165.424 71.316 166.024 71.892 166.024 72.684C166.024 73.476 165.424 74.052 164.608 74.052C163.816 74.052 163.216 73.476 163.216 72.684ZM177.298 88.5L172.714 82.428L170.938 84.06V88.5H168.874V71.508H170.938V81.396L176.578 76.404H179.338L174.25 81.036L179.77 88.5H177.298ZM185.45 88.692C183.386 88.692 181.874 87.396 181.874 84.924V78.108H179.81V76.404H181.874V73.332H183.914V76.404H186.986V78.108H183.914V84.756C183.914 86.172 184.634 86.868 185.69 86.868C186.146 86.868 186.65 86.772 187.058 86.628V88.38C186.602 88.596 186.002 88.692 185.45 88.692Z" fill="#0B0132"/>
<path d="M144 574C144 560.745 154.745 550 168 550H592C605.255 550 616 560.745 616 574V784H144V574Z" fill="white"/>
<path d="M664 574C664 560.745 674.745 550 688 550H1112C1125.25 550 1136 560.745 1136 574V784H664V574Z" fill="white"/>
<path d="M48 136C48 122.745 58.7452 112 72 112H1208C1221.25 112 1232 122.745 1232 136V512H48V136Z" fill="#F6F4FF"/>
<g filter="url(#filter0_d_15_1075)">
<path d="M738 492C738 485.373 743.373 480 750 480H1196C1202.63 480 1208 485.373 1208 492V748C1208 754.627 1202.63 760 1196 760H750C743.373 760 738 754.627 738 748V492Z" fill="white"/>
<path fill-rule="evenodd" clip-rule="evenodd" d="M1187.28 500.72C1187.57 501.013 1187.57 501.487 1187.28 501.78L1173.78 515.28C1173.49 515.573 1173.01 515.573 1172.72 515.28C1172.43 514.987 1172.43 514.513 1172.72 514.22L1186.22 500.72C1186.51 500.427 1186.99 500.427 1187.28 500.72Z" fill="#0A0132"/>
<path fill-rule="evenodd" clip-rule="evenodd" d="M1172.72 500.72C1173.01 500.427 1173.49 500.427 1173.78 500.72L1187.28 514.22C1187.57 514.513 1187.57 514.987 1187.28 515.28C1186.99 515.573 1186.51 515.573 1186.22 515.28L1172.72 501.78C1172.43 501.487 1172.43 501.013 1172.72 500.72Z" fill="#0A0132"/>
<path d="M762 537H1184C1190.08 537 1195 541.925 1195 548V692C1195 698.075 1190.08 703 1184 703H762C755.925 703 751 698.075 751 692V548L751.015 547.434C751.309 541.622 756.115 537 762 537Z" fill="white"/>
<path d="M762 537H1184C1190.08 537 1195 541.925 1195 548V692C1195 698.075 1190.08 703 1184 703H762C755.925 703 751 698.075 751 692V548L751.015 547.434C751.309 541.622 756.115 537 762 537Z" stroke="#767676" stroke-width="2"/>
<path d="M1057 720C1057 717.791 1058.79 716 1061 716H1192C1194.21 716 1196 717.791 1196 720V744C1196 746.209 1194.21 748 1192 748H1061C1058.79 748 1057 746.209 1057 744V720Z" fill="#7351FB"/>
<path d="M1069.85 738.128C1067.48 738.128 1065.74 736.8 1065.54 734.288H1066.97C1067.13 736.016 1068.31 736.864 1069.85 736.864C1071.27 736.864 1072.28 736.128 1072.28 735.024C1072.28 732.016 1065.88 733.616 1065.88 729.632C1065.88 727.84 1067.43 726.672 1069.56 726.672C1071.85 726.672 1073.29 727.872 1073.56 729.872H1072.12C1071.9 728.64 1070.94 727.936 1069.56 727.936C1068.2 727.936 1067.35 728.576 1067.35 729.584C1067.35 732.176 1073.75 730.608 1073.75 734.944C1073.75 736.864 1072.12 738.128 1069.85 738.128ZM1078.33 738.128C1076.63 738.128 1075.35 737.072 1075.35 735.072V729.936H1076.71V734.912C1076.71 736.208 1077.45 736.928 1078.58 736.928C1080.18 736.928 1081.18 735.552 1081.18 733.392V729.936H1082.55V738H1081.18V736.544C1080.66 737.472 1079.66 738.128 1078.33 738.128ZM1088.89 738.128C1087.7 738.128 1086.57 737.552 1086.1 736.672V738H1084.73V726.672H1086.1V731.248C1086.57 730.368 1087.69 729.808 1088.89 729.808C1091.3 729.808 1092.9 731.472 1092.9 733.968C1092.9 736.464 1091.3 738.128 1088.89 738.128ZM1086.1 733.968C1086.1 735.712 1087.22 736.944 1088.81 736.944C1090.36 736.944 1091.51 735.728 1091.51 733.968C1091.51 732.208 1090.36 730.992 1088.81 730.992C1087.22 730.992 1086.1 732.208 1086.1 733.968ZM1103.93 729.808C1105.63 729.808 1106.8 730.928 1106.8 732.64V738H1105.44V732.944C1105.44 731.76 1104.8 731.008 1103.71 731.008C1102.27 731.008 1101.36 732.384 1101.36 734.064V738H1100V732.944C1100 731.76 1099.37 731.008 1098.28 731.008C1096.83 731.008 1095.93 732.384 1095.93 734.064V738H1094.57V729.936H1095.93V731.328C1096.4 730.512 1097.31 729.808 1098.54 729.808C1099.84 729.808 1100.81 730.512 1101.12 731.536C1101.72 730.512 1102.72 729.808 1103.93 729.808ZM1108.85 738V729.936H1110.23V738H1108.85ZM1108.6 727.456C1108.6 726.928 1109 726.544 1109.53 726.544C1110.07 726.544 1110.47 726.928 1110.47 727.456C1110.47 727.984 1110.07 728.368 1109.53 728.368C1109 728.368 1108.6 727.984 1108.6 727.456ZM1115.22 738.128C1113.84 738.128 1112.83 737.264 1112.83 735.616V731.072H1111.46V729.936H1112.83V727.888H1114.19V729.936H1116.24V731.072H1114.19V735.504C1114.19 736.448 1114.67 736.912 1115.38 736.912C1115.68 736.912 1116.02 736.848 1116.29 736.752V737.92C1115.98 738.064 1115.58 738.128 1115.22 738.128ZM1121.71 729.008C1121.71 727.312 1122.72 726.448 1124.11 726.448C1124.48 726.448 1124.88 726.512 1125.13 726.624V727.84C1124.88 727.712 1124.56 727.648 1124.27 727.648C1123.55 727.648 1123.09 728.128 1123.09 729.072V729.936H1125.13V731.072H1123.09V738H1121.71V731.072H1120.35V729.936H1121.71V729.008ZM1129.56 738.128C1127.18 738.128 1125.51 736.4 1125.51 733.968C1125.51 731.536 1127.18 729.808 1129.47 729.808C1131.93 729.808 1133.47 731.728 1133.16 734.144H1126.91C1126.97 735.856 1127.99 736.944 1129.51 736.944C1130.68 736.944 1131.45 736.352 1131.71 735.424H1133.08C1132.79 736.992 1131.42 738.128 1129.56 738.128ZM1126.99 733.056H1131.77C1131.77 731.776 1130.83 730.976 1129.47 730.976C1128.15 730.976 1127.26 731.712 1126.99 733.056ZM1138.41 738.128C1136.02 738.128 1134.36 736.4 1134.36 733.968C1134.36 731.536 1136.02 729.808 1138.31 729.808C1140.77 729.808 1142.31 731.728 1142.01 734.144H1135.75C1135.81 735.856 1136.84 736.944 1138.36 736.944C1139.53 736.944 1140.29 736.352 1140.55 735.424H1141.93C1141.64 736.992 1140.26 738.128 1138.41 738.128ZM1135.83 733.056H1140.61C1140.61 731.776 1139.67 730.976 1138.31 730.976C1137 730.976 1136.1 731.712 1135.83 733.056ZM1147.22 738.128C1144.8 738.128 1143.2 736.464 1143.2 733.968C1143.2 731.472 1144.8 729.808 1147.22 729.808C1148.42 729.808 1149.52 730.368 1150 731.248V726.672H1151.38V738H1150V736.672C1149.52 737.552 1148.4 738.128 1147.22 738.128ZM1144.59 733.968C1144.59 735.728 1145.75 736.944 1147.3 736.944C1148.88 736.944 1150 735.712 1150 733.968C1150 732.208 1148.88 730.992 1147.3 730.992C1145.75 730.992 1144.59 732.208 1144.59 733.968ZM1157.72 738.128C1156.53 738.128 1155.4 737.552 1154.93 736.672V738H1153.56V726.672H1154.93V731.248C1155.4 730.368 1156.52 729.808 1157.72 729.808C1160.13 729.808 1161.73 731.472 1161.73 733.968C1161.73 736.464 1160.13 738.128 1157.72 738.128ZM1154.93 733.968C1154.93 735.712 1156.05 736.944 1157.64 736.944C1159.19 736.944 1160.34 735.728 1160.34 733.968C1160.34 732.208 1159.19 730.992 1157.64 730.992C1156.05 730.992 1154.93 732.208 1154.93 733.968ZM1165.86 738.128C1164.12 738.128 1163.02 737.232 1163.02 735.824C1163.02 734.208 1164.15 733.392 1166.71 733.136L1168.44 732.96V732.672C1168.44 731.6 1167.66 730.976 1166.49 730.976C1165.37 730.976 1164.63 731.552 1164.47 732.672H1163.1C1163.32 731.136 1164.5 729.808 1166.49 729.808C1168.42 729.808 1169.82 730.944 1169.82 732.816V738H1168.44V736.656C1168.12 737.424 1167.03 738.128 1165.86 738.128ZM1164.41 735.776C1164.41 736.512 1165.02 736.96 1165.99 736.96C1167.43 736.96 1168.44 735.824 1168.44 734.4V734.016L1166.79 734.208C1165.11 734.4 1164.41 734.8 1164.41 735.776ZM1175.34 738.128C1173.04 738.128 1171.36 736.352 1171.36 733.968C1171.36 731.568 1173.04 729.808 1175.34 729.808C1177.36 729.808 1178.7 730.96 1178.96 732.624H1177.58C1177.36 731.632 1176.49 731.008 1175.34 731.008C1173.87 731.008 1172.75 732.224 1172.75 733.968C1172.75 735.696 1173.87 736.928 1175.34 736.928C1176.59 736.928 1177.49 736.224 1177.65 735.2H1179.02C1178.8 736.832 1177.36 738.128 1175.34 738.128ZM1186.17 738L1183.12 733.952L1181.93 735.04V738H1180.56V726.672H1181.93V733.264L1185.69 729.936H1187.53L1184.14 733.024L1187.82 738H1186.17Z" fill="white"/>
</g>
</g>
<rect x="48.5" y="48.5" width="1183" height="735" stroke="#DEDEDE"/>
<defs>
<filter id="filter0_d_15_1075" x="726" y="472" width="494" height="304" filterUnits="userSpaceOnUse" color-interpolation-filters="sRGB">
<feFlood flood-opacity="0" result="BackgroundImageFix"/>
<feColorMatrix in="SourceAlpha" type="matrix" values="0 0 0 0 0 0 0 0 0 0 0 0 0 0 0 0 0 0 127 0" result="hardAlpha"/>
<feOffset dy="4"/>
<feGaussianBlur stdDeviation="6"/>
<feComposite in2="hardAlpha" operator="out"/>
<feColorMatrix type="matrix" values="0 0 0 0 0 0 0 0 0 0 0 0 0 0 0 0 0 0 0.1 0"/>
<feBlend mode="normal" in2="BackgroundImageFix" result="effect1_dropShadow_15_1075"/>
<feBlend mode="normal" in="SourceGraphic" in2="effect1_dropShadow_15_1075" result="shape"/>
</filter>
<clipPath id="clip0_15_1075">
<rect x="48" y="48" width="1184" height="736" fill="white"/>
</clipPath>
<clipPath id="clip1_15_1075">
<rect width="44" height="28" fill="white" transform="translate(96 66)"/>
</clipPath>
</defs>
</svg>
